<?xml version="1.0" standalone="no"?>
<!DOCTYPE svg PUBLIC "-//W3C//DTD SVG 1.1//EN" "http://www.w3.org/Graphics/SVG/1.1/DTD/svg11.dtd" >
<svg>
<metadata>
Created by FontForge 20090622 at Sun Aug 26 07:26:43 2018
 By deploy user
Copyright (c) 2015 by Roland Huse. All rights reserved.
</metadata>
<defs>
<font id="BiloxiScript" horiz-adv-x="833" >
  <font-face 
    font-family="Biloxi Script"
    font-weight="400"
    font-stretch="normal"
    units-per-em="1000"
    panose-1="2 0 0 0 0 0 0 0 0 0"
    ascent="800"
    descent="-200"
    x-height="178"
    cap-height="645"
    bbox="-582.533 -436.125 1356.54 884.909"
    underline-thickness="50"
    underline-position="-50"
    unicode-range="U+0020-U+2122"
  />
<missing-glyph horiz-adv-x="301" 
 />
    <glyph glyph-name="tt" unicode="tt" horiz-adv-x="528" 
d="M913 364q5 0 5 -7t-5 -7q-132 -9 -262.5 -21l-259.5 -25l-20.5 -65l-21.5 -71l-9.5 -37.5t-7 -41.5t4 -35.5t22.5 -20.5q8 -2 19 -0.5t22.5 5.5t23 9.5t19.5 10.5q40 25 82 57t77 62q10 5 10.5 -2t-4.5 -12l-23.5 -24l-28.5 -28.5t-30.5 -28t-27.5 -20.5
q-12 -10 -34 -24.5t-46.5 -25.5t-49 -14t-41.5 9q-23 19 -24.5 53.5t5.5 67.5l-39 -37.5t-36 -28.5q-12 -10 -34 -24.5t-46.5 -25.5t-49 -14t-41.5 9q-15 12 -20.5 31.5t-4.5 41.5t5.5 44t10.5 40l10.5 38t9 28.5l8.5 23t7 21.5q-40 -3 -71 -5t-58 -2.5t-52.5 0.5t-55.5 4
q-16 1 -15 7t15 6q31 -1 59 -0.5t56.5 2t59.5 4.5t68 6l9 31t9 25q1 6 7 11t12 7t10.5 0.5t3.5 -8.5q-2 -14 -8.5 -28.5t-13.5 -36.5l108 9.5l104 9.5q8 1 15.5 1.5t15.5 1.5l10.5 32l10 29.5l8 23.5t5.5 14q1 6 7 11t12 7t10.5 0.5t3.5 -8.5q-1 -5 -4.5 -16l-8.5 -25.5
l-10.5 -31.5t-11.5 -33l257.5 27.5t257.5 13.5zM318 168q10 35 20.5 66.5l21.5 66.5q-10 -2 -19 -2.5t-19 -1.5l-101.5 -9.5l-101.5 -9.5q-3 -10 -6.5 -20l-7.5 -22.5l-9.5 -28.5t-11.5 -39l-9.5 -37.5t-7 -41.5t4 -35.5t22.5 -20.5q8 -2 19 -0.5t22.5 5.5t23 9.5t19.5 10.5
q17 10 40 25.5l44.5 31t37 30t18.5 23.5z" />
    <glyph glyph-name="ll" unicode="ll" horiz-adv-x="825" 
d="M324 453q-11 6 -29.5 0.5t-38.5 -17t-39 -26.5t-31 -28q-24 -28 -46.5 -64.5t-33.5 -75.5t-6 -76.5t36 -65.5q24 -22 58 -24t71.5 9t75.5 32t70 45q-4 26 0 52.5t12 47.5q6 19 17.5 41.5t26 44.5t30 42t30.5 34q10 10 30.5 27.5t45.5 33t52 26.5t52 10q24 -2 29 -16
t0 -34q-11 -41 -44.5 -87t-77.5 -90.5t-90.5 -82.5t-82.5 -63q7 -25 24 -40t37.5 -23t42 -10.5t39.5 -2.5q45 -1 87.5 7t81.5 22t73.5 33t62.5 40q3 3 8 4.5t9 1.5t5 -2.5t-3 -7.5q-14 -17 -40.5 -36.5t-56.5 -33.5q-38 -17 -69 -28t-58 -17.5t-51.5 -9t-48.5 -2.5
q-44 1 -85.5 14t-64.5 46q-10 14 -15 28q-32 -24 -77 -46t-91 -30.5t-88 1t-69 47.5q-13 19 -18.5 40.5t-5.5 42t3.5 40t9.5 36.5q13 39 36.5 77.5t53.5 67.5q10 10 26 24t36 25.5t43 19t48 6.5q24 -2 32.5 -18t3.5 -36q-4 -14 -17.5 -37.5t-35 -50.5t-49.5 -54.5t-60 -50.5
q-17 -12 -29 -10.5t-3 9.5q40 34 72.5 71t53.5 68.5t29 53.5t1 26zM705 492q-11 6 -34 -4t-49 -26.5t-49.5 -36t-35.5 -32.5q-47 -54 -73 -107t-28 -106l38.5 28t33 26t30.5 27t32 32q26 28 52.5 62t47 63t31 50t4.5 24z" />
    <glyph glyph-name=".notdef" horiz-adv-x="301" 
 />
    <glyph glyph-name=".null" horiz-adv-x="0" 
 />
    <glyph glyph-name="nonmarkingreturn" horiz-adv-x="301" 
 />
    <glyph glyph-name="space" unicode=" " horiz-adv-x="454" 
 />
    <glyph glyph-name="space" unicode="&#xa0;" horiz-adv-x="454" 
 />
    <glyph glyph-name="k" unicode="k" horiz-adv-x="363" 
d="M258 441q10 4 11 -1.5t-3 -7.5q-23 -19 -39.5 -37.5t-30 -38t-25.5 -41.5t-25 -49q-20 -39 -33.5 -88.5t-24.5 -94.5l7 -8q3 0 2 -6t-6.5 -11t-15 -7t-22.5 6q9 61 30.5 124t50.5 116t61.5 92t62.5 52zM505 -2q6 0 7.5 -2.5t1 -6t-3 -6t-5.5 -2.5q-51 3 -106 13.5
t-106.5 29t-98 46t-81.5 65.5q-7 5 -2.5 12t10.5 12q52 32 108 63t114 57q6 0 6.5 -10.5t-10.5 -13.5q-27 -11 -50.5 -22.5t-46.5 -25t-46 -29.5t-49 -36q35 -32 78.5 -55t90.5 -39.5t95.5 -28z" />
    <glyph glyph-name="r" unicode="r" horiz-adv-x="292" 
d="M372 179q6 -3 6 -7t-3.5 -7t-9.5 -4t-12 1q-24 9 -41 13.5t-31 5.5t-25.5 -1t-23.5 -6q-30 -11 -51.5 -28.5t-38.5 -38.5t-30.5 -44t-27.5 -44q-8 -7 -13.5 -6t-5.5 15v47.5t-0.5 35.5t-1.5 30t-2 31q0 4 4 7t9.5 3.5t10 -2.5t4.5 -12v-20.5t-0.5 -27t-0.5 -29.5v-27
q22 48 53.5 81.5t69 49t78.5 12t83 -27.5z" />
    <glyph glyph-name="o" unicode="o" horiz-adv-x="352" 
d="M424 178q8 3 10.5 -1.5t2 -10.5t-4 -11.5t-8.5 -6.5q-42 -9 -83 -13t-78.5 -5t-69.5 0t-55 2q14 -14 29.5 -37.5t21.5 -47.5q4 -23 -13 -28q-26 -3 -48.5 6t-37.5 27t-22 43t-1 53q3 16 9 27t11 12q12 0 9 -20q-3 -21 -1 -41t9 -36.5t19 -28t29 -15.5q2 16 -10.5 39
t-35.5 46q-4 2 -4.5 7t1.5 10t5 8.5t6 3.5q71 -7 150 -7t160 25z" />
    <glyph glyph-name="w" unicode="w" horiz-adv-x="581" 
d="M489 204q-3 4 -2.5 9.5t3.5 9t8 4t10 -3.5q13 -11 25 -35.5t14.5 -52.5t-9 -55.5t-45.5 -43.5q-28 -13 -58.5 -10.5t-59 16t-53 36.5t-40.5 52l-31.5 -35.5t-35.5 -34t-41 -26t-46 -11.5q-27 -2 -41 15t-19 41.5t-3 51.5t6 44q0 4 3 7t6 3.5t6 -1.5t3 -9q0 -10 -0.5 -34
t4.5 -47t18 -37t41 -4q17 7 33.5 19t32 26.5t30 30l28.5 29.5q6 6 16 5.5t13 -8.5q11 -20 30 -42.5t42.5 -39.5t49.5 -23.5t52 6.5q23 11 30.5 31t6 42t-9.5 42.5t-17 32.5z" />
    <glyph glyph-name="n" unicode="n" horiz-adv-x="370" 
d="M331 88q4 -9 0.5 -13t-10.5 -4.5t-14 2t-8 7.5q-7 15 -11 30.5t-6.5 31.5t-4.5 31t-5 27q-5 23 -30 6q-18 -12 -39 -30.5t-43.5 -41.5t-45.5 -49.5t-44 -53.5q-11 -8 -17.5 1t-4.5 17q3 19 5 34t4.5 29.5t5 31l5.5 37.5q0 3 3.5 6t8 4t7.5 -1t3 -9q-2 -20 -3.5 -43.5
l-3.5 -56.5q13 19 32.5 42.5t41 45.5t44 40t42.5 28q19 8 34 6t21 -20q4 -14 6.5 -30l5 -33.5t7 -35.5t14.5 -36z" />
    <glyph glyph-name="F" unicode="F" horiz-adv-x="283" 
d="M812 519q6 0 6 -9.5t-6 -9.5l-299.5 14l-299.5 14l-16.5 -67t-13.5 -60q102 -7 202.5 -2.5t201.5 11.5q13 0 10 -9t-10 -9q-101 -13 -203.5 -17t-204.5 -4l-10 -50.5t-11.5 -65l-11.5 -70t-10.5 -66.5t-7.5 -54.5t-4 -32.5q-1 -8 -4.5 -14.5t-8 -10t-8 -2.5t-3.5 8
q0 6 2.5 30t7 57.5l10 73.5l11 78l10 70.5l7.5 52.5q-42 0 -82.5 1t-88.5 8q-7 3 -7.5 9t3 11.5t9.5 10t13 4.5q41 -7 80.5 -12.5t80.5 -5.5q7 35 13.5 63.5t13.5 62.5h-323q-7 0 -9 4t-1 9.5t4 9.5t6 4q244 0 479 -7.5t473 -27.5z" />
    <glyph glyph-name="x" unicode="x" horiz-adv-x="257" 
d="M255 42q3 -2 1 -5.5t-6 -5.5t-9 -2.5t-8 2.5l-32.5 25t-26.5 21l-140 -108l-141 -101q-2 -2 -5 -2t-5.5 1.5t-2.5 4t4 5.5q62 62 132.5 113l139.5 106q-21 20 -41 34.5l-40 28.5q-3 1 -4 5.5t0 8t4 5.5t9 -1q28 -11 54.5 -30.5l44.5 -33.5l24 18l22 17q4 3 7 1.5t4 -5
t0.5 -7.5t-2.5 -6q-10 -11 -20 -20l-17 -15l28 -26.5t26 -27.5z" />
    <glyph glyph-name="m" unicode="m" horiz-adv-x="572" 
d="M564 89q4 -7 1 -13.5t-10 -10.5t-15 -3.5t-13 8.5q-17 25 -36 37.5t-39 1.5q-41 -22 -78 -44t-66 -35q-8 -3 -17.5 -2.5t-20 9t-22.5 27.5t-24 52q-21 -7 -39 -15t-35.5 -18.5l-36.5 -23l-42 -28.5q-11 -8 -17.5 1t-4.5 17l5.5 33.5l5 28.5t5 29.5t5.5 36.5q0 3 3.5 6
t8 4t8 -1t2.5 -9q-4 -29 -7 -53.5l-8 -62.5q29 25 67.5 48.5t80.5 37.5q12 4 17 1q3 -2 5 -4q7 -35 18 -51t22 -21.5t20 -3.5t13 4q15 6 33.5 16l37.5 20.5l36.5 20t31.5 14.5q7 2 20.5 2t28.5 -6q19 -10 31.5 -20.5t24.5 -29.5z" />
    <glyph glyph-name="p" unicode="p" horiz-adv-x="394" 
d="M406 148q4 -11 2.5 -23.5t-6.5 -25t-12.5 -23.5t-14.5 -18q-21 -18 -47.5 -24t-51.5 -1.5t-44.5 19.5t-26.5 38q-16 -17 -27.5 -31.5t-20.5 -28t-17.5 -28.5l-18.5 -33l-16 -36t-12 -31l-10 -31l-11 -36q-3 -7 -8 -8t-10.5 2t-9 9.5t-1.5 14.5q6 36 9.5 79.5t6 87.5l5 84
t5.5 69q0 8 9.5 8t9.5 -8q0 -42 -0.5 -98.5t-4.5 -116.5q12 27 24 49t25 41.5t28.5 38t34.5 38.5q5 10 9 16q4 5 8 6t9 -7q23 14 46 22.5t52 14.5q35 7 56.5 -1.5t30.5 -27.5zM378 119q2 11 -3.5 18.5t-16 11.5t-26 4t-32.5 -5q-21 -5 -40.5 -14.5t-33.5 -23.5
q6 -23 24.5 -37t49.5 -14q26 3 48 20t30 40z" />
    <glyph glyph-name="a" unicode="a" horiz-adv-x="268" 
d="M269 197q2 -4 0 -8.5t-6.5 -7.5t-10 -4.5t-8.5 1.5q-14 11 -33.5 15.5t-46.5 -1.5q-26 -6 -49 -21.5t-39 -33t-21.5 -32t4.5 -17.5q14 -5 33 -2.5t37.5 9t33 14.5t20.5 15q12 14 22 14t12 -6q2 -14 3.5 -27.5t1.5 -24.5q0 -5 -8 -11t-16 3q-5 5 -7 13t-2 13
q-6 -6 -21.5 -13.5t-35.5 -13t-41 -9t-37 -1.5q-14 2 -24 8.5t-9 17.5q1 18 13.5 39.5t32.5 42t46.5 36t56.5 21.5q35 7 58 1t41 -30z" />
    <glyph glyph-name="b" unicode="b" horiz-adv-x="454" 
d="M526 173q9 3 11.5 0t2 -8t-4 -11t-7.5 -7q-16 -6 -37.5 -12t-43.5 -11.5t-42.5 -9t-34.5 -5.5q7 -31 -2 -49.5t-26 -28.5t-39 -12.5t-40 -1.5q-33 2 -65 12.5t-59 29.5t-47.5 47t-30.5 64q-14 47 -8.5 94.5t20.5 85.5q4 10 11.5 22t17.5 21t22 10.5t24 -9.5
q8 -8 16.5 -21.5t16 -29.5t13.5 -32.5t10 -29.5q11 -38 17 -83t6 -85q0 -3 -2.5 -6t-6 -3.5t-6 1.5t-2.5 8q0 27 -3.5 58.5t-11 64t-19.5 62.5t-28 53q-5 7 -9 11t-8.5 6t-8.5 0q-15 -8 -24.5 -33t-14 -54.5t-3.5 -59t7 -46.5q23 -60 67 -89.5t91 -37.5q13 -2 33.5 -2.5
t36 4t20.5 15.5t-11 31q-3 6 -2 12.5t4.5 11t8 8t7.5 3.5q15 2 36.5 5.5t46.5 8.5t51.5 12t49.5 16z" />
    <glyph glyph-name="e" unicode="e" horiz-adv-x="410" 
d="M488 173q5 6 6.5 -2.5t-6.5 -13.5q-57 -37 -115 -62.5t-98 -39.5q-21 -7 -49 -13.5t-56.5 -7.5t-54.5 6t-44 28t-19.5 49t9.5 54.5t31.5 46t47.5 22.5q18 1 29 -3t16.5 -10.5t5.5 -15t-3 -15.5q-5 -10 -15.5 -18t-24 -12.5t-29 -3.5t-29.5 10q-8 -15 -10.5 -31t4.5 -30
q7 -16 20.5 -25.5t30 -14.5t34.5 -5.5t36 2.5q72 11 144.5 40.5t138.5 64.5zM126 210q-15 -8 -25 -20q14 -7 29 -6.5t20 10.5q8 11 1 19.5t-25 -3.5z" />
    <glyph glyph-name="v" unicode="v" horiz-adv-x="372" 
d="M450 179q6 0 6.5 -6.5t-14.5 -9.5q-9 -2 -35.5 -2t-63 -1t-79 -4.5t-82.5 -13.5l10 -66t6 -76q0 -6 -9 -10t-15 2q-28 22 -47.5 47t-33 49t-22 45t-13.5 35q0 3 4 5.5t9.5 4t10 1t6.5 -4.5l9.5 -26t14 -33.5t21.5 -39.5t33 -43q0 29 -1.5 56.5t-6.5 53.5q-2 14 8 24
q38 10 83 14t85.5 5t72 -1t43.5 -5z" />
    <glyph glyph-name="s" unicode="s" horiz-adv-x="207" 
d="M109 241q8 0 8 -6q0 -5 -4.5 -6.5t-9.5 -4t-9.5 -7t-4.5 -14.5q0 -15 6.5 -33t17.5 -38.5t25 -44l28 -48.5q6 -14 6 -23q0 -19 -17 -25.5t-34 -6.5q-23 0 -50 8.5t-51 25.5q-2 1 -2 4q0 6 10 13.5t17 7.5q3 0 4 -1l34 -17.5t33 -9.5q10 0 10 6q0 1 -0.5 2t-0.5 2
q-11 28 -22.5 49l-21 38.5t-15.5 34t-6 36.5q0 29 14 43.5t35 14.5z" />
    <glyph glyph-name="c" unicode="c" horiz-adv-x="341" 
d="M274 70q6 2 8.5 0t3.5 -5.5t-0.5 -7t-3.5 -4.5q-19 -10 -34.5 -17t-30.5 -12t-32 -8t-39 -4q-11 -1 -27.5 0.5t-33.5 5.5t-31.5 10.5t-22.5 15.5q-12 12 -13 28.5t5 33.5t18 32t25 25q29 25 70.5 40t89.5 18t98 -7.5t97 -35.5q10 -5 4 -11.5t-13 -3.5q-48 19 -98.5 25.5
t-96 2t-82.5 -18.5t-59 -35q-26 -25 -26 -52t32 -38q50 -13 95.5 -5t96.5 28z" />
    <glyph glyph-name="d" unicode="d" horiz-adv-x="450" 
d="M431 425l-10.5 -43.5t-7.5 -39t-5 -39t-4 -43.5q-4 -48 1.5 -98t19.5 -112q1 -5 -2.5 -8.5t-8.5 -5.5t-10 -1t-8 7q-6 13 -11 37.5t-8.5 52.5t-5 56t-0.5 48q-19 -45 -41 -76.5t-46 -54t-50 -37.5t-54 -27q-57 -23 -92.5 -22t-53.5 11q-17 9 -24 24.5t-5 34.5
q2 20 18.5 40.5t42 37.5t57.5 30.5t63.5 20.5t61 5.5t50.5 -13.5q8 -5 1 -11.5t-17 -4.5q-12 3 -33 4t-47 -2t-54.5 -12t-55.5 -27q-31 -20 -47 -43t-8 -42q4 -9 14 -16.5t29 -8.5t48.5 6t71.5 27q28 13 49 29.5t38.5 37.5t31.5 46.5t29 57.5q18 42 29.5 87l22.5 87
q1 6 7 10t12 4t10 -3.5t2 -10.5z" />
    <glyph glyph-name="f" unicode="f" horiz-adv-x="311" 
d="M424 458q18 -18 29 -41t16.5 -48.5t6 -52t-3.5 -51.5q0 -8 -9.5 -8t-9.5 8q3 25 2.5 53t-7.5 54t-22.5 48.5t-40.5 37.5q-36 22 -77 19.5t-77 -38.5q-22 -22 -37 -50t-25 -60t-16 -65.5t-9 -66.5q66 0 129.5 -5.5t121.5 -13.5q7 0 7 -9.5t-7 -9.5q-66 7 -125.5 8
t-125.5 1q36 -18 67.5 -45t50 -60t20.5 -70t-22 -76q-9 -14 -20 -18t-23 -1t-23.5 11t-20.5 18q-14 15 -25 31.5t-19 37.5t-12.5 48.5t-5.5 64.5v54q-14 7 -27 11t-37 4h-38q-5 0 -5.5 4.5t2.5 10t8.5 10t13.5 4.5h87q7 36 16.5 76t24 77t35 68t49.5 49q22 15 46.5 20.5
t49 2.5t47.5 -13.5t41 -28.5zM260 -44q7 27 -0.5 55t-25 53.5t-41.5 47.5t-49 37q-8 -44 -3.5 -81t22.5 -74q6 -11 17.5 -30t25.5 -31t28.5 -9.5t25.5 32.5z" />
    <glyph glyph-name="g" unicode="g" horiz-adv-x="431" 
d="M504 179q9 -1 11.5 -5t-1 -8t-13 -7t-24.5 -2q-29 2 -54 3t-50 0t-50 -5t-54 -13q10 -61 0 -123t-38 -116q-20 -39 -48.5 -76t-63.5 -66.5t-76 -49.5t-86 -24q-13 -3 -31.5 -3t-37 3.5t-34.5 11.5t-24 22q-15 26 -10.5 59t16.5 60q17 43 44 78.5t60 66t71 57l76 50.5
q-9 -5 -18 -5.5t-15 1.5q-4 1 -9 6.5t-7 13.5q-4 21 4.5 40t27.5 32.5t48 19.5t65 2q3 0 3 -4t-3 -8.5t-8.5 -7.5t-14.5 -3q-18 1 -36 -3.5t-31.5 -13t-21 -21t-4.5 -28.5q26 -2 47.5 7t40 23t37 31t38.5 31q8 5 14 2t9 -7q4 -5 6.5 -12.5t4.5 -21.5q62 19 118 19.5
t122 -6.5zM239 178q-13 -11 -29.5 -23t-29.5 -20q17 5 32.5 12t32.5 12q0 5 -2.5 10.5t-3.5 8.5zM141 -184q61 66 90.5 148.5t19.5 170.5q-29 -9 -54.5 -19.5t-50 -23t-50.5 -27.5l-56 -34q-21 -13 -40.5 -29.5t-36.5 -34.5t-31.5 -36t-25.5 -34q-10 -14 -19.5 -30t-17 -33
t-11 -34.5t-1.5 -33.5q0 -23 11 -34t27.5 -15.5t36 -3.5t35.5 3q51 11 95 34.5t79 65.5z" />
    <glyph glyph-name="h" unicode="h" horiz-adv-x="522" 
d="M534 54q4 -6 0 -10t-12.5 -5t-18.5 2t-16 11l-28 37t-40.5 37.5t-59.5 23.5t-85 -5q-22 -6 -47.5 -18.5t-52 -28.5t-51.5 -33.5l-46 -33.5q-11 -8 -17.5 1t-4.5 17q2 13 6.5 47.5t11 79.5l14 96l14 97l11.5 81.5l7 49.5q1 7 7.5 12.5t13 7.5t11.5 0.5t4 -8.5
q-1 -10 -6.5 -43l-12.5 -78l-15.5 -96.5l-16 -97.5l-13 -81.5t-6.5 -47.5q16 15 40.5 32.5t52 33t56.5 27.5t54 16q52 10 92.5 -2t70.5 -34t50.5 -47z" />
    <glyph glyph-name="q" unicode="q" horiz-adv-x="684" 
d="M761 181q6 0 7 -3t-1.5 -6.5t-6 -7t-6.5 -3.5q-40 0 -77 -6.5t-73 -20.5t-72 -35t-75 -50l-45.5 -41t-43 -47t-38 -58t-30.5 -73q-5 -10 -16.5 -8.5t-11.5 11.5q21 84 34.5 175t33.5 183l-44 -34.5l-33 -26t-28 -20.5t-28 -18q-37 -22 -79.5 -35.5t-77.5 0.5
q-18 10 -24 25.5t-2 32t16.5 32t31.5 26.5q22 13 47 19t48.5 6.5t44.5 -3.5t36 -12q5 -2 5.5 -5t-1.5 -5.5t-5 -3.5t-6 1q-14 5 -33.5 7.5t-41 2t-42.5 -6t-38 -15.5q-18 -11 -26 -26.5t-5.5 -28.5t15 -20.5t35.5 -2.5q44 9 76.5 26t68.5 43l46.5 37.5l54.5 46.5
q5 5 11 -0.5t4 -15.5q-5 -27 -9.5 -59.5l-9 -66t-9.5 -67t-10 -62.5q30 32 58 57l58 50q30 24 68.5 46t80.5 38.5t85 24.5t83 3z" />
    <glyph glyph-name="t" unicode="t" horiz-adv-x="262" 
d="M912 364q5 0 5 -7t-5 -7q-150 -10 -297.5 -24l-293.5 -29l-101.5 -9.5l-101.5 -9.5q-3 -10 -6.5 -20l-7.5 -22.5l-9.5 -28.5t-11.5 -39l-9.5 -37.5t-7 -41.5t4 -35.5t22.5 -20.5q8 -2 19 -0.5t22.5 5.5t23 9.5t19.5 10.5q40 25 82 57t77 62q10 5 10.5 -2t-4.5 -12
l-23.5 -24l-28.5 -28.5t-30.5 -28t-27.5 -20.5q-12 -10 -34 -24.5t-46.5 -25.5t-49 -14t-41.5 9q-15 12 -20.5 31.5t-4.5 41.5t5.5 44t10.5 40l10.5 38t9 28.5l8.5 23t7 21.5q-40 -3 -71 -5t-58 -2.5t-52.5 0.5t-55.5 4q-16 1 -15 7t15 6q31 -1 59 -0.5t56.5 2t59.5 4.5
t68 6l9 31t9 25q1 6 7 11t12 7t10.5 0.5t3.5 -8.5q-2 -14 -8.5 -28.5t-13.5 -36.5l108 9.5l104 9.5l289 31t289 16z" />
    <glyph glyph-name="y" unicode="y" horiz-adv-x="540" 
d="M620 178q5 0 5 -4q0 -3 -2.5 -7.5t-7.5 -6.5l-119 -29t-107 -36q9 -33 9 -72q0 -46 -13.5 -96t-42 -92t-73.5 -69.5t-108 -27.5q-46 0 -77 23t-31 77q0 37 18 70t45.5 60t60.5 49t62 37q11 6 25.5 13l29.5 14.5l30 14.5t27 12q-12 26 -30 38.5t-41 12.5
q-31 0 -58.5 -19.5t-54.5 -43.5t-54 -43.5t-57 -19.5q-5 1 -9 4q-9 5 -9 22q0 12 2.5 33.5t7 42.5t10.5 36.5t13 15.5q5 0 11.5 -3.5t4.5 -11.5q-4 -20 -12.5 -50.5t-8.5 -62.5q28 13 53 34.5l50.5 42.5t53.5 36t62 15q32 0 56 -21t37 -47q30 12 58 21t57 15.5t59.5 12
t64.5 10.5h3zM265 -207q28 18 49 42t34 52.5t19.5 59t6.5 61.5q0 20 -2.5 39.5t-7.5 37.5q-65 -25 -117 -56.5t-94 -72.5q-9 -9 -19.5 -22t-19.5 -28.5t-15 -32.5t-6 -33q0 -19 8.5 -32.5t22 -22t29.5 -12.5t32 -4q44 0 80 24z" />
    <glyph glyph-name="z" unicode="z" horiz-adv-x="362" 
d="M438 178q9 5 8.5 -4t-11.5 -15q-66 -44 -131.5 -73t-121.5 -44t-99.5 -15t-65.5 15q-3 2 -4 5q-2 6 4 15q15 15 34 28.5t38.5 26l37.5 24t32 23.5q10 7 10 12t-7 8t-19 4.5t-26 1.5q-6 0 -10.5 4t-6.5 8t-0.5 7.5t9.5 3.5q12 1 30.5 1t36 -2.5t30.5 -7.5t13 -15
t-19 -26.5t-51 -41.5q-26 -20 -44.5 -31t-37.5 -27q13 -7 41.5 -3.5t64.5 13t76 23.5t76.5 29t66.5 29t46 24z" />
    <glyph glyph-name="j" unicode="j" horiz-adv-x="382" 
d="M459 178q7 -2 7 -4.5t-4 -5.5t-10.5 -4.5t-12.5 -1.5q-26 2 -48.5 2t-44 -3.5t-44.5 -10.5t-49 -20q-19 -10 -40 -23l-39 -25q28 -37 59.5 -86.5t53.5 -103.5q8 -20 15 -44t9 -48.5t-4 -48t-24 -41.5q-25 -24 -58.5 -31.5t-68.5 -2.5t-67.5 22t-55.5 42q-33 36 -44.5 84
t4.5 95q9 26 25 50t35.5 45.5t41.5 40.5t44 35q-19 23 -36 40.5t-41 34.5q-5 5 2.5 12.5t14.5 3.5q23 -15 42.5 -35t36.5 -42q29 20 62 38t65 29q48 16 88.5 16.5t85.5 -9.5zM282 -184q-8 37 -22.5 74t-32.5 70t-37 61t-35 48q-26 -19 -45.5 -35.5t-38.5 -41.5
q-14 -20 -27.5 -46t-18.5 -50q-5 -27 -0.5 -58t17.5 -52q18 -29 45 -50t58.5 -30t63.5 -2.5t59 33.5q14 14 16.5 33.5t-2.5 45.5zM127 388q9 2 16.5 1.5t18 -3.5l25.5 -7t39 -8q13 -2 15.5 -5t-1.5 -6t-11.5 -4.5t-14.5 -1.5q-17 1 -38 2t-43 4q-21 2 -22 12.5t16 15.5z" />
    <glyph glyph-name="l" unicode="l" horiz-adv-x="480" 
d="M319 453q-11 6 -29.5 0.5t-38.5 -17t-39 -26.5t-31 -28q-47 -54 -67.5 -101.5t-22.5 -101.5q1 -36 17 -57t38.5 -32t47.5 -14.5t45 -3.5q45 -1 87.5 7t81.5 22t73.5 33t62.5 40q3 3 8 4.5t9 1.5t5 -2.5t-3 -7.5q-14 -17 -40.5 -36.5t-56.5 -33.5q-38 -17 -69 -28
t-58 -17.5t-51.5 -9t-48.5 -2.5q-44 1 -85.5 14t-64.5 46q-13 19 -18.5 40.5t-5.5 42t3.5 40t9.5 36.5q13 39 36.5 77.5t53.5 67.5q10 10 26 24t36 25.5t43 19t48 6.5q24 -2 32.5 -18t3.5 -36q-4 -14 -17.5 -37.5t-35 -50.5t-49.5 -54.5t-60 -50.5q-17 -12 -29 -10.5t-3 9.5
q40 34 72.5 71t53.5 68.5t29 53.5t1 26z" />
    <glyph glyph-name="A" unicode="A" horiz-adv-x="578" 
d="M527 618q13 7 18.5 2t4.5 -13l-13 -168t-10.5 -155t-7.5 -152.5t-3 -160.5q0 -14 -9.5 -16.5t-19.5 5.5q-38 31 -72.5 63l-71 63t-76 61t-86.5 57q-2 2 -17.5 -20l-37.5 -55l-46.5 -69.5l-43.5 -64.5q-1 -2 -5.5 -3t-8.5 -1t-6.5 2t0.5 7l31 50l40.5 61.5l41.5 60
t34 45.5q-34 21 -63 37t-59.5 28t-64 19.5t-76.5 10.5q-12 1 -28 0t-31 -4t-26.5 -8t-14.5 -11q-4 -6 0 -14.5t11.5 -16.5t16 -15t12.5 -11q4 -5 3 -11.5t-14 0.5q-8 4 -18 10.5t-18.5 14.5t-14.5 17t-6 20q0 17 10.5 27.5t24.5 18.5q19 6 40.5 8.5t43.5 2t44 -3.5t41 -7
q56 -13 105.5 -37t97.5 -54q72 104 157 199.5t191 180.5zM198 226q42 -27 82.5 -56t77.5 -58.5t69 -58l58 -53.5q1 33 3 79t5 98l6.5 108l7 109.5t7.5 101t8 83.5q-94 -76 -176.5 -164.5t-147.5 -188.5z" />
    <glyph glyph-name="C" unicode="C" horiz-adv-x="838" 
d="M911 178q12 3 13 -4.5t-13 -12.5q-77 -33 -149.5 -57.5t-149.5 -41.5t-163.5 -26t-191.5 -10q-45 0 -87 11t-70.5 32.5t-38 53t10.5 70.5q17 35 42 67.5t53.5 62.5t59 56.5t59.5 48.5q28 23 72.5 54t95 58.5t101.5 45t93 13t70 -37.5t32 -107q0 -14 -7.5 -14t-7.5 14
q-3 15 -7 31t-10 31t-15 27.5t-24 20.5q-10 5 -24 7t-30 1.5t-31 -3.5t-27 -9q-118 -48 -227.5 -125.5t-191.5 -180.5q-45 -51 -52 -88.5t14 -62t64 -36.5t96 -12q93 0 170.5 8t151.5 24t150.5 39z" />
    <glyph glyph-name="D" unicode="D" horiz-adv-x="523" 
d="M438 334q15 -26 31 -59.5t25 -69.5t7.5 -71.5t-19.5 -63.5q-13 -24 -35.5 -37.5t-49 -21t-54.5 -9.5t-51 -2q-57 0 -109 7.5t-114 27.5q-19 -18 -46 -30t-57.5 -18t-61.5 -4.5t-57 12.5q-20 8 -35.5 22.5t-21.5 37.5q-9 29 7 40.5t43 13.5q56 3 111.5 -11.5t109.5 -34.5
q42 43 72 97t49 114.5t28.5 124t11.5 124.5q-39 28 -84 51t-93 34t-97 7t-95 -30q-11 -5 -14.5 0t1.5 10q39 26 81.5 35.5t85 6.5t84.5 -17t81 -35q11 -5 25.5 -14.5l31.5 -20.5v56q0 11 10.5 11t10.5 -11v-69q52 -43 101.5 -91.5t86.5 -111.5zM-127 16q50 -12 90.5 -3
t76.5 35l-61 18t-66.5 16.5t-58 6t-36.5 -12.5q-8 -8 -4.5 -17t13.5 -17t23 -15t23 -11zM96 55q33 -9 74 -17.5t83.5 -12t82 -0.5t69.5 17t46.5 40.5t13.5 70.5q-2 54 -21 104t-49 94.5t-68 83.5t-77 71q-5 -57 -15 -116t-28 -117t-45 -113.5t-66 -104.5z" />
    <glyph glyph-name="E" unicode="E" horiz-adv-x="968" 
d="M1044 175q10 5 9.5 -2t-9.5 -12q-69 -37 -134.5 -60.5t-133 -37t-138 -19t-149.5 -6.5q-41 -1 -78 -0.5t-74.5 3t-77 8.5t-84.5 16q-57 13 -89.5 39.5t-35.5 52.5q-3 24 18 46.5t70 40.5q35 13 79 27.5t88 25.5l142 36.5t142 41.5q-30 27 -66 48t-75 36.5t-79 27
t-78 19.5q-6 3 -7.5 7.5t0 9.5t5.5 8.5t9 3.5l108.5 -12t112 -11t106.5 -6.5t90 1.5q9 1 10 -2.5t-2 -8t-8.5 -8.5t-9.5 -4q-71 0 -137.5 1t-138.5 6q50 -16 95.5 -46.5l93.5 -62.5q9 -6 8 -12.5t-14 -11.5q-55 -20 -120.5 -36l-132.5 -34t-131.5 -39t-118.5 -49
q-26 -13 -23 -35q2 -13 19.5 -28.5t51.5 -26.5q48 -15 103 -24t119 -12.5t139 -1.5t164 11q48 4 92 10.5t88 16.5t88.5 25.5t93.5 39.5z" />
    <glyph glyph-name="G" unicode="G" horiz-adv-x="1125" 
d="M1199 177q11 0 12 -6.5t-6 -11.5l-43.5 -15t-42.5 -15.5t-46.5 -19t-55.5 -25.5q-48 -26 -90 -52.5t-85 -58.5q8 -31 7.5 -65.5t-6 -68.5t-15.5 -66t-20 -58q-26 -43 -59 -77.5t-81 -54.5q-13 -5 -32 -11.5t-38 -7.5t-34.5 6t-21.5 28q-5 18 -2 38t10.5 40.5t17 39.5
l17.5 34q37 54 75 103.5t86 91.5q15 15 31.5 26t25.5 22q-2 44 -15.5 70.5t-28.5 37.5q-21 15 -51.5 10.5t-67.5 -20.5t-78.5 -40.5l-84 -50.5l-84 -49.5t-79.5 -37.5q-34 -16 -75 -28t-78.5 -10.5t-66 20.5t-38.5 66q-11 52 -1 103t33 97.5t55 87.5t65 74q69 75 154.5 123
t179.5 65q47 6 98 7t98 -9t87.5 -33.5t66.5 -67.5q5 -5 -1 -9t-6 2q-24 31 -55.5 49.5t-67 28.5t-72 12t-70.5 0q-111 -6 -200.5 -49.5t-168.5 -118.5q-43 -41 -78.5 -85.5t-61.5 -101.5q-11 -21 -19.5 -46.5t-11.5 -52.5t0.5 -53.5t16.5 -49.5q13 -18 31.5 -26t39.5 -8.5
t43 3.5t40 10q46 15 88.5 37t84 47l83 50t85.5 48q18 11 39.5 21.5t44.5 16t46 4t44 -14.5q21 -11 42 -39.5t27 -73.5q48 31 92.5 56.5t88.5 45.5t89 36.5t94 29.5zM815 -51q-26 -15 -53 -38.5t-53 -53t-49 -62t-40 -65.5q-6 -8 -17.5 -29.5t-19 -44.5t-5 -40.5t26.5 -17.5
q59 5 100.5 40t67.5 83q26 54 39.5 114.5t2.5 113.5z" />
    <glyph glyph-name="H" unicode="H" horiz-adv-x="734" 
d="M576 679q-8 -64 -21 -135t-30 -142t-36.5 -139t-39.5 -126q87 7 176 16.5t186 23.5q6 0 9 -5t-9 -8q-99 -18 -189.5 -30.5t-180.5 -20.5q-13 -35 -25.5 -65t-23.5 -53q-2 -4 -6 -6.5t-8 -3t-6.5 1t-0.5 6.5q8 20 18.5 50t21.5 67q-72 -5 -143 -8t-145 -3l-32.5 -88.5
t-29.5 -69.5q-2 -4 -6 -6.5t-8 -3t-6.5 1t-0.5 6.5q10 26 23.5 67.5l29.5 93.5q-59 1 -119 3t-125 6q-6 0 -6 7t6 7q67 -2 129 -2.5t122 0.5l37.5 123l36.5 121l31 102.5t22 67.5q2 5 8 9.5t12 7t10.5 1.5t3.5 -7q-8 -23 -21.5 -69l-31 -104.5l-37.5 -124l-40 -126.5
q73 2 144 4.5t143 7.5l35.5 125t35.5 139t31 140.5t22 129.5q1 6 6.5 10.5t12 6.5t11.5 1t4 -7z" />
    <glyph glyph-name="I" unicode="I" horiz-adv-x="402" 
d="M407 564q9 -74 -4.5 -159t-38.5 -172q-10 -33 -25.5 -72t-37.5 -73.5t-51 -60t-66 -32.5q-33 -7 -59 7t-44 40.5t-28 60.5t-10 67q0 9 8 10t8 -4q6 -28 18.5 -60t31 -55.5t43 -32t54.5 9.5q31 16 53 43t38.5 59.5t28.5 67.5l23 68q20 69 30 135.5t2 134.5q-3 28 -17 42
t-33.5 20.5t-42.5 8t-44 4.5q-4 0 -6.5 4t-3 8.5t1.5 8.5t8 3q22 -2 48.5 -3.5t49.5 -8.5t41 -23t24 -46z" />
    <glyph glyph-name="J" unicode="J" horiz-adv-x="512" 
d="M388 606q54 -101 77.5 -203t6 -200.5t-81 -190.5t-184.5 -172q-44 -29 -95.5 -52.5t-106 -39t-111 -21.5t-110.5 2q-55 7 -104.5 27.5t-94.5 49.5t-86.5 65.5t-79.5 76.5q-2 5 3.5 11.5t7.5 1.5q38 -35 79 -67t85.5 -59t93.5 -46t103 -27q99 -14 200 12.5t186 80.5
q103 66 167 147t88.5 174t9 195.5t-70.5 210.5q-85 -2 -164.5 -5.5t-163.5 0.5q-7 -1 -7.5 6.5t5.5 9.5q84 3 166.5 6.5t166.5 11.5q5 0 11 -2q3 -1 4 -3z" />
    <glyph glyph-name="K" unicode="K" horiz-adv-x="477" 
d="M336 651q5 5 8.5 5t5.5 -2.5t2.5 -6t-1.5 -6.5q-30 -37 -58 -82.5t-54 -95t-49.5 -100l-43.5 -97.5q-23 -50 -35 -94t-23 -89l7 -8q3 0 1 -6t-8.5 -11t-17 -7t-23.5 6q10 54 31 115t48 121.5t58 118t59.5 105.5t53 83t39.5 51zM516 -13q7 0 9 -3t1 -6t-4 -5.5t-6 -2.5
q-51 3 -107.5 15t-110.5 32.5t-102 50t-83 67.5q-7 5 -2.5 12t10.5 12l73.5 51l100.5 70l116 79l119 78.5l109.5 68t87.5 47.5q6 0 6.5 -10.5t-10.5 -13.5q-24 -14 -71 -44.5l-105.5 -69l-121.5 -81l-119 -80.5l-99 -68.5t-60 -43.5q35 -32 79 -57.5t92.5 -44.5t99 -32.5
t98.5 -20.5z" />
    <glyph glyph-name="L" unicode="L" horiz-adv-x="964" 
d="M1039 178q11 2 9.5 -5t-9.5 -12q-68 -35 -148.5 -59.5t-167 -39.5t-176 -21.5t-176 -6.5t-167.5 5.5t-150 15.5q-9 0 -12.5 7t5.5 11q63 58 112.5 132.5t88.5 149.5t68 144.5t52 119.5q2 5 6 8.5t7.5 4.5t5.5 -1t0 -7l-47.5 -124.5t-61.5 -143t-81 -146t-105 -132.5
q169 -19 302 -19.5t245 13.5t208.5 41.5t191.5 64.5z" />
    <glyph glyph-name="M" unicode="M" horiz-adv-x="1024" 
d="M1100 177q5 5 8.5 -3t-1.5 -13q-28 -28 -64 -60.5t-75 -59.5t-80 -43.5t-78 -11.5q-42 7 -60.5 33.5t-24.5 62t-5.5 74t-3.5 69.5q-39 -42 -72 -88.5t-79 -87.5q-19 -14 -42 -29t-51 -15q-30 1 -44.5 19.5t-20 45t-3.5 58t5 58.5q11 106 41.5 231.5t71.5 252.5
l-144.5 -148t-137 -153.5t-122 -162.5t-98.5 -175q-5 -6 -11.5 -5.5t-1.5 11.5q42 99 104 188.5t128 174.5q71 90 148.5 171l152.5 162q11 9 20.5 4t4.5 -17q-20 -79 -42 -156t-40.5 -154.5t-32 -156.5t-17.5 -160q0 -12 3.5 -23t11 -19t18.5 -12t25 -2q12 3 26 11t27.5 19
t26 22.5t21.5 21.5q19 21 32.5 38l26.5 34.5t28 35.5t36 41q11 11 18 8t9 -12q4 -19 4.5 -44.5t1.5 -52.5t3.5 -53t11 -46t24 -32t41.5 -10q33 0 74 19t80 45t71 52.5t47 42.5z" />
    <glyph glyph-name="at" unicode="@" horiz-adv-x="619" 
d="M570 200q5 -39 -23.5 -64t-74.5 -22q-27 2 -54 11t-54 15.5t-53.5 6t-53.5 -18.5q-5 0 -12.5 4t-7.5 9q5 32 21 51.5t38.5 27.5t49.5 4.5t54 -18.5q5 -5 1 -11.5t-14 -1.5q-17 7 -36 10.5t-36 0.5t-31 -14t-21 -31q19 5 35.5 10.5t36.5 3.5q26 -2 46.5 -11.5t45.5 -13.5
q12 -3 27.5 -5.5t31 -2.5t29 4t22.5 15q9 12 10 25t-3 26t-11 23.5t-14 17.5q-45 51 -103.5 69.5t-120.5 -2.5q-51 -17 -94.5 -55.5t-68.5 -82.5q-12 -20 -21 -42.5t-13 -45.5t-1 -46t15 -43q20 -27 51 -38.5t66.5 -13t71.5 3t66 9.5q5 0 5 -6.5t-5 -6.5q-27 -8 -59 -14
t-64.5 -7t-63.5 6.5t-55 27.5q-34 24 -48 58.5t-4 78.5q10 49 38 96.5t67.5 83.5t88.5 57t100 18q32 -2 66 -14t62.5 -32t49 -48t25.5 -62z" />
    <glyph glyph-name="N" unicode="N" 
d="M774 361q2 -28 3.5 -59t1 -63t-2.5 -63.5t-7 -59.5q-3 -19 -8.5 -39t-15 -38t-24 -32.5t-35.5 -22.5q-35 -12 -74 -2t-69 37q-31 28 -55.5 64t-44 76t-34 81t-24.5 79q-20 62 -34.5 128t-19.5 133q-42 -64 -80.5 -131t-70.5 -136t-55.5 -141t-33.5 -146q0 -11 -7 -11
t-7 11q8 79 33 157t60 154t77 149l84 142q5 5 16 4t11 -11q0 -11 0.5 -24t1.5 -24q10 -83 29 -164t51 -164q15 -42 35.5 -82t46.5 -75q10 -13 22.5 -26.5t27.5 -25.5t31.5 -20t34.5 -11q29 -2 47.5 10t30.5 33q12 19 18.5 44.5t10.5 51.5t5 50.5t1 43.5q0 84 -8 157.5
t-23 150.5q-2 10 7.5 13.5t12.5 -7.5q16 -46 22.5 -95.5t11.5 -95.5z" />
    <glyph glyph-name="O" unicode="O" 
d="M815 373q8 -16 11 -32t3 -33q0 -61 -28.5 -107.5t-73.5 -80.5t-99.5 -56.5t-106.5 -34.5q-52 -13 -106 -20.5t-111 -7.5q-17 0 -42.5 3t-54.5 10t-58 19t-52 30t-37.5 42t-14.5 56q0 40 21.5 83t58 84t86 77.5t105.5 64t116.5 43.5t118.5 16q42 0 83 -9.5t79 -29.5
q3 -3 3 -8q0 -8 -6 -8q-3 0 -4 2q-34 16 -70 23t-74 7q-42 0 -95 -12t-107.5 -34.5t-106.5 -53.5t-92.5 -69.5t-65 -83t-24.5 -92.5q0 -39 23.5 -64.5t59.5 -40.5t78.5 -20.5t80.5 -5.5q22 0 67 4.5t99 16t111 31t104 50t77 72.5t30 99q0 45 -23 75.5t-58.5 49.5t-77.5 28.5
t-79 12.5q-6 0 -6 6q0 8 13.5 8h22.5q31 0 65 -6t64 -19t54.5 -34t38.5 -51z" />
    <glyph glyph-name="P" unicode="P" horiz-adv-x="542" 
d="M525 700q31 -18 57 -45t43.5 -59.5t25.5 -68.5t3 -72q-3 -36 -17 -67t-36.5 -57.5t-51 -48.5t-59.5 -40q-62 -31 -127 -51.5t-137 -31.5q-12 -18 -29.5 -41l-37.5 -47.5l-42 -49.5t-44 -47q-5 -5 -11.5 -1.5t-1.5 9.5l70.5 88.5t61.5 88.5q-76 -14 -157.5 -10.5
t-159.5 18.5q-5 5 -1.5 12t8.5 7q82 -14 162.5 -12t163.5 12l37 58.5t31 53.5t26.5 52.5t23.5 55.5q0 5 8 5t7 -5q-16 -57 -39.5 -106.5t-55.5 -106.5q45 9 94 22t95 33t85.5 49.5t65.5 71.5q21 33 28.5 71t3 75t-20.5 70.5t-44 59.5q-29 31 -64 49.5t-74.5 28t-81 11.5
t-82.5 0q-91 -5 -183.5 -23t-185.5 -49q-67 -21 -132 -52t-128 -67q11 -5 20.5 -6t20.5 -1t11 -10.5t-11 -10.5q-20 0 -37.5 2.5t-31.5 10.5q-7 5 -6 10.5t6 10.5q98 67 216 110t236 68q56 13 118.5 23t125.5 10t123.5 -13.5t111.5 -46.5z" />
    <glyph glyph-name="R" unicode="R" horiz-adv-x="693" 
d="M769 175q6 7 8.5 -2t-1.5 -13q-23 -40 -69 -79.5t-101 -70t-113 -48.5t-106 -16q-52 0 -101 16.5t-87 46.5q-75 58 -126 141q-5 12 9 19q45 14 104 35t131 61q36 19 68 41.5t56.5 49t40 56.5t18.5 65q0 38 -12.5 63.5t-34 41.5t-49.5 24t-59 11q-42 4 -88 -1t-89 -13.5
t-80.5 -18t-63.5 -15.5q-3 -1 -9 1t-10 4.5t-4 6t9 5.5q65 14 129 31t136 22q24 1 51.5 1.5t55 -3.5t53 -13t46.5 -26q35 -28 47 -67.5t0 -83.5q-12 -36 -30 -64t-41.5 -51.5t-52.5 -43t-63 -37.5q-58 -32 -113 -54t-121 -44q46 -78 115 -128t165 -54q54 -2 111 18
t108.5 50.5t94 67t68.5 68.5zM261 546q-7 -21 -20 -55l-29.5 -73.5l-36 -83l-39.5 -85t-40.5 -77.5t-38.5 -61q-7 -5 -12 -4.5t1 9.5q11 20 27 53l33.5 72.5l35.5 82l34.5 82l29.5 73.5l21 56q2 5 8 9.5t12 7t10.5 1.5t3.5 -7z" />
    <glyph glyph-name="S" unicode="S" horiz-adv-x="677" 
d="M623 214q21 -54 21 -99t-30 -80q-14 -16 -34 -28.5t-42.5 -22t-45.5 -15.5t-43 -9q-83 -13 -163.5 4.5t-151.5 62.5q-14 9 -29 21t-27.5 26.5t-20 31.5t-5.5 36q1 19 10 35.5t22.5 28.5t30 20.5t34.5 13.5q45 11 92.5 9t92.5 -13q37 -9 76.5 -25.5t61.5 -48.5q3 -5 1 -9
t-6 -5q-29 -8 -62 -5q-8 1 -8 7.5t8 7.5q11 1 21 1.5t21 2.5q-20 23 -51 34.5t-59 18.5q-45 11 -94.5 14t-94.5 -10q-16 -5 -30.5 -15t-24 -24.5t-11 -31.5t7.5 -35q14 -30 46 -53t71 -39t80 -25t73 -10q38 -2 84 3t85 22t62.5 48.5t17.5 82.5q-5 41 -26.5 80t-50 76t-61 71
l-60.5 64t-47.5 56t-22.5 47q-2 16 10 30t38 13q37 -1 72.5 -16t66.5 -39t57.5 -54t47.5 -60q2 -3 -7 -5.5t-16 4.5l-56.5 57t-57.5 50q-26 19 -50 27.5t-40 8t-22 -8.5t3 -23q3 -12 19 -31.5t38.5 -44l49 -53.5l51.5 -59t46 -60.5t32 -57.5z" />
    <glyph glyph-name="Q" unicode="Q" horiz-adv-x="780" 
d="M773 475q0 -5 -4.5 -11t-8.5 -6q-3 0 -3 7q-9 34 -32.5 56t-54.5 35t-66.5 18.5t-68.5 5.5q-51 0 -108 -10.5t-112.5 -31.5t-105.5 -52.5t-88 -73t-60.5 -93t-22.5 -112.5q0 -54 21 -90.5t55.5 -58.5t78.5 -31.5t89 -9.5q65 0 130 17.5t122 47.5q-2 5 -8 14t-12 19.5
t-10.5 21.5t-5.5 19q-1 5 4.5 10t9.5 3q6 -3 12.5 -12.5t12.5 -20.5t11 -22.5t10 -18.5q26 17 53 37t49.5 45t36.5 55.5t14 68.5q0 20 -7 39.5t-18.5 35t-27 25t-33.5 9.5q-20 0 -40 -8.5t-37.5 -22.5t-30 -31.5t-16.5 -35.5q0 -10 -6 -10q-3 0 -3 10q3 22 16 44.5t33 40.5
t43.5 29.5t47.5 11.5q26 0 45 -14t32 -35t19 -44.5t6 -42.5q0 -39 -15 -73.5t-39 -63.5t-54 -51.5t-60 -37.5l10.5 -17t8 -14t8 -14l10.5 -16q20 -32 48 -64l54 -64q3 -2 0.5 -4t-7 -3.5t-9.5 -1t-8 3.5q-47 52 -78.5 96t-59.5 87q-76 -38 -153.5 -54.5t-151.5 -16.5
q-43 0 -83.5 14t-72 41t-50.5 66.5t-19 90.5q0 70 25.5 127t68.5 102t98.5 78t114.5 54.5t117.5 32t108.5 10.5q38 0 75.5 -6t68 -21.5t53 -41.5t30.5 -66z" />
    <glyph glyph-name="u" unicode="u" horiz-adv-x="404" 
d="M487 167q-11 -20 -25 -38.5t-29.5 -32t-30.5 -21.5t-27 -8q-19 0 -30.5 7t-17.5 18.5t-6 25t3 26.5q-23 -24 -53.5 -51.5t-63.5 -47t-66 -24.5t-61 15q-16 12 -21 32.5t-2 44t13.5 46.5t25.5 41q11 10 22.5 10t3.5 -11q-11 -15 -21.5 -38t-13.5 -45.5t4.5 -40.5t32.5 -24
q26 -6 54.5 8t56.5 36.5t53 46t45 36.5q5 0 12.5 -4.5t4.5 -12.5q-4 -13 -3.5 -25t5 -21t14.5 -13t26 0q10 1 20.5 8.5t20.5 18t18 22t14 21.5q7 7 16.5 5.5t5.5 -10.5z" />
    <glyph glyph-name="i" unicode="i" horiz-adv-x="270" 
d="M339 170q5 9 8.5 9t5.5 -5t2 -12t-3 -11q-36 -54 -77 -75t-79 -18t-69 25.5t-48 54.5q-12 23 -9 34q3 4 11 7t13 -7q18 -35 47.5 -57t63.5 -25t69.5 15t64.5 65zM190 395q10 0 17 -3t9 -14q1 -6 -9.5 -13.5t-24.5 -3.5q-9 2 -13.5 9t-4.5 14.5t4.5 13.5t13.5 6q4 0 7 -5
q1 -2 1 -4z" />
    <glyph glyph-name="B" unicode="B" horiz-adv-x="589" 
d="M493 281q44 -17 63.5 -41.5t19.5 -50.5q0 -27 -19 -52.5t-57 -45.5q-45 -24 -95.5 -39.5t-102.5 -25.5t-104.5 -15t-101.5 -9h-96t-99 5t-95 17t-85 37q-11 8 -3.5 15.5t19.5 2.5q36 -17 78.5 -27.5t88 -16t92 -7t89.5 0.5q94 3 188.5 21t180.5 54q48 20 66.5 42.5
t15.5 44.5q-4 26 -24.5 45t-72.5 35q-47 14 -87 22t-86 16q-14 -66 -46.5 -126t-89.5 -98q-3 -2 -6.5 -1t-5.5 4.5t-1.5 7.5t5.5 8q45 35 72.5 89t46.5 121l-37.5 9l-37.5 9q-5 1 -6 6t1 11t5.5 11t7.5 6l41 10.5t41 17.5q3 25 6.5 49.5t4.5 41.5q-21 12 -42.5 22.5
t-41.5 18.5q-83 34 -155.5 49.5t-149.5 19.5q-8 0 -8 8.5t8 8.5q45 0 91.5 -7t91.5 -19q57 -14 112.5 -34t93.5 -45v26q0 4 3.5 7t7.5 3.5t7.5 -2t3.5 -9.5v-42q13 -14 23 -32t7 -39q-2 -14 -11.5 -22t-29.5 -21q-1 -8 -3.5 -20t-3.5 -18q66 -12 117.5 -24.5t104.5 -32.5z
M288 457l-4 -29t-2 -20q7 3 10 9.5t3.5 14t-2 14.5t-5.5 11zM219 349q3 -2 13 -4t13 -2q1 6 1.5 10t1.5 8q-8 -4 -15.5 -6.5t-13.5 -5.5z" />
    <glyph glyph-name="T" unicode="T" horiz-adv-x="320" 
d="M189 466q0 6 4.5 10.5t10 6.5t9.5 -0.5t3 -11.5q-8 -133 -26.5 -244t-46.5 -216q-4 -11 -11.5 -12.5t-6.5 2.5l36.5 242t27.5 223zM784 618q9 0 10.5 -3t-0.5 -6.5t-6.5 -6t-6.5 -2.5q-140 -2 -278 -6.5t-276 -13.5t-275 -25t-274 -42q-3 -2 -5.5 1t-3.5 7t1 8t8 5
q272 53 548.5 74t557.5 10z" />
    <glyph glyph-name="U" unicode="U" horiz-adv-x="807" 
d="M880 176q5 3 10 -1t0 -8q-16 -18 -45 -36.5t-61.5 -32t-64.5 -19t-54 0.5q-23 6 -37 18t-21.5 28.5t-8.5 36.5t1 42q4 26 9 48t11 42.5t14 41t19 44.5l-41 -58.5t-41 -53.5q-35 -44 -74.5 -86t-84 -77t-93 -61t-100.5 -38q-15 -4 -33.5 -5.5t-36 0t-33.5 7.5t-27 17
q-22 17 -30 44t-7.5 57.5t7 60t12.5 51.5q16 49 38.5 98t49 94.5t56.5 85.5t60 72q6 7 10 6t5.5 -6.5t-0.5 -12.5t-7 -13q-54 -58 -104 -144t-82 -201q-7 -26 -11.5 -57t-0.5 -59t20.5 -49t51.5 -25q46 0 89.5 15.5t83.5 41t77 57t71 63.5q83 83 149.5 181.5t129.5 208.5
q2 4 7 5.5t9.5 0.5t7 -4.5t0.5 -7.5q-18 -41 -39 -81.5l-41 -81.5t-37.5 -83t-28.5 -85q-4 -17 -7 -38.5t-1.5 -42t10.5 -38t29 -27.5q22 -11 51 -7.5t59.5 14.5t58 27t46.5 30z" />
    <glyph glyph-name="V" unicode="V" horiz-adv-x="322" 
d="M341 392q5 7 11 8t10 -0.5t6 -5t0 -5.5l-67 -100l-58 -90.5l-55.5 -91l-59.5 -100.5q-5 -5 -11.5 -4t-11.5 10l-11 121.5t-12 107.5t-16.5 103t-24.5 109q-17 67 -43 121.5t-62 87.5q-20 19 -40.5 25.5t-46.5 -2.5q-17 -6 -30.5 -23t-27.5 -39q-4 -8 -12 -6.5t-5 10.5
q10 22 23.5 41t31 31t37.5 15.5t42 -5.5q24 -10 45.5 -28.5t39 -41.5t30.5 -48.5t22 -49.5q21 -53 34 -114.5t21.5 -126t13 -130.5l8.5 -129l109 187t110 163z" />
    <glyph glyph-name="W" unicode="W" 
d="M856 517q0 5 5.5 7t6.5 -7q0 -70 -16 -135t-42 -127q-13 -30 -28 -61.5t-34 -60t-43.5 -51.5t-57.5 -36t-64 -9.5t-59 20t-51 44t-40 60.5q-15 30 -27 59t-21.5 58.5l-19 59.5l-20.5 63q-8 -42 -11 -77t-8 -69q-3 -31 -7.5 -63.5t-10 -64t-12.5 -60t-16 -51.5
q-11 -29 -36.5 -38t-56.5 15q-13 10 -25.5 25.5t-24 33.5t-21 38t-16.5 38q-27 69 -44 140t-33 154q-8 53 -14.5 111.5t-6.5 110.5q-1 5 2 7.5t7 2t7.5 -3.5t3.5 -7q-1 -26 3 -63.5t9 -68.5q12 -83 32.5 -165.5t49.5 -163.5q15 -43 39 -88t57 -73q14 -12 27 -8.5t18 16.5
q9 22 17 57t14 76t10.5 84.5l8.5 81.5q3 35 8.5 69.5t15.5 50.5q8 8 16 1.5t10 -14.5q21 -67 42.5 -128.5t51.5 -122.5q14 -30 34 -57t45 -44.5t54.5 -21t62.5 13.5q23 11 44.5 34t41 52.5t36 63t29.5 65.5l19.5 57t15.5 52t12.5 54.5t10.5 63.5z" />
    <glyph glyph-name="Y" unicode="Y" horiz-adv-x="630" 
d="M611 541q3 4 8.5 4.5t11.5 -1.5t10 -6.5t3 -8.5q-11 -63 -28 -120t-39.5 -113.5t-50 -115l-58.5 -124.5q-5 -10 -13 -15.5t-14.5 -6.5t-9 2.5t2.5 11.5l61 137t43.5 106.5t32.5 92.5t28 95l-48.5 -46.5t-55.5 -48.5t-60 -45.5t-63 -38.5q-79 -37 -161 -47.5t-166 17.5
q-60 23 -104 73.5t-62 111.5q-10 30 -13.5 63.5t-0.5 67.5t12.5 67t26.5 60q9 9 18.5 3t5.5 -15q-26 -58 -28 -122.5t17.5 -122t61 -101.5t103.5 -60q79 -23 155.5 -8t145.5 57q33 19 64.5 41.5t58.5 50.5q58 47 105 105z" />
    <glyph glyph-name="Z" unicode="Z" horiz-adv-x="990" 
d="M1066 175q5 5 8.5 -2.5t-2.5 -11.5l-87 -48.5t-78 -38t-78 -30t-87.5 -25t-105 -23t-131.5 -24.5q-49 -9 -114.5 -16t-131.5 -6q-19 0 -41.5 1t-45 5t-44 11t-37.5 18q-34 20 -45.5 48.5t-8.5 59t16.5 60t30.5 51.5q61 77 138 132.5t154 100.5l103.5 58t114.5 52
q-99 5 -197 3.5t-202 -1.5q-6 0 -10 3t-5.5 6.5t-0.5 6.5t7 3q60 0 119.5 2t118 2.5t117 -1.5t118.5 -11q14 -2 14.5 -9t-14.5 -12q-133 -40 -258.5 -114.5t-234.5 -170.5q-32 -33 -54.5 -65.5t-33.5 -70.5q-9 -34 -2.5 -57.5t23.5 -38.5t42 -22.5t53 -11t56.5 -4t52.5 -0.5
q54 0 104 4t99 11t98 16.5t101 21.5q54 13 95 25t80 27t82.5 35.5z" />
    <glyph glyph-name="X" unicode="X" horiz-adv-x="786" 
d="M1065 558q13 4 17.5 1t3 -10t-8 -14.5t-15.5 -10.5q-152 -54 -290 -112.5t-272 -134.5l116.5 -121.5l137.5 -145.5q3 -3 2 -7.5t-4 -7.5t-7.5 -4t-7.5 2l-136 135.5t-133 127.5l-138.5 -85l-128 -83.5l-124.5 -88l-129 -99.5l-141.5 -117.5l-161.5 -141.5q-7 -6 -13 -6.5
t-8.5 2.5t-1.5 9t7 12q91 86 195.5 174l211.5 170t211.5 153.5t196.5 124.5l-61.5 61.5l-61 60.5l-67 66l-79.5 79q-5 5 -3.5 10t6 8.5t11 3.5t12.5 -6l146 -139.5l128 -123.5l130 67t144 69.5t154.5 65.5t161.5 56z" />
    <glyph glyph-name="ampersand" unicode="&#x26;" horiz-adv-x="527" 
d="M541 -29q8 -4 8.5 -12t-10.5 -8q-3 0 -5 1q-45 15 -87.5 43t-77 67.5t-59 89.5t-33.5 109l-35 -33.5t-43.5 -46.5t-37 -51t-15.5 -48q0 -12 9 -19t23.5 -11.5t32 -6t35.5 -1.5q23 0 42 1.5t26 1.5q4 0 6.5 -4t2.5 -9q0 -3 -9.5 -6.5t-25 -6.5t-35 -4.5t-40.5 -1.5
q-20 0 -38 2.5t-32.5 9.5t-23 18.5t-8.5 29.5q0 32 16.5 63.5t41 61t52.5 55.5l50 47q0 38 8 83t24 84t41 65.5t60 26.5q24 0 42 -15.5t18 -41.5q0 -27 -18 -56.5t-43.5 -58t-53 -55.5l-47.5 -48q1 -22 6.5 -46t15.5 -46q16 -40 39 -75.5t51 -64.5t60 -50t67 -33zM320 424
q-7 -23 -12 -46t-6 -46l58 54t51 64q7 9 14 22t8.5 26t-5.5 22t-26 9q-15 0 -28 -11.5t-24 -28t-18.5 -34.5t-11.5 -31z" />
    <glyph glyph-name="zero" unicode="0" horiz-adv-x="358" 
d="M287 443q7 2 10 -5.5t-3 -14.5q-15 -11 -34.5 -30.5t-27.5 -35.5q29 -15 37.5 -45.5t5.5 -65t-13.5 -67.5t-20.5 -55q-5 -10 -14.5 -26t-22 -33t-27 -31.5t-30 -22.5t-30.5 -6.5t-28 18.5q-15 18 -14 48.5t10.5 64t23 64.5t24.5 51q19 35 39.5 68.5t43.5 63.5
q14 20 34.5 38t36.5 22zM214 135q10 23 19.5 50.5t12.5 55.5t-2.5 53.5t-24.5 45.5q-18 -27 -38.5 -61t-38.5 -71.5t-29 -75.5t-9 -72q2 -11 8 -15.5t13.5 -4.5t15 3t13.5 9q20 17 34.5 39t25.5 44z" />
    <glyph glyph-name="one" unicode="1" horiz-adv-x="284" 
d="M161 545q15 -62 17 -126t2 -129q0 -69 -1.5 -137.5t-6.5 -136.5q-1 -5 -5 -7.5t-8 -2.5t-7.5 2.5t-4.5 7.5q-2 68 -1 136.5t3 137.5q0 58 -2.5 110l-5.5 109q-30 -28 -52.5 -54l-48.5 -56q-5 -6 -8.5 -1t0.5 10l54.5 72t58.5 70q3 4 9.5 2t6.5 -7z" />
    <glyph glyph-name="two" unicode="2" horiz-adv-x="312" 
d="M311 153q10 4 16 -4.5t1 -14.5q-52 -49 -115.5 -83t-129.5 -47q-13 -3 -19 5t-1 17q19 42 37 89.5t31 97t19 99.5t2 97q-3 38 -14.5 57t-26 23.5t-30.5 -3.5t-28 -25q-5 -7 -10.5 -9.5t-10.5 -2.5t-8 3t-2 6q5 16 21 33.5t36.5 25t43 0t40.5 -41.5q9 -16 12.5 -44
t3 -61.5t-4.5 -68.5t-11 -64q-10 -48 -25.5 -98.5t-34.5 -98.5q60 19 108.5 50z" />
    <glyph glyph-name="three" unicode="3" horiz-adv-x="395" 
d="M194 359q22 -16 54.5 -27t61.5 -24.5t50 -33.5t21 -54q-1 -16 -10 -30.5t-21.5 -27t-27.5 -22.5t-28 -17q-32 -17 -60 -29l-67 -29q-8 -4 -16 -2t-13.5 6t-5.5 9t8 8q32 11 61 23t50 23q9 5 26.5 15.5t34.5 23.5t28 28t7 30q-9 27 -32.5 41.5t-52.5 25.5l-58 22t-47 31
q-4 5 -4 11.5t4 10.5q17 15 36 28l38.5 25.5t38 26t33.5 30.5q-72 -5 -140.5 -22.5l-137.5 -34.5q-6 -1 -10 2.5t-5.5 8.5t0.5 10t8 7l152.5 32.5t153.5 19.5q8 0 10.5 -6t0.5 -12q-12 -21 -28.5 -37.5t-35.5 -30.5l-39 -28.5t-38 -30.5z" />
    <glyph glyph-name="four" unicode="4" horiz-adv-x="231" 
d="M168 117q5 -23 1 -42t-15 -39q-5 -7 -13.5 -5t-8.5 10l4 27t2 29q-42 -3 -61 23t-22 69t7 96t25 104t32.5 93.5t29.5 63.5q2 5 6 6t7 -1t5 -5.5t0 -7.5q-7 -17 -21 -56t-28.5 -86.5t-25.5 -97.5t-10.5 -90t15 -63.5t51.5 -16.5q7 2 12.5 -1.5t7.5 -9.5z" />
    <glyph glyph-name="five" unicode="5" horiz-adv-x="315" 
d="M356 553q10 -3 8.5 -14.5t-11.5 -11.5q-51 9 -106 10t-101 -4q10 -30 22 -60.5t23 -61.5t19 -62t11 -64q5 -61 -11 -103.5t-44 -69.5t-63.5 -40.5t-69.5 -16.5q-5 0 -8.5 3t-5 7.5t0 9t6.5 5.5q38 8 74 22.5t60 44.5q17 22 26 61.5t-5 106.5q-8 30 -18.5 59.5l-21.5 58.5
l-21 58t-17 58q-2 13 5 20t18 5q66 -2 119.5 -6t110.5 -15z" />
    <glyph glyph-name="six" unicode="6" horiz-adv-x="350" 
d="M312 595q4 4 6.5 2t3 -6.5t-1 -9.5t-3.5 -8l-62.5 -55.5t-48 -47.5t-41 -52.5t-42.5 -68.5q-11 -20 -23.5 -47t-20.5 -56t-9 -59t11 -56q31 6 62 -1t45 -24q7 -8 6 -23.5t-20 -23.5q-59 -12 -91 10t-42.5 62t-1 90t32.5 94q26 49 50 85.5t51 68t60.5 61t78.5 65.5z
M147 88q7 4 3.5 7.5t-12.5 6t-20 4t-18 1.5q7 -9 23 -16t24 -3z" />
    <glyph glyph-name="seven" unicode="7" horiz-adv-x="312" 
d="M21 431q-11 -1 -14 8.5t3 14.5q63 34 132.5 50.5t137.5 11.5q13 0 16.5 -9t-3.5 -17q-47 -57 -82.5 -108.5t-61 -107t-39.5 -119t-17 -142.5q0 -10 -5.5 -12.5t-12 0.5t-11.5 9t-4 13q3 69 18 128.5t39.5 115t58.5 109.5t75 111q-63 -3 -118 -20.5z" />
    <glyph glyph-name="eight" unicode="8" horiz-adv-x="290" 
d="M262 193q5 -43 -3.5 -81.5t-36.5 -70.5q-23 -25 -55 -38.5t-64 -3.5q-5 0 -6.5 5t0 10.5t5 10t9.5 4.5q18 -2 36.5 2.5t35 16t28.5 29t18 41.5q11 39 3 77t-25 73l-23 44.5t-25 44.5q-6 -20 -13 -38.5t-15 -36.5l-41 -88.5t-32 -95.5q-4 -25 4.5 -35t22.5 -11.5t31.5 2
t31.5 5.5q6 2 9.5 -4.5t-1.5 -9.5q-13 -6 -32 -12t-37.5 -6.5t-33.5 6.5t-21 28q-4 19 -1 39.5t9.5 40.5t15.5 39l16 35l37 85t32 89l-38 65.5t-35 69.5q-2 8 1.5 17t12.5 9q18 -1 35.5 -6t31.5 -15.5t22.5 -27.5t10.5 -41q0 -14 -2.5 -28.5t-5.5 -28.5q30 -48 55 -99.5
t33 -110.5zM146 489q-5 10 -15 16t-20 8q8 -18 19.5 -36l22.5 -36q2 12 0 23.5t-7 24.5z" />
    <glyph glyph-name="nine" unicode="9" horiz-adv-x="220" 
d="M191 408q9 5 13 -3.5t2 -16.5q-17 -53 -33 -96.5l-33 -87l-37 -91l-44 -107.5q-3 -5 -7.5 -6.5t-8.5 0t-5.5 5t0.5 8.5q31 90 63.5 175.5l66.5 183.5q-28 -5 -54 0t-45.5 19t-29.5 37t-5 56q0 5 5.5 9.5t10.5 4.5q46 -5 80 -30t61 -60zM65 463q1 -18 10 -31.5t22.5 -21.5
t30 -10.5t33.5 -0.5q-20 22 -43 41t-53 23z" />
    <glyph glyph-name="question" unicode="?" horiz-adv-x="372" 
d="M256 276q10 0 11 -10.5t-8 -12.5q-38 -8 -78.5 -10.5t-79.5 -2.5q-8 0 -13.5 8t-1.5 17q24 37 54 73t57.5 73.5t50 77t32.5 84.5q5 17 5.5 34.5t-14.5 30.5q-11 7 -22 8t-21.5 -3t-20.5 -11.5t-18 -15.5q-17 -16 -34.5 -40t-30 -51t-17 -55t5.5 -52q2 -6 -0.5 -11.5
t-6.5 -8t-8.5 -1.5t-7.5 8q-12 27 -10 58.5t13.5 62.5t29.5 59t39 47q14 15 35.5 27.5t44 15.5t41.5 -6.5t28 -38.5q9 -26 4.5 -53t-15.5 -53.5t-26 -51l-28 -44.5q-27 -41 -56 -78.5t-57 -77.5q30 0 61.5 0.5t61.5 3.5zM225 70q8 5 15 0t3 -13q-8 -13 -21.5 -19.5
l-27.5 -13.5q-8 -4 -14 -1t-8.5 9t-0.5 12.5t11 9.5q11 6 22.5 9.5t20.5 6.5z" />
    <glyph glyph-name="exclam" unicode="!" horiz-adv-x="326" 
d="M211 634q17 -57 18.5 -119.5t-3.5 -118.5q-5 -62 -12.5 -121.5t-22.5 -119.5q-2 -8 -10 -6t-8 10q5 58 11.5 116.5t8.5 120.5q5 58 1.5 115.5t-8.5 117.5q-2 6 1.5 9.5t8.5 4t9.5 -1.5t5.5 -7zM205 22q2 -8 -2.5 -12t-11.5 -1q-9 2 -16.5 9.5t-15.5 7.5q-11 -2 -16.5 7.5
t2.5 16.5q5 8 15.5 7.5t17.5 -7.5q8 -5 15.5 -12t11.5 -16z" />
    <glyph glyph-name="period" unicode="." horiz-adv-x="346" 
d="M162 52q10 0 17 -3t9 -14q1 -6 -9.5 -13.5t-24.5 -3.5q-9 2 -13.5 9t-4.5 14.5t4.5 13.5t13.5 6q4 0 7 -5q1 -2 1 -4z" />
    <glyph glyph-name="hungarumlaut" unicode="&#x2dd;" horiz-adv-x="366" 
d="M174 370q4 3 9 2t8 -5t3 -9.5t-5 -9.5l-50.5 -47.5t-48.5 -53.5q-8 -5 -16 -5t-4 6q17 26 44 58t60 64zM267 401q4 5 10 4.5t11 -4t6.5 -9t-3.5 -11.5q-31 -35 -64.5 -64.5l-69.5 -60.5q-5 -4 -10.5 -5.5t-10 -1t-5.5 3t4 7.5q72 70 132 141z" />
    <glyph glyph-name="dieresis" unicode="&#xa8;" horiz-adv-x="386" 
d="M88 365q10 0 17 -3t9 -14q1 -6 -9.5 -13.5t-24.5 -3.5q-9 2 -13.5 9t-4.5 14.5t4.5 13.5t13.5 6q4 0 7 -5q1 -2 1 -4zM218 354q2 -8 -2.5 -12t-11.5 -1q-9 2 -16.5 9.5t-15.5 7.5q-11 -2 -16.5 7.5t2.5 16.5q5 8 15.5 7.5t17.5 -7.5q8 -5 15.5 -12t11.5 -16z" />
    <glyph glyph-name="acute" unicode="&#xb4;" horiz-adv-x="366" 
d="M276 427q5 4 11 2.5t10 -5.5t4.5 -10t-5.5 -11q-37 -29 -75 -52t-80 -46q-5 -3 -11 -3.5t-10 0.5t-5 4t5 7q42 27 81 56z" />
    <glyph glyph-name="Iacute" unicode="&#xcd;" horiz-adv-x="402" 
d="M407 564q9 -74 -4.5 -159t-38.5 -172q-10 -33 -25.5 -72t-37.5 -73.5t-51 -60t-66 -32.5q-33 -7 -59 7t-44 40.5t-28 60.5t-10 67q0 9 8 10t8 -4q6 -28 18.5 -60t31 -55.5t43 -32t54.5 9.5q31 16 53 43t38.5 59.5t28.5 67.5l23 68q20 69 30 135.5t2 134.5q-3 28 -17 42
t-33.5 20.5t-42.5 8t-44 4.5q-4 0 -6.5 4t-3 8.5t1.5 8.5t8 3q22 -2 48.5 -3.5t49.5 -8.5t41 -23t24 -46zM318 778q5 4 11 2.5t10 -5.5t4.5 -10t-5.5 -11q-37 -29 -75 -52t-80 -46q-5 -3 -11 -3.5t-10 0.5t-5 4t5 7q42 27 81 56z" />
    <glyph glyph-name="Oacute" unicode="&#xd3;" 
d="M815 373q8 -16 11 -32t3 -33q0 -61 -28.5 -107.5t-73.5 -80.5t-99.5 -56.5t-106.5 -34.5q-52 -13 -106 -20.5t-111 -7.5q-17 0 -42.5 3t-54.5 10t-58 19t-52 30t-37.5 42t-14.5 56q0 40 21.5 83t58 84t86 77.5t105.5 64t116.5 43.5t118.5 16q42 0 83 -9.5t79 -29.5
q3 -3 3 -8q0 -8 -6 -8q-3 0 -4 2q-34 16 -70 23t-74 7q-42 0 -95 -12t-107.5 -34.5t-106.5 -53.5t-92.5 -69.5t-65 -83t-24.5 -92.5q0 -39 23.5 -64.5t59.5 -40.5t78.5 -20.5t80.5 -5.5q22 0 67 4.5t99 16t111 31t104 50t77 72.5t30 99q0 45 -23 75.5t-58.5 49.5t-77.5 28.5
t-79 12.5q-6 0 -6 6q0 8 13.5 8h22.5q31 0 65 -6t64 -19t54.5 -34t38.5 -51zM535 693q5 4 11 2.5t10 -5.5t4.5 -10t-5.5 -11q-37 -29 -75 -52t-80 -46q-5 -3 -11 -3.5t-10 0.5t-5 4t5 7q42 27 81 56z" />
    <glyph glyph-name="Odieresis" unicode="&#xd6;" 
d="M815 373q8 -16 11 -32t3 -33q0 -61 -28.5 -107.5t-73.5 -80.5t-99.5 -56.5t-106.5 -34.5q-52 -13 -106 -20.5t-111 -7.5q-17 0 -42.5 3t-54.5 10t-58 19t-52 30t-37.5 42t-14.5 56q0 40 21.5 83t58 84t86 77.5t105.5 64t116.5 43.5t118.5 16q42 0 83 -9.5t79 -29.5
q3 -3 3 -8q0 -8 -6 -8q-3 0 -4 2q-34 16 -70 23t-74 7q-42 0 -95 -12t-107.5 -34.5t-106.5 -53.5t-92.5 -69.5t-65 -83t-24.5 -92.5q0 -39 23.5 -64.5t59.5 -40.5t78.5 -20.5t80.5 -5.5q22 0 67 4.5t99 16t111 31t104 50t77 72.5t30 99q0 45 -23 75.5t-58.5 49.5t-77.5 28.5
t-79 12.5q-6 0 -6 6q0 8 13.5 8h22.5q31 0 65 -6t64 -19t54.5 -34t38.5 -51zM419 609q10 0 17 -3t9 -14q1 -6 -9.5 -13.5t-24.5 -3.5q-9 2 -13.5 9t-4.5 14.5t4.5 13.5t13.5 6q4 0 7 -5q1 -2 1 -4zM549 598q2 -8 -2.5 -12t-11.5 -1q-9 2 -16.5 9.5t-15.5 7.5
q-11 -2 -16.5 7.5t2.5 16.5q5 8 15.5 7.5t17.5 -7.5q8 -5 15.5 -12t11.5 -16z" />
    <glyph glyph-name="Uacute" unicode="&#xda;" horiz-adv-x="808" 
d="M589 733q5 4 11 2.5t10 -5.5t4.5 -10t-5.5 -11q-37 -29 -75 -52t-80 -46q-5 -3 -11 -3.5t-10 0.5t-5 4t5 7q42 27 81 56zM880 176q5 3 10 -1t0 -8q-16 -18 -45 -36.5t-61.5 -32t-64.5 -19t-54 0.5q-23 6 -37 18t-21.5 28.5t-8.5 36.5t1 42q4 26 9 48t11 42.5t14 41
t19 44.5l-41 -58.5t-41 -53.5q-35 -44 -74.5 -86t-84 -77t-93 -61t-100.5 -38q-15 -4 -33.5 -5.5t-36 0t-33.5 7.5t-27 17q-22 17 -30 44t-7.5 57.5t7 60t12.5 51.5q16 49 38.5 98t49 94.5t56.5 85.5t60 72q6 7 10 6t5.5 -6.5t-0.5 -12.5t-7 -13q-54 -58 -104 -144t-82 -201
q-7 -26 -11.5 -57t-0.5 -59t20.5 -49t51.5 -25q46 0 89.5 15.5t83.5 41t77 57t71 63.5q83 83 149.5 181.5t129.5 208.5q2 4 7 5.5t9.5 0.5t7 -4.5t0.5 -7.5q-18 -41 -39 -81.5l-41 -81.5t-37.5 -83t-28.5 -85q-4 -17 -7 -38.5t-1.5 -42t10.5 -38t29 -27.5q22 -11 51 -7.5
t59.5 14.5t58 27t46.5 30z" />
    <glyph glyph-name="iacute" unicode="&#xed;" horiz-adv-x="270" 
d="M203 427q5 4 11 2.5t10 -5.5t4.5 -10t-5.5 -11q-37 -29 -75 -52t-80 -46q-5 -3 -11 -3.5t-10 0.5t-5 4t5 7q42 27 81 56zM339 170q5 9 8.5 9t5.5 -5t2 -12t-3 -11q-36 -54 -77 -75t-79 -18t-69 25.5t-48 54.5q-12 23 -9 34q3 4 11 7t13 -7q18 -35 47.5 -57t63.5 -25
t69.5 15t64.5 65z" />
    <glyph glyph-name="oacute" unicode="&#xf3;" horiz-adv-x="352" 
d="M424 178q8 3 10.5 -1.5t2 -10.5t-4 -11.5t-8.5 -6.5q-42 -9 -83 -13t-78.5 -5t-69.5 0t-55 2q14 -14 29.5 -37.5t21.5 -47.5q4 -23 -13 -28q-26 -3 -48.5 6t-37.5 27t-22 43t-1 53q3 16 9 27t11 12q12 0 9 -20q-3 -21 -1 -41t9 -36.5t19 -28t29 -15.5q2 16 -10.5 39
t-35.5 46q-4 2 -4.5 7t1.5 10t5 8.5t6 3.5q71 -7 150 -7t160 25zM247 427q5 4 11 2.5t10 -5.5t4.5 -10t-5.5 -11q-37 -29 -75 -52t-80 -46q-5 -3 -11 -3.5t-10 0.5t-5 4t5 7q42 27 81 56z" />
    <glyph glyph-name="odieresis" unicode="&#xf6;" horiz-adv-x="352" 
d="M424 178q8 3 10.5 -1.5t2 -10.5t-4 -11.5t-8.5 -6.5q-42 -9 -83 -13t-78.5 -5t-69.5 0t-55 2q14 -14 29.5 -37.5t21.5 -47.5q4 -23 -13 -28q-26 -3 -48.5 6t-37.5 27t-22 43t-1 53q3 16 9 27t11 12q12 0 9 -20q-3 -21 -1 -41t9 -36.5t19 -28t29 -15.5q2 16 -10.5 39
t-35.5 46q-4 2 -4.5 7t1.5 10t5 8.5t6 3.5q71 -7 150 -7t160 25zM125 365q10 0 17 -3t9 -14q1 -6 -9.5 -13.5t-24.5 -3.5q-9 2 -13.5 9t-4.5 14.5t4.5 13.5t13.5 6q4 0 7 -5q1 -2 1 -4zM255 354q2 -8 -2.5 -12t-11.5 -1q-9 2 -16.5 9.5t-15.5 7.5q-11 -2 -16.5 7.5t2.5 16.5
q5 8 15.5 7.5t17.5 -7.5q8 -5 15.5 -12t11.5 -16z" />
    <glyph glyph-name="uacute" unicode="&#xfa;" horiz-adv-x="371" 
d="M326 427q5 4 11 2.5t10 -5.5t4.5 -10t-5.5 -11q-37 -29 -75 -52t-80 -46q-5 -3 -11 -3.5t-10 0.5t-5 4t5 7q42 27 81 56zM487 167q-11 -20 -25 -38.5t-29.5 -32t-30.5 -21.5t-27 -8q-19 0 -30.5 7t-17.5 18.5t-6 25t3 26.5q-23 -24 -53.5 -51.5t-63.5 -47t-66 -24.5
t-61 15q-16 12 -21 32.5t-2 44t13.5 46.5t25.5 41q11 10 22.5 10t3.5 -11q-11 -15 -21.5 -38t-13.5 -45.5t4.5 -40.5t32.5 -24q26 -6 54.5 8t56.5 36.5t53 46t45 36.5q5 0 12.5 -4.5t4.5 -12.5q-4 -13 -3.5 -25t5 -21t14.5 -13t26 0q10 1 20.5 8.5t20.5 18t18 22t14 21.5
q7 7 16.5 5.5t5.5 -10.5z" />
    <glyph glyph-name="udieresis" unicode="&#xfc;" horiz-adv-x="371" 
d="M135 365q10 0 17 -3t9 -14q1 -6 -9.5 -13.5t-24.5 -3.5q-9 2 -13.5 9t-4.5 14.5t4.5 13.5t13.5 6q4 0 7 -5q1 -2 1 -4zM265 354q2 -8 -2.5 -12t-11.5 -1q-9 2 -16.5 9.5t-15.5 7.5q-11 -2 -16.5 7.5t2.5 16.5q5 8 15.5 7.5t17.5 -7.5q8 -5 15.5 -12t11.5 -16zM487 167
q-11 -20 -25 -38.5t-29.5 -32t-30.5 -21.5t-27 -8q-19 0 -30.5 7t-17.5 18.5t-6 25t3 26.5q-23 -24 -53.5 -51.5t-63.5 -47t-66 -24.5t-61 15q-16 12 -21 32.5t-2 44t13.5 46.5t25.5 41q11 10 22.5 10t3.5 -11q-11 -15 -21.5 -38t-13.5 -45.5t4.5 -40.5t32.5 -24
q26 -6 54.5 8t56.5 36.5t53 46t45 36.5q5 0 12.5 -4.5t4.5 -12.5q-4 -13 -3.5 -25t5 -21t14.5 -13t26 0q10 1 20.5 8.5t20.5 18t18 22t14 21.5q7 7 16.5 5.5t5.5 -10.5z" />
    <glyph glyph-name="Ohungarumlaut" unicode="&#x150;" 
d="M815 373q8 -16 11 -32t3 -33q0 -61 -28.5 -107.5t-73.5 -80.5t-99.5 -56.5t-106.5 -34.5q-52 -13 -106 -20.5t-111 -7.5q-17 0 -42.5 3t-54.5 10t-58 19t-52 30t-37.5 42t-14.5 56q0 40 21.5 83t58 84t86 77.5t105.5 64t116.5 43.5t118.5 16q42 0 83 -9.5t79 -29.5
q3 -3 3 -8q0 -8 -6 -8q-3 0 -4 2q-34 16 -70 23t-74 7q-42 0 -95 -12t-107.5 -34.5t-106.5 -53.5t-92.5 -69.5t-65 -83t-24.5 -92.5q0 -39 23.5 -64.5t59.5 -40.5t78.5 -20.5t80.5 -5.5q22 0 67 4.5t99 16t111 31t104 50t77 72.5t30 99q0 45 -23 75.5t-58.5 49.5t-77.5 28.5
t-79 12.5q-6 0 -6 6q0 8 13.5 8h22.5q31 0 65 -6t64 -19t54.5 -34t38.5 -51zM495 672q4 3 9 2t8 -5t3 -9.5t-5 -9.5l-50.5 -47.5t-48.5 -53.5q-8 -5 -16 -5t-4 6q17 26 44 58t60 64zM588 703q4 5 10 4.5t11 -4t6.5 -9t-3.5 -11.5q-31 -35 -64.5 -64.5l-69.5 -60.5
q-5 -4 -10.5 -5.5t-10 -1t-5.5 3t4 7.5q72 70 132 141z" />
    <glyph glyph-name="Uhungarumlaut" unicode="&#x170;" horiz-adv-x="808" 
d="M493 708q4 3 9 2t8 -5t3 -9.5t-5 -9.5l-50.5 -47.5t-48.5 -53.5q-8 -5 -16 -5t-4 6q17 26 44 58t60 64zM586 739q4 5 10 4.5t11 -4t6.5 -9t-3.5 -11.5q-31 -35 -64.5 -64.5l-69.5 -60.5q-5 -4 -10.5 -5.5t-10 -1t-5.5 3t4 7.5q72 70 132 141zM880 176q5 3 10 -1t0 -8
q-16 -18 -45 -36.5t-61.5 -32t-64.5 -19t-54 0.5q-23 6 -37 18t-21.5 28.5t-8.5 36.5t1 42q4 26 9 48t11 42.5t14 41t19 44.5l-41 -58.5t-41 -53.5q-35 -44 -74.5 -86t-84 -77t-93 -61t-100.5 -38q-15 -4 -33.5 -5.5t-36 0t-33.5 7.5t-27 17q-22 17 -30 44t-7.5 57.5t7 60
t12.5 51.5q16 49 38.5 98t49 94.5t56.5 85.5t60 72q6 7 10 6t5.5 -6.5t-0.5 -12.5t-7 -13q-54 -58 -104 -144t-82 -201q-7 -26 -11.5 -57t-0.5 -59t20.5 -49t51.5 -25q46 0 89.5 15.5t83.5 41t77 57t71 63.5q83 83 149.5 181.5t129.5 208.5q2 4 7 5.5t9.5 0.5t7 -4.5
t0.5 -7.5q-18 -41 -39 -81.5l-41 -81.5t-37.5 -83t-28.5 -85q-4 -17 -7 -38.5t-1.5 -42t10.5 -38t29 -27.5q22 -11 51 -7.5t59.5 14.5t58 27t46.5 30z" />
    <glyph glyph-name="ohungarumlaut" unicode="&#x151;" horiz-adv-x="352" 
d="M424 178q8 3 10.5 -1.5t2 -10.5t-4 -11.5t-8.5 -6.5q-42 -9 -83 -13t-78.5 -5t-69.5 0t-55 2q14 -14 29.5 -37.5t21.5 -47.5q4 -23 -13 -28q-26 -3 -48.5 6t-37.5 27t-22 43t-1 53q3 16 9 27t11 12q12 0 9 -20q-3 -21 -1 -41t9 -36.5t19 -28t29 -15.5q2 16 -10.5 39
t-35.5 46q-4 2 -4.5 7t1.5 10t5 8.5t6 3.5q71 -7 150 -7t160 25zM169 370q4 3 9 2t8 -5t3 -9.5t-5 -9.5l-50.5 -47.5t-48.5 -53.5q-8 -5 -16 -5t-4 6q17 26 44 58t60 64zM262 401q4 5 10 4.5t11 -4t6.5 -9t-3.5 -11.5q-31 -35 -64.5 -64.5l-69.5 -60.5q-5 -4 -10.5 -5.5
t-10 -1t-5.5 3t4 7.5q72 70 132 141z" />
    <glyph glyph-name="uhungarumlaut" unicode="&#x171;" horiz-adv-x="371" 
d="M256 391q4 3 9 2t8 -5t3 -9.5t-5 -9.5l-50.5 -47.5t-48.5 -53.5q-8 -5 -16 -5t-4 6q17 26 44 58t60 64zM349 422q4 5 10 4.5t11 -4t6.5 -9t-3.5 -11.5q-31 -35 -64.5 -64.5l-69.5 -60.5q-5 -4 -10.5 -5.5t-10 -1t-5.5 3t4 7.5q72 70 132 141zM487 167q-11 -20 -25 -38.5
t-29.5 -32t-30.5 -21.5t-27 -8q-19 0 -30.5 7t-17.5 18.5t-6 25t3 26.5q-23 -24 -53.5 -51.5t-63.5 -47t-66 -24.5t-61 15q-16 12 -21 32.5t-2 44t13.5 46.5t25.5 41q11 10 22.5 10t3.5 -11q-11 -15 -21.5 -38t-13.5 -45.5t4.5 -40.5t32.5 -24q26 -6 54.5 8t56.5 36.5t53 46
t45 36.5q5 0 12.5 -4.5t4.5 -12.5q-4 -13 -3.5 -25t5 -21t14.5 -13t26 0q10 1 20.5 8.5t20.5 18t18 22t14 21.5q7 7 16.5 5.5t5.5 -10.5z" />
    <glyph glyph-name="Udieresis" unicode="&#xdc;" horiz-adv-x="808" 
d="M395 679q10 0 17 -3t9 -14q1 -6 -9.5 -13.5t-24.5 -3.5q-9 2 -13.5 9t-4.5 14.5t4.5 13.5t13.5 6q4 0 7 -5q1 -2 1 -4zM525 668q2 -8 -2.5 -12t-11.5 -1q-9 2 -16.5 9.5t-15.5 7.5q-11 -2 -16.5 7.5t2.5 16.5q5 8 15.5 7.5t17.5 -7.5q8 -5 15.5 -12t11.5 -16zM880 176
q5 3 10 -1t0 -8q-16 -18 -45 -36.5t-61.5 -32t-64.5 -19t-54 0.5q-23 6 -37 18t-21.5 28.5t-8.5 36.5t1 42q4 26 9 48t11 42.5t14 41t19 44.5l-41 -58.5t-41 -53.5q-35 -44 -74.5 -86t-84 -77t-93 -61t-100.5 -38q-15 -4 -33.5 -5.5t-36 0t-33.5 7.5t-27 17q-22 17 -30 44
t-7.5 57.5t7 60t12.5 51.5q16 49 38.5 98t49 94.5t56.5 85.5t60 72q6 7 10 6t5.5 -6.5t-0.5 -12.5t-7 -13q-54 -58 -104 -144t-82 -201q-7 -26 -11.5 -57t-0.5 -59t20.5 -49t51.5 -25q46 0 89.5 15.5t83.5 41t77 57t71 63.5q83 83 149.5 181.5t129.5 208.5q2 4 7 5.5
t9.5 0.5t7 -4.5t0.5 -7.5q-18 -41 -39 -81.5l-41 -81.5t-37.5 -83t-28.5 -85q-4 -17 -7 -38.5t-1.5 -42t10.5 -38t29 -27.5q22 -11 51 -7.5t59.5 14.5t58 27t46.5 30z" />
    <glyph glyph-name="numbersign" unicode="#" horiz-adv-x="590" 
d="M97 164q8 0 34.5 2t61.5 4q4 9 8 19t9 21q1 2 2 5t2 5q-7 0 -12 -0.5t-7 -0.5q-11 -1 -18.5 1t-10.5 5t0.5 6t14.5 4q4 0 15 0.5t25 2.5q24 55 42.5 87.5t26.5 28.5q2 -1 -0.5 -10.5t-8.5 -25l-14 -36t-18 -42.5q18 2 38 3t40 3q23 52 40.5 83t25.5 27q3 -2 -6.5 -32.5
t-26.5 -75.5l85.5 7t45.5 4q16 1 14 -7.5t-21 -11.5q-5 -1 -17 -2l-30 -2.5t-39.5 -3.5t-44.5 -3l-10 -25.5l-10 -25.5l60 3.5t31 2.5q8 1 10.5 -2t-0.5 -7.5t-9.5 -9t-16.5 -5.5q-7 -2 -30 -2.5t-54 -2.5l-36.5 -86.5t-23.5 -52.5q-8 -13 -4.5 24t30.5 114q-20 -1 -40 -1.5
t-40 -1.5l-33.5 -70t-18.5 -35q-9 -11 -4 12.5t32 92.5q-28 -1 -48.5 -2t-26.5 -1q-11 -1 -18.5 1t-10.5 5t0.5 6t14.5 4zM319 227q-22 -2 -41.5 -3t-36.5 -2q-5 -13 -11 -25.5t-11 -25.5l39.5 2t39.5 3l15 36z" />
    <glyph glyph-name="colon" unicode=":" horiz-adv-x="346" 
d="M162 52q10 0 17 -3t9 -14q1 -6 -9.5 -13.5t-24.5 -3.5q-9 2 -13.5 9t-4.5 14.5t4.5 13.5t13.5 6q4 0 7 -5q1 -2 1 -4zM136 284q-2 6 8 12t22 6t15.5 -10t0.5 -22t-12 -12t-20 -1q-9 -1 -12 2t-3 7.5t1 9.5t0 8z" />
    <glyph glyph-name="comma" unicode="," horiz-adv-x="322" 
d="M156 62q-4 21 12 24t17 -9.5t0.5 -21t-0.5 -15.5t-2 -21.5t-6.5 -31.5t-11.5 -35t-17 -31q-8 -12 -12.5 -4t3.5 23t14.5 53.5t2.5 68.5z" />
    <glyph glyph-name="semicolon" unicode=";" horiz-adv-x="346" 
d="M136 284q-2 6 8 12t22 6t15.5 -10t0.5 -22t-12 -12t-20 -1q-9 -1 -12 2t-3 7.5t1 9.5t0 8zM151 22q-6 36 0 47t20 15q6 2 9.5 -2t4.5 -11t0.5 -15.5t-0.5 -15.5t-2 -21.5t-6.5 -31.5t-11.5 -35t-17 -31q-8 -12 -12.5 -4t3.5 23t11.5 37t0.5 45z" />
    <glyph glyph-name="quotesingle" unicode="'" horiz-adv-x="322" 
d="M159 686q-4 21 12 24t16.5 -25t-6 -59.5t-13.5 -49.5t-17 -31q-8 -12 -12.5 -4t3.5 23t14.5 53.5t2.5 68.5z" />
    <glyph glyph-name="quotedbl" unicode="&#x22;" horiz-adv-x="366" 
d="M159 649q-6 36 0 47t20 15q6 2 9.5 -2t4.5 -11t0.5 -15.5t-0.5 -15.5t-2 -21.5t-6.5 -31.5t-11.5 -35t-17 -31q-8 -12 -12.5 -4t3.5 23t11.5 37t0.5 45zM252 696q1 5 7.5 7.5t13.5 2t12 -3.5t4 -10q-10 -38 -25.5 -73.5t-34.5 -72.5q-2 -5 -7.5 -8.5t-9.5 -5t-7 -0.5
t-1 7q16 40 28 79.5t20 77.5z" />
    <glyph glyph-name="egrave" unicode="&#xe8;" horiz-adv-x="410" 
d="M488 173q5 6 6.5 -2.5t-6.5 -13.5q-57 -37 -115 -62.5t-98 -39.5q-21 -7 -49 -13.5t-56.5 -7.5t-54.5 6t-44 28t-19.5 49t9.5 54.5t31.5 46t47.5 22.5q18 1 29 -3t16.5 -10.5t5.5 -15t-3 -15.5q-5 -10 -15.5 -18t-24 -12.5t-29 -3.5t-29.5 10q-8 -15 -10.5 -31t4.5 -30
q7 -16 20.5 -25.5t30 -14.5t34.5 -5.5t36 2.5q72 11 144.5 40.5t138.5 64.5zM126 210q-15 -8 -25 -20q14 -7 29 -6.5t20 10.5q8 11 1 19.5t-25 -3.5zM151 308l-89.5 46.5t-50.5 27.5q-5 3 -2 7t10.5 7t17.5 2.5t18 -6.5q30 -21 66 -41.5l60 -34.5q6 -3 8.5 -8t0 -8t-11.5 -2
t-27 10z" />
    <glyph glyph-name="grave" unicode="`" horiz-adv-x="322" 
d="M151 308l-89.5 46.5t-50.5 27.5q-5 3 -2 7t10.5 7t17.5 2.5t18 -6.5q30 -21 66 -41.5l60 -34.5q6 -3 8.5 -8t0 -8t-11.5 -2t-27 10z" />
    <glyph glyph-name="Egrave" unicode="&#xc8;" horiz-adv-x="968" 
d="M1044 175q10 5 9.5 -2t-9.5 -12q-69 -37 -134.5 -60.5t-133 -37t-138 -19t-149.5 -6.5q-41 -1 -78 -0.5t-74.5 3t-77 8.5t-84.5 16q-57 13 -89.5 39.5t-35.5 52.5q-3 24 18 46.5t70 40.5q35 13 79 27.5t88 25.5l142 36.5t142 41.5q-30 27 -66 48t-75 36.5t-79 27
t-78 19.5q-6 3 -7.5 7.5t0 9.5t5.5 8.5t9 3.5l108.5 -12t112 -11t106.5 -6.5t90 1.5q9 1 10 -2.5t-2 -8t-8.5 -8.5t-9.5 -4q-71 0 -137.5 1t-138.5 6q50 -16 95.5 -46.5l93.5 -62.5q9 -6 8 -12.5t-14 -11.5q-55 -20 -120.5 -36l-132.5 -34t-131.5 -39t-118.5 -49
q-26 -13 -23 -35q2 -13 19.5 -28.5t51.5 -26.5q48 -15 103 -24t119 -12.5t139 -1.5t164 11q48 4 92 10.5t88 16.5t88.5 25.5t93.5 39.5zM523 628l-89.5 46.5t-50.5 27.5q-5 3 -2 7t10.5 7t17.5 2.5t18 -6.5q30 -21 66 -41.5l60 -34.5q6 -3 8.5 -8t0 -8t-11.5 -2t-27 10z" />
    <glyph glyph-name="circumflex" unicode="&#x2c6;" horiz-adv-x="268" 
d="M126 312l22.5 9.5t32.5 14.5l41 18l32 -31l23 -23t13 -14q4 -6 -5.5 -11t-18.5 1q-5 3 -13 11t-16 17q-10 10 -19 22l-33 -15l-27.5 -11.5t-21.5 -7.5t-13.5 -0.5t-7 5t1 8t9.5 7.5z" />
    <glyph glyph-name="cedilla" unicode="&#xb8;" horiz-adv-x="341" 
d="M154 24q4 5 11.5 7t13.5 1t7.5 -4.5t-4.5 -9.5l-42 -38q-2 -6 15 -4t36.5 2.5t35.5 -4t13 -22.5q-2 -12 -13.5 -22t-29 -17.5t-38 -12.5t-39.5 -8q-6 -1 -8.5 2t-1.5 7t4.5 8t9.5 6q6 1 20 4.5t28.5 8t26 10.5t13.5 13q1 7 -17.5 7.5t-41 -1.5t-40 -2.5t-13.5 5.5
q11 17 26 33z" />
    <glyph glyph-name="ellipsis" unicode="&#x2026;" horiz-adv-x="774" 
d="M162 52q10 0 17 -3t9 -14q1 -6 -9.5 -13.5t-24.5 -3.5q-9 2 -13.5 9t-4.5 14.5t4.5 13.5t13.5 6q4 0 7 -5q1 -2 1 -4zM388 52q10 0 17 -3t9 -14q1 -6 -9.5 -13.5t-24.5 -3.5q-9 2 -13.5 9t-4.5 14.5t4.5 13.5t13.5 6q4 0 7 -5q1 -2 1 -4zM604 52q10 0 17 -3t9 -14
q1 -6 -9.5 -13.5t-24.5 -3.5q-9 2 -13.5 9t-4.5 14.5t4.5 13.5t13.5 6q4 0 7 -5q1 -2 1 -4z" />
    <glyph glyph-name="Agrave" unicode="&#xc0;" horiz-adv-x="578" 
d="M527 618q13 7 18.5 2t4.5 -13l-13 -168t-10.5 -155t-7.5 -152.5t-3 -160.5q0 -14 -9.5 -16.5t-19.5 5.5q-38 31 -72.5 63l-71 63t-76 61t-86.5 57q-2 2 -17.5 -20l-37.5 -55l-46.5 -69.5l-43.5 -64.5q-1 -2 -5.5 -3t-8.5 -1t-6.5 2t0.5 7l31 50l40.5 61.5l41.5 60
t34 45.5q-34 21 -63 37t-59.5 28t-64 19.5t-76.5 10.5q-12 1 -28 0t-31 -4t-26.5 -8t-14.5 -11q-4 -6 0 -14.5t11.5 -16.5t16 -15t12.5 -11q4 -5 3 -11.5t-14 0.5q-8 4 -18 10.5t-18.5 14.5t-14.5 17t-6 20q0 17 10.5 27.5t24.5 18.5q19 6 40.5 8.5t43.5 2t44 -3.5t41 -7
q56 -13 105.5 -37t97.5 -54q72 104 157 199.5t191 180.5zM198 226q42 -27 82.5 -56t77.5 -58.5t69 -58l58 -53.5q1 33 3 79t5 98l6.5 108l7 109.5t7.5 101t8 83.5q-94 -76 -176.5 -164.5t-147.5 -188.5zM532 730l-89.5 46.5t-50.5 27.5q-5 3 -2 7t10.5 7t17.5 2.5t18 -6.5
q30 -21 66 -41.5l60 -34.5q6 -3 8.5 -8t0 -8t-11.5 -2t-27 10z" />
    <glyph glyph-name="agrave" unicode="&#xe0;" horiz-adv-x="268" 
d="M269 197q2 -4 0 -8.5t-6.5 -7.5t-10 -4.5t-8.5 1.5q-14 11 -33.5 15.5t-46.5 -1.5q-26 -6 -49 -21.5t-39 -33t-21.5 -32t4.5 -17.5q14 -5 33 -2.5t37.5 9t33 14.5t20.5 15q12 14 22 14t12 -6q2 -14 3.5 -27.5t1.5 -24.5q0 -5 -8 -11t-16 3q-5 5 -7 13t-2 13
q-6 -6 -21.5 -13.5t-35.5 -13t-41 -9t-37 -1.5q-14 2 -24 8.5t-9 17.5q1 18 13.5 39.5t32.5 42t46.5 36t56.5 21.5q35 7 58 1t41 -30zM187 308l-89.5 46.5t-50.5 27.5q-5 3 -2 7t10.5 7t17.5 2.5t18 -6.5q30 -21 66 -41.5l60 -34.5q6 -3 8.5 -8t0 -8t-11.5 -2t-27 10z" />
    <glyph glyph-name="Ugrave" unicode="&#xd9;" horiz-adv-x="807" 
d="M880 176q5 3 10 -1t0 -8q-16 -18 -45 -36.5t-61.5 -32t-64.5 -19t-54 0.5q-23 6 -37 18t-21.5 28.5t-8.5 36.5t1 42q4 26 9 48t11 42.5t14 41t19 44.5l-41 -58.5t-41 -53.5q-35 -44 -74.5 -86t-84 -77t-93 -61t-100.5 -38q-15 -4 -33.5 -5.5t-36 0t-33.5 7.5t-27 17
q-22 17 -30 44t-7.5 57.5t7 60t12.5 51.5q16 49 38.5 98t49 94.5t56.5 85.5t60 72q6 7 10 6t5.5 -6.5t-0.5 -12.5t-7 -13q-54 -58 -104 -144t-82 -201q-7 -26 -11.5 -57t-0.5 -59t20.5 -49t51.5 -25q46 0 89.5 15.5t83.5 41t77 57t71 63.5q83 83 149.5 181.5t129.5 208.5
q2 4 7 5.5t9.5 0.5t7 -4.5t0.5 -7.5q-18 -41 -39 -81.5l-41 -81.5t-37.5 -83t-28.5 -85q-4 -17 -7 -38.5t-1.5 -42t10.5 -38t29 -27.5q22 -11 51 -7.5t59.5 14.5t58 27t46.5 30zM524 744l-89.5 46.5t-50.5 27.5q-5 3 -2 7t10.5 7t17.5 2.5t18 -6.5q30 -21 66 -41.5l60 -34.5
q6 -3 8.5 -8t0 -8t-11.5 -2t-27 10z" />
    <glyph glyph-name="ugrave" unicode="&#xf9;" horiz-adv-x="404" 
d="M487 167q-11 -20 -25 -38.5t-29.5 -32t-30.5 -21.5t-27 -8q-19 0 -30.5 7t-17.5 18.5t-6 25t3 26.5q-23 -24 -53.5 -51.5t-63.5 -47t-66 -24.5t-61 15q-16 12 -21 32.5t-2 44t13.5 46.5t25.5 41q11 10 22.5 10t3.5 -11q-11 -15 -21.5 -38t-13.5 -45.5t4.5 -40.5t32.5 -24
q26 -6 54.5 8t56.5 36.5t53 46t45 36.5q5 0 12.5 -4.5t4.5 -12.5q-4 -13 -3.5 -25t5 -21t14.5 -13t26 0q10 1 20.5 8.5t20.5 18t18 22t14 21.5q7 7 16.5 5.5t5.5 -10.5zM211 314l-89.5 46.5t-50.5 27.5q-5 3 -2 7t10.5 7t17.5 2.5t18 -6.5q30 -21 66 -41.5l60 -34.5
q6 -3 8.5 -8t0 -8t-11.5 -2t-27 10z" />
    <glyph glyph-name="ecircumflex" unicode="&#xea;" horiz-adv-x="410" 
d="M488 173q5 6 6.5 -2.5t-6.5 -13.5q-57 -37 -115 -62.5t-98 -39.5q-21 -7 -49 -13.5t-56.5 -7.5t-54.5 6t-44 28t-19.5 49t9.5 54.5t31.5 46t47.5 22.5q18 1 29 -3t16.5 -10.5t5.5 -15t-3 -15.5q-5 -10 -15.5 -18t-24 -12.5t-29 -3.5t-29.5 10q-8 -15 -10.5 -31t4.5 -30
q7 -16 20.5 -25.5t30 -14.5t34.5 -5.5t36 2.5q72 11 144.5 40.5t138.5 64.5zM126 210q-15 -8 -25 -20q14 -7 29 -6.5t20 10.5q8 11 1 19.5t-25 -3.5zM98 328l22.5 9.5t32.5 14.5l41 18l32 -31l23 -23t13 -14q4 -6 -5.5 -11t-18.5 1q-5 3 -13 11t-16 17q-10 10 -19 22
l-33 -15l-27.5 -11.5t-21.5 -7.5t-13.5 -0.5t-7 5t1 8t9.5 7.5z" />
    <glyph glyph-name="Ecircumflex" unicode="&#xca;" horiz-adv-x="968" 
d="M1044 175q10 5 9.5 -2t-9.5 -12q-69 -37 -134.5 -60.5t-133 -37t-138 -19t-149.5 -6.5q-41 -1 -78 -0.5t-74.5 3t-77 8.5t-84.5 16q-57 13 -89.5 39.5t-35.5 52.5q-3 24 18 46.5t70 40.5q35 13 79 27.5t88 25.5l142 36.5t142 41.5q-30 27 -66 48t-75 36.5t-79 27
t-78 19.5q-6 3 -7.5 7.5t0 9.5t5.5 8.5t9 3.5l108.5 -12t112 -11t106.5 -6.5t90 1.5q9 1 10 -2.5t-2 -8t-8.5 -8.5t-9.5 -4q-71 0 -137.5 1t-138.5 6q50 -16 95.5 -46.5l93.5 -62.5q9 -6 8 -12.5t-14 -11.5q-55 -20 -120.5 -36l-132.5 -34t-131.5 -39t-118.5 -49
q-26 -13 -23 -35q2 -13 19.5 -28.5t51.5 -26.5q48 -15 103 -24t119 -12.5t139 -1.5t164 11q48 4 92 10.5t88 16.5t88.5 25.5t93.5 39.5zM418 678l22.5 9.5t32.5 14.5l41 18l32 -31l23 -23t13 -14q4 -6 -5.5 -11t-18.5 1q-5 3 -13 11t-16 17q-10 10 -19 22l-33 -15
l-27.5 -11.5t-21.5 -7.5t-13.5 -0.5t-7 5t1 8t9.5 7.5z" />
    <glyph glyph-name="ccedilla" unicode="&#xe7;" horiz-adv-x="341" 
d="M274 70q6 2 8.5 0t3.5 -5.5t-0.5 -7t-3.5 -4.5q-19 -10 -34.5 -17t-30.5 -12t-32 -8t-39 -4q-11 -1 -27.5 0.5t-33.5 5.5t-31.5 10.5t-22.5 15.5q-12 12 -13 28.5t5 33.5t18 32t25 25q29 25 70.5 40t89.5 18t98 -7.5t97 -35.5q10 -5 4 -11.5t-13 -3.5q-48 19 -98.5 25.5
t-96 2t-82.5 -18.5t-59 -35q-26 -25 -26 -52t32 -38q50 -13 95.5 -5t96.5 28zM155 24q4 5 11.5 7t13.5 1t7.5 -4.5t-4.5 -9.5l-42 -38q-2 -6 15 -4t36.5 2.5t35.5 -4t13 -22.5q-2 -12 -13.5 -22t-29 -17.5t-38 -12.5t-39.5 -8q-6 -1 -8.5 2t-1.5 7t4.5 8t9.5 6q6 1 20 4.5
t28.5 8t26 10.5t13.5 13q1 7 -17.5 7.5t-41 -1.5t-40 -2.5t-13.5 5.5q11 17 26 33z" />
    <glyph glyph-name="Ccedilla" unicode="&#xc7;" horiz-adv-x="838" 
d="M911 178q12 3 13 -4.5t-13 -12.5q-77 -33 -149.5 -57.5t-149.5 -41.5t-163.5 -26t-191.5 -10q-45 0 -87 11t-70.5 32.5t-38 53t10.5 70.5q17 35 42 67.5t53.5 62.5t59 56.5t59.5 48.5q28 23 72.5 54t95 58.5t101.5 45t93 13t70 -37.5t32 -107q0 -14 -7.5 -14t-7.5 14
q-3 15 -7 31t-10 31t-15 27.5t-24 20.5q-10 5 -24 7t-30 1.5t-31 -3.5t-27 -9q-118 -48 -227.5 -125.5t-191.5 -180.5q-45 -51 -52 -88.5t14 -62t64 -36.5t96 -12q93 0 170.5 8t151.5 24t150.5 39zM400 38q4 5 11.5 7t13.5 1t7.5 -4.5t-4.5 -9.5l-42 -38q-2 -6 15 -4
t36.5 2.5t35.5 -4t13 -22.5q-2 -12 -13.5 -22t-29 -17.5t-38 -12.5t-39.5 -8q-6 -1 -8.5 2t-1.5 7t4.5 8t9.5 6q6 1 20 4.5t28.5 8t26 10.5t13.5 13q1 7 -17.5 7.5t-41 -1.5t-40 -2.5t-13.5 5.5q11 17 26 33z" />
    <glyph glyph-name="guillemotleft" unicode="&#xab;" horiz-adv-x="346" 
d="M139 85l-31.5 30l-26.5 25l-26 23l34 47l24.5 34t14.5 19q6 6 8 3t1.5 -10t-2.5 -15t-5 -12q-5 -8 -12.5 -18.5l-14.5 -19.5l-16 -22l68 -68q6 -6 6.5 -11.5t-2.5 -8.5t-8.5 -2.5t-11.5 6.5zM228 99l-30.5 28t-24.5 20q-12 10 -23 17l23 39l17.5 28t11.5 16q6 6 9 5.5
t4.5 -4.5t0.5 -9.5t-4 -9.5q-5 -8 -10 -18.5t-10 -19.5l-10 -21l16 -14l18.5 -16.5t23.5 -22.5q12 -12 5.5 -20.5t-17.5 2.5z" />
    <glyph glyph-name="guillemotright" unicode="&#xbb;" horiz-adv-x="346" 
d="M172 85q-6 -6 -11.5 -6.5t-8.5 2.5t-2.5 8.5t6.5 11.5l68 68l-16 22l-14.5 19.5t-12.5 18.5q-3 4 -5 12t-2.5 15t1.5 10t8 -3q2 -3 14 -19l25 -34l34 -47l-26 -23l-27 -25zM83 99q-11 -11 -17.5 -2.5t5.5 20.5q13 13 23.5 22.5l18.5 16.5l16 14l-10 21q-5 9 -10 19.5
t-10 18.5q-3 4 -4 9.5t0.5 9.5t4.5 4.5t9 -5.5l11 -16t18 -28l23 -39q-11 -7 -23 -17q-11 -8 -25 -20t-30 -28z" />
    <glyph glyph-name="germandbls" unicode="&#xdf;" horiz-adv-x="308" 
d="M23 -186q0 -6 -4 -6t-4 6q-6 182 45 361.5t148 336.5q10 14 24 0q39 -36 55 -83t11.5 -95t-29 -92t-66.5 -74q14 -3 29 -7.5t27.5 -11t20.5 -16t8 -22.5q0 -15 -13.5 -29t-32.5 -26.5t-39 -22l-32 -15.5q-6 -3 -11.5 -1.5t-9 4.5t-3.5 7.5t6 7.5l29 15t32.5 18.5
t26.5 19.5t10 19q0 9 -8.5 15t-22 10.5t-30 8.5t-31.5 9q-8 3 -10 10.5t10 13.5q43 22 69 59t34.5 79.5t-1 86.5t-39.5 80q-46 -77 -79.5 -157.5t-57 -164t-38.5 -170t-24 -174.5z" />
    <glyph glyph-name="adieresis" unicode="&#xe4;" horiz-adv-x="268" 
d="M269 197q2 -4 0 -8.5t-6.5 -7.5t-10 -4.5t-8.5 1.5q-14 11 -33.5 15.5t-46.5 -1.5q-26 -6 -49 -21.5t-39 -33t-21.5 -32t4.5 -17.5q14 -5 33 -2.5t37.5 9t33 14.5t20.5 15q12 14 22 14t12 -6q2 -14 3.5 -27.5t1.5 -24.5q0 -5 -8 -11t-16 3q-5 5 -7 13t-2 13
q-6 -6 -21.5 -13.5t-35.5 -13t-41 -9t-37 -1.5q-14 2 -24 8.5t-9 17.5q1 18 13.5 39.5t32.5 42t46.5 36t56.5 21.5q35 7 58 1t41 -30zM118 338q10 0 17 -3t9 -14q1 -6 -9.5 -13.5t-24.5 -3.5q-9 2 -13.5 9t-4.5 14.5t4.5 13.5t13.5 6q4 0 7 -5q1 -2 1 -4zM248 327
q2 -8 -2.5 -12t-11.5 -1q-9 2 -16.5 9.5t-15.5 7.5q-11 -2 -16.5 7.5t2.5 16.5q5 8 15.5 7.5t17.5 -7.5q8 -5 15.5 -12t11.5 -16z" />
    <glyph glyph-name="edieresis" unicode="&#xeb;" horiz-adv-x="410" 
d="M488 173q5 6 6.5 -2.5t-6.5 -13.5q-57 -37 -115 -62.5t-98 -39.5q-21 -7 -49 -13.5t-56.5 -7.5t-54.5 6t-44 28t-19.5 49t9.5 54.5t31.5 46t47.5 22.5q18 1 29 -3t16.5 -10.5t5.5 -15t-3 -15.5q-5 -10 -15.5 -18t-24 -12.5t-29 -3.5t-29.5 10q-8 -15 -10.5 -31t4.5 -30
q7 -16 20.5 -25.5t30 -14.5t34.5 -5.5t36 2.5q72 11 144.5 40.5t138.5 64.5zM126 210q-15 -8 -25 -20q14 -7 29 -6.5t20 10.5q8 11 1 19.5t-25 -3.5zM120 329q10 0 17 -3t9 -14q1 -6 -9.5 -13.5t-24.5 -3.5q-9 2 -13.5 9t-4.5 14.5t4.5 13.5t13.5 6q4 0 7 -5q1 -2 1 -4z
M250 318q2 -8 -2.5 -12t-11.5 -1q-9 2 -16.5 9.5t-15.5 7.5q-11 -2 -16.5 7.5t2.5 16.5q5 8 15.5 7.5t17.5 -7.5q8 -5 15.5 -12t11.5 -16z" />
    <glyph glyph-name="Edieresis" unicode="&#xcb;" horiz-adv-x="968" 
d="M1044 175q10 5 9.5 -2t-9.5 -12q-69 -37 -134.5 -60.5t-133 -37t-138 -19t-149.5 -6.5q-41 -1 -78 -0.5t-74.5 3t-77 8.5t-84.5 16q-57 13 -89.5 39.5t-35.5 52.5q-3 24 18 46.5t70 40.5q35 13 79 27.5t88 25.5l142 36.5t142 41.5q-30 27 -66 48t-75 36.5t-79 27
t-78 19.5q-6 3 -7.5 7.5t0 9.5t5.5 8.5t9 3.5l108.5 -12t112 -11t106.5 -6.5t90 1.5q9 1 10 -2.5t-2 -8t-8.5 -8.5t-9.5 -4q-71 0 -137.5 1t-138.5 6q50 -16 95.5 -46.5l93.5 -62.5q9 -6 8 -12.5t-14 -11.5q-55 -20 -120.5 -36l-132.5 -34t-131.5 -39t-118.5 -49
q-26 -13 -23 -35q2 -13 19.5 -28.5t51.5 -26.5q48 -15 103 -24t119 -12.5t139 -1.5t164 11q48 4 92 10.5t88 16.5t88.5 25.5t93.5 39.5zM408 609q10 0 17 -3t9 -14q1 -6 -9.5 -13.5t-24.5 -3.5q-9 2 -13.5 9t-4.5 14.5t4.5 13.5t13.5 6q4 0 7 -5q1 -2 1 -4zM538 598
q2 -8 -2.5 -12t-11.5 -1q-9 2 -16.5 9.5t-15.5 7.5q-11 -2 -16.5 7.5t2.5 16.5q5 8 15.5 7.5t17.5 -7.5q8 -5 15.5 -12t11.5 -16z" />
    <glyph glyph-name="eacute" unicode="&#xe9;" horiz-adv-x="410" 
d="M488 173q5 6 6.5 -2.5t-6.5 -13.5q-57 -37 -115 -62.5t-98 -39.5q-21 -7 -49 -13.5t-56.5 -7.5t-54.5 6t-44 28t-19.5 49t9.5 54.5t31.5 46t47.5 22.5q18 1 29 -3t16.5 -10.5t5.5 -15t-3 -15.5q-5 -10 -15.5 -18t-24 -12.5t-29 -3.5t-29.5 10q-8 -15 -10.5 -31t4.5 -30
q7 -16 20.5 -25.5t30 -14.5t34.5 -5.5t36 2.5q72 11 144.5 40.5t138.5 64.5zM126 210q-15 -8 -25 -20q14 -7 29 -6.5t20 10.5q8 11 1 19.5t-25 -3.5zM274 427q5 4 11 2.5t10 -5.5t4.5 -10t-5.5 -11q-37 -29 -75 -52t-80 -46q-5 -3 -11 -3.5t-10 0.5t-5 4t5 7q42 27 81 56z
" />
    <glyph glyph-name="Eacute" unicode="&#xc9;" horiz-adv-x="968" 
d="M1044 175q10 5 9.5 -2t-9.5 -12q-69 -37 -134.5 -60.5t-133 -37t-138 -19t-149.5 -6.5q-41 -1 -78 -0.5t-74.5 3t-77 8.5t-84.5 16q-57 13 -89.5 39.5t-35.5 52.5q-3 24 18 46.5t70 40.5q35 13 79 27.5t88 25.5l142 36.5t142 41.5q-30 27 -66 48t-75 36.5t-79 27
t-78 19.5q-6 3 -7.5 7.5t0 9.5t5.5 8.5t9 3.5l108.5 -12t112 -11t106.5 -6.5t90 1.5q9 1 10 -2.5t-2 -8t-8.5 -8.5t-9.5 -4q-71 0 -137.5 1t-138.5 6q50 -16 95.5 -46.5l93.5 -62.5q9 -6 8 -12.5t-14 -11.5q-55 -20 -120.5 -36l-132.5 -34t-131.5 -39t-118.5 -49
q-26 -13 -23 -35q2 -13 19.5 -28.5t51.5 -26.5q48 -15 103 -24t119 -12.5t139 -1.5t164 11q48 4 92 10.5t88 16.5t88.5 25.5t93.5 39.5zM593 750q5 4 11 2.5t10 -5.5t4.5 -10t-5.5 -11q-37 -29 -75 -52t-80 -46q-5 -3 -11 -3.5t-10 0.5t-5 4t5 7q42 27 81 56z" />
    <glyph glyph-name="aacute" unicode="&#xe1;" horiz-adv-x="268" 
d="M269 197q2 -4 0 -8.5t-6.5 -7.5t-10 -4.5t-8.5 1.5q-14 11 -33.5 15.5t-46.5 -1.5q-26 -6 -49 -21.5t-39 -33t-21.5 -32t4.5 -17.5q14 -5 33 -2.5t37.5 9t33 14.5t20.5 15q12 14 22 14t12 -6q2 -14 3.5 -27.5t1.5 -24.5q0 -5 -8 -11t-16 3q-5 5 -7 13t-2 13
q-6 -6 -21.5 -13.5t-35.5 -13t-41 -9t-37 -1.5q-14 2 -24 8.5t-9 17.5q1 18 13.5 39.5t32.5 42t46.5 36t56.5 21.5q35 7 58 1t41 -30zM279 384q5 4 11 2.5t10 -5.5t4.5 -10t-5.5 -11q-37 -29 -75 -52t-80 -46q-5 -3 -11 -3.5t-10 0.5t-5 4t5 7q42 27 81 56z" />
    <glyph glyph-name="Aacute" unicode="&#xc1;" horiz-adv-x="578" 
d="M527 618q13 7 18.5 2t4.5 -13l-13 -168t-10.5 -155t-7.5 -152.5t-3 -160.5q0 -14 -9.5 -16.5t-19.5 5.5q-38 31 -72.5 63l-71 63t-76 61t-86.5 57q-2 2 -17.5 -20l-37.5 -55l-46.5 -69.5l-43.5 -64.5q-1 -2 -5.5 -3t-8.5 -1t-6.5 2t0.5 7l31 50l40.5 61.5l41.5 60
t34 45.5q-34 21 -63 37t-59.5 28t-64 19.5t-76.5 10.5q-12 1 -28 0t-31 -4t-26.5 -8t-14.5 -11q-4 -6 0 -14.5t11.5 -16.5t16 -15t12.5 -11q4 -5 3 -11.5t-14 0.5q-8 4 -18 10.5t-18.5 14.5t-14.5 17t-6 20q0 17 10.5 27.5t24.5 18.5q19 6 40.5 8.5t43.5 2t44 -3.5t41 -7
q56 -13 105.5 -37t97.5 -54q72 104 157 199.5t191 180.5zM198 226q42 -27 82.5 -56t77.5 -58.5t69 -58l58 -53.5q1 33 3 79t5 98l6.5 108l7 109.5t7.5 101t8 83.5q-94 -76 -176.5 -164.5t-147.5 -188.5zM605 798q5 4 11 2.5t10 -5.5t4.5 -10t-5.5 -11q-37 -29 -75 -52
t-80 -46q-5 -3 -11 -3.5t-10 0.5t-5 4t5 7q42 27 81 56z" />
    <glyph glyph-name="Adieresis" unicode="&#xc4;" horiz-adv-x="578" 
d="M527 618q13 7 18.5 2t4.5 -13l-13 -168t-10.5 -155t-7.5 -152.5t-3 -160.5q0 -14 -9.5 -16.5t-19.5 5.5q-38 31 -72.5 63l-71 63t-76 61t-86.5 57q-2 2 -17.5 -20l-37.5 -55l-46.5 -69.5l-43.5 -64.5q-1 -2 -5.5 -3t-8.5 -1t-6.5 2t0.5 7l31 50l40.5 61.5l41.5 60
t34 45.5q-34 21 -63 37t-59.5 28t-64 19.5t-76.5 10.5q-12 1 -28 0t-31 -4t-26.5 -8t-14.5 -11q-4 -6 0 -14.5t11.5 -16.5t16 -15t12.5 -11q4 -5 3 -11.5t-14 0.5q-8 4 -18 10.5t-18.5 14.5t-14.5 17t-6 20q0 17 10.5 27.5t24.5 18.5q19 6 40.5 8.5t43.5 2t44 -3.5t41 -7
q56 -13 105.5 -37t97.5 -54q72 104 157 199.5t191 180.5zM198 226q42 -27 82.5 -56t77.5 -58.5t69 -58l58 -53.5q1 33 3 79t5 98l6.5 108l7 109.5t7.5 101t8 83.5q-94 -76 -176.5 -164.5t-147.5 -188.5zM463 697q10 0 17 -3t9 -14q1 -6 -9.5 -13.5t-24.5 -3.5q-9 2 -13.5 9
t-4.5 14.5t4.5 13.5t13.5 6q4 0 7 -5q1 -2 1 -4zM593 686q2 -8 -2.5 -12t-11.5 -1q-9 2 -16.5 9.5t-15.5 7.5q-11 -2 -16.5 7.5t2.5 16.5q5 8 15.5 7.5t17.5 -7.5q8 -5 15.5 -12t11.5 -16z" />
    <glyph glyph-name="currency" unicode="&#xa4;" horiz-adv-x="498" 
d="M306 290q-1 2 -1 3.5t-1 3.5l-6 -3q6 -11 10.5 -27.5t4.5 -27.5q0 -15 -5.5 -34.5t-15.5 -33.5q10 -7 21 -16t20 -18t15 -16.5t7 -11.5l-15 -9q-9 4 -26 20l-34 33q-8 -12 -21 -17t-25 -5q-14 0 -24 10.5t-15 27.5l-44 -27t-41 -22q-4 -4 -8.5 -3.5t-8 3t-4 6t4.5 6.5
l17 11t24.5 14.5l28 15t27.5 12.5q-2 6 -2 12v12q0 15 3 32.5t10 34.5q-5 3 -9 17.5t-17 31.5q-11 15 -22 24.5t-21 15.5q-7 2 -3 7t12 2q26 -10 45.5 -30.5t25.5 -43.5q11 17 25.5 27.5t34.5 10.5t32 -17l43.5 27l43.5 27q3 2 6.5 2t5.5 -1.5t1 -4.5t-7 -7
q-16 -10 -39.5 -29t-45.5 -33q1 -3 0 -6t-7 -6zM257 175q-3 1 -3 5q0 7 10 7q2 0 10 -5q8 18 10.5 36.5t2.5 23.5q0 27 -14 48q0 6 1 11.5t7 5.5q2 2 4.5 2.5t4.5 2.5q-6 3 -13 3q-23 0 -35.5 -13t-19 -31t-8 -37t-1.5 -31q0 -8 1 -11h2v2l1 1q2 0 2 -4q0 -5 -3 -8
q4 -14 12 -22.5t15 -8.5q14 0 23 14z" />
    <glyph glyph-name="asciitilde" unicode="~" horiz-adv-x="588" 
d="M148 177q-3 -1 -6 0q-6 2 -2 8q11 13 25 32.5t31 36.5t36.5 29.5t40.5 12.5q18 0 33.5 -14.5t28.5 -32.5t25 -32.5t23 -14.5q18 0 34 20t28 45q4 6 10 2t6 -10q0 -14 -5.5 -28t-15.5 -25.5t-22.5 -19t-26.5 -7.5q-18 0 -36 15q-10 6 -20 19.5l-20.5 26.5t-22.5 23t-26 10
q-17 0 -33.5 -11.5t-32 -27t-29 -31.5t-23.5 -26z" />
    <glyph glyph-name="Thorn" unicode="&#xde;" horiz-adv-x="552" 
d="M243 700q2 8 9 11t14 2.5t11.5 -4t2.5 -9.5l-83 -254l-87 -284q42 75 102 141q23 29 54 59t66.5 54.5t73.5 40t75 15.5q16 0 32 -3.5t29 -12t20.5 -22.5t7.5 -36q0 -27 -15 -52.5t-39.5 -48.5t-56 -42.5t-64 -34t-63.5 -22.5t-55 -8q-19 0 -34.5 7t-15.5 24q0 7 6 20.5
t17 13.5q5 0 8.5 -6.5t3.5 -11.5q-5 -5 -5 -9q0 -11 12 -12t30 3t39 12t40 16.5l32.5 15l15.5 7.5q16 9 36.5 22t38.5 29.5t30 36.5t12 43q0 26 -14 36.5t-34 10.5q-27 -1 -57 -11.5t-45 -18.5q-62 -31 -113 -78.5t-92 -104.5t-72 -120t-52 -125q0 -12 -13 -12q-5 0 -8.5 3
t-3.5 9q24 97 49.5 186.5l51 175.5l51.5 172z" />
    <glyph glyph-name="thorn" unicode="&#xfe;" horiz-adv-x="343" 
d="M157 469q3 10 11.5 8t6.5 -8q-34 -126 -59.5 -248.5t-48.5 -246.5q35 70 82 134.5t113 109.5q10 6 18.5 10t17.5 4q17 0 29.5 -12.5t12.5 -35.5q0 -19 -8.5 -34t-22 -26t-31.5 -17t-36 -6q-6 0 -14 1t-5 11q11 0 26 5t28.5 14t23 21.5t9.5 26.5q0 23 -14 23
q-8 0 -17.5 -5.5t-18.5 -13t-16 -14t-10 -9.5l-44 -45t-43 -51q-35 -51 -59.5 -108t-46.5 -122q-6 -6 -15 -6q-14 0 -14 15q59 318 145 625z" />
    <glyph glyph-name="multiply" unicode="&#xd7;" horiz-adv-x="379" 
d="M103 274q0 6 1 7t8 1l31.5 -31.5t36.5 -32.5l7 7l26.5 27l28.5 29t27.5 25.5t23.5 16.5q5 2 9.5 -5.5t-7.5 -21.5q-19 -21 -46 -45t-46 -43l-4 -4q7 -5 20.5 -10.5t27 -12t23.5 -12.5t10 -10q0 -10 -8 -10q-22 0 -47 14.5t-41 26.5l-47.5 -40l-49.5 -40q-3 -3 -9 -3
q-10 0 -10 6q0 2 3 5q24 24 48.5 45l46.5 41q-17 15 -33 32.5t-30 37.5z" />
    <glyph glyph-name="eth" unicode="&#xf0;" horiz-adv-x="289" 
d="M94 200q-10 0 -15 5t-5 12q0 3 3 8l55.5 18.5t53.5 20.5q-17 16 -40 25.5t-49 9.5h-12q-11 0 -11 10q0 5 5.5 8t13.5 5t15.5 2.5t12.5 0.5q28 0 53.5 -13t44.5 -35q35 14 69 25.5t69 21.5q6 0 8 -4q1 -2 1 -4l-67 -29l-67 -28q22 -33 22 -71q0 -30 -14.5 -60t-38.5 -54
t-54.5 -39t-61.5 -15q-21 0 -39 14t-18 33q0 22 12 45.5t32 43.5t45 33t52 13q34 0 54 -30v8q0 36 -22 66l-53.5 -22.5zM152 64q25 17 43 40.5t25 49.5q-7 0 -10 5q-10 13 -21.5 18.5t-23.5 5.5q-17 0 -35.5 -10.5t-34.5 -26t-26 -34.5t-10 -36q0 -15 9.5 -24t31.5 -9
q11 1 27 8t25 13z" />
    <glyph glyph-name="asterisk" unicode="*" horiz-adv-x="562" 
d="M73 531q-3 3 -3 9q0 5 3 10.5t8 5.5q70 -22 139 -35l-8 21.5l-8 21.5q0 6 5 6q6 0 14 -13.5t16 -32.5q11 33 26 64t31 59q4 0 7.5 -2t1.5 -10q-2 -11 -5 -19l-7 -18q-6 -21 -14.5 -42l-16.5 -41q0 -1 -0.5 -1t-0.5 -1q63 -11 127 -17t129 -6q7 0 7 -4q0 -3 -9.5 -4
t-23 -1.5t-27 -0.5h-21.5q-48 0 -94.5 3t-94.5 10q-1 -2 -1 -3t-1 -2q5 -14 8 -26.5l5 -20.5q-5 5 -10 11t-9 14q-5 -14 -9 -28.5t-8 -26t-7.5 -19t-5.5 -7.5q-4 0 -4 6q0 25 3.5 45t11.5 47l-36 -29.5t-35 -20.5q-5 -2 -9 0.5t0 6.5q17 14 34.5 26.5t38.5 31.5
q-74 12 -147 33z" />
    <glyph glyph-name="copyright" unicode="&#xa9;" horiz-adv-x="589" 
d="M404 258q-3 -2 -5 -3q-5 -2 -5 3q25 25 45 57.5t29 68t5 72.5t-26 72q-18 27 -43.5 38.5t-53 12t-56.5 -9t-54.5 -26t-46.5 -37.5t-33 -43q-18 -34 -29 -76.5t-9 -83.5t20 -77t58 -57q51 -18 99.5 -5.5t86.5 36.5q18 12 30 21.5t20 18l14.5 16t13.5 16.5q1 3 7 5t12 2.5
t10 -2t1 -9.5q-21 -31 -51 -58t-65 -45.5t-73.5 -27t-78.5 -2.5t-67.5 25t-43.5 48.5t-21 67t0 80.5q6 37 20 71.5t34.5 64t48 52t61.5 34.5q28 12 61.5 16t65 -3t57.5 -26.5t38 -53.5q13 -31 15.5 -64.5t-7 -67t-30.5 -65t-54 -56.5zM252 430q12 10 24.5 11t23 -6t17.5 -20
t8 -30q0 -6 -4 -12.5t-9 1.5q-9 34 -23.5 37.5t-26.5 -11.5q-3 -5 -5 -16t-2.5 -24.5t1 -27.5t4.5 -23q7 -24 18.5 -41.5t25 -26.5t28 -8.5t27.5 11.5q11 11 14.5 6.5t-3.5 -11.5q-20 -20 -42.5 -20.5t-42 11.5t-34 33.5t-19.5 45.5q-4 14 -5 31.5t1.5 34.5t8 31.5
t15.5 23.5z" />
    <glyph glyph-name="registered" unicode="&#xae;" horiz-adv-x="589" 
d="M249 346q0 -21 3.5 -41t3.5 -37q1 -5 -5 -3t-9 9q-5 11 -8 29.5t-3.5 38t1.5 38.5t7 31q6 15 15 31.5t21.5 30t28 23.5t33.5 13q12 0 22.5 -8.5t8.5 -32.5q-3 -31 -28.5 -53.5t-73.5 -14.5q6 -24 18.5 -50.5t27 -49t29 -39t24.5 -21.5q6 7 12 5.5t1 -6.5q-7 -8 -15.5 -7
t-18 6.5t-19 14.5t-17.5 19q-9 10 -21.5 27.5t-22 37t-13.5 39t4 35.5q15 -1 32 2.5t31 11t22 20t6 29.5q-3 10 -9.5 12t-14.5 -0.5t-15.5 -7.5t-11.5 -9q-9 -9 -17.5 -23.5t-14.5 -31.5t-10 -35t-4 -33zM404 258q-3 -2 -5 -3q-5 -2 -5 3q25 25 45 57.5t29 68t5 72.5t-26 72
q-18 27 -43.5 38.5t-53 12t-56.5 -9t-54.5 -26t-46.5 -37.5t-33 -43q-18 -34 -29 -76.5t-9 -83.5t20 -77t58 -57q51 -18 99.5 -5.5t86.5 36.5q18 12 30 21.5t20 18l14.5 16t13.5 16.5q1 3 7 5t12 2.5t10 -2t1 -9.5q-21 -31 -51 -58t-65 -45.5t-73.5 -27t-78.5 -2.5t-67.5 25
t-43.5 48.5t-21 67t0 80.5q6 37 20 71.5t34.5 64t48 52t61.5 34.5q28 12 61.5 16t65 -3t57.5 -26.5t38 -53.5q13 -31 15.5 -64.5t-7 -67t-30.5 -65t-54 -56.5z" />
    <glyph glyph-name="uni0025" unicode="%" horiz-adv-x="392" 
d="M328 429l-125.5 -202.5t-98.5 -189.5q3 -3 5 -2t2 -4q0 -2 -2.5 -4l-10.5 -8q-5 0 -13 1t-6 8q3 16 15.5 44.5t28.5 59.5l31.5 60l25.5 47l13.5 23.5l22 38l27 45l27.5 44.5t24 37t17 22q4 4 8.5 3.5t7.5 -4t3.5 -9t-2.5 -10.5zM278 240q1 12 9 16.5t18 4.5t18 -3.5
t8 -6.5t-4 -1t-8 2t-6 -2q-1 -1 -2 -1q8 0 11 -5.5t3 -13.5q0 -7 -3 -16.5t-12 -9.5q-15 0 -23.5 12t-8.5 24zM139 290q-9 0 -11.5 8t0 18t9.5 17t18 6q6 -1 9 -8.5t-1 -23.5q-6 -15 -12 -16t-12 -1z" />
    <glyph glyph-name="ae" unicode="&#xe6;" horiz-adv-x="591" 
d="M669 173q5 6 6.5 -2.5t-6.5 -13.5q-57 -37 -115 -62.5t-98 -39.5q-21 -7 -49 -13.5t-56.5 -7.5t-54.5 6t-44 28t-19.5 49t9.5 54l4 10q-12 4 -34 5q-33 2 -63 -6.5t-51 -23t-35.5 -34t-20 -34t4.5 -17.5q14 -5 33 -2.5t37.5 9t37.5 19t39 45.5q6 10 15.5 12.5t7.5 -19.5
q-4 -25 -5.5 -43t-1.5 -29q0 -5 -8 -11t-16 3q-5 5 -7 13t0 18q-8 -11 -23.5 -18.5t-35.5 -13t-41 -9t-37 -1.5q-14 2 -24 8.5t-9 17.5q1 18 13.5 39.5t30 41t46.5 36t68.5 20.5t67.5 -2q14 -2 23 -5q7 9 15 17q21 20 48 23q18 1 29 -3t16.5 -10.5t5.5 -15t-3 -15.5
q-5 -10 -15.5 -18t-24 -12.5t-29 -3.5t-29.5 10q-8 -15 -10.5 -31t4.5 -30q7 -16 20.5 -25.5t30 -14.5t34.5 -5.5t36 2.5q72 11 144.5 40.5t138.5 64.5zM307 210q-15 -8 -25 -20q14 -7 29 -6.5t20 10.5q8 11 1 19.5t-25 -3.5z" />
    <glyph glyph-name="oe" unicode="&#x153;" horiz-adv-x="587" 
d="M665 173q5 6 6.5 -2.5t-6.5 -13.5q-57 -37 -115 -62.5t-98 -39.5q-21 -7 -49 -13.5t-56.5 -7.5t-54.5 6t-44 28t-19.5 49t9.5 54l3 7q-50 10 -96 22q19 -22 32.5 -54t14.5 -93q-1 -22 -13 -28q-26 -3 -48.5 6t-37.5 27t-22 46t-4 52q4 26 12.5 41.5t20.5 21.5
q11 -4 0 -19q-10 -31 -9 -54.5t12 -45t27 -35.5t31 -13q7 16 -7.5 64t-40.5 84q-2 15 15.5 20.5t51 -5l70.5 -21.5q8 13 19 23q21 20 48 23q18 1 29 -3t16.5 -10.5t5.5 -15t-3 -15.5q-5 -10 -25.5 -22t-71.5 -3h-1q-8 -14 -10.5 -30t4.5 -30q7 -16 20.5 -25.5t30 -14.5
t34.5 -5.5t36 2.5q72 11 144.5 40.5t138.5 64.5zM303 210q-15 -8 -25 -20q18 -5 31 -5.5t18 9.5q8 11 1 19.5t-25 -3.5z" />
    <glyph glyph-name="sterling" unicode="&#xa3;" horiz-adv-x="467" 
d="M122 143q-10 0 -10 9t10 11q32 2 63.5 2h63.5h1q-2 26 -11.5 52l-18.5 49q-17 42 -32 83t-26 84q-5 29 -6.5 60t11.5 59q17 29 43 40t54.5 9t56 -15t47.5 -32q25 -21 41 -48t24 -56.5t8 -60.5t-6 -62q-3 -2 -6 -2t-3 4q9 36 2.5 75.5t-25 74.5t-48 61.5t-67.5 35.5
q-39 9 -60.5 -1.5t-30.5 -33t-8 -53t7.5 -62t16 -59.5t16.5 -46l31 -76t19 -80q22 -1 44 -3t36 -8q4 -3 4 -7t-4 -4q-20 -2 -40 -2t-41 2q-3 -29 -19 -53q-14 -23 -37.5 -38t-51.5 -24h34q9 0 34 -2t52.5 -2.5t49.5 2.5t24 13t10 10t9 -10q2 -18 -9 -26t-27 -10.5
t-33.5 -1.5t-28.5 1h-244q-11 0 -12.5 10.5t9.5 12.5q21 3 45 7.5t48 10.5t46 15t40 23q30 26 33 64h-6h-61t-61 -2z" />
    <glyph glyph-name="cent" unicode="&#xa2;" horiz-adv-x="341" 
d="M274 70q6 2 8.5 0t3.5 -5.5t-0.5 -7t-3.5 -4.5q-19 -10 -34.5 -17t-30.5 -12t-32 -8t-39 -4q-11 -1 -27.5 0.5t-33.5 5.5t-31.5 10.5t-22.5 15.5q-12 12 -13 28.5t5 33.5t18 32t25 25q29 25 70.5 40t89.5 18t98 -7.5t97 -35.5q10 -5 4 -11.5t-13 -3.5q-48 19 -98.5 25.5
t-96 2t-82.5 -18.5t-59 -35q-26 -25 -26 -52t32 -38q50 -13 95.5 -5t96.5 28zM194 338q2 4 10 4.5t8 -3.5q0 -17 -6 -47.5t-17.5 -80.5l-29 -124l-41.5 -179q-2 -5 -7 -4t-5 4q5 62 16 121.5t25 120.5q4 26 10 52.5t12.5 51t13 46.5z" />
    <glyph glyph-name="dollar" unicode="$" horiz-adv-x="495" 
d="M451 187q0 -4 -3.5 -2t-2.5 12q5 45 -8.5 85t-48.5 73q-16 15 -38.5 27.5t-46.5 12.5q-36 -4 -41 -26.5t1 -57.5q11 -44 38.5 -80t59.5 -67q7 -8 21.5 -18t27.5 -22t21 -24.5t3 -25.5q-4 -13 -24 -21.5t-47.5 -14.5t-58 -8.5t-55.5 -3.5q-36 -1 -73.5 0t-69 7t-53 18
t-25.5 32q-2 15 8 25t24.5 16t29.5 8.5t23 3.5q4 0 6 -2.5t-1 -6.5q-9 -5 -22.5 -10t-21.5 -11q-10 -11 -7.5 -19t11.5 -13.5t20 -9l17 -5.5q26 -4 52.5 -6.5t51.5 -2.5q27 0 54 2l53 4q9 2 23.5 4.5t27.5 7t20.5 11t2.5 16.5q-30 29 -62.5 56.5t-58.5 62.5q-20 25 -34.5 55
t-18.5 63q-4 32 8.5 52t34 28.5t48 5.5t50.5 -16q28 -16 48 -40.5t31 -53t12.5 -60t-7.5 -61.5zM367 561q1 5 5.5 7t8.5 1.5t6.5 -3.5t0.5 -9l-33.5 -155.5t-27.5 -155.5q-8 -77 -6 -153t-5 -151q0 -7 -7 -8.5t-8 5.5q-12 85 -7.5 166t7.5 150q10 76 25 155t41 151z" />
    <glyph glyph-name="Euro" unicode="&#x20ac;" horiz-adv-x="389" 
d="M429 400q2 -6 -4 -9.5t-10 1.5q-27 29 -56.5 31.5t-58.5 -12t-56 -42t-50 -59t-41 -62t-27 -51.5q-11 -24 -21.5 -52.5t-3.5 -54.5q4 -16 14.5 -26.5t24.5 -16t30 -7.5t31 -1q28 1 53.5 11t49 24.5t46 32t44.5 32.5q4 2 7.5 -1t-1.5 -7q-21 -24 -47 -47t-55.5 -39.5
t-62 -25t-66.5 -3.5q-35 3 -57 18t-32 37.5t-8 50.5t14 58q29 68 72 129.5t101 101.5q19 14 42 22t46 8t44.5 -9.5t37.5 -31.5zM31 270q-3 0 -5.5 5.5t5.5 4.5q57 -1 111.5 9.5t111.5 15.5q4 2 6.5 -0.5t-1.5 -6.5q-22 -14 -49 -19.5t-53 -7.5q-34 -4 -68.5 -5t-57.5 4z
M24 197q-5 1 -4 7t7 6q51 2 100 6t100 9q4 0 6 -2.5t-1 -4.5q-48 -20 -102.5 -24.5t-105.5 3.5z" />
    <glyph glyph-name="trademark" unicode="&#x2122;" horiz-adv-x="587" 
d="M52 578q14 6 39 11.5t54.5 11t61 10.5l58 9t45 6.5t22.5 2.5q6 0 7.5 -3t-0.5 -6.5t-5.5 -7t-7.5 -3.5t-18 -2l-32 -4.5l-36.5 -5t-31.5 -3.5l-37 -5.5t-48.5 -7.5t-45 -8t-26.5 -5q-12 -3 -10.5 1.5t11.5 8.5zM229 569q-2 6 0 12.5t6 1.5t13 -29.5t14 -70.5
q1 -15 1 -30.5t-1 -28t-2.5 -21.5t-2.5 -12t-4 -3t-7 1.5t-6.5 5.5t-1.5 10q2 15 1.5 40.5t-2 51t-4 46.5t-4.5 26zM320 616q3 14 3.5 11.5t5.5 -3.5q2 0 13.5 -9.5t27 -20.5t31.5 -19.5t28 -7.5t24.5 13t24 27t19.5 29.5t11 19.5t6.5 6t7 0t6 -4t2.5 -5t0.5 -13.5t1 -29
t1 -37.5t1 -37.5t0.5 -30v-14.5q-1 -7 -6.5 -13.5t-8.5 1.5q-2 4 -4.5 24.5l-5.5 44.5t-4.5 45.5t-0.5 26.5q1 3 -4 -7.5t-14.5 -24.5t-24.5 -27t-34 -15q-16 -2 -31 5t-26 16q-14 11 -26 25q2 -39 4 -72q2 -28 3.5 -52t1.5 -28q0 -8 -6.5 -9.5t-8.5 9.5q-1 5 -4.5 30.5
t-7 55.5t-6 56.5t-0.5 33.5z" />
    <glyph glyph-name="less" unicode="&#x3c;" horiz-adv-x="305" 
d="M241 280q7 3 11.5 -3t-2.5 -10q-42 -24 -81 -51.5t-71 -61.5q23 -13 48.5 -20.5t52.5 -11.5q10 -2 7 -11.5t-12 -9.5q-65 6 -121 45q-4 2 -4 7t4 7l80.5 64.5t87.5 55.5z" />
    <glyph glyph-name="greater" unicode="&#x3e;" horiz-adv-x="371" 
d="M86 270q-5 2 -4.5 8.5t7.5 6.5q51 -5 99.5 -18t97.5 -30q5 -2 7.5 -7.5t-2.5 -9.5l-37.5 -25.5t-45 -28.5t-47 -25.5t-43.5 -15.5q-5 -1 -7.5 4.5t5.5 10.5l36.5 21.5l36.5 20.5q17 9 34.5 19.5t34.5 22.5q-42 14 -84.5 24.5z" />
    <glyph glyph-name="equal" unicode="=" horiz-adv-x="443" 
d="M132 250q-7 0 -5.5 8.5t7.5 8.5q24 0 49 -3.5t52 -6.5q23 -2 44.5 -2t40.5 -5q8 -2 8 -7.5t-8 -7.5q-21 -5 -45 -5.5t-48.5 2.5t-49 7.5t-45.5 10.5zM115 157q-6 0 -6.5 7t4.5 7q10 1 39.5 2t62.5 1t63 -1t42 -4q5 -3 5 -7.5t-5 -4.5q-20 -5 -46 -6.5t-53.5 -0.5t-55.5 3
t-50 4z" />
    <glyph glyph-name="AE" unicode="&#xc6;" horiz-adv-x="1267" 
d="M45 1q-2 -3 -6 -3t-7.5 1.5t-5.5 5t0 7.5q72 93 159.5 181.5t184 169.5t199.5 151t206 126q5 2 15.5 -0.5t8.5 -13.5q-2 -12 -3.5 -23.5t-3.5 -22.5q37 1 77 4l77.5 6t70.5 6.5t57 5.5q4 0 5.5 -4.5t-1 -11t-8.5 -12.5t-18 -7q-29 -4 -99.5 -7t-164.5 -5
q-17 -77 -45 -149l-54 -145q51 6 102 10.5t102 12.5q25 3 52 8l53.5 9.5t50 6.5t40.5 0q5 -1 8 -5.5t-5 -6.5q-47 -18 -98 -24.5t-102 -14.5q-24 -3 -79 -9t-133 -12q-6 -18 -11.5 -36.5l-10.5 -36.5l-10.5 -35.5t-6 -36t6.5 -32.5t28 -25q26 -9 56.5 -12.5t58.5 -3.5
q116 0 209 21.5t162.5 49.5t117 55t71.5 38q6 3 5.5 -6.5t-6.5 -14.5q-15 -10 -44.5 -28t-71 -39t-94 -41.5t-112.5 -36t-125.5 -23.5t-134.5 -2q-17 0 -43 2t-51.5 8.5t-44.5 19.5t-21 35q-3 14 -1.5 30.5t5 34t8 34.5t7.5 31q4 11 7.5 23t7.5 24q-82 -6 -182.5 -10.5
t-215.5 -3.5l-97.5 -101.5t-101.5 -116.5zM764 602l-93 -52t-114.5 -72.5t-134 -99.5t-150.5 -132q96 -2 190 1.5t190 10.5q7 17 13.5 34.5l13.5 35.5l48 135t37 139z" />
    <glyph glyph-name="OE" unicode="&#x152;" horiz-adv-x="1005" 
d="M492 537q33 0 56 -14t38 -34q2 1 2.5 1t2.5 1q103 16 204 25t204 2q7 0 10 -4t3 -8.5t-3 -8t-10 -3.5q-89 0 -176.5 -5t-176.5 -20q25 -19 40.5 -47t22.5 -58q5 -36 -3.5 -69.5t-25.5 -64.5q32 4 63 7t63 3q2 0 4 -4t-1 -5q-26 -6 -64 -12t-78 -9q-5 -9 -11.5 -17
l-12.5 -16q-33 -38 -73.5 -69t-85.5 -54t-93.5 -36.5t-97.5 -15.5q-39 -3 -85 3t-84 24.5t-61 52.5t-15 86q5 37 30 78.5t62 82t82.5 78t93.5 66t93.5 46t82.5 18.5zM586 208q-5 0 -5.5 7t4.5 7q15 1 30 1.5t31 2.5q11 18 18.5 37t11.5 41q8 42 -8 83t-54 63q-2 1 -2.5 1
t-2.5 1l3.5 -7t3.5 -6q3 -7 -5 -9t-11 3q-11 32 -29 49t-42.5 23t-55 2.5t-66.5 -13.5q-23 -6 -52 -23.5t-61 -41.5t-63.5 -53.5t-59.5 -60t-49 -60t-32 -54.5q-12 -31 -10.5 -57.5t14 -48t35 -37t52.5 -23.5q49 -14 101 -11.5t102 17.5t96.5 40t83.5 57q19 15 36.5 32
t32.5 37h-24.5t-22.5 1zM468 17q-9 1 -6.5 10t9.5 11q63 5 124.5 5t122.5 7q62 5 123 13.5t125 10.5q5 0 5 -3.5t-5 -5.5q-20 -7 -53.5 -13.5t-76.5 -12.5t-91 -11t-97 -8t-95.5 -4t-84.5 1z" />
    <glyph glyph-name="oslash" unicode="&#xf8;" horiz-adv-x="352" 
d="M424 178q8 3 10.5 -1.5t2 -10.5t-4 -11.5t-8.5 -6.5q-42 -9 -83 -13t-78.5 -5t-69.5 0q-22 0 -40 1q-2 -3 -2.5 -5.5t-2.5 -4.5q9 -11 19 -27q16 -23 22 -47q4 -23 -13 -28q-26 -3 -49 6q-12 5 -22 12l-18.5 -32t-15.5 -23q-5 -7 -10.5 -5.5t-4.5 3.5q4 17 11.5 35.5
t18.5 41.5q-12 16 -18 38q-7 25 -1 53q3 16 9 27t11 12q12 0 9 -20q-3 -21 -1 -41q2 -19 8 -34q1 2 1.5 4t2.5 4q2 5 5 9.5t5 9.5q-5 6 -11 12q-4 2 -4.5 7t1.5 10t5 8.5t6 3.5q12 -1 24 -3q9 17 19 33l23 36q3 5 11.5 3t6.5 -5l-16.5 -39.5t-14.5 -29.5q47 -2 97 -2
q79 0 160 25zM119 65l4 -4q12 -11 29 -15q2 16 -11 39q-3 5 -6 11q-4 -7 -7.5 -15t-8.5 -16z" />
    <glyph glyph-name="braceleft" unicode="{" horiz-adv-x="273" 
d="M241 496q0 -3 -2.5 -4.5t-4.5 0.5q-21 24 -52 43q-3 -22 -2.5 -44t1.5 -44.5t-1 -44.5t-9 -43q-6 -20 -17.5 -33.5t-26 -25t-30.5 -22t-31 -22.5q26 -21 38 -50.5t12 -59.5q0 -34 -10.5 -64.5l-22.5 -62.5q-7 -23 -2.5 -35.5t14.5 -12.5q7 1 2.5 -6.5t-14.5 -8.5
q-13 0 -24 5.5t-15 18.5q-5 14 2.5 27t12.5 26q17 32 21 63q10 43 2.5 84t-44.5 67q-5 2 -5 8t5 9q17 17 36 30.5t35.5 27.5t28 32.5t12.5 46.5q1 19 0 39t-1.5 39.5t1 38.5t7.5 38q2 5 9 7t13 -1q41 -26 62 -66z" />
    <glyph glyph-name="braceright" unicode="}" horiz-adv-x="270" 
d="M73 608q-5 0 -8 4t1 6q7 6 21.5 15.5t31 18.5t32 15t26.5 4q11 -4 14 -13t1.5 -19.5t-5 -21t-6.5 -16.5q-7 -19 -18 -36.5l-22.5 -35t-20 -36t-9.5 -39.5q-3 -26 8.5 -44t30.5 -29.5t42.5 -18t44.5 -10.5q8 0 8 -7.5t-5 -10.5q-75 -49 -101 -126q-14 -42 -8.5 -80.5
t19.5 -80.5q8 -29 8.5 -59t-22.5 -53q-22 -22 -50.5 -29.5t-55.5 -9.5q-8 0 -9.5 8t6.5 10l41.5 11.5t38.5 19.5q12 9 16.5 21t4.5 25.5t-3 28t-7 27.5q-11 32 -17 61.5t-1 60.5q7 51 33.5 95t68.5 73q-23 6 -45 15t-39.5 22.5t-27 33.5t-7.5 49q3 32 21.5 61l34.5 55
l12.5 20.5t11.5 23.5t0.5 18.5t-20.5 4.5q-8 0 -17.5 -4t-18.5 -9.5l-18 -10.5t-16 -8z" />
    <glyph glyph-name="endash" unicode="&#x2013;" horiz-adv-x="576" 
d="M114 244q-2 0 -4 5.5t1 5.5q19 7 60 12t87 6.5t88 -0.5t62 -8q5 -3 6.5 -8.5t-6.5 -5.5q-35 3 -74 1.5t-78 -4t-75.5 -4.5t-66.5 0z" />
    <glyph glyph-name="underscore" unicode="_" horiz-adv-x="481" 
d="M19 -36q-2 1 -1.5 8t3.5 6q20 3 46 1t49 -1q27 -2 53 -1.5t53 0.5q32 3 61.5 4t58.5 4q23 2 49.5 5t52.5 1q5 0 6.5 -6t-3.5 -8q-49 -14 -103.5 -15t-105.5 -3q-31 -1 -61.5 -1h-62.5q-23 2 -49 2t-46 4z" />
    <glyph glyph-name="brokenbar" unicode="&#xa6;" horiz-adv-x="348" 
d="M222 778q0 3 3.5 3t5.5 -3q1 -13 -1.5 -42t-6.5 -67t-9.5 -83.5t-10.5 -92t-8.5 -91.5t-4.5 -83q0 -35 -1 -70t-6 -70q-2 -8 -11 -6t-9 10q-3 76 4 153t13 152q2 39 6.5 77.5t7.5 76.5l10 69.5t18 66.5zM165 40q3 11 12 11t9 -11q3 -29 3.5 -54.5l1 -52.5t1.5 -57t4 -68
q2 -30 6 -58t7 -54t5 -52t0 -53q0 -5 -6 -5.5t-8 1.5q-7 15 -12 43.5t-9 60t-6.5 61t-3.5 46.5q-3 60 -6.5 120.5t2.5 121.5z" />
    <glyph glyph-name="bar" unicode="|" horiz-adv-x="302" 
d="M179 704q3 8 10 6.5t7 -6.5q0 -66 -6 -133t-11 -133q-2 -74 -6.5 -149t-7.5 -148q-1 -33 -1.5 -69t-0.5 -80.5t0.5 -99.5t1.5 -127q-7 -5 -14 0q-7 39 -10 86t-3.5 97t0.5 101l2 99q10 141 16 280t23 276z" />
    <glyph glyph-name="asciicircum" unicode="^" horiz-adv-x="529" 
d="M113 263q-3 -2 -8 -0.5t-3 5.5q45 69 93 132.5t93 129.5q5 8 13.5 6.5t10.5 -10.5l29 -61.5t31 -59.5l32.5 -47.5t27.5 -48.5q3 -4 1.5 -6.5t-4.5 -3.5t-6.5 -1t-4.5 1q-24 21 -42.5 50t-32.5 56q-14 23 -26 47t-23 49l-90.5 -118.5z" />
    <glyph glyph-name="hyphen" unicode="-" horiz-adv-x="500" 
d="M146 273q-6 0 -9.5 3.5t-3.5 8t3.5 8.5t9.5 4q35 4 68.5 5t64.5 3q27 0 54 1.5t52 -9.5q2 0 2 -4t-2 -6q-25 -11 -52 -9.5t-54 -1.5q-31 0 -64.5 -0.5t-68.5 -2.5z" />
    <glyph glyph-name="slash" unicode="/" horiz-adv-x="463" 
d="M21 -73q16 53 40 101.5l47 98.5l53.5 102t55.5 101l57 101l57 100t53.5 101t46.5 105q3 4 8 5.5t10 1.5t8.5 -3t2.5 -8q-9 -53 -34 -100t-51 -89l-61.5 -99.5l-58.5 -96.5q-26 -53 -54 -103l-54 -101l-56 -123.5t-53 -96.5q-5 -7 -12 -6t-5 9z" />
    <glyph glyph-name="tilde" unicode="&#x2dc;" horiz-adv-x="414" 
d="M52 200q-2 -2 -6.5 -1.5t-2.5 3.5l22 33t29.5 34t35.5 22t40 -3q15 -8 25 -22.5t20 -27.5q6 -8 12.5 -15.5t14.5 -10.5t16.5 -1.5t19.5 11.5q10 9 16.5 22t14.5 24q3 3 8 2t5 -6q-1 -18 -9.5 -34.5t-22 -27t-31 -13t-35.5 8.5q-15 9 -24.5 23t-19 26.5t-21 20.5t-30.5 4
q-12 -2 -21 -10t-18 -18.5t-18 -22.5t-20 -21z" />
    <glyph glyph-name="quotesinglbase" unicode="&#x201a;" horiz-adv-x="305" 
d="M97 -91q18 40 37 76.5t29 78.5l-28 10q-7 2 -4.5 7t7.5 4q9 -2 18.5 -2.5t20.5 -1.5q3 0 7 -2.5t3 -7.5q-2 -17 -7.5 -39.5t-15 -45.5t-24 -44.5t-34.5 -37.5q-2 -2 -6.5 -1t-2.5 6z" />
    <glyph glyph-name="quotedblbase" unicode="&#x201e;" horiz-adv-x="329" 
d="M97 -91q18 40 37 76.5t29 78.5l-28 10q-7 2 -4.5 7t7.5 4q9 -2 18.5 -2.5t20.5 -1.5q3 0 7 -2.5t3 -7.5q-2 -17 -7.5 -39.5t-15 -45.5t-24 -44.5t-34.5 -37.5q-2 -2 -6.5 -1t-2.5 6zM224 74q-4 -1 -5 3.5t8 6.5q3 1 9 2t12 0t10 -4t2 -10q-2 -11 -7 -34t-12 -48
t-15.5 -47t-15.5 -31q-2 -4 -6.5 -3t-5.5 5q-2 9 3.5 29.5t12.5 44l13 45t5 32.5q0 9 -8 9z" />
    <glyph glyph-name="quoteleft" unicode="&#x2018;" horiz-adv-x="305" 
d="M219 707q-18 -40 -37 -76.5t-29 -78.5l28 -10q7 -2 4.5 -7t-7.5 -4q-9 2 -18.5 2.5t-20.5 1.5q-3 0 -7 2.5t-3 7.5q2 17 7.5 39.5t15 45.5t24 44.5t34.5 37.5q2 2 6.5 1t2.5 -6z" />
    <glyph glyph-name="quoteright" unicode="&#x2019;" horiz-adv-x="305" 
d="M125 540q18 40 37 76.5t29 78.5l-28 10q-7 2 -4.5 7t7.5 4q9 -2 18.5 -2.5t20.5 -1.5q3 0 7 -2.5t3 -7.5q-2 -17 -7.5 -39.5t-15 -45.5t-24 -44.5t-34.5 -37.5q-2 -2 -6.5 -1t-2.5 6z" />
    <glyph glyph-name="quotedblleft" unicode="&#x201c;" horiz-adv-x="329" 
d="M290 700q-18 -40 -37 -76.5t-29 -78.5l28 -10q7 -2 4.5 -7t-7.5 -4q-9 2 -18.5 2.5t-20.5 1.5q-3 0 -7 2.5t-3 7.5q2 17 7.5 39.5t15 45.5t24 44.5t34.5 37.5q2 2 6.5 1t2.5 -6zM163 535q4 1 5 -3.5t-8 -6.5q-3 -1 -9 -2t-12 -0.5t-10 4t-2 10.5l7 33.5t12 48.5t15 47
t16 31q2 4 6.5 3t5.5 -5q2 -9 -3.5 -29.5t-12.5 -44l-13 -45t-5 -32.5q0 -9 8 -9z" />
    <glyph glyph-name="quotedblright" unicode="&#x201d;" horiz-adv-x="329" 
d="M125 526q18 40 37 76.5t29 78.5l-28 10q-7 2 -4.5 7t7.5 4q9 -2 18.5 -2.5t20.5 -1.5q3 0 7 -2.5t3 -7.5q-2 -17 -7.5 -39.5t-15 -45.5t-24 -44.5t-34.5 -37.5q-2 -2 -6.5 -1t-2.5 6zM252 691q-4 -1 -5 3.5t8 6.5q3 1 9 2t12 0t10 -4t2 -10q-2 -11 -7 -34t-12 -48
t-15.5 -47t-15.5 -31q-2 -4 -6.5 -3t-5.5 5q-2 9 3.5 29.5t12.5 44l13 45t5 32.5q0 9 -8 9z" />
    <glyph glyph-name="parenleft" unicode="(" horiz-adv-x="298" 
d="M268 691q8 5 13 -0.5t-3 -13.5q-78 -73 -121.5 -167t-57 -196.5t-1 -208t47.5 -202.5q2 -6 0 -12.5t-6 -9.5t-9.5 -1t-10.5 13q-47 108 -55.5 224t11.5 229q9 48 26.5 98t41.5 96t55 85t69 66z" />
    <glyph glyph-name="parenright" unicode=")" horiz-adv-x="381" 
d="M60 710q-3 4 -1 8t6 6t9 2t8 -3q48 -49 90 -118t72 -147t44 -160t5 -157.5t-44.5 -139t-103.5 -104.5q-3 -3 -8 -3.5t-7.5 1.5t-2 6t8.5 9q53 39 84.5 96.5t42 125.5t2 143.5t-35 151.5t-69.5 148.5t-100 134.5z" />
    <glyph glyph-name="backslash" unicode="\" horiz-adv-x="552" 
d="M21 687l68.5 -101l65 -97.5l66 -97.5t72.5 -100l67 -87.5l55 -68.5l57 -66.5l74 -81.5q5 -6 3.5 -12t-6.5 -9t-12 -2.5t-12 6.5l-73 84.5l-59.5 71.5l-57.5 73.5l-67 89.5l-70.5 98.5l-64.5 93l-61 95.5t-60 105q-4 7 3 10t12 -4z" />
    <glyph glyph-name="plus" unicode="+" horiz-adv-x="500" 
d="M231 393q1 6 6 11t10.5 6.5t10 -0.5t4.5 -10q0 -6 -2 -33.5t-5 -63.5q6 1 12 1t12 1q27 0 54 1.5t52 -9.5q2 0 2 -4t-2 -6q-25 -11 -52 -9.5t-54 -1.5h-26q-3 -27 -5.5 -54l-4.5 -48.5t-4 -34.5t-3 -13q-2 0 -4.5 -1t-4.5 -0.5t-3 4.5t0 14q0 5 0.5 18t1 31t1 40t0.5 44
q-20 -1 -40.5 -1t-40.5 -2q-6 0 -9.5 3.5t-3.5 8t3.5 8.5t9.5 4q21 2 41.5 3l40.5 2q1 34 1.5 60t1.5 31z" />
    <glyph glyph-name="bracketleft" unicode="[" horiz-adv-x="298" 
d="M260 676q5 0 5 -4t-5 -4h-57t-55 -2q-10 -103 -23.5 -213.5t-24.5 -218.5q-5 -27 -7 -54.5t-6 -54.5t-8 -58.5t-5 -52.5q-2 -20 11 -24.5t28 1.5q5 2 12.5 6t13.5 9t11 3.5t7 -6t-0.5 -11t-11.5 -12.5q-6 -5 -15.5 -10.5t-20 -9t-22 -4.5t-21.5 4q-11 5 -14.5 17t-5.5 23
q-2 32 3 70l9 71q16 135 30 269t37 268q2 5 7 6.5t10 1.5q31 -5 60 -6.5t58 -3.5z" />
    <glyph glyph-name="bracketright" unicode="]" horiz-adv-x="298" 
d="M73 641q-5 0 -7 4.5t4 6.5l77 21.5l78 21.5q4 2 7.5 -0.5t5.5 -7.5q-10 -85 -12.5 -184.5t-8.5 -197.5t-22 -186t-53 -150q-6 -11 -17 -18t-26 -5q-21 5 -32.5 7t-27.5 9q-4 3 -4.5 12t9.5 11q8 0 18.5 -3t16.5 -4q25 -5 35 4.5t18 30.5q29 78 41.5 161.5t18.5 168
t9.5 169t14.5 165.5q-35 -8 -70.5 -17.5z" />
    <glyph glyph-name="periodcentered" unicode="&#xb7;" horiz-adv-x="314" 
d="M148 223q10 0 17 -3t9 -14q1 -6 -9.5 -13.5t-24.5 -3.5q-9 2 -13.5 9t-4.5 14.5t4.5 13.5t13.5 6q4 0 7 -5q1 -2 1 -4z" />
    <glyph glyph-name="exclamdown" unicode="&#xa1;" horiz-adv-x="302" 
d="M119 -292q-17 57 -18.5 119.5t3.5 118.5q5 62 12.5 121.5t22.5 119.5q2 8 10 6t8 -10q-5 -58 -11.5 -116.5t-8.5 -120.5q-5 -58 -1.5 -115.5t8.5 -117.5q2 -6 -1.5 -9.5t-8.5 -4t-9.5 1.5t-5.5 7zM125 320q-2 8 2.5 12t11.5 1q9 -2 16.5 -9.5t15.5 -7.5q11 2 16.5 -7.5
t-2.5 -16.5q-5 -8 -15.5 -7.5t-17.5 7.5q-8 5 -15.5 12t-11.5 16z" />
    <glyph glyph-name="breve" unicode="&#x2d8;" horiz-adv-x="346" 
d="M108 406q3 8 13.5 7t8.5 -10q-1 -12 2 -25t9 -24t16.5 -18.5t24.5 -8.5q14 -2 24 2.5t18 13t14 19t13 19.5q3 3 8.5 3t7.5 -5q6 -17 -2 -32t-22.5 -25.5t-32 -16t-32.5 -4.5q-18 3 -33.5 12.5t-25.5 24t-13.5 32.5t2.5 36z" />
    <glyph glyph-name="dotaccent" unicode="&#x2d9;" horiz-adv-x="270" 
d="M190 395q10 0 17 -3t9 -14q1 -6 -9.5 -13.5t-24.5 -3.5q-9 2 -13.5 9t-4.5 14.5t4.5 13.5t13.5 6q4 0 7 -5q1 -2 1 -4z" />
    <glyph glyph-name="ring" unicode="&#x2da;" horiz-adv-x="308" 
d="M227 439q5 -5 1 -8t-8 -1q-12 5 -26 8.5t-28 -2.5q-10 -3 -14.5 -12.5t-2.5 -18.5q2 -12 10 -16.5t18 3.5q8 8 11 18.5t10 21.5q2 2 6 1.5t5 -3.5q7 -17 -4.5 -34.5t-27.5 -22.5q-15 -5 -29 2t-19 21q-3 16 3 31.5t21 23.5q18 8 39 4t35 -16z" />
    <glyph glyph-name="caron" unicode="&#x2c7;" horiz-adv-x="389" 
d="M70 369q-5 6 3 9t13 -1q19 -22 38 -40t42 -34l68.5 56.5l64.5 49.5q3 4 8 1.5t2 -7.5q-8 -13 -26.5 -32.5t-39 -38t-39 -32t-27.5 -13.5q-15 -3 -30 5.5t-29 22t-26.5 28.5z" />
    <glyph glyph-name="Acircumflex" unicode="&#xc2;" horiz-adv-x="578" 
d="M527 618q13 7 18.5 2t4.5 -13l-13 -168t-10.5 -155t-7.5 -152.5t-3 -160.5q0 -14 -9.5 -16.5t-19.5 5.5q-38 31 -72.5 63l-71 63t-76 61t-86.5 57q-2 2 -17.5 -20l-37.5 -55l-46.5 -69.5l-43.5 -64.5q-1 -2 -5.5 -3t-8.5 -1t-6.5 2t0.5 7l31 50l40.5 61.5l41.5 60
t34 45.5q-34 21 -63 37t-59.5 28t-64 19.5t-76.5 10.5q-12 1 -28 0t-31 -4t-26.5 -8t-14.5 -11q-4 -6 0 -14.5t11.5 -16.5t16 -15t12.5 -11q4 -5 3 -11.5t-14 0.5q-8 4 -18 10.5t-18.5 14.5t-14.5 17t-6 20q0 17 10.5 27.5t24.5 18.5q19 6 40.5 8.5t43.5 2t44 -3.5t41 -7
q56 -13 105.5 -37t97.5 -54q72 104 157 199.5t191 180.5zM198 226q42 -27 82.5 -56t77.5 -58.5t69 -58l58 -53.5q1 33 3 79t5 98l6.5 108l7 109.5t7.5 101t8 83.5q-94 -76 -176.5 -164.5t-147.5 -188.5zM450 724l22.5 9.5t32.5 14.5l41 18l32 -31l23 -23t13 -14
q4 -6 -5.5 -11t-18.5 1q-5 3 -13 11t-16 17q-10 10 -19 22l-33 -15l-27.5 -11.5t-21.5 -7.5t-13.5 -0.5t-7 5t1 8t9.5 7.5z" />
    <glyph glyph-name="Atilde" unicode="&#xc3;" horiz-adv-x="578" 
d="M527 618q13 7 18.5 2t4.5 -13l-13 -168t-10.5 -155t-7.5 -152.5t-3 -160.5q0 -14 -9.5 -16.5t-19.5 5.5q-38 31 -72.5 63l-71 63t-76 61t-86.5 57q-2 2 -17.5 -20l-37.5 -55l-46.5 -69.5l-43.5 -64.5q-1 -2 -5.5 -3t-8.5 -1t-6.5 2t0.5 7l31 50l40.5 61.5l41.5 60
t34 45.5q-34 21 -63 37t-59.5 28t-64 19.5t-76.5 10.5q-12 1 -28 0t-31 -4t-26.5 -8t-14.5 -11q-4 -6 0 -14.5t11.5 -16.5t16 -15t12.5 -11q4 -5 3 -11.5t-14 0.5q-8 4 -18 10.5t-18.5 14.5t-14.5 17t-6 20q0 17 10.5 27.5t24.5 18.5q19 6 40.5 8.5t43.5 2t44 -3.5t41 -7
q56 -13 105.5 -37t97.5 -54q72 104 157 199.5t191 180.5zM198 226q42 -27 82.5 -56t77.5 -58.5t69 -58l58 -53.5q1 33 3 79t5 98l6.5 108l7 109.5t7.5 101t8 83.5q-94 -76 -176.5 -164.5t-147.5 -188.5zM411 666q-2 -2 -6.5 -1.5t-2.5 3.5l22 33t29.5 34t35.5 22t40 -3
q15 -8 25 -22.5t20 -27.5q6 -8 12.5 -15.5t14.5 -10.5t16.5 -1.5t19.5 11.5q10 9 16.5 22t14.5 24q3 3 8 2t5 -6q-1 -18 -9.5 -34.5t-22 -27t-31 -13t-35.5 8.5q-15 9 -24.5 23t-19 26.5t-21 20.5t-30.5 4q-12 -2 -21 -10t-18 -18.5t-18 -22.5t-20 -21z" />
    <glyph glyph-name="Aring" unicode="&#xc5;" horiz-adv-x="578" 
d="M527 618q13 7 18.5 2t4.5 -13l-13 -168t-10.5 -155t-7.5 -152.5t-3 -160.5q0 -14 -9.5 -16.5t-19.5 5.5q-38 31 -72.5 63l-71 63t-76 61t-86.5 57q-2 2 -17.5 -20l-37.5 -55l-46.5 -69.5l-43.5 -64.5q-1 -2 -5.5 -3t-8.5 -1t-6.5 2t0.5 7l31 50l40.5 61.5l41.5 60
t34 45.5q-34 21 -63 37t-59.5 28t-64 19.5t-76.5 10.5q-12 1 -28 0t-31 -4t-26.5 -8t-14.5 -11q-4 -6 0 -14.5t11.5 -16.5t16 -15t12.5 -11q4 -5 3 -11.5t-14 0.5q-8 4 -18 10.5t-18.5 14.5t-14.5 17t-6 20q0 17 10.5 27.5t24.5 18.5q19 6 40.5 8.5t43.5 2t44 -3.5t41 -7
q56 -13 105.5 -37t97.5 -54q72 104 157 199.5t191 180.5zM198 226q42 -27 82.5 -56t77.5 -58.5t69 -58l58 -53.5q1 33 3 79t5 98l6.5 108l7 109.5t7.5 101t8 83.5q-94 -76 -176.5 -164.5t-147.5 -188.5zM607 730q5 -5 1 -8t-8 -1q-12 5 -26 8.5t-28 -2.5q-10 -3 -14.5 -12.5
t-2.5 -18.5q2 -12 10 -16.5t18 3.5q8 8 11 18.5t10 21.5q2 2 6 1.5t5 -3.5q7 -17 -4.5 -34.5t-27.5 -22.5q-15 -5 -29 2t-19 21q-3 16 3 31.5t21 23.5q18 8 39 4t35 -16z" />
    <glyph glyph-name="Igrave" unicode="&#xcc;" horiz-adv-x="402" 
d="M407 564q9 -74 -4.5 -159t-38.5 -172q-10 -33 -25.5 -72t-37.5 -73.5t-51 -60t-66 -32.5q-33 -7 -59 7t-44 40.5t-28 60.5t-10 67q0 9 8 10t8 -4q6 -28 18.5 -60t31 -55.5t43 -32t54.5 9.5q31 16 53 43t38.5 59.5t28.5 67.5l23 68q20 69 30 135.5t2 134.5q-3 28 -17 42
t-33.5 20.5t-42.5 8t-44 4.5q-4 0 -6.5 4t-3 8.5t1.5 8.5t8 3q22 -2 48.5 -3.5t49.5 -8.5t41 -23t24 -46zM317 734l-89.5 46.5t-50.5 27.5q-5 3 -2 7t10.5 7t17.5 2.5t18 -6.5q30 -21 66 -41.5l60 -34.5q6 -3 8.5 -8t0 -8t-11.5 -2t-27 10z" />
    <glyph glyph-name="Icircumflex" unicode="&#xce;" horiz-adv-x="402" 
d="M407 564q9 -74 -4.5 -159t-38.5 -172q-10 -33 -25.5 -72t-37.5 -73.5t-51 -60t-66 -32.5q-33 -7 -59 7t-44 40.5t-28 60.5t-10 67q0 9 8 10t8 -4q6 -28 18.5 -60t31 -55.5t43 -32t54.5 9.5q31 16 53 43t38.5 59.5t28.5 67.5l23 68q20 69 30 135.5t2 134.5q-3 28 -17 42
t-33.5 20.5t-42.5 8t-44 4.5q-4 0 -6.5 4t-3 8.5t1.5 8.5t8 3q22 -2 48.5 -3.5t49.5 -8.5t41 -23t24 -46zM234 758l22.5 9.5t32.5 14.5l41 18l32 -31l23 -23t13 -14q4 -6 -5.5 -11t-18.5 1q-5 3 -13 11t-16 17q-10 10 -19 22l-33 -15l-27.5 -11.5t-21.5 -7.5t-13.5 -0.5
t-7 5t1 8t9.5 7.5z" />
    <glyph glyph-name="Idieresis" unicode="&#xcf;" horiz-adv-x="402" 
d="M407 564q9 -74 -4.5 -159t-38.5 -172q-10 -33 -25.5 -72t-37.5 -73.5t-51 -60t-66 -32.5q-33 -7 -59 7t-44 40.5t-28 60.5t-10 67q0 9 8 10t8 -4q6 -28 18.5 -60t31 -55.5t43 -32t54.5 9.5q31 16 53 43t38.5 59.5t28.5 67.5l23 68q20 69 30 135.5t2 134.5q-3 28 -17 42
t-33.5 20.5t-42.5 8t-44 4.5q-4 0 -6.5 4t-3 8.5t1.5 8.5t8 3q22 -2 48.5 -3.5t49.5 -8.5t41 -23t24 -46zM233 762q10 0 17 -3t9 -14q1 -6 -9.5 -13.5t-24.5 -3.5q-9 2 -13.5 9t-4.5 14.5t4.5 13.5t13.5 6q4 0 7 -5q1 -2 1 -4zM363 751q2 -8 -2.5 -12t-11.5 -1
q-9 2 -16.5 9.5t-15.5 7.5q-11 -2 -16.5 7.5t2.5 16.5q5 8 15.5 7.5t17.5 -7.5q8 -5 15.5 -12t11.5 -16z" />
    <glyph glyph-name="Eth" unicode="&#xd0;" horiz-adv-x="523" 
d="M72 273q-6 0 -9.5 3.5t-3.5 8t3.5 8.5t9.5 4q30 3 60 4t58 3q13 46 20 94q10 64 12 125q-39 28 -84 51t-93 34t-97 7t-95 -30q-11 -5 -14.5 0t1.5 10q39 26 81.5 35.5t85 6.5t84.5 -17t81 -35q11 -5 25.5 -14.5l31.5 -20.5v56q0 11 10.5 11t10.5 -11v-69
q52 -43 101.5 -91.5t86.5 -111.5q15 -26 31 -59.5t25 -69.5t7.5 -71.5t-19.5 -63.5q-13 -24 -35.5 -37.5t-49 -21t-54.5 -9.5t-51 -2q-57 0 -109 7.5t-114 27.5q-19 -18 -46 -30t-57.5 -18t-61.5 -4.5t-57 12.5q-20 8 -35.5 22.5t-21.5 37.5q-9 29 7 40.5t43 13.5
q56 3 111.5 -11.5t109.5 -34.5q42 43 72 97t49 114v2q-53 0 -110 -3zM96 55q33 -9 74 -17.5t83.5 -12t82 -0.5t69.5 17t46.5 40.5t13.5 70.5q-2 54 -21 104t-49 94.5t-68 83.5t-77 71q-5 -57 -15 -116q-7 -43 -19 -85q25 1 48.5 1.5t46.5 -9.5q2 0 2 -4t-2 -6
q-24 -11 -50.5 -9.5t-52.5 -1.5q-1 -2 -1 -3q-18 -58 -45 -113.5t-66 -104.5zM-127 16q50 -12 90.5 -3t76.5 35l-61 18t-66.5 16.5t-58 6t-36.5 -12.5q-8 -8 -4.5 -17t13.5 -17t23 -15t23 -11z" />
    <glyph glyph-name="Ntilde" unicode="&#xd1;" 
d="M774 361q2 -28 3.5 -59t1 -63t-2.5 -63.5t-7 -59.5q-3 -19 -8.5 -39t-15 -38t-24 -32.5t-35.5 -22.5q-35 -12 -74 -2t-69 37q-31 28 -55.5 64t-44 76t-34 81t-24.5 79q-20 62 -34.5 128t-19.5 133q-42 -64 -80.5 -131t-70.5 -136t-55.5 -141t-33.5 -146q0 -11 -7 -11
t-7 11q8 79 33 157t60 154t77 149l84 142q5 5 16 4t11 -11q0 -11 0.5 -24t1.5 -24q10 -83 29 -164t51 -164q15 -42 35.5 -82t46.5 -75q10 -13 22.5 -26.5t27.5 -25.5t31.5 -20t34.5 -11q29 -2 47.5 10t30.5 33q12 19 18.5 44.5t10.5 51.5t5 50.5t1 43.5q0 84 -8 157.5
t-23 150.5q-2 10 7.5 13.5t12.5 -7.5q16 -46 22.5 -95.5t11.5 -95.5zM405 646q-2 -2 -6.5 -1.5t-2.5 3.5l22 33t29.5 34t35.5 22t40 -3q15 -8 25 -22.5t20 -27.5q6 -8 12.5 -15.5t14.5 -10.5t16.5 -1.5t19.5 11.5q10 9 16.5 22t14.5 24q3 3 8 2t5 -6q-1 -18 -9.5 -34.5
t-22 -27t-31 -13t-35.5 8.5q-15 9 -24.5 23t-19 26.5t-21 20.5t-30.5 4q-12 -2 -21 -10t-18 -18.5t-18 -22.5t-20 -21z" />
    <glyph glyph-name="Ograve" unicode="&#xd2;" 
d="M815 373q8 -16 11 -32t3 -33q0 -61 -28.5 -107.5t-73.5 -80.5t-99.5 -56.5t-106.5 -34.5q-52 -13 -106 -20.5t-111 -7.5q-17 0 -42.5 3t-54.5 10t-58 19t-52 30t-37.5 42t-14.5 56q0 40 21.5 83t58 84t86 77.5t105.5 64t116.5 43.5t118.5 16q42 0 83 -9.5t79 -29.5
q3 -3 3 -8q0 -8 -6 -8q-3 0 -4 2q-34 16 -70 23t-74 7q-42 0 -95 -12t-107.5 -34.5t-106.5 -53.5t-92.5 -69.5t-65 -83t-24.5 -92.5q0 -39 23.5 -64.5t59.5 -40.5t78.5 -20.5t80.5 -5.5q22 0 67 4.5t99 16t111 31t104 50t77 72.5t30 99q0 45 -23 75.5t-58.5 49.5t-77.5 28.5
t-79 12.5q-6 0 -6 6q0 8 13.5 8h22.5q31 0 65 -6t64 -19t54.5 -34t38.5 -51zM487 664l-89.5 46.5t-50.5 27.5q-5 3 -2 7t10.5 7t17.5 2.5t18 -6.5q30 -21 66 -41.5l60 -34.5q6 -3 8.5 -8t0 -8t-11.5 -2t-27 10z" />
    <glyph glyph-name="Ocircumflex" unicode="&#xd4;" 
d="M815 373q8 -16 11 -32t3 -33q0 -61 -28.5 -107.5t-73.5 -80.5t-99.5 -56.5t-106.5 -34.5q-52 -13 -106 -20.5t-111 -7.5q-17 0 -42.5 3t-54.5 10t-58 19t-52 30t-37.5 42t-14.5 56q0 40 21.5 83t58 84t86 77.5t105.5 64t116.5 43.5t118.5 16q42 0 83 -9.5t79 -29.5
q3 -3 3 -8q0 -8 -6 -8q-3 0 -4 2q-34 16 -70 23t-74 7q-42 0 -95 -12t-107.5 -34.5t-106.5 -53.5t-92.5 -69.5t-65 -83t-24.5 -92.5q0 -39 23.5 -64.5t59.5 -40.5t78.5 -20.5t80.5 -5.5q22 0 67 4.5t99 16t111 31t104 50t77 72.5t30 99q0 45 -23 75.5t-58.5 49.5t-77.5 28.5
t-79 12.5q-6 0 -6 6q0 8 13.5 8h22.5q31 0 65 -6t64 -19t54.5 -34t38.5 -51zM445 661l22.5 9.5t32.5 14.5l41 18l32 -31l23 -23t13 -14q4 -6 -5.5 -11t-18.5 1q-5 3 -13 11t-16 17q-10 10 -19 22l-33 -15l-27.5 -11.5t-21.5 -7.5t-13.5 -0.5t-7 5t1 8t9.5 7.5z" />
    <glyph glyph-name="Otilde" unicode="&#xd5;" 
d="M815 373q8 -16 11 -32t3 -33q0 -61 -28.5 -107.5t-73.5 -80.5t-99.5 -56.5t-106.5 -34.5q-52 -13 -106 -20.5t-111 -7.5q-17 0 -42.5 3t-54.5 10t-58 19t-52 30t-37.5 42t-14.5 56q0 40 21.5 83t58 84t86 77.5t105.5 64t116.5 43.5t118.5 16q42 0 83 -9.5t79 -29.5
q3 -3 3 -8q0 -8 -6 -8q-3 0 -4 2q-34 16 -70 23t-74 7q-42 0 -95 -12t-107.5 -34.5t-106.5 -53.5t-92.5 -69.5t-65 -83t-24.5 -92.5q0 -39 23.5 -64.5t59.5 -40.5t78.5 -20.5t80.5 -5.5q22 0 67 4.5t99 16t111 31t104 50t77 72.5t30 99q0 45 -23 75.5t-58.5 49.5t-77.5 28.5
t-79 12.5q-6 0 -6 6q0 8 13.5 8h22.5q31 0 65 -6t64 -19t54.5 -34t38.5 -51zM349 631q-2 -2 -6.5 -1.5t-2.5 3.5l22 33t29.5 34t35.5 22t40 -3q15 -8 25 -22.5t20 -27.5q6 -8 12.5 -15.5t14.5 -10.5t16.5 -1.5t19.5 11.5q10 9 16.5 22t14.5 24q3 3 8 2t5 -6
q-1 -18 -9.5 -34.5t-22 -27t-31 -13t-35.5 8.5q-15 9 -24.5 23t-19 26.5t-21 20.5t-30.5 4q-12 -2 -21 -10t-18 -18.5t-18 -22.5t-20 -21z" />
    <glyph glyph-name="Oslash" unicode="&#xd8;" 
d="M171 -142q11 40 28.5 76.5l34.5 73.5q-13 2 -27 6q-29 7 -58 19t-52 30t-37.5 42t-14.5 56q0 40 21.5 83t58 84t86 77.5t105.5 64t116 43.5q43 11 84 15q18 34 34.5 68.5t30.5 71.5q3 4 8 5.5t10 1.5t8.5 -3t2.5 -8q-7 -37 -21 -70.5t-32 -64.5q39 -1 77 -10
q41 -9 79 -29q3 -3 3 -8q0 -8 -6 -8q-3 0 -4 2q-34 16 -70 23t-74 7q-9 0 -18 -1l-9.5 -15.5t-9.5 -14.5q-9 -12 -23.5 -35l-31 -51l-33.5 -57l-32 -53q-26 -53 -54 -103l-54 -101l-10.5 -22l-10.5 -22q19 -1 37 -1q22 0 67 4.5t99 16t111 31t104 50t77 72.5t30 99
q0 45 -23 75.5t-58.5 49.5t-77.5 28.5t-79 12.5q-6 0 -6 6q0 8 13 8h23q31 0 65 -6t64 -19t54.5 -34t38.5 -51q8 -16 11 -32t3 -33q0 -61 -28.5 -107.5t-73.5 -80.5t-99.5 -56.5t-106.5 -34.5q-52 -13 -106 -20.5t-111 -7.5q-16 0 -40 2l-38 -81t-38 -67q-5 -7 -12 -6t-5 9z
M500 500q-86 -18 -140.5 -40.5t-106.5 -53.5t-92.5 -69.5t-65 -83t-24.5 -92.5q0 -39 23.5 -64.5t59.5 -40.5t78 -21l14 -2l6 12t6 13l29.5 56.5l33 64.5l33 64.5t31.5 56.5q100 198 115 200z" />
    <glyph glyph-name="Ucircumflex" unicode="&#xdb;" horiz-adv-x="807" 
d="M880 176q5 3 10 -1t0 -8q-16 -18 -45 -36.5t-61.5 -32t-64.5 -19t-54 0.5q-23 6 -37 18t-21.5 28.5t-8.5 36.5t1 42q4 26 9 48t11 42.5t14 41t19 44.5l-41 -58.5t-41 -53.5q-35 -44 -74.5 -86t-84 -77t-93 -61t-100.5 -38q-15 -4 -33.5 -5.5t-36 0t-33.5 7.5t-27 17
q-22 17 -30 44t-7.5 57.5t7 60t12.5 51.5q16 49 38.5 98t49 94.5t56.5 85.5t60 72q6 7 10 6t5.5 -6.5t-0.5 -12.5t-7 -13q-54 -58 -104 -144t-82 -201q-7 -26 -11.5 -57t-0.5 -59t20.5 -49t51.5 -25q46 0 89.5 15.5t83.5 41t77 57t71 63.5q83 83 149.5 181.5t129.5 208.5
q2 4 7 5.5t9.5 0.5t7 -4.5t0.5 -7.5q-18 -41 -39 -81.5l-41 -81.5t-37.5 -83t-28.5 -85q-4 -17 -7 -38.5t-1.5 -42t10.5 -38t29 -27.5q22 -11 51 -7.5t59.5 14.5t58 27t46.5 30zM441 728l22.5 9.5t32.5 14.5l41 18l32 -31l23 -23t13 -14q4 -6 -5.5 -11t-18.5 1q-5 3 -13 11
t-16 17q-10 10 -19 22l-33 -15l-27.5 -11.5t-21.5 -7.5t-13.5 -0.5t-7 5t1 8t9.5 7.5z" />
    <glyph glyph-name="Yacute" unicode="&#xdd;" horiz-adv-x="630" 
d="M611 541q3 4 8.5 4.5t11.5 -1.5t10 -6.5t3 -8.5q-11 -63 -28 -120t-39.5 -113.5t-50 -115l-58.5 -124.5q-5 -10 -13 -15.5t-14.5 -6.5t-9 2.5t2.5 11.5l61 137t43.5 106.5t32.5 92.5t28 95l-48.5 -46.5t-55.5 -48.5t-60 -45.5t-63 -38.5q-79 -37 -161 -47.5t-166 17.5
q-60 23 -104 73.5t-62 111.5q-10 30 -13.5 63.5t-0.5 67.5t12.5 67t26.5 60q9 9 18.5 3t5.5 -15q-26 -58 -28 -122.5t17.5 -122t61 -101.5t103.5 -60q79 -23 155.5 -8t145.5 57q33 19 64.5 41.5t58.5 50.5q58 47 105 105zM383 882q5 4 11 2.5t10 -5.5t4.5 -10t-5.5 -11
q-37 -29 -75 -52t-80 -46q-5 -3 -11 -3.5t-10 0.5t-5 4t5 7q42 27 81 56z" />
    <glyph glyph-name="acircumflex" unicode="&#xe2;" horiz-adv-x="268" 
d="M269 197q2 -4 0 -8.5t-6.5 -7.5t-10 -4.5t-8.5 1.5q-14 11 -33.5 15.5t-46.5 -1.5q-26 -6 -49 -21.5t-39 -33t-21.5 -32t4.5 -17.5q14 -5 33 -2.5t37.5 9t33 14.5t20.5 15q12 14 22 14t12 -6q2 -14 3.5 -27.5t1.5 -24.5q0 -5 -8 -11t-16 3q-5 5 -7 13t-2 13
q-6 -6 -21.5 -13.5t-35.5 -13t-41 -9t-37 -1.5q-14 2 -24 8.5t-9 17.5q1 18 13.5 39.5t32.5 42t46.5 36t56.5 21.5q35 7 58 1t41 -30zM59 312l22.5 9.5t32.5 14.5l41 18l32 -31l23 -23t13 -14q4 -6 -5.5 -11t-18.5 1q-5 3 -13 11t-16 17q-10 10 -19 22l-33 -15l-27.5 -11.5
t-21.5 -7.5t-13.5 -0.5t-7 5t1 8t9.5 7.5z" />
    <glyph glyph-name="atilde" unicode="&#xe3;" horiz-adv-x="268" 
d="M269 197q2 -4 0 -8.5t-6.5 -7.5t-10 -4.5t-8.5 1.5q-14 11 -33.5 15.5t-46.5 -1.5q-26 -6 -49 -21.5t-39 -33t-21.5 -32t4.5 -17.5q14 -5 33 -2.5t37.5 9t33 14.5t20.5 15q12 14 22 14t12 -6q2 -14 3.5 -27.5t1.5 -24.5q0 -5 -8 -11t-16 3q-5 5 -7 13t-2 13
q-6 -6 -21.5 -13.5t-35.5 -13t-41 -9t-37 -1.5q-14 2 -24 8.5t-9 17.5q1 18 13.5 39.5t32.5 42t46.5 36t56.5 21.5q35 7 58 1t41 -30zM51 312q-2 -2 -6.5 -1.5t-2.5 3.5l22 33t29.5 34t35.5 22t40 -3q15 -8 25 -22.5t20 -27.5q6 -8 12.5 -15.5t14.5 -10.5t16.5 -1.5
t19.5 11.5q10 9 16.5 22t14.5 24q3 3 8 2t5 -6q-1 -18 -9.5 -34.5t-22 -27t-31 -13t-35.5 8.5q-15 9 -24.5 23t-19 26.5t-21 20.5t-30.5 4q-12 -2 -21 -10t-18 -18.5t-18 -22.5t-20 -21z" />
    <glyph glyph-name="aring" unicode="&#xe5;" horiz-adv-x="268" 
d="M269 197q2 -4 0 -8.5t-6.5 -7.5t-10 -4.5t-8.5 1.5q-14 11 -33.5 15.5t-46.5 -1.5q-26 -6 -49 -21.5t-39 -33t-21.5 -32t4.5 -17.5q14 -5 33 -2.5t37.5 9t33 14.5t20.5 15q12 14 22 14t12 -6q2 -14 3.5 -27.5t1.5 -24.5q0 -5 -8 -11t-16 3q-5 5 -7 13t-2 13
q-6 -6 -21.5 -13.5t-35.5 -13t-41 -9t-37 -1.5q-14 2 -24 8.5t-9 17.5q1 18 13.5 39.5t32.5 42t46.5 36t56.5 21.5q35 7 58 1t41 -30zM247 371q5 -5 1 -8t-8 -1q-12 5 -26 8.5t-28 -2.5q-10 -3 -14.5 -12.5t-2.5 -18.5q2 -12 10 -16.5t18 3.5q8 8 11 18.5t10 21.5q2 2 6 1.5
t5 -3.5q7 -17 -4.5 -34.5t-27.5 -22.5q-15 -5 -29 2t-19 21q-3 16 3 31.5t21 23.5q18 8 39 4t35 -16z" />
    <glyph glyph-name="igrave" unicode="&#xec;" horiz-adv-x="270" 
d="M339 170q5 9 8.5 9t5.5 -5t2 -12t-3 -11q-36 -54 -77 -75t-79 -18t-69 25.5t-48 54.5q-12 23 -9 34q3 4 11 7t13 -7q18 -35 47.5 -57t63.5 -25t69.5 15t64.5 65zM188 308l-89.5 46.5t-50.5 27.5q-5 3 -2 7t10.5 7t17.5 2.5t18 -6.5q30 -21 66 -41.5l60 -34.5q6 -3 8.5 -8
t0 -8t-11.5 -2t-27 10z" />
    <glyph glyph-name="icircumflex" unicode="&#xee;" horiz-adv-x="270" 
d="M339 170q5 9 8.5 9t5.5 -5t2 -12t-3 -11q-36 -54 -77 -75t-79 -18t-69 25.5t-48 54.5q-12 23 -9 34q3 4 11 7t13 -7q18 -35 47.5 -57t63.5 -25t69.5 15t64.5 65zM23 316l22.5 9.5t32.5 14.5l41 18l32 -31l23 -23t13 -14q4 -6 -5.5 -11t-18.5 1q-5 3 -13 11t-16 17
q-10 10 -19 22l-33 -15l-27.5 -11.5t-21.5 -7.5t-13.5 -0.5t-7 5t1 8t9.5 7.5z" />
    <glyph glyph-name="idieresis" unicode="&#xef;" horiz-adv-x="270" 
d="M339 170q5 9 8.5 9t5.5 -5t2 -12t-3 -11q-36 -54 -77 -75t-79 -18t-69 25.5t-48 54.5q-12 23 -9 34q3 4 11 7t13 -7q18 -35 47.5 -57t63.5 -25t69.5 15t64.5 65zM82 365q10 0 17 -3t9 -14q1 -6 -9.5 -13.5t-24.5 -3.5q-9 2 -13.5 9t-4.5 14.5t4.5 13.5t13.5 6q4 0 7 -5
q1 -2 1 -4zM212 354q2 -8 -2.5 -12t-11.5 -1q-9 2 -16.5 9.5t-15.5 7.5q-11 -2 -16.5 7.5t2.5 16.5q5 8 15.5 7.5t17.5 -7.5q8 -5 15.5 -12t11.5 -16z" />
    <glyph glyph-name="ntilde" unicode="&#xf1;" horiz-adv-x="370" 
d="M331 88q4 -9 0.5 -13t-10.5 -4.5t-14 2t-8 7.5q-7 15 -11 30.5t-6.5 31.5t-4.5 31t-5 27q-5 23 -30 6q-18 -12 -39 -30.5t-43.5 -41.5t-45.5 -49.5t-44 -53.5q-11 -8 -17.5 1t-4.5 17q3 19 5 34t4.5 29.5t5 31l5.5 37.5q0 3 3.5 6t8 4t7.5 -1t3 -9q-2 -20 -3.5 -43.5
l-3.5 -56.5q13 19 32.5 42.5t41 45.5t44 40t42.5 28q19 8 34 6t21 -20q4 -14 6.5 -30l5 -33.5t7 -35.5t14.5 -36zM105 300q-2 -2 -6.5 -1.5t-2.5 3.5l22 33t29.5 34t35.5 22t40 -3q15 -8 25 -22.5t20 -27.5q6 -8 12.5 -15.5t14.5 -10.5t16.5 -1.5t19.5 11.5q10 9 16.5 22
t14.5 24q3 3 8 2t5 -6q-1 -18 -9.5 -34.5t-22 -27t-31 -13t-35.5 8.5q-15 9 -24.5 23t-19 26.5t-21 20.5t-30.5 4q-12 -2 -21 -10t-18 -18.5t-18 -22.5t-20 -21z" />
    <glyph glyph-name="ograve" unicode="&#xf2;" horiz-adv-x="352" 
d="M424 178q8 3 10.5 -1.5t2 -10.5t-4 -11.5t-8.5 -6.5q-42 -9 -83 -13t-78.5 -5t-69.5 0t-55 2q14 -14 29.5 -37.5t21.5 -47.5q4 -23 -13 -28q-26 -3 -48.5 6t-37.5 27t-22 43t-1 53q3 16 9 27t11 12q12 0 9 -20q-3 -21 -1 -41t9 -36.5t19 -28t29 -15.5q2 16 -10.5 39
t-35.5 46q-4 2 -4.5 7t1.5 10t5 8.5t6 3.5q71 -7 150 -7t160 25zM104 258l-89.5 46.5t-50.5 27.5q-5 3 -2 7t10.5 7t17.5 2.5t18 -6.5q30 -21 66 -41.5l60 -34.5q6 -3 8.5 -8t0 -8t-11.5 -2t-27 10z" />
    <glyph glyph-name="ocircumflex" unicode="&#xf4;" horiz-adv-x="352" 
d="M424 178q8 3 10.5 -1.5t2 -10.5t-4 -11.5t-8.5 -6.5q-42 -9 -83 -13t-78.5 -5t-69.5 0t-55 2q14 -14 29.5 -37.5t21.5 -47.5q4 -23 -13 -28q-26 -3 -48.5 6t-37.5 27t-22 43t-1 53q3 16 9 27t11 12q12 0 9 -20q-3 -21 -1 -41t9 -36.5t19 -28t29 -15.5q2 16 -10.5 39
t-35.5 46q-4 2 -4.5 7t1.5 10t5 8.5t6 3.5q71 -7 150 -7t160 25zM39 273l22.5 9.5t32.5 14.5l41 18l32 -31l23 -23t13 -14q4 -6 -5.5 -11t-18.5 1q-5 3 -13 11t-16 17q-10 10 -19 22l-33 -15l-27.5 -11.5t-21.5 -7.5t-13.5 -0.5t-7 5t1 8t9.5 7.5z" />
    <glyph glyph-name="otilde" unicode="&#xf5;" horiz-adv-x="352" 
d="M424 178q8 3 10.5 -1.5t2 -10.5t-4 -11.5t-8.5 -6.5q-42 -9 -83 -13t-78.5 -5t-69.5 0t-55 2q14 -14 29.5 -37.5t21.5 -47.5q4 -23 -13 -28q-26 -3 -48.5 6t-37.5 27t-22 43t-1 53q3 16 9 27t11 12q12 0 9 -20q-3 -21 -1 -41t9 -36.5t19 -28t29 -15.5q2 16 -10.5 39
t-35.5 46q-4 2 -4.5 7t1.5 10t5 8.5t6 3.5q71 -7 150 -7t160 25zM10 256q-2 -2 -6.5 -1.5t-2.5 3.5l22 33t29.5 34t35.5 22t40 -3q15 -8 25 -22.5t20 -27.5q6 -8 12.5 -15.5t14.5 -10.5t16.5 -1.5t19.5 11.5q10 9 16.5 22t14.5 24q3 3 8 2t5 -6q-1 -18 -9.5 -34.5t-22 -27
t-31 -13t-35.5 8.5q-15 9 -24.5 23t-19 26.5t-21 20.5t-30.5 4q-12 -2 -21 -10t-18 -18.5t-18 -22.5t-20 -21z" />
    <glyph glyph-name="divide" unicode="&#xf7;" horiz-adv-x="346" 
d="M162 52q10 0 17 -3t9 -14q1 -6 -9.5 -13.5t-24.5 -3.5q-9 2 -13.5 9t-4.5 14.5t4.5 13.5t13.5 6q4 0 7 -5q1 -2 1 -4zM136 284q-2 6 8 12t22 6t15.5 -10t0.5 -22t-12 -12t-20 -1q-9 -1 -12 2t-3 7.5t1 9.5t0 8zM59 152q35 2 68.5 2.5t64.5 0.5q27 3 54 1.5t52 9.5
q2 2 2 6t-2 4q-25 11 -52 9.5t-54 -1.5q-31 -2 -64.5 -3t-68.5 -5q-6 0 -9.5 -4t-3.5 -8.5t3.5 -8t9.5 -3.5z" />
    <glyph glyph-name="ucircumflex" unicode="&#xfb;" horiz-adv-x="404" 
d="M487 167q-11 -20 -25 -38.5t-29.5 -32t-30.5 -21.5t-27 -8q-19 0 -30.5 7t-17.5 18.5t-6 25t3 26.5q-23 -24 -53.5 -51.5t-63.5 -47t-66 -24.5t-61 15q-16 12 -21 32.5t-2 44t13.5 46.5t25.5 41q11 10 22.5 10t3.5 -11q-11 -15 -21.5 -38t-13.5 -45.5t4.5 -40.5t32.5 -24
q26 -6 54.5 8t56.5 36.5t53 46t45 36.5q5 0 12.5 -4.5t4.5 -12.5q-4 -13 -3.5 -25t5 -21t14.5 -13t26 0q10 1 20.5 8.5t20.5 18t18 22t14 21.5q7 7 16.5 5.5t5.5 -10.5zM126 312l22.5 9.5t32.5 14.5l41 18l32 -31l23 -23t13 -14q4 -6 -5.5 -11t-18.5 1q-5 3 -13 11t-16 17
q-10 10 -19 22l-33 -15l-27.5 -11.5t-21.5 -7.5t-13.5 -0.5t-7 5t1 8t9.5 7.5z" />
    <glyph glyph-name="yacute" unicode="&#xfd;" horiz-adv-x="540" 
d="M620 178q5 0 5 -4q0 -3 -2.5 -7.5t-7.5 -6.5l-119 -29t-107 -36q9 -33 9 -72q0 -46 -13.5 -96t-42 -92t-73.5 -69.5t-108 -27.5q-46 0 -77 23t-31 77q0 37 18 70t45.5 60t60.5 49t62 37q11 6 25.5 13l29.5 14.5l30 14.5t27 12q-12 26 -30 38.5t-41 12.5
q-31 0 -58.5 -19.5t-54.5 -43.5t-54 -43.5t-57 -19.5q-5 1 -9 4q-9 5 -9 22q0 12 2.5 33.5t7 42.5t10.5 36.5t13 15.5q5 0 11.5 -3.5t4.5 -11.5q-4 -20 -12.5 -50.5t-8.5 -62.5q28 13 53 34.5l50.5 42.5t53.5 36t62 15q32 0 56 -21t37 -47q30 12 58 21t57 15.5t59.5 12
t64.5 10.5h3zM265 -207q28 18 49 42t34 52.5t19.5 59t6.5 61.5q0 20 -2.5 39.5t-7.5 37.5q-65 -25 -117 -56.5t-94 -72.5q-9 -9 -19.5 -22t-19.5 -28.5t-15 -32.5t-6 -33q0 -19 8.5 -32.5t22 -22t29.5 -12.5t32 -4q44 0 80 24zM338 427q5 4 11 2.5t10 -5.5t4.5 -10t-5.5 -11
q-37 -29 -75 -52t-80 -46q-5 -3 -11 -3.5t-10 0.5t-5 4t5 7q42 27 81 56z" />
    <glyph glyph-name="ydieresis" unicode="&#xff;" horiz-adv-x="540" 
d="M620 178q5 0 5 -4q0 -3 -2.5 -7.5t-7.5 -6.5l-119 -29t-107 -36q9 -33 9 -72q0 -46 -13.5 -96t-42 -92t-73.5 -69.5t-108 -27.5q-46 0 -77 23t-31 77q0 37 18 70t45.5 60t60.5 49t62 37q11 6 25.5 13l29.5 14.5l30 14.5t27 12q-12 26 -30 38.5t-41 12.5
q-31 0 -58.5 -19.5t-54.5 -43.5t-54 -43.5t-57 -19.5q-5 1 -9 4q-9 5 -9 22q0 12 2.5 33.5t7 42.5t10.5 36.5t13 15.5q5 0 11.5 -3.5t4.5 -11.5q-4 -20 -12.5 -50.5t-8.5 -62.5q28 13 53 34.5l50.5 42.5t53.5 36t62 15q32 0 56 -21t37 -47q30 12 58 21t57 15.5t59.5 12
t64.5 10.5h3zM265 -207q28 18 49 42t34 52.5t19.5 59t6.5 61.5q0 20 -2.5 39.5t-7.5 37.5q-65 -25 -117 -56.5t-94 -72.5q-9 -9 -19.5 -22t-19.5 -28.5t-15 -32.5t-6 -33q0 -19 8.5 -32.5t22 -22t29.5 -12.5t32 -4q44 0 80 24zM126 326q10 0 17 -3t9 -14q1 -6 -9.5 -13.5
t-24.5 -3.5q-9 2 -13.5 9t-4.5 14.5t4.5 13.5t13.5 6q4 0 7 -5q1 -2 1 -4zM256 315q2 -8 -2.5 -12t-11.5 -1q-9 2 -16.5 9.5t-15.5 7.5q-11 -2 -16.5 7.5t2.5 16.5q5 8 15.5 7.5t17.5 -7.5q8 -5 15.5 -12t11.5 -16z" />
    <glyph glyph-name="Scaron" unicode="&#x160;" horiz-adv-x="677" 
d="M623 214q21 -54 21 -99t-30 -80q-14 -16 -34 -28.5t-42.5 -22t-45.5 -15.5t-43 -9q-83 -13 -163.5 4.5t-151.5 62.5q-14 9 -29 21t-27.5 26.5t-20 31.5t-5.5 36q1 19 10 35.5t22.5 28.5t30 20.5t34.5 13.5q45 11 92.5 9t92.5 -13q37 -9 76.5 -25.5t61.5 -48.5q3 -5 1 -9
t-6 -5q-29 -8 -62 -5q-8 1 -8 7.5t8 7.5q11 1 21 1.5t21 2.5q-20 23 -51 34.5t-59 18.5q-45 11 -94.5 14t-94.5 -10q-16 -5 -30.5 -15t-24 -24.5t-11 -31.5t7.5 -35q14 -30 46 -53t71 -39t80 -25t73 -10q38 -2 84 3t85 22t62.5 48.5t17.5 82.5q-5 41 -26.5 80t-50 76t-61 71
l-60.5 64t-47.5 56t-22.5 47q-2 16 10 30t38 13q37 -1 72.5 -16t66.5 -39t57.5 -54t47.5 -60q2 -3 -7 -5.5t-16 4.5l-56.5 57t-57.5 50q-26 19 -50 27.5t-40 8t-22 -8.5t3 -23q3 -12 19 -31.5t38.5 -44l49 -53.5l51.5 -59t46 -60.5t32 -57.5zM314 754q-5 6 3 9t13 -1
q19 -22 38 -40t42 -34l68.5 56.5l64.5 49.5q3 4 8 1.5t2 -7.5q-8 -13 -26.5 -32.5t-39 -38t-39 -32t-27.5 -13.5q-15 -3 -30 5.5t-29 22t-26.5 28.5z" />
    <glyph glyph-name="Zcaron" unicode="&#x17d;" horiz-adv-x="990" 
d="M1066 175q5 5 8.5 -2.5t-2.5 -11.5l-87 -48.5t-78 -38t-78 -30t-87.5 -25t-105 -23t-131.5 -24.5q-49 -9 -114.5 -16t-131.5 -6q-19 0 -41.5 1t-45 5t-44 11t-37.5 18q-34 20 -45.5 48.5t-8.5 59t16.5 60t30.5 51.5q61 77 138 132.5t154 100.5l103.5 58t114.5 52
q-99 5 -197 3.5t-202 -1.5q-6 0 -10 3t-5.5 6.5t-0.5 6.5t7 3q60 0 119.5 2t118 2.5t117 -1.5t118.5 -11q14 -2 14.5 -9t-14.5 -12q-133 -40 -258.5 -114.5t-234.5 -170.5q-32 -33 -54.5 -65.5t-33.5 -70.5q-9 -34 -2.5 -57.5t23.5 -38.5t42 -22.5t53 -11t56.5 -4t52.5 -0.5
q54 0 104 4t99 11t98 16.5t101 21.5q54 13 95 25t80 27t82.5 35.5zM351 763q-5 6 3 9t13 -1q19 -22 38 -40t42 -34l68.5 56.5l64.5 49.5q3 4 8 1.5t2 -7.5q-8 -13 -26.5 -32.5t-39 -38t-39 -32t-27.5 -13.5q-15 -3 -30 5.5t-29 22t-26.5 28.5z" />
    <glyph glyph-name="scaron" unicode="&#x161;" horiz-adv-x="207" 
d="M109 241q8 0 8 -6q0 -5 -4.5 -6.5t-9.5 -4t-9.5 -7t-4.5 -14.5q0 -15 6.5 -33t17.5 -38.5t25 -44l28 -48.5q6 -14 6 -23q0 -19 -17 -25.5t-34 -6.5q-23 0 -50 8.5t-51 25.5q-2 1 -2 4q0 6 10 13.5t17 7.5q3 0 4 -1l34 -17.5t33 -9.5q10 0 10 6q0 1 -0.5 2t-0.5 2
q-11 28 -22.5 49l-21 38.5t-15.5 34t-6 36.5q0 29 14 43.5t35 14.5zM-13 369q-5 6 3 9t13 -1q19 -22 38 -40t42 -34l68.5 56.5l64.5 49.5q3 4 8 1.5t2 -7.5q-8 -13 -26.5 -32.5t-39 -38t-39 -32t-27.5 -13.5q-15 -3 -30 5.5t-29 22t-26.5 28.5z" />
    <glyph glyph-name="zcaron" unicode="&#x17e;" horiz-adv-x="362" 
d="M438 178q9 5 8.5 -4t-11.5 -15q-66 -44 -131.5 -73t-121.5 -44t-99.5 -15t-65.5 15q-3 2 -4 5q-2 6 4 15q15 15 34 28.5t38.5 26l37.5 24t32 23.5q10 7 10 12t-7 8t-19 4.5t-26 1.5q-6 0 -10.5 4t-6.5 8t-0.5 7.5t9.5 3.5q12 1 30.5 1t36 -2.5t30.5 -7.5t13 -15
t-19 -26.5t-51 -41.5q-26 -20 -44.5 -31t-37.5 -27q13 -7 41.5 -3.5t64.5 13t76 23.5t76.5 29t66.5 29t46 24zM64 369q-5 6 3 9t13 -1q19 -22 38 -40t42 -34l68.5 56.5l64.5 49.5q3 4 8 1.5t2 -7.5q-8 -13 -26.5 -32.5t-39 -38t-39 -32t-27.5 -13.5q-15 -3 -30 5.5t-29 22
t-26.5 28.5z" />
    <glyph glyph-name="Ydieresis" unicode="&#x178;" horiz-adv-x="630" 
d="M611 541q3 4 8.5 4.5t11.5 -1.5t10 -6.5t3 -8.5q-11 -63 -28 -120t-39.5 -113.5t-50 -115l-58.5 -124.5q-5 -10 -13 -15.5t-14.5 -6.5t-9 2.5t2.5 11.5l61 137t43.5 106.5t32.5 92.5t28 95l-48.5 -46.5t-55.5 -48.5t-60 -45.5t-63 -38.5q-79 -37 -161 -47.5t-166 17.5
q-60 23 -104 73.5t-62 111.5q-10 30 -13.5 63.5t-0.5 67.5t12.5 67t26.5 60q9 9 18.5 3t5.5 -15q-26 -58 -28 -122.5t17.5 -122t61 -101.5t103.5 -60q79 -23 155.5 -8t145.5 57q33 19 64.5 41.5t58.5 50.5q58 47 105 105zM224 807q10 0 17 -3t9 -14q1 -6 -9.5 -13.5
t-24.5 -3.5q-9 2 -13.5 9t-4.5 14.5t4.5 13.5t13.5 6q4 0 7 -5q1 -2 1 -4zM354 796q2 -8 -2.5 -12t-11.5 -1q-9 2 -16.5 9.5t-15.5 7.5q-11 -2 -16.5 7.5t2.5 16.5q5 8 15.5 7.5t17.5 -7.5q8 -5 15.5 -12t11.5 -16z" />
    <glyph glyph-name="yen" unicode="&#xa5;" horiz-adv-x="630" 
d="M320 159q-6 0 -6.5 7t4.5 7q6 1 23 2t41 2t53 2l58 2l2 4l19 46q-45 -1 -88 -1h-74q-7 0 -5.5 8.5t7.5 8.5q37 0 78.5 2t90.5 4l15 38q19 49 33 93t28 95l-48.5 -46.5t-55.5 -48.5t-60 -45.5t-63 -38.5q-79 -37 -161 -47.5t-166 17.5q-60 23 -104 73.5t-62 111.5
q-10 30 -13.5 63.5t-0.5 67.5t12.5 67t26.5 60q9 9 18.5 3t5.5 -15q-26 -58 -28 -122.5t17.5 -122t61 -101.5t103.5 -60q79 -23 155.5 -8t145.5 57q33 19 64.5 41.5t58.5 50.5q58 47 105 105q3 4 8.5 4.5t11.5 -1.5t10 -6.5t3 -8.5q-11 -63 -28 -120t-40 -114l-16 -41
q29 2 60 2.5t66 1.5q8 0 8 -6.5t-8 -8.5q-19 -5 -55.5 -7t-80.5 -4l-23 -50q38 1 67.5 0t39.5 -3q5 -3 5 -7.5t-5 -4.5q-17 -5 -49 -7t-70 -4l-47 -100q-5 -10 -13 -15.5t-14.5 -6.5t-9 2.5t2.5 11.5l48 108q-49 -1 -94 0t-68 3z" />
    <glyph glyph-name="questiondown" unicode="&#xbf;" horiz-adv-x="372" 
d="M127.016 153.017q-9.99902 0 -10.999 10.5q-1 10.499 7.99902 12.499q37.998 7.99902 78.4951 10.499q40.498 2.5 79.4951 2.5q8 0 13.499 -7.99902q5.5 -8 1.5 -16.999q-23.998 -36.998 -53.9961 -72.9961t-57.4971 -73.4951q-27.498 -37.498 -49.9971 -76.9951
q-22.498 -39.498 -32.4971 -84.4951q-5 -16.999 -5.5 -34.498t14.499 -30.498q10.999 -7 21.999 -8q10.999 -1 21.498 3q10.5 4 20.499 11.5q9.99902 7.49902 17.999 15.498q16.999 16 34.498 39.998t29.998 50.9971q12.499 26.998 16.999 54.9961
q4.49902 27.999 -5.5 51.9971q-2 6 0.5 11.499q2.5 5.5 6.5 8q3.99902 2.5 8.49902 1.5t7.5 -8q11.999 -26.998 9.99902 -58.4961t-13.499 -62.4961t-29.498 -58.9961q-17.999 -27.999 -38.998 -46.9971q-13.999 -15 -35.498 -27.499q-21.498 -12.499 -43.9971 -15.499
t-41.4971 6.5q-18.999 9.49902 -27.999 38.4971q-8.99902 25.999 -4.49902 52.9971q4.49902 26.998 15.499 53.4971q10.999 26.498 25.998 50.9971l27.998 44.4971q26.999 40.9971 55.9971 78.4951t56.9961 77.4951q-29.998 0 -61.4961 -0.5t-61.4961 -3.5zM158.014 359.004
q-7.99902 -4.99902 -14.999 0q-7 5 -3 13q8 12.999 21.499 19.498l27.498 13.5q8 3.99902 13.999 0.999023q6 -2.99902 8.5 -8.99902t0.5 -12.499q-2 -6.5 -11 -9.5q-10.999 -5.99902 -22.498 -9.49902t-20.499 -6.5z" />
  </font>
</defs>
</svg>
