<svg id="Layer_1" xmlns="http://www.w3.org/2000/svg" viewBox="-413 245 68 46.6"><style>.st0{fill:#fff}</style><path class="st0" d="M-365.9 252c-1.3 0-2.6.1-3.8.3-.1 0-.2.1-.2.2v.3c1.4 2.4 2.3 5.2 2.3 8 0 7.4-5.5 14-13.5 17.1-.1 0-.2.1-.2.2s0 .2.1.3c3.3 2.7 7.9 4.5 13 4.9.1 0 .2.1.2.1.1.1.1.2.1.3-.3 3.1-1 6-1.3 7.5 0 .1 0 .3.2.4.1.1.3.1.4 0 4.5-3.5 7.5-6.9 8.8-8.7.1-.1.2-.2.3-.2 8.4-2 14.5-8 14.5-15 0-8.7-9.4-15.7-20.9-15.7z"/><path class="st0" d="M-371.1 260.7c0-8.7-9.4-15.7-20.9-15.7-11.6 0-20.9 7-20.9 15.7 0 7 6.1 12.9 14.5 15 .1 0 .2.1.3.2 1.4 1.7 4.3 5.2 8.8 8.7.1.1.3.1.4 0 .1-.1.2-.2.2-.4-.3-1.5-1-4.4-1.3-7.5 0-.1 0-.2.1-.3.1-.1.1-.1.2-.1 10.4-.9 18.6-7.5 18.6-15.6z"/></svg>