<svg id="Layer_1" xmlns="http://www.w3.org/2000/svg" viewBox="0 0 306 79.7"><style>.st0{fill:#303030}.st1{fill:#4a4a4a;stroke:#4a4a4a;stroke-miterlimit:10}</style><g id="XMLID_305_"><path id="XMLID_340_" class="st0" d="M47.5 58.7V58c1.3.1 2.3.1 3 .1.8 0 1.6 0 2.5-.1.3.8.6 1.4.8 1.9.3.6 1.3 2.8 3.1 6.6.8 1.6 1.5 3.2 2.3 4.7l5-10.5c.3-.6.7-1.5 1.1-2.7 1 .1 1.8.1 2.4.1.5 0 1.4 0 2.6-.1v.7c-.2.1-.4.1-.5.1-1.1.2-1.7.4-1.8.5-.2.2-.3.6-.3 1.2v3.9c0 4.7 0 7.5.1 8.5 0 .2.1.4.2.5s.8.3 2 .5c.1 0 .3.1.5.1v.7c-1.4-.1-2.6-.1-3.7-.1s-2.4 0-3.9.1V74c.3-.1.5-.1.7-.2 1-.2 1.5-.3 1.6-.4l.3-.3c.1-.2.1-.9.1-1.9V60.9c-.7 1.4-2.3 4.8-4.8 10.2-.7 1.5-1.2 2.6-1.5 3.4h-.7c-1.7-3.9-3.9-8.4-6.4-13.5L52 71.8c0 .9.1 1.4.2 1.5s.7.3 1.8.5c.1 0 .3.1.5.1v.7c-1.4-.1-2.4-.1-3.3-.1s-1.9 0-3.3.1v-.7c.2-.1.4-.1.5-.1 1-.2 1.6-.4 1.7-.5.2-.2.3-.8.3-1.6l.1-2.6c0-2.4.1-4.7.1-7v-1.4c0-.6 0-.9-.1-1.1s-.2-.2-.3-.3c-.3-.1-1-.3-2-.4-.2-.1-.4-.2-.7-.2z"/><path id="XMLID_338_" class="st0" d="M71.7 64v-.7c1.2.1 2.1.1 2.6.1.4 0 1.3 0 2.6-.1v.7c-.7.1-1.1.2-1.3.4-.1.1-.2.2-.2.3 0 .2.1.5.4 1.2.8 2.1 1.7 4 2.5 5.6l1.2-3.5c.7-1.9 1-2.9 1-3.2 0-.1 0-.3-.1-.3-.1-.1-.3-.2-.6-.3-.1 0-.2-.1-.3-.1v-.7c1 .1 1.7.1 2.1.1.5 0 1.1 0 1.8-.1v.6c-.6.1-1 .3-1.2.6-.2.2-.6 1.1-1.2 2.7l-2.3 6.1c-.7 1.9-1.2 3.1-1.5 3.8-.4.8-1 1.4-1.5 1.8s-1.1.6-1.6.6c-.3 0-.6 0-1.1-.1-.1-.5-.2-.8-.3-1s-.2-.5-.5-1l.4-.3c.6.5 1.2.8 1.8.8.6 0 1-.2 1.4-.6.6-.6 1-1.6 1.5-3L75.1 69c-.7-1.7-1.3-3-1.9-3.9-.2-.3-.3-.5-.4-.6-.2-.2-.6-.3-1.1-.5z"/><path id="XMLID_335_" class="st0" d="M92 58.7V58c1 .1 2.3.1 3.9.1h4.6c1.7 0 3 .4 3.8 1.1.8.7 1.2 1.7 1.2 3 0 1.5-.5 2.7-1.6 3.7s-2.5 1.5-4.4 1.5c-.7 0-1.6-.1-2.6-.3v2.6c0 2 0 3.1.1 3.5 0 .1.1.2.2.3.2.1 1 .3 2.2.5.1 0 .3 0 .5.1v.7c-1.5-.1-2.9-.1-4.2-.1-1.2 0-2.5 0-3.8.1v-.7c.3-.1.5-.1.7-.2 1-.2 1.6-.4 1.7-.5.2-.2.3-.6.3-1.4V60.3c0-.5-.1-.8-.2-1s-.8-.3-1.9-.6c0 .1-.2 0-.5 0zm5 7.3c.8.2 1.5.3 2.1.3 1.3 0 2.3-.3 3-1s1-1.6 1-2.7-.3-1.9-1-2.5-1.6-.9-3-.9c-.6 0-1.3.1-2.1.2V66z"/><path id="XMLID_332_" class="st0" d="M109 66.6l-.8-.1c.2-.8.3-1.6.3-2.4 1.5-.7 2.9-1 4.1-1 .5 0 1 .1 1.4.2.4.2.8.4 1 .6s.4.6.6 1c.1.4.2 1 .2 1.8l-.1 4.8c0 .7.1 1.1.2 1.3s.3.3.6.3.7-.2 1.3-.6l.4.5c-1.1 1-1.7 1.5-1.8 1.6-.2.1-.5.2-.8.2-.5 0-.9-.1-1.2-.4s-.5-.7-.6-1.3c-.9.7-1.6 1.2-2.1 1.4s-.9.3-1.5.3c-.9 0-1.6-.3-2.1-.8s-.8-1.2-.8-2c0-.5.1-1 .3-1.4s.5-.8.8-1.1c.3-.2.7-.5 1.4-.8 1.5-.7 2.9-1.3 4-1.8 0-1.1-.2-1.8-.5-2.2-.3-.4-.8-.5-1.5-.5-.6 0-1.2.2-1.6.6s-.8 1-1.2 1.8zm4.9 1.3c-2 .9-3.3 1.6-3.7 2s-.6.9-.6 1.5.2 1.1.5 1.4.7.5 1.1.5c.4 0 .9-.1 1.4-.4s.9-.6 1-1 .3-1 .3-2v-2z"/><path id="XMLID_330_" class="st0" d="M127 66.3l-.8-.1c-.1-.7-.3-1.2-.7-1.6s-1-.6-1.6-.6c-.6 0-1 .2-1.3.5s-.5.6-.5 1c0 .3.1.7.4 1 .4.4 1.1.9 2.3 1.5s2 1.1 2.4 1.7c.4.5.6 1.1.6 1.8 0 1-.4 1.8-1.1 2.5s-1.8 1-3.1 1c-1 0-2-.2-3.2-.6.1-1.1.2-2.1.2-3h.8c.2.9.6 1.6 1 2s1 .6 1.7.6c.6 0 1.1-.2 1.4-.5s.5-.7.5-1.2-.2-.9-.5-1.3-1.1-.9-2.2-1.5-1.9-1.1-2.3-1.6c-.4-.5-.6-1-.6-1.6 0-.8.4-1.6 1.1-2.3s1.8-1 3-1c.9 0 1.8.2 2.9.6-.2.6-.3 1.5-.4 2.7z"/><path id="XMLID_328_" class="st0" d="M137 66.3l-.8-.1c-.1-.7-.3-1.2-.7-1.6s-1-.6-1.6-.6c-.6 0-1 .2-1.3.5s-.5.6-.5 1c0 .3.1.7.4 1 .4.4 1.1.9 2.3 1.5s2 1.1 2.4 1.7c.4.5.6 1.1.6 1.8 0 1-.4 1.8-1.1 2.5s-1.8 1-3.1 1c-1 0-2-.2-3.2-.6.1-1.1.2-2.1.2-3h.8c.2.9.6 1.6 1 2s1 .6 1.7.6c.6 0 1.1-.2 1.4-.5s.5-.7.5-1.2-.2-.9-.5-1.3-1.1-.9-2.2-1.5-1.9-1.1-2.3-1.6c-.4-.5-.6-1-.6-1.6 0-.8.4-1.6 1.1-2.3s1.8-1 3-1c.9 0 1.8.2 2.9.6-.1.6-.3 1.5-.4 2.7z"/><path id="XMLID_325_" class="st0" d="M140 65.1v-.7c1.3-.3 2.5-.8 3.7-1.5l.3.2c-.2 1.7-.2 4-.2 7 0 1.4 0 2.3.1 2.6 0 .2.1.4.2.5s.5.2 1.2.5c.1 0 .2.1.4.1v.7c-1-.1-1.9-.1-2.5-.1-.4 0-1.5 0-3.2.1v-.7c1.1-.3 1.6-.5 1.8-.7s.2-1.3.2-3.4v-3c0-.9-.1-1.4-.2-1.6s-.3-.3-.6-.3c-.1.2-.5.3-1.2.3zm3-7.8c.3 0 .6.1.9.4s.4.5.4.9c0 .3-.1.6-.4.9s-.5.4-.9.4c-.3 0-.6-.1-.9-.4s-.4-.5-.4-.9c0-.3.1-.6.4-.9s.5-.4.9-.4z"/><path id="XMLID_322_" class="st0" d="M147.9 69.1c0-1.9.5-3.4 1.6-4.5s2.5-1.7 4.2-1.7c1.7 0 3 .5 3.9 1.5 1 1 1.4 2.4 1.4 4.2 0 1.9-.5 3.4-1.6 4.6-1.1 1.1-2.5 1.7-4.2 1.7-1.7 0-3-.5-3.9-1.5s-1.4-2.4-1.4-4.3zm2.2-1c0 1.3.1 2.2.2 2.8.3 1 .7 1.7 1.2 2.2s1.2.7 2 .7c1 0 1.8-.4 2.4-1.1.6-.7.9-1.9.9-3.5 0-1.8-.4-3.2-1.1-4-.7-.9-1.5-1.3-2.5-1.3-.9 0-1.7.3-2.3 1s-.8 1.8-.8 3.2z"/><path id="XMLID_320_" class="st0" d="M161.1 65.3v-.7c1.4-.3 2.7-.8 3.8-1.5l.3.2c-.1.7-.2 1.3-.2 2.1l1.5-1.5c.3-.2.5-.4.9-.5.5-.2.9-.3 1.4-.3 1.1 0 2 .4 2.5 1.1.4.5.6 1.3.6 2.5v2.8c0 1.9 0 3 .1 3.4 0 .2.1.4.2.5s.5.2 1.1.4c.1 0 .3.1.5.1v.7c-.9-.1-1.7-.1-2.5-.1-.6 0-1.7 0-3.2.1v-.7c.9-.3 1.4-.4 1.5-.5s.2-.2.2-.5c.1-.8.1-2 .1-3.6 0-1.7 0-2.7-.1-3.1-.1-.5-.3-.9-.7-1.2s-.8-.4-1.3-.4-1 .2-1.5.5-.9.7-1.1 1.2-.4 1.3-.4 2.3c0 2.8.1 4.3.2 4.6s.6.4 1.4.7c.1 0 .3.1.4.1v.7c-1-.1-1.9-.1-2.6-.1-.7 0-1.7 0-3.1.1V74c.9-.2 1.5-.4 1.6-.5.1-.1.1-.2.2-.5.1-.7.1-1.8.1-3 0-2.6 0-4.1-.1-4.3-.1-.3-.3-.5-.7-.5-.2 0-.4 0-.8.1.1-.1-.1-.1-.3 0z"/><path id="XMLID_318_" class="st0" d="M197.8 71.7l.5.9c-1.3.8-2.5 1.4-3.6 1.7-1.2.4-2.3.6-3.6.6-1.6 0-3-.4-4.3-1.1s-2.2-1.7-2.9-3-1-2.8-1-4.4c0-2.6.8-4.7 2.5-6.4 1.7-1.7 3.9-2.5 6.7-2.5 1.7 0 3.6.4 5.7 1.1v1.5c0 1 .1 2.1.2 3.2h-1c-.3-1.4-.6-2.3-.9-2.8s-.9-.9-1.6-1.2c-.7-.3-1.6-.5-2.7-.5-2.3 0-4 .8-5.1 2.4-.9 1.3-1.3 2.8-1.3 4.7 0 2.3.6 4.1 1.9 5.4s2.9 2 4.9 2c.9 0 1.7-.1 2.6-.3.9-.2 1.9-.7 3-1.3z"/><path id="XMLID_315_" class="st0" d="M200.9 69.1c0-1.9.5-3.4 1.6-4.5s2.5-1.7 4.2-1.7c1.7 0 3 .5 3.9 1.5 1 1 1.4 2.4 1.4 4.2 0 1.9-.5 3.4-1.6 4.6-1.1 1.1-2.5 1.7-4.2 1.7-1.7 0-3-.5-3.9-1.5s-1.4-2.4-1.4-4.3zm2.2-1c0 1.3.1 2.2.2 2.8.3 1 .7 1.7 1.2 2.2s1.2.7 2 .7c1 0 1.8-.4 2.4-1.1.6-.7.9-1.9.9-3.5 0-1.8-.4-3.2-1.1-4-.7-.9-1.5-1.3-2.5-1.3-.9 0-1.7.3-2.3 1s-.8 1.8-.8 3.2z"/><path id="XMLID_313_" class="st0" d="M214.2 65.3v-.7c1.5-.4 2.7-.9 3.7-1.5l.3.2c-.1.8-.2 1.6-.2 2.5.9-1.2 1.6-1.9 2-2.1s.8-.4 1.3-.4c.3 0 .7.1 1.1.2-.2.8-.3 1.6-.4 2.4h-.6c-.1-.4-.2-.6-.4-.8s-.3-.3-.6-.3-.6.1-1 .4c-.5.4-.9.9-1.2 1.5-.2.6-.4 1.3-.4 2.4 0 1.8.1 3 .2 3.7 0 .2.1.4.3.5.2.1.7.3 1.7.5v.7c-1-.1-1.9-.1-2.7-.1-.7 0-1.8 0-3.3.1v-.7c1.1-.3 1.7-.5 1.8-.6s.2-.5.2-1.2v-2.5c0-2.5 0-3.8-.1-4-.1-.3-.3-.5-.7-.5-.2 0-.5 0-1 .1.2.1.1.2 0 .2z"/><path id="XMLID_311_" class="st0" d="M224.2 65.3v-.7c1.4-.3 2.7-.8 3.8-1.5l.3.2c-.1.7-.2 1.3-.2 2.1l1.5-1.5c.3-.2.5-.4.9-.5.5-.2.9-.3 1.4-.3 1.1 0 2 .4 2.5 1.1.4.5.6 1.3.6 2.5v2.8c0 1.9 0 3 .1 3.4 0 .2.1.4.2.5s.5.2 1.1.4c.1 0 .3.1.5.1v.7c-.9-.1-1.7-.1-2.5-.1-.6 0-1.7 0-3.2.1v-.7c.9-.3 1.4-.4 1.5-.5s.2-.2.2-.5c.1-.8.1-2 .1-3.6 0-1.7 0-2.7-.1-3.1-.1-.5-.3-.9-.7-1.2s-.8-.4-1.3-.4-1 .2-1.5.5-.9.7-1.1 1.2-.4 1.3-.4 2.3c0 2.8.1 4.3.2 4.6s.6.4 1.4.7c.1 0 .3.1.4.1v.7c-1-.1-1.9-.1-2.6-.1-.7 0-1.7 0-3.1.1V74c.9-.2 1.5-.4 1.6-.5.1-.1.1-.2.2-.5.1-.7.1-1.8.1-3 0-2.6 0-4.1-.1-4.3-.1-.3-.3-.5-.7-.5-.2 0-.4 0-.8.1 0-.1-.1-.1-.3 0z"/><path id="XMLID_308_" class="st0" d="M247.8 71.8l.4.7-2.3 1.7c-.3.2-.7.4-1 .5-.5.1-1 .2-1.5.2-1.3 0-2.4-.5-3.3-1.5-.9-1-1.4-2.4-1.4-4.1 0-1.9.5-3.4 1.6-4.5s2.4-1.7 4-1.7c1.2 0 2.1.3 2.8 1 .7.7 1 1.7 1 3.1-.3.2-.6.4-.9.7h-1c-2.1 0-3.9 0-5.4.1 0 1.8.3 3.1.9 4 .6.9 1.4 1.4 2.4 1.4.5 0 1-.1 1.6-.3s1.3-.8 2.1-1.3zm-1.7-5.2c0-.8-.2-1.4-.5-1.8-.4-.6-1-.9-1.8-.9-.6 0-1.2.2-1.7.7-.5.4-.9 1.2-1.1 2.2h.7c1.2.1 2.7 0 4.4-.2z"/><path id="XMLID_306_" class="st0" d="M250.1 65.3v-.7c1.5-.4 2.7-.9 3.7-1.5l.3.2c-.1.8-.2 1.6-.2 2.5.9-1.2 1.6-1.9 2-2.1.4-.3.8-.4 1.3-.4.3 0 .7.1 1.1.2-.2.8-.3 1.6-.4 2.4h-.6c-.1-.4-.2-.6-.4-.8s-.3-.3-.6-.3-.6.1-1 .4c-.5.4-.9.9-1.2 1.5-.2.6-.4 1.3-.4 2.4 0 1.8.1 3 .2 3.7 0 .2.1.4.3.5.2.1.7.3 1.7.5v.7c-1-.1-1.9-.1-2.7-.1-.7 0-1.8 0-3.3.1v-.7c1.1-.3 1.7-.5 1.8-.6s.2-.5.2-1.2v-2.5c0-2.5 0-3.8-.1-4-.1-.3-.3-.5-.7-.5-.2 0-.5 0-1 .1.3.1.2.2 0 .2z"/></g><path class="st0" d="M9.4 65.5h32v2.9h-32zm257 0h32v2.9h-32z"/><path class="st1" d="M56.1 8.5c-.2.1-.3.2-.3.4-.2 1.5-.4 2.8-.7 4-.2 1.2-.5 2.4-.8 3.5-.3 1.1-.6 2.2-1 3.3-.4 1.1-.8 2.3-1.2 3.6-.6 1.4-1.2 2.7-1.9 4.2-.7 1.4-1.5 2.8-2.3 4-.8 1.3-1.7 2.4-2.6 3.3-.9 1-1.9 1.7-2.8 2.2-1.4.7-2.7 1-4 .9-1.3-.1-2.4-.6-3.5-1.3-1.1-.7-2-1.7-2.9-2.8-.8-1.1-1.6-2.4-2.2-3.6-1.3-2.6-2.4-5.2-3.3-7.8-.9-2.6-1.8-5.3-2.7-8.2-.1-.3-.3-.6-.6-.9-.3-.3-.7-.2-1 .1-.4.7-.8 1.7-1 3.2-.1 1.4-.3 2.9-.4 4.4-.2 1.6-.4 3.3-.5 5.2-.2 1.8-.4 3.6-.7 5.4-.3 1.7-.6 3.4-.9 4.8-.3 1.5-.7 2.7-1.1 3.6-.2.6-.6.9-1.1 1-.6.1-1.1 0-1.7-.5-1.4-1.2-2.6-2.7-3.6-4.6-1-1.9-1.8-3.8-2.5-5.6-1.2-3.4-2.3-6.9-3.1-10.4-.9-3.5-1.6-7-2.1-10.5C3.3 8 3.1 6.6 2.9 5c-.1-1.6-.2-3-.2-4.1 0-.2-.1-.3-.2-.4C2.4.4 2.2.3 2 .3s-.3 0-.4.1c-.1.1-.2.3-.1.5 0 2.2.1 4.5.4 7 .3 2.5.6 4.8.9 7.1.7 3.5 1.4 6.8 2.1 9.8.7 3 1.7 6 2.8 8.9.3.8.6 1.6 1 2.4.4.8.8 1.7 1.3 2.4.5.8 1 1.5 1.5 2.1.5.7 1.1 1.2 1.6 1.6 1.3 1 2.5 1.3 3.6 1 1.1-.4 1.9-1.2 2.3-2.4.4-1 .7-2.1 1-3.3.3-1.2.6-2.5.8-3.8.2-1.3.4-2.7.6-4.1.2-1.4.3-2.7.5-4 .2-1.4.4-2.9.5-4.4.1-1.5.4-3.1.7-4.9.5 1.4.9 2.7 1.3 4 .4 1.3.8 2.5 1.2 3.8.4 1.3.9 2.5 1.4 3.7.5 1.2 1.1 2.5 1.7 3.8.7 1.4 1.6 2.7 2.5 3.8 1 1.2 2.1 2.1 3.2 2.8 1.2.7 2.4 1.1 3.8 1.3 1.3.1 2.7-.1 4.1-.6 1.4-.5 2.6-1.3 3.7-2.3 1-1 2-2.1 2.8-3.3.8-1.2 1.5-2.5 2.2-3.8s1.2-2.6 1.8-3.9c1.1-2.6 2-5.3 2.7-8.1.7-2.8 1-5.6 1-8.6 0-.3-.1-.5-.4-.4zm12.7 18.9c-1-.3-2.2-.2-3.7.1-1.3.3-2.5.7-3.6 1.4s-2.1 1.4-3 2.3c-.8.9-1.5 1.8-2.1 2.7-.5.9-.8 1.7-.9 2.5 0 .5.1.8.6 1.1.4.3.9.5 1.5.5.7.1 1.5.1 2.4-.1.9-.1 1.8-.3 2.6-.6.8-.2 1.6-.5 2.3-.8.7-.3 1.1-.6 1.4-.9 0 .2 0 .5.1.8.1.3.2.6.4.8.3.4.7.4 1 .2.3-.3.5-.5.5-.7 0-.5 0-1-.1-1.6-.1-.6-.1-1.2-.2-1.7-.1-.3-.3-.4-.8-.4-.4 0-.9.3-1.4.9-.3.3-.7.6-1.3 1-.6.3-1.3.6-2.1.9-.8.3-1.6.5-2.4.6-.8.1-1.5.1-2.1-.2-.4-.1-.5-.5-.3-1.1.2-.6.7-1.3 1.4-2s1.5-1.4 2.5-2.1c1-.7 2-1.1 3.1-1.4 1.1-.3 2.1-.3 3-.1.8.2 1.5.5 2.1 1 .1.1.3.2.5.1l.6-.3c.2-.1.3-.3.4-.5.1-.2.1-.4 0-.5-.5-1-1.4-1.7-2.4-1.9z"/><path class="st1" d="M141.6 35.8c-.9-1.1-1.9-2.1-3.2-3-1.3-.9-2.8-1.7-4.5-2.2-1.7-.5-3.7-.5-5.9-.1-1.1.2-2.2.5-3.4 1-1.2.5-2.4 1.1-3.6 1.7-1.2.7-2.3 1.4-3.3 2.1-1 .7-1.9 1.4-2.6 2.1 0-.5.2-1.5.4-3s.5-3.2.8-5.2c.3-1.9.7-4 1-6.2.2-.9.3-1.8.4-2.6 3.8-.3 7.7-.6 11.6-.9.2 0 .3-.1.3-.4 0-.3-.1-.4-.3-.4-3.8 0-7.6.1-11.3.4l.3-2.1c.3-1.9.6-3.6.8-5 .2-1.4.4-2.3.4-2.7 0-.3 0-.5-.3-.5-.2-.1-.5-.1-.7 0-.3.1-.6.2-.8.5-.3.2-.4.5-.5.8-.1.6-.2 1.6-.4 3.1s-.5 3.2-.7 5.2c0 .3-.1.6-.1.9-1.7.1-3.3.3-5 .5-6.1.7-12.2 1.3-18.4 2-2.3.2-4.5.4-6.6.6-2.1.2-4.4.4-6.9.6.3-.9.6-1.7.9-2.3.3-.6.5-1.2.5-1.8 0-.3 0-.5-.2-.5-.2-.1-.4-.1-.7 0-.3.1-.5.2-.8.4-.3.2-.4.4-.4.7-.2.5-.4 1-.6 1.6-.2.6-.4 1.3-.6 2-1.6.1-3 .3-4.3.4-1.3.1-2.6.2-3.8.3-1.2.1-2.4.1-3.6.1h-3.8c-.6 0-.9.1-1 .4 0 .3.3.4 1 .4 1.3.1 2.4.2 3.5.3s2.2.1 3.3 0c1.1 0 2.4-.1 3.7-.2 1.3-.1 2.8-.2 4.5-.3-.1.5-.3.9-.4 1.4-.2.4-.3.9-.5 1.5-.2.5-.4 1.1-.6 1.8-.2.7-.4 1.5-.7 2.4-.3.8-.5 1.6-.7 2.5-.2.9-.3 1.9-.4 2.8 0 .9.1 1.8.3 2.6.2.8.7 1.5 1.3 2 .7.5 1.6.7 2.6.6 1-.1 2.1-.4 3.1-.9s2-1 3-1.6c.9-.6 1.7-1.1 2.2-1.6.5-.3 1.1-.7 1.7-1.3.5-.5 1.1-1 1.6-1.5-.3.7-.4 1.4-.3 2.1 0 .7.3 1.3.8 1.8.3.4.8.7 1.4 1 .6.3 1.3.5 2 .7.7.2 1.4.3 2.1.3.7.1 1.3.1 1.7 0 .9 0 1.8-.1 2.5-.3.7-.1 1.4-.3 2-.5.6-.2 1.3-.5 1.9-.8.7-.3 1.4-.7 2.2-1.1.1 0 .2-.1.2-.3.1-.1.1-.3 0-.4 0-.1-.1-.3-.2-.3-.1-.1-.3-.1-.5 0-2.2.8-4.2 1.4-6.1 1.8-1.9.3-4 .2-6.1-.3-1.4-.5-2-1.3-2-2.4 0-1.1.6-2.2 1.7-3.3.9-.9 2.2-1.6 3.8-2.2 1.6-.6 3.3-1 5.2-1.2 1.9-.2 4-.1 6.1.1 2.1.3 4.2.8 6.2 1.6-.2 1.6-.4 3-.6 4.2-.2 1.5-.3 2.5-.4 3-.1.3 0 .7.3 1.1.3.4.6.4 1.1.1.9-.7 1.9-1.4 2.9-2.1 1.1-.7 2.2-1.5 3.3-2.1 1.1-.7 2.2-1.3 3.3-1.8 1.1-.5 2.1-.9 3-1.2 2.1-.5 3.9-.6 5.4-.3 1.5.3 2.7.8 3.8 1.5 1 .7 1.9 1.5 2.6 2.4.7.9 1.3 1.7 1.8 2.4.3.3.6.6 1 .7.4.1.8.2 1.2.1.4 0 .6-.1.8-.3.2-.2.2-.4 0-.6-.1-.8-.8-1.7-1.7-2.8zm-39.2-8c-2 .1-3.9.5-5.7 1.1-1.2.5-2.4 1-3.3 1.7-.1-.2-.3-.2-.6 0-1.5 1.3-3.1 2.6-4.9 3.9-1.8 1.4-3.5 2.6-5.2 3.6-.3.2-.8.4-1.2.7l-1.5.6c-.5.2-1 .3-1.4.3-.5.1-.9.1-1.2 0-.7-.2-1.2-.6-1.4-1.3-.2-.7-.3-1.4-.3-2.3.1-.8.2-1.7.4-2.6.2-.9.4-1.7.6-2.4.3-1 .5-1.8.7-2.5.2-.7.4-1.3.6-1.8.2-.5.3-1 .5-1.4.1-.4.3-.8.4-1.3 2.3-.2 4.5-.4 6.5-.6 2-.2 4.1-.4 6.5-.6 6.2-.6 12.4-1.3 18.7-1.8 1.8-.2 3.6-.3 5.3-.5l-.6 3.9c-.3 2-.6 4-.8 5.8-1.9-.9-3.8-1.6-5.7-2-2.3-.5-4.4-.7-6.4-.5zm142.2-8.9c.6.2 1.1.1 1.6-.2.4-.3.6-.6.6-.9-.1-.5-.3-.8-.6-.9-.3-.1-.7-.2-1.1-.2 0-.1 0-.2-.1-.3-.1-.2-.3-.3-.4-.3-.4 0-.7.1-.9.4-.2.3-.3.5-.3.9 0 .3.1.6.3.9.3.3.6.5.9.6z"/><path class="st1" d="M270.4 33.9c-.2-.8-.3-1.5-.4-2.3-.1-.7-.2-1.5-.3-2.1-.1-.7-.2-1.3-.4-1.9-.3-.8-.7-1.2-1.3-1.3-.6-.1-1.4 0-2.2.4-.8.4-1.7 1-2.7 1.8-1 .8-1.9 1.6-2.8 2.5-.9.9-1.8 1.9-2.6 2.9s-1.5 1.9-2.1 2.7c.1-1.4.2-2.6.2-3.6.1-1 .1-1.9.2-2.8 0-.3-.1-.5-.2-.6-.1-.1-.3-.1-.5-.1s-.4.1-.5.3c-.1.1-.2.3-.2.4-.1.4-.1.7-.1 1-1.2 1.8-2.5 3.1-3.9 3.8-1.5.8-3 1.1-4.4 1-1.4-.1-2.8-.7-4-1.6-1.3-.9-2.3-2.1-3-3.6-.2-.4-.5-.6-.8-.4h-.4c-4 1.6-8.1 2.9-12.2 4.1-4.1 1.2-8.5 2-13.3 2.6-4.7.6-9.9.9-15.6.9-5.6 0-12-.4-19.2-1.2 2.5-2.5 4.7-5.4 6.7-8.4 1.9-3.1 3.7-6.2 5.2-9.3 1.5-3.1 2.8-6.1 3.9-9.1 1.1-2.9 2.1-5.6 3-7.9.1-.2.1-.4 0-.4-.1-.1-.2-.1-.3-.1-.1 0-.3.1-.5.3-.2.1-.3.3-.4.5-1 2.1-2.1 4.7-3.3 7.6-1.2 2.9-2.7 6-4.3 9.2-1.7 3.2-3.5 6.3-5.6 9.5-2.1 3.2-4.5 6-7.2 8.4-.4.2-.5.4-.3.7.1.3.4.4.8.4 2.9.4 6.1.8 9.5 1 3.4.2 7 .3 10.7.3 3.7 0 7.4-.1 11.2-.4 3.8-.3 7.5-.7 11.2-1.4 3.7-.6 7.2-1.5 10.6-2.5 3.3-1 6.4-2.2 9.2-3.6.1.4.3.8.5 1.3.7 1.4 1.7 2.5 3.1 3.5 1.3 1 2.8 1.5 4.4 1.6 1.6.1 3.3-.3 5-1.1 1.2-.6 2.3-1.6 3.4-2.8 0 .2-.1.4-.1.5-.1.6-.2 1.2-.3 1.9-.1.6-.2 1.4-.3 2.2-.1.3 0 .7.3 1.1.3.4.6.4 1.1.1.9-1.1 1.8-2.3 2.8-3.4 1-1.1 1.9-2.2 2.9-3.1 1-1 1.9-1.9 2.8-2.6.9-.8 1.7-1.4 2.5-1.9 1.1-.7 1.7-.6 1.9.4.1.5.2 1.1.3 1.7.1.6.2 1.3.3 2 .1.7.2 1.3.4 2s.4 1.3.7 1.9c0 .2.2.4.5.5.3.1.6.1.9.1.3 0 .5-.1.7-.3.1-.2.1-.4 0-.8-.7-.9-1-1.7-1.2-2.5zm36 8.2c-.1-.1-.2-.2-.5-.2-1.9-.4-3.9-.9-5.9-1.4s-4.1-1.1-6.1-1.8-3.9-1.5-5.8-2.5c-1.8-1-3.5-2.1-5-3.5 1.1-.8 2.1-1.6 3.1-2.3 1-.7 1.9-1.3 2.9-1.9 1-.6 2-1.1 3-1.6s2.1-1 3.2-1.4c.5-.1.7-.4.7-.9 0-.4-.2-.7-.4-.7-2.5 1.1-4.9 2.3-7.2 3.6-2.4 1.3-4.7 2.7-6.9 4-.3.2-.5.5-.7.8-.2.3-.1.6.2.8 1.5 1.6 3.2 3 5.2 4.2 2 1.2 4 2.1 6.2 2.9 2.2.8 4.4 1.4 6.8 1.8 2.3.4 4.6.7 6.7.9.1 0 .2-.1.3-.2.1-.1.2-.2.2-.4v-.2z"/><path class="st1" d="M279.4 36.5c.5-1.9 1-3.9 1.6-6 .6-2.1 1.3-4 2.1-5.6.6-1.1 1.1-2.2 1.6-3.1.5-.9 1-1.8 1.6-2.6.6-.8 1.2-1.6 1.9-2.4s1.5-1.6 2.5-2.4c.2-.1.2-.2.2-.5 0-.2-.3-.3-.7-.1-1.3.6-2.6 1.7-4 3.3-1.4 1.7-2.7 3.6-3.9 5.9-1.2 2.2-2.3 4.7-3.2 7.4-.9 2.7-1.6 5.3-1.9 7.9.6.3 1 .5 1.4.4.4-.1.7-.2 1-.4.2-.2.4-.4.4-.7 0-.3 0-.4-.1-.4l-.5-.7z"/><circle cx="244.5" cy="16.7" r="3.3" fill="#4a4a4a"/></svg>