<svg id="Layer_1" xmlns="http://www.w3.org/2000/svg" viewBox="-428.7 218.3 99.4 99.4"><style>.st0{fill:#fff}</style><path class="st0" d="M-379 218.3c-27.4 0-49.7 22.3-49.7 49.7s22.3 49.7 49.7 49.7c14.6 0 28.4-6.4 37.9-17.5 1-1.2.9-3-.3-4s-3-.9-4 .3c-8.4 9.9-20.6 15.5-33.6 15.5-24.3 0-44-19.8-44-44s19.8-44 44-44c24.3 0 44 19.8 44 44 0 5.1-.8 10-2.5 14.7-.5 1.5.2 3.1 1.7 3.6s3.1-.2 3.6-1.7c1.9-5.3 2.9-10.9 2.9-16.6 0-27.4-22.3-49.7-49.7-49.7z"/><circle class="st0" cx="-338.4" cy="291.4" r="2.8"/><path class="st0" d="M-395 248.3c-4.3 4.3-6.6 9.9-6.6 16 0 6 2.4 11.7 6.6 16l14 14 .1.1c.5.5 1.2.7 1.9.7s1.5-.3 2-.8l14-14c8.8-8.8 8.8-23.2 0-32-4.3-4.3-9.9-6.6-16-6.6-6 0-11.7 2.4-16 6.6zm28 28l-12 12-12-12c-3.2-3.2-5-7.5-5-12s1.8-8.8 5-12c3.2-3.2 7.5-5 12-5s8.8 1.8 12 5c6.6 6.7 6.6 17.4 0 24z"/><path class="st0" d="M-387.5 264.3c0 4.7 3.8 8.5 8.5 8.5s8.5-3.8 8.5-8.5-3.8-8.5-8.5-8.5-8.5 3.8-8.5 8.5zm11.3 0c0 1.6-1.3 2.8-2.8 2.8-1.6 0-2.8-1.3-2.8-2.8 0-1.6 1.3-2.8 2.8-2.8 1.6 0 2.8 1.3 2.8 2.8z"/></svg>