<svg id="Layer_1" xmlns="http://www.w3.org/2000/svg" viewBox="0 0 901 488.3"><style>.st0{fill:#393837}</style><path class="st0" d="M63.6 387.3c-4.2 4.3-9.7 4.3-15.1 3.4-5.3-.9-10.6-2.3-15.9-3.5-1.1-.2-2.2-.6-3.2-.3-13.6 3.4-20.5-7.8-21.5-17.8-.7-6.2-.5-12.5-1.5-18.7C1.9 322.8.7 295 .2 267.2c-.3-13.6 0-27.3 1.8-40.7 1.2-8.5 2.3-16.6 1-25.1-1.3-9.1 1.7-17.4 5.8-25.3.9-1.7 2.1-3.8 3.6-4.4 6.7-2.3 10.6-7.6 15.5-12.1 5.9-5.6 13.9-6.8 22-6.9 2.5-.1 5-1.3 7.3-2.3 17.5-7.9 34.9-15.8 54.7-7.6 11.2-9.2 25.2-9.8 38.8-11.6 1.1-.1 2.7-.1 3.2.6 3.8 4.3 7.3 1 11.1.2 11.2-2.6 22.6-4.6 33.8-7.2 27.3-6.4 52.8-17.2 76.9-31.8 25.9-15.7 52.6-29.9 81.4-39.8 16.1-5.6 32.5-9.6 49.6-11.1 1.8-.2 3.7-.5 4.3-.6-.8-3.8-2.3-7.2-2-10.4.8-7.6 2.4-15.1 3.8-22.6.8-4 4-5.9 7.6-6.4 5.8-1 11.7-1.5 17.6-1.8 5.3-.3 10.6-.1 15.9-.2 13.3-.2 19.7 7.2 17.9 20.5-.8 6.1-1.1 12.4-1.5 18 66.7 9.2 126.8 34.9 184.2 67.9 9.4 5.4 18.6 11.6 28.6 15.7 8.6 3.5 18.2 4.7 27.4 6.8 10.6 2.4 21.2 4.6 31.8 6.8 1 .2 2.1-.1 3.1-.4 2.8-.8 5.8-2.7 8.4-2.3 9 1.4 17.9 3.3 26.7 5.7 3.6 1 6.6 3.6 10.3 5.7 9.5-4.6 19.9-4.6 30-1.4 9 2.8 17.6 7.3 26.4 10.9 1.3.5 2.8.6 4.1.6 7.4-.1 14.7.7 20.6 5.2 6.3 4.8 12.2 10.2 18.5 15.1 7.4 5.8 8.7 16 9 25.5.1 3.2-.9 6.4-.9 9.6 0 4.4.4 8.9.9 13.3.3 3.2 1.6 6.3 1.5 9.4 0 22.9-.2 45.8-.5 68.7-.2 10.2-.7 20.5-1.6 30.7-1.2 12.9-2.7 25.8-4.7 38.5-.7 4.4-2.8 8.7-5 12.7-3.1 5.7-8.7 6.3-14.6 5.9-2.3-.2-4.6.4-6.9.7-6.8.9-13.5 2.3-20.3 2.7-2.9.2-5.9-1.6-9.4-2.7-13.9 7.1-29.4 12.1-45.7 8-9.4-2.4-17.2-.3-25.7 1.7-5.9 1.4-12.8 4.4-17.7 2.6-13.2-4.9-24.9.8-37.2 2.6-5.2.8-10.4 1.7-15.7 2.4-19.3 2.7-36.9 10.5-54.1 18.7-17.3 8.2-33.8 18.2-50.9 26.9-48.8 24.6-100.3 37.7-155.2 35.5-46.2-1.8-89.6-14.7-130.3-36.3-17-9-33.3-19.2-50.2-28.3-17.8-9.5-36-17.9-56.8-19.2-10.9-.7-21.6-4.2-32.5-6.4-1.3-.3-3-.6-4 0-6.3 3.9-12.9 3.4-19.5 1.9-7.9-1.8-15.8-3.9-23.7-5.8-.8-.2-1.8-.1-2.6.1-5.4 1.1-10.8 3.1-16.2 3.2-12.4 0-27-4.3-36.3-10.2zm108-12.3c.5 4.9.7 8.7 1.4 12.4.3 1.3 1.6 3.1 2.8 3.4 7 1.7 14 3.1 21 4.3 6.1 1.1 12.5 1.3 18.5 2.7 20 4.6 38.4 13 55.8 24 31 19.7 63.8 35.2 99.2 45.4 67.3 19.5 132.6 15.3 196.1-14.7 25.6-12.1 50.9-24.9 76.8-36.4 15.6-6.9 31.8-12.5 48.2-17.4 10.4-3.1 21.6-4 32.5-5.6 3.8-.5 5.6-2.5 5.6-5.9 0-7.3.2-14.8-.9-22-1.9-13-3.3-13.8-16.5-13.4h-1c-10.9-.1-22.2.9-26.7-13.6-.8 3-1.2 5.1-2 7-2 4.5-4 9-6.4 13.3-.6 1.1-2.8 1.3-5 2.2 1.8-3.9 3.5-6.2 3.9-8.7 2.5-13.5 5.8-27 6.7-40.7 1.3-19.8 1.3-39.7 1.1-59.6-.3-22.3-2.2-44.5-11-65.5-.9-2.2-1.2-4.6-1.6-7-.4-2.6-.5-5.4 3-6.1 3.6-.7 4.5 1.9 5.3 4.7 1.7 5.5 3.7 11 5.8 17.5 3-10 6.2-12.8 15.7-13.5 7.2-.5 14.4-.4 21.6-.3 4.9.1 8.1-1.9 9-6.8 1.2-6.9 2.2-13.9 3.3-20.8 1.1-6.8-4.8-13.2-12.3-14-21.5-2.4-42.8-6.1-61.4-18.6-.7-.5-1.5-.7-3-1.5 2.3 3.2 3.9 5.6 5.6 8-.5.4-.9.8-1.4 1.2-1.5-1.3-3-2.5-4.4-3.8-5.2-4.7-9.7-10.7-15.7-13.8-22.3-11.5-45.3-21.8-67.8-32.9-37-18.2-75.8-29-117.3-29.7-53.3-.9-102.9 13.5-150 37.3-17.1 8.6-33.2 19.4-50 28.6-23.4 12.8-48.4 20.9-75.1 23.7-9.6 1-13.4 5.1-12.7 14.8.4 6 1.5 12.1 2.7 18 1.6 7.6 3.2 8.6 10.8 8.6 7 .1 14.1-.2 21.1.5 7.4.7 13.8 3.4 14.5 12.7 2.5-5.9 4.6-11.7 6.4-17.5.8-2.6 1.9-4.5 4.9-4 3.1.5 3.7 2.9 3.1 5.5-.8 3.7-1.9 7.4-2.9 11.1-2.4 9-5.7 17.8-6.9 26.9-4.6 34.8-4.4 69.7-.7 104.5 1.4 13.1 2.6 26.6 9.3 39-1 .1-2.1.6-2.6.2-7.4-5.1-7.5-14-10.8-22.3-2.5 12-11.4 13.1-20.4 13.7-4.5.3-9-.3-13.4-.1-2.3.1-4.5 1.2-6.7 1.8.1.4.1.9.2 1.3 2.6 1.5 5.2 3 7.9 4.5-.3.5-.5 1.1-.8 1.6-1.9-.5-3.9-.8-5.6-1.6-2.4-1.2-3.9-1.3-4 2 3 1.5 5.9 2.9 8.8 4.4-.1.4-.2.7-.4 1.1-3-.9-6-1.9-9.1-2.8-1.8 4.6 2.6 3.6 4.1 5 1.7 1.6 3.5 3.1 5.2 4.6-.3.3-.6.6-.9.8-3-1.4-5.9-2.8-9.3-4.4-.3 1.6-.9 3-.6 3.2 3.5 2.7 7.1 5.2 10.7 7.8-.1.2-.2.4-.3.5-3-1.3-6.3-2.8-11-4.8zm-30-157.4c3.1-5.4-2.7-7.3-4.8-11.6 2.3.9 3.7 1.4 6.7 2.5-1.7-3.7-2.9-6.2-4.2-8.9h3.3c-1-8.7-3.8-10.6-12.6-9.4-8.2 1.1-16.5 2.2-24.8 2.6-16.2.9-22.8 6.5-25 22.6-.6 4.3-.5 8.6-.6 12.9-.1 7 .6 14.2-.2 21.1-2.6 23.3 1.2 46.3 3.1 69.4.9 10.3 5.2 15.7 15.4 16.6 13.2 1.1 26.5.4 39.8.5 2.1 0 4.3-.4 6.9-.6-4.1-4-9.5-6.6-9.3-12.8.4-.3.8-.7 1.2-1l9 9.3c.5-.4 1.1-.8 1.6-1.2-1.7-2.6-3.2-5.4-5.2-7.8-2.1-2.6-4.8-4.7-6.9-7.3-.9-1.1-1.1-2.8-1.6-4.3.4-.3.9-.5 1.3-.8 2.9 3.2 5.8 6.4 9 9.9 1-8.9-5.8-13.3-9.7-19.2.4-.4.8-.9 1.2-1.3 2.2 1.2 4.4 2.4 6.1 3.3 3.7-8.5-4.9-12.5-8.3-18.7.4-.3.9-.6 1.3-1 1.9 1.2 3.9 2.3 5.9 3.5 1.1-4.1.1-6.8-3.3-9.2-4.6-3.2-4.9-5-2.7-8.3 1.8 1.6 3.6 3.3 5.7 5.1 1.5-5.3-.2-9-3.1-12.5-1.1-1.3-1.2-3.3-1.8-4.9.4-.1.9-.2 1.3-.4 1.2.8 2.4 1.7 3.6 2.5 3-6.8-4.1-9.9-5.3-16.2 2.5 1.3 4.2 2.2 5.8 3.1.5-.2.9-.5 1.4-.7-1.4-5.3-2.9-10.6-4.5-16.6 1.9.7 2.9 1.1 4 1.5.4-.3.8-.6 1.1-.9-1.6-4-3.2-7.9-5.3-13.1 2.6 1.4 3.6 1.9 4.5 2.3zm64.3-21.1c1.6-3.6.5-5.2-3-6.3-13.4-4.4-26.8-3.7-40.3-1.2-10.6 2-12.7 4.4-12.8 15.3-.1 9 .2 18-.5 26.9-2.5 34.7-1 69.1 6.7 103.1.6 2.9 2.1 4.5 5.6 4.3 10.4-.5 20.8-.5 31.2-.9 5-.2 10-.7 15.3-1.1-3.5-5.5-8.7-9.1-10.1-15.1.5-.5 1.1-.9 1.6-1.4 3 2.9 6 5.9 9 8.8 2.2-4.2-2.4-5.4-4-7.8-1.7-2.5-4.4-4.4-6.6-6.6.5-.6 1.1-1.1 1.6-1.7 3.3 2.6 6.7 5.3 10 7.9.4-.1.9-.2 1.3-.4-.7-2.5-1.1-5.1-2.2-7.4-1.2-2.4-3.3-4.4-4.4-6.8-1-2.1-1.3-4.5-1.8-6.8.5-.1.9-.2 1.4-.3 2.3 3.5 4.6 7 7.1 10.9 3.4-8.7-5.9-12.6-6.2-19.4.4-.4.8-.7 1.2-1.1 1.3 2 2.7 4.1 4 6.1.5-.4 1.1-.8 1.6-1.2-2.7-4.6-5.4-9.1-8.1-13.7.5-.3.9-.7 1.4-1 1.7 1.5 3.5 3.1 5.2 4.6.5-.3.9-.6 1.4-.9-2.7-6.3-5.4-12.6-8.4-19.7 2.6 1.5 4.4 2.6 6.4 3.7 1.2-4.6-1.4-6.8-4.4-9-2.8-2-5.6-4.1-5-8.5 3.1 2.7 6 5.1 8.9 7.6.6-.5 1.2-.9 1.8-1.4-1.5-2.7-2.5-5.8-4.5-8-3.6-4.1-6.8-8.2-7.8-13.5.4-.3.8-.6 1.2-.8 3.1 4 6.1 8.1 9.6 12.6 3.3-10.3-6.9-14.5-8.1-22.1.4-.2.7-.4 1.1-.6 1.8 2.5 3.6 4.9 5.6 7.8.4-4.6-.2-8.1-4.3-10.4-2.1-1.2-4.7-2.7-3.5-6.4 2.4 1.7 4.4 3.3 6.5 4.8.5-.3 1-.7 1.5-1-1.2-2.7-2.2-5.5-3.6-8.1-1.5-2.7-3.3-5.2-5-7.8.4-.3.8-.7 1.2-1 1.8 1.5 3.6 3 5.4 4.6.4-.4.9-.7 1.3-1.1-2.4-3.3-4.8-6.7-7.2-10 .3-.3.6-.5.9-.8 1.5.8 3.1 1.5 4.8 2.3zm555.7 76.2c-.2 8.6 9.5 12.2 9.5 20.1l-1.2.9c-2.5-2.9-5-5.8-8-9.4-2.4 9.4 7.8 12.6 8.6 19.7-.4.2-.7.4-1.1.6-2.6-2.8-5.3-5.6-8.1-8.6-1.6 5.4-1.7 9.6 3.5 12.7 2.3 1.4 3.6 4.4 5.1 6.9.4.8-.3 2.2-.5 3.3-1-.5-2.3-.8-3-1.5-2.1-2.4-4-5-6.6-8.3-1.4 6.1-2.7 10.4 3 14.1 2.8 1.8 4.2 6 6.2 9.1-.5.4-.9.8-1.4 1.2-5.4-.1-4.9-8-10-8.6-2 6.3.5 12.5 5.8 12.6 13.4.4 26.9.7 40.3-.1 10.2-.7 14.9-6.4 16-16.6.6-5.9 1.1-11.8 1.5-17.7.8-13.9 1.7-27.8 2-41.7.2-10.9-.2-21.8-.7-32.7-.3-6.4-.6-12.8-2.1-19-1.7-7.3-6.3-12.8-14.2-13.8-12.7-1.7-25.4-3.1-38.1-4.3-5.1-.5-7.2 1.8-8.3 7.7 6 3.3 9.8 9.1 9 14.4-2.8-3.7-5.5-7.2-8.8-11.5 0 7 .1 12.5 0 18.1-.2 4.5 1.5 7.9 4.7 11.1 1.9 1.9 3.4 4.3 4.5 6.7.5 1-.6 2.7-1 4.1-1.1-.9-2.4-1.5-3.2-2.6-1.2-1.7-2-3.6-3-5.5-.6.3-1.2.5-1.8.8.9 2.4 1.3 5.1 2.7 7.2 2.2 3.3 5.2 6 7.5 9.2.7.9.3 2.6.4 4-1.3-.7-3-1.1-3.7-2.1-1.7-2.4-3-5.1-4.5-7.6-.6.3-1.1.6-1.7.8 1 2 1.9 4.2 3.2 6.1 2.7 4 5.7 7.7 8.2 11.8.7 1.1-.2 3.1-.3 4.7-1.2-1-2.5-1.8-3.5-2.9-2-2.4-3.7-5-6.2-8.4-1.7 9.8 7.1 14.2 8.1 22.1-5.4.3-5.2-5.1-8.8-7.1zm-55.3 55.1c-.5.4-1 .9-1.6 1.3-4.1-4-8.3-7.9-13.2-12.6.3 6.3.9 10.9 5.7 14 2.7 1.7 5.9 3.4 7.3 6 1.7 2.9 3.5 3 6.2 3.1 9.9.2 19.8.3 29.7.9 3.6.2 4.9-1.5 5.6-4.3.9-3.6 1.6-7.2 2.2-10.8 5.1-27.7 6.6-55.6 4.9-83.7-.7-12.6-.6-25.3-1-37.9-.3-8.3-2.7-11.1-10.8-12.6-3.1-.6-6.3-1-9.5-1.5-12.5-2.3-24.5-.7-36.2 3.8-.9 5-.3 9.3 4.1 12.5 1.2.9 2.3 2.3 2.9 3.7.5 1.2.3 2.8.3 4.2-1.1-.7-2.2-1.3-3.2-2.1-1.3-1.2-2.4-2.6-3.6-3.9-.5.4-1.1.8-1.6 1.2 2.1 3.1 4 6.3 6.3 9.2 2.5 3.1 5.3 5.9 8 8.8-.6.6-1.1 1.2-1.7 1.7l-11.9-11.9c-3.2 10.5 8.9 12.6 11.4 19.8-.4.3-.7.6-1.1.9-3.6-2.9-7.2-5.9-10.8-8.8-2.4 4.4.7 6.3 2.8 8.6 2 2.3 4.2 4.5 6.3 6.8-.5.5-1 1-1.5 1.6-2.9-2.6-5.9-5.3-8.8-7.9-.5.2-.9.5-1.4.7.8 1.9 1.2 4.1 2.4 5.7 2 2.7 4.6 4.9 6.7 7.5 1.2 1.5 1.8 3.4 2.7 5.2-.4.3-.9.5-1.3.8-3.3-3-6.5-6-10.1-9.3-2.1 8.5 7.4 11 8.5 17.4-.4.3-.8.6-1.3.9-2.2-2.3-4.4-4.6-7.4-7.8-.2 9.3 10.1 11.1 11.2 19.9-4.2-3.5-7.4-6.1-10.6-8.7-.4.4-.8.8-1.3 1.2 4.2 4.7 8.5 9.4 12.7 14.2-.4.4-.7.8-1.1 1.2-5.1-.1-6.6-6-10.8-7.6-.2.3-.5.5-.5.7-.2 1.6-.1 3.2-.4 4.8-2.1 10.5.7 19.1 9.3 25.7 1.1.8 1.6 2.3 2.4 3.4-.3.3-.7.6-1 .9-3.7-3.3-7.4-6.5-11.2-9.9-1.1 4-.4 6.5 2.6 8.5 2.1 1.4 3.9 3.3 5.5 5.3 2.7 2.6 4.9 6 7.2 9.2zM10 240.8c-.5.1-1 .3-1.5.4 0 5.4-.1 10.7.1 16.1 0 .8.9 1.6 1.5 2.3 2.3 3.2 4.6 6.4 6.8 9.6-.5.3-.9.6-1.4.9-2.2-2.3-4.3-4.7-6.5-7 .6 7.4 5.7 12.3 10.1 17.6l-1.5 1.2c-2.9-2.7-5.7-5.3-9.7-9 .9 4 1 7.2 2.5 9.7 1.5 2.6 4.4 4.4 6.7 6.6-.4.4-.8.9-1.1 1.3-2-1.2-3.9-2.4-5.9-3.6-.5.3-.9.7-1.4 1 1.4 2.5 2.5 5.3 4.3 7.5 1.9 2.4 4.5 4.2 6.8 6.2-.5.6-.9 1.1-1.4 1.7-2.3-1.6-4.7-3.2-7.2-4.9-2.6 9.5 6.6 12.3 10 18.2-.3.4-.7.7-1 1.1-2.7-2.1-5.4-4.2-7.9-6.1-2.5 9.5 6.6 13.2 11.2 19.3l-.9.9c-2.2-1.4-4.4-2.8-7.1-4.5 4 12.6 11.9 17.6 27.1 17.7 15.6.1 26.4-5.2 29.8-15-3.1-2.2-6.3-4.4-9.5-6.6.3-.6.7-1.2 1-1.7 2.9 1.2 5.8 2.5 8.6 3.7.4-.2.7-.4 1.1-.7-.9-1.6-1.8-3.2-2.9-4.8-1.2-1.8-2.5-3.6-3.8-5.3.4-.3.8-.6 1.3-.8 1.5 1 3 2.1 4.8 3.3.7-4 .2-6.8-3.1-9.1-1.5-1.1-2.1-3.4-3.1-5.2.5-.3.9-.5 1.4-.8 1.2 1.1 2.4 2.2 3.5 3.4.4-.2.9-.4 1.3-.5-1.1-3.5-2.3-7-3.5-10.7.2-.1.9-.4 1.7-.7-2.1-2.8-4.1-5.5-6.1-8.2l.9-.9c1.3.7 2.7 1.4 4 2.2 1.7-5.6-7.2-7.3-4.4-13.2 1.3.8 2.4 1.5 3.4 2.1.5-.3 1-.6 1.5-1-1.6-3.8-3.2-7.5-4.9-11.5 1.5.1 2.9.1 4.9.2-1.8-3.1-3.2-5.6-4.7-8.1.3-.2.7-.4 1-.7 1 .7 1.9 1.4 3 2.2 2.5-5.6-6.8-7.9-3.1-13.8 1.1 1.3 2 2.4 2.9 3.5l1.5-.6c-1.4-4.6-2.8-9.2-4.2-13.7.8.2 1.9.4 2.5.6 3.8-6.1-3.1-8.5-4.6-13.3 2.4.8 3.9 1.4 5.8 2-.6-4.5-7.3-5.4-5.2-11 1.9 1.8 3.4 3.2 5 4.7.5-.4 1-.8 1.5-1.1-2.1-3-4.3-6-6.5-9.1 2.6-1.8 1.6-3.6-.7-4.8-1.3-.7-3.1-1.1-4.6-.8-9.6 1.6-19.3 3.1-28.8 5.1-7.1 1.5-12.7 5.5-16.4 11.1.9 2.5 1.5 4.3 2.2 6.2-.3.1-.5.2-.8.3-1-1.1-2-2.1-3.1-3.3-2.7 4-3 7.1.5 10.4 1.7 1.6 2.4 4.2 3.6 6.4-.3.2-.7.3-1 .5-1.9-2.3-3.7-4.6-6-7.4-3.6 10 7.2 13.4 7.5 22-2.8-3.9-5.3-6.8-7.8-9.7zm878.8-20.3c-1.1-2.1-1.4-3.2-2.1-4.1-4.1-5.7-9.8-9.3-16.6-10.7-9.3-1.9-18.6-3.5-27.9-4.8-2.2-.3-5.8.7-6.7 2.2-2.2 4.3-3.8 9-4.8 13.8-1.1 5.5 1.8 9.8 5.5 13.7 1.9 2 4 4.2 3.4 8.4-2.8-3.3-4.9-5.7-7-8.2-.6.3-1.1.6-1.7 1 1.1 2.5 2.1 5.1 3.5 7.3 2 3.2 4.5 6 4.4 9.8-.5.2-.9.4-1.4.6-1.6-2.6-3.1-5.2-4.8-7.9-4.4 8.6 3.4 14 5.6 20.8l-2.1 1.2c-1-2-2-3.9-2.9-5.9-.6.5-1.2.9-1.8 1.4 2.2 4.3 4.4 8.6 6.7 12.9-.5.3-1 .5-1.4.8-1.3-1.4-2.5-2.8-3.8-4.3-3.1 6.9 4 9.9 5 15.2-1.6-1-3.3-2-5.9-3.7 3.3 5 5.9 8.9 8.5 12.9-.6.4-1.1.8-1.7 1.1-2.1-2.4-4.2-4.8-6.2-7.2-5.7 8.1 4.3 10.9 5.7 16.6-.4.3-.7.6-1.1.9-2.2-1.5-4.3-3-7-4.9v7.5c6.3 2.3 11.4 9 10.2 13.8-3.4-3.8-6.7-7.6-10.3-11.7-1.7 4.9-1.4 8.3 2.3 11.3 3.1 2.5 5.8 5.5 8.6 8.3.7.7 1 1.6 1.5 2.4-.4.4-.8.8-1.2 1.3-3.9-3.1-7.9-6.3-11.9-9.5-.4 11.8 3 17.3 13.6 20.9 9.6 3.3 19.5 3.5 29.3.8 6.8-1.9 11-6.6 13.3-13-3.3-3.3-8.1-4.9-7.4-10.7 2.7 2.5 5.4 5 8.3 7.8 2.4-4.3 3-7.4-.8-10.7-2.6-2.3-4.7-5.3-6.7-8.1-.6-.8 0-2.4 0-3.7 1.1.4 2.7.5 3.3 1.4 2.3 2.8 4.3 5.9 6.7 9.2 2.2-3.9 1.5-6.7-1.2-9.5-2.3-2.4-4.6-5.1-3.7-9.6 2.3 3 4.1 5.4 6.3 8.3 2-6.2.7-10.5-3.6-14.1-2.4-2-4.3-4.6-2.4-8.8 2.6 3.1 4.8 5.7 7 8.3.6-.3 1.1-.6 1.7-1-1.4-4.5-2.7-9.1-4.1-13.6.4-.1.9-.3 1.3-.4.7 1.1 1.4 2.1 2.2 3.4 4.2-9.6-5.7-12.3-8.7-18.3.3-.4.5-.8.8-1.2l8.4 5.1c1.5-4-.8-6.1-3.2-8.3-2.5-2.3-4.7-4.9-2.4-9.4 2.2 2.5 3.6 4.2 5.1 6 .4-.3.8-.5 1.2-.8l-8.4-13.8c.5-.4 1-.8 1.4-1.2 1.7 1.3 3.4 2.7 5.3 4.2 2.5-8-8.5-9.2-8.3-17.1 2.9 2.1 5.1 3.6 7.2 5.1.4-.3.7-.7 1.1-1-3-3.7-5.9-7.4-8.9-11.1.4-.3.8-.7 1.2-1 1.5 1 2.5 1.9 4.5 3.6zm-96.4-54.8c-.4.2-.9.4-1.3.6.9 6.2 10.7 6.8 10.8 14.8-4.1-2.4-7.6-4.4-11.1-6.5-1.4 5.8-.6 7 4.3 8.5 10.5 3.1 21.6 3.4 31.1 10.2 5.6 4 12.7 0 14.2-6.8 1.4-6.5 2.5-13.2 3-19.9.3-4.5-1.2-8.7-6.2-10.3-11.1-3.6-22.5-6.5-34.3-6.4-3.1 0-6.1 1.5-9.3 2.3 2 5.5 9.3 4.9 9.6 11.4-3.6-2-6.6-3.6-9.5-5.2-.5 1.7-.2 3 .5 3.6 3 2.6 6.2 4.9 9.1 7.5.8.7.7 2.3 1 3.5-1.1-.1-2.5.1-3.3-.5-3-2.1-5.8-4.5-8.6-6.8zm-732.6 9.7c2-1.4 3.5-2.9 5.2-3.4 2.5-.7 5.1-.6 7.7-.9-1.8 1.4-3.6 2.9-5.4 4.2-3.1 2.2-7.3 3.6-5.9 8.8 2.3 8.4 10 10.8 17.5 6.1 4.2-2.6 9.1-4.2 13.9-5.8 4.9-1.5 9.9-2.4 14.9-3.6 3.4-.9 5.2-2.6 4.3-6.6-1.5-6.5-3-13.1-3.5-19.7-.3-4.3-2.5-5.4-5.8-6-1.6-.3-3.2-.7-4.7-.5-10.8 2-21.7 3.8-32.4 6.4-5.2 1.2-6.9 4.9-6.2 10.5 3-1.8 5.3-5.8 10.6-3-4.1 4.1-10.4 6.3-10.2 13.5zm60 198.7c-.5.4-.9.8-1.4 1.1 1.3 2 2.1 4.6 3.9 5.9 4.5 3.5 8.9 7.3 15.4 6.7 2.5-.2 5.2 1.2 7.8 2.1 5.8 2.1 8.9 1.4 10.5-4.4 2.5-9.2 4.5-18.6 5.6-28.1.9-8.1-1.6-10.5-9.9-10.4-8.6.1-17.2 1.1-25.7 2-1.1.1-2.5 1.9-2.9 3.1-.2.8.9 2.3 1.8 3.1 1.4 1.3 3 2.2 4.6 3.3l-.9 1.2c-2.3-.8-4.7-1.5-7-2.3-3.6 6.3 6.3 6.1 4.9 11.4-2.3-1.5-4.3-2.7-6.6-4.1-1.6 4.3-.7 6.7 3 8.3 2 .9 3.6 2.9 5.4 4.3-.3.3-.5.6-.8.9-2.5-1.3-5.1-2.7-7.7-4.1zm624.1 3.8c-.4.4-.7.8-1.1 1.3 3 2.6 6 5.3 10 8.7h-6.1c1.2 3.6 3.3 5.1 6.7 4.5 7.5-1.4 15.1-2.6 22.6-4.1 3.3-.7 6.2-2.2 6.1-6.3-.1-6.8.4-13.7-.8-20.3-2-10.5-2.5-10.6-12.9-11.5-6.8-.6-13.7-1.1-20.5-1.2-3.7-.1-6.8 1.6-7.1 5.5 3.7 3.2 7.1 6.1 10.5 9-5.5 2-7.4-2.6-10.8-5.1 0 2.4-.2 4.4 0 6.2.4 4.4.8 8.6 5.9 10.9 2.9 1.3 5 4.5 7.5 6.9-.4.5-.8.9-1.2 1.4-2.9-2-5.9-3.9-8.8-5.9zM112 387.4c-.7-6.2-1.5-11.6-1.7-17-.2-5.6.2-11.2.4-16.8.1-2.1 0-3.8-2.9-3.8-10.5-.2-21-.8-31.6-.9-4.8 0-7 2.5-7.3 6.5 2.4.8 4.6 1.2 6.4 2.3.4.3-.5 2.8-.8 4.4-2.8-1.2-4.7-2.1-6.7-2.9-.3.5-.5.9-.8 1.4l10.8 7.5c-.3.4-.5.8-.8 1.1-3.1-1.9-6.2-3.9-9.2-5.7-3.8 6.4 4 7.4 5.9 12.1-2.5-.9-4-1.5-5.7-2.1 1.2 4.9 2 6.1 7.3 7.6 8 2.3 16 4.5 24.1 6.1 4.2.9 8.6.2 12.6.2zm677.3 1.1c1.7.4 2.9.8 4.1.8 12.7.2 24.4-4.1 36.2-7.9 1.9-.6 4.1-3.6 4.3-5.6.6-5.7.8-11.5 0-17.1-.9-6.3-4-8.2-10.4-8-6.7.3-13.4.7-20 1.1-1.2.1-2.3.1-4.5.2 2.5 1.2 4.1 1.9 5.6 2.7-.7.9-1.5 1.9-2.2 2.8-3.6-1.8-7.1-3.7-10.7-5.5-1.9 5.3.8 7.9 5 10 2.8 1.4 6.2 2.7 5.2 7.6-3.5-1.9-6.6-3.7-9.8-5.4.8 7.3 10.3 8.3 10.7 16.8-4-3.1-7.2-5.6-10.4-8.2-2.4 4.5.4 6.3 3 8.2 4.1 3.1 4.3 3.8 3.2 6.7-2.4-1.6-4.8-3.1-7.6-5-.5 2.2-1 3.6-1.7 5.8zM746.1 171c-3 7.5-2.2 9.3 6.1 10.6 5.8.9 11.8.7 17.7.6 5.8-.1 10-2.6 11-9.1.4-2.5 1.8-4.8 2.5-7.2 1.8-6.6 3.1-13.4-3.4-18.4-1.9-1.5-4.4-2.6-6.9-3.1-5-1-10.1-2-15.1-2-2.4 0-5 2.1-7.2 3.7-.3.2 1.4 3.2 2.2 4.9.4 1 .7 2 1.1 3.1-.3.2-.6.4-.9.5-1.5-1-3-1.9-4.5-2.9-.5.2-.9.5-1.4.7.8 1.9 1.3 3.9 2.3 5.6 1.2 2 3 3.7 4.2 5.8.4.6-.1 1.9-.2 2.8-.8-.3-1.9-.4-2.4-1-1.3-1.4-2.5-3-3.7-4.6-1.8 6.7 6.7 8.4 6.4 15.5-3.1-2.1-5.4-3.8-7.8-5.5zm-624 1.5c3.2-1.4 5.9-2.7 8.8-3.7 1.3-.4 2.9-.1 4.4-.1-1.1 1.2-1.9 2.7-3.2 3.4-2.9 1.5-5.9 2.6-9.3 4.1.8 1 1.1 1.8 1.6 2 10.3 4.1 20.7 3.8 30.9 0 1.1-.4 1.8-2.7 1.9-4.2.1-2-.5-4.1-.8-6.2-1.1-6.8-1.7-13.7-3.6-20.3-.8-2.7-4.1-6.5-6.4-6.7-7.9-.5-16.1-.1-23.2 4.2-3 1.8-5.3 4.3-4.9 8.8 1.8-1.2 3-2.3 4.4-2.8 1-.4 2.2.1 3.4.2-.4 1.1-.5 2.5-1.3 3.2-1.4 1.3-3.4 1.9-4.7 3.2-1 1-1.5 2.6-2.6 4.8 4.7-.8 8-4.6 11.9-.3-3.1 3.4-12.2 1.9-7.3 10.4zm722.4 205.8c-1.8 4.8-1.2 6.2 3.1 6.2 4.9 0 10-.2 14.7-1.3 2.4-.6 5.8-3.1 6.1-5.1 1-6 .7-12.3.7-18.4 0-.9-1.3-2.5-2.2-2.6-7.8-1-15.7-1.8-24.6-2.8 1.3 1.8 2 3.1 3 4.1 1.4 1.5 3.1 2.7 4.4 4.4.8 1.1 1.1 2.6 1.6 3.9-1.3-.5-2.6-.9-3.8-1.6-1-.6-1.7-1.5-3.2-2.8-.3 7.3 9.9 7.4 8.6 15-2.8-2.3-5.2-4.3-7.6-6.3-.5.4-.9.9-1.4 1.3 1.7 2.4 3.5 4.7 5.2 7.1l-.8.8c-1.1-.7-2.3-1.2-3.8-1.9zM33.6 355.8c4.3 2.3 7.7 4.1 11.1 5.9-.3.5-.5 1.1-.8 1.6-3.6-1.3-7.3-2.5-10.9-3.8-1.8 3.2-.1 4.5 2.3 5.8 1.8 1 3.3 2.3 5 3.5-.3.4-.6.9-.9 1.3-2.3-.9-4.7-1.9-7-2.8-.3.4-.5.8-.8 1.1 3.2 3.5 6.4 7.1 9.6 10.6-.3.3-.6.7-.9 1-2-1.2-4.1-2.3-6.1-3.5-.3.3-.5.7-.8 1 1.5 1.2 2.8 3 4.4 3.4 3.5 1 7.2 1.5 10.8 1.7 9.5.6 9.4.5 9.2-8.8-.2-7.1 0-14.2 0-21.3-7.2 1.1-15.1 2.1-24.2 3.3zm817.2-180.2c-.5.2-.9.4-1.4.6.5 1.4.7 3 1.6 4 1.8 2.2 4.1 4.1 5.8 6.4.6.8.2 2.5.2 3.7-1.2-.1-2.6.2-3.4-.4-1.9-1.3-3.6-3-5.6-4.8-1 2.4-1.7 4.3-2.6 6.6 9.1 1.6 17.8 3.2 26.9 4.8 0-6.4-.6-11.9.1-17.2 1.6-11.9-10.8-17.7-21.4-15.1 1.7 2 3.3 4 4.9 5.9-.3.4-.6.7-.9 1.1l-4.8-2.4c.6 2.5 2.1 4.1 3.1 5.9 1 1.7 1.5 3.6 2.2 5.4-.4.2-.8.3-1.2.5-1.1-1.7-2.3-3.3-3.5-5zm-811.9 3.1l.6 2.4c-2.2 1.1-4.3 2.4-6.6 3.4-3 1.4-3.9 3.4-2.5 6.4 3.5-1.1 6.8-2.2 10.1-3.2.3.6.6 1.2.9 1.7-2.1 1.4-4.2 2.9-7.2 4.9 8.1-1.5 15.2-2.9 21.1-4-1.1-8.5-2.1-16.5-3.2-24.5-.2-1.5-1.4-3.9-2.1-4-6.6-.1-13 .5-18 6.1 1.9.4 3.4.8 5.3 1.2-2.4 4.5-8.6 5.8-7.3 11.5 3-.7 6-1.3 8.9-1.9zM15.7 366.1c.7 8.6 3.3 12.2 9.2 13.2v-24.5c-1.5-.4-3-.8-4.8-1.3.6 1.7 1 3.1 1.7 5.3-2.5-2.1-4.2-3.6-5.9-5.1-.6.4-1.1.8-1.7 1.1 1.8 4.2 3.7 8.4 5.9 13.4-2-.9-3.1-1.5-4.4-2.1zm447-356l.3-.9c-1.2-.5-2.5-1.6-3.7-1.6-11.8 0-23.7 0-35.5.5-1.9.1-3.8 2.2-5.7 3.4.2.3.5.6.7.9 14.7-.8 29.3-1.6 43.9-2.3zM21.6 175.4c-.6-.3-1.3-.5-1.9-.8-2.1 3-5.4 5.8-5.9 9.1-.5 2.9 2.2 6.2 3.5 9.4-.2.2-.4.4-.5.6-1.6-1.3-3.2-2.6-4.8-4-.7 2.8-.7 2.8 5.5 9.4 3.6-.7 4.8-2.5 4.1-6.4-.7-3.7-.1-7.6 0-11.5v-5.8zM458.5 16.6v12.6c0 6.3 1.1 6.9 7.3 3.8-.5-4.2-1.1-8.4-1.7-12.7-.4-3.8-2.5-4.9-5.6-3.7zm-10.2.4c.2 4.3.6 8.4.5 12.5 0 3.8 1.7 4.7 5.4 3.6-.3-4.5-.6-9-.8-13.4-.2-3.1-1.8-3.8-5.1-2.7zm-10.6 15.7c-.7-4-1.7-7.7-2-11.5-.4-4-2.1-5-5.4-3.6v15.1h7.4zm439.8 323.7c-1.4 7.6 4.5 8.8 8.5 11.6.5-.3.9-.6 1.4-.9-1.5-2.9-3-5.8-4.8-9.3 1.7.3 2.8.5 3.9.7v-4.9c-3.1 1-6 1.9-9 2.8zM443.1 15.8c-1.7 1.2-3.7 1.9-3.8 2.8-.3 4.7-.2 9.4-.2 14.2h6.1c-.7-5.3-1.3-10.4-2.1-17zm-15.8 17.3c-.3-5.5-.5-10.4-.8-16-1.4.8-3.2 1.4-3.3 2.1-.7 4.5-.9 9.1-1.3 13.9h5.4zm454 154.9c.6 6.4 6 9 10 14 1.5-9-6.4-9.9-10-14zm8.1 1.5c-.9-5.3-2.4-10.3-8.5-12.7-1.7 7.6 6.6 8 8.5 12.7zM419.2 18.1c-.6-.1-1.3-.1-1.9-.2-.8 5-1.7 10.1-2.6 15.8 1.6-.4 3.4-.6 3.4-.9.6-4.8.8-9.8 1.1-14.7zm459.1 350.2c-2.5 5.4 2.5 6.6 4.3 9.6 4.2-4.8 3.9-5.6-4.3-9.6zm-175.8-29.8c.1-.3.2-.6.2-.9-2.9-1.6-5.9-3.3-9.7-5.4.6 2.8 1.1 4.6 1.4 6.3h8.1z"/><path class="st0" d="M315.7 101.9c-4.2 4.9-8.4 9.8-12.8 14.9.8.3 1.3.5 1.4.4 23.2-23.8 51.8-39 81.9-51.6 39.9-16.7 80.3-15.5 120.8-2.8 27.4 8.6 52.9 21.1 76.1 38.1 2.7 2 5.1 4.4 7.6 6.6 3.1 2.7 5.3 6.4 10.1 6.9 1.8.2 3.8 2.4 5.1 4.1 3.7 4.6 7.3 9.4 10.7 14.2.9 1.3 1.9 3 1.8 4.4-.6 5.7 3 9.5 5.4 13.9 18.9 33.9 31 69.9 34.2 108.7 2.4 29.2-4.8 56.6-17.3 82.8-13.6 28.4-32.2 52.9-55.4 74.3-22.9 21.2-48.5 37.6-78.3 47.3-25.4 8.2-51.4 8.7-77.5 5.7-108.6-12.6-168.1-98.8-182.9-171-8.7-42.4-1.8-82.8 16.4-121.6 9.4-20 21.6-38.2 36.4-54.6 1.4-1.5 3.6-2.9 1.5-5.5-.2-.3 0-.9 0-1.4.3-4.4 8.8-13.8 13.5-15 .4.5.9.8 1.3 1.2zM597 127.2c-5.7-5.9-11-12.1-17.1-17.5-46.1-41.3-99.5-57.9-160.8-46.6-53.3 9.8-95.6 38-127.1 81.4-46.4 63.8-55.1 132-20.1 204 6.1 12.6 12.3 25.1 24.3 34.1 7.4 5.5 12.4 14.1 18.5 21.4.4.5 1 1.3.8 1.7-1.3 3.1 1.2 4.3 2.8 5.9 23.8 22.5 52.1 37 83.6 45.3 30.3 8 61 10.2 91.7 2.8 19.8-4.7 37.4-14.8 54.8-25.1 26.3-15.6 49.7-34.6 67-60.1 30.5-45 39.9-94.4 30.2-147.5-6.8-37.9-23.3-71.1-48.6-99.8zM298.8 428.1c-7.7.3-30.8-21.1-30-27.8 5.9 1.7 29.5 23.5 30 27.8z"/><path class="st0" d="M272.1 384.3c7.5 4 37 34.4 36.7 37.6-12.5-12.3-28.7-20.8-36.7-37.6zm341.6-272.1c1.9.8 4.2 1.2 5.5 2.6 4.4 4.6 8.4 9.6 12.4 14.5.7.9.4 2.5.5 3.8-1.3-.5-3-.6-3.8-1.5-4.4-4.6-8.5-9.5-12.7-14.3-1-1.1-2-2.3-2.9-3.5.3-.5.6-1.1 1-1.6zm27.8 17.2c-5.3-7.1-10.1-13.5-15.5-20.6 7.5 2.2 16.2 13.8 15.5 20.6zm-346.2-21c0-1.9-.6-4.1.1-5.7 1.6-3.8 4.6-6.2 9.7-6.3-3.1 4.1-5.8 7.8-8.5 11.4-.5.2-.9.4-1.3.6zM174.8 379.6c3.5 2.4 7 4.9 10.5 7.3-.3.5-.7.9-1 1.4-3-3.1-9-2.1-10.5-7.4.3-.3.7-.8 1-1.3zM761 212.4c4.5 2.5 6.8 6.1 7.4 10.6-.6.3-1.1.6-1.7.9-1.9-3.8-3.8-7.6-5.7-11.5zm-68.9 80.1c6.2.6 12.2 6.9 12 12.5-4.2-4.3-7.8-8.1-12-12.5zM12.6 249.1c2.1 3.4 4.1 6.9 6.2 10.3l-1.5.9c-2.2-3.4-4.4-6.9-6.6-10.3.6-.3 1.2-.6 1.9-.9zm826.9-20.6c-2.5-4.1-4.9-8.2-7.4-12.4.6-.3 1.2-.7 1.8-1 2 4.4 7.1 7 7.5 12.4-.6.4-1.2.7-1.9 1zm3.8-12.1c-1.9-2.1-3.7-4.1-5.6-6.2.6-.5 1.1-1 1.7-1.5 1.9 2 3.8 4.1 5.6 6.1-.5.6-1.1 1.1-1.7 1.6zm-768-35.5c-4.1 2.8-7.4 5-11.3 7.6.9-5.9 5.1-8.8 11.3-7.6zM742 364.1c3.6 2.7 6.3 4.7 9.1 6.8-3.7 2-7.6-.6-9.1-6.8zm-145.1-237c2.8 5.1 5.5 10.1 8.3 15.2-.2.2-.5.3-.7.5-9-8.4-17.9-16.8-26.9-25.1.4-.6.7-1.2 1.1-1.7 1.8.8 3.8 1.4 5.4 2.5 4.4 2.7 8.6 5.7 12.8 8.6.1.1 0 0 0 0zM447.5 75.2c52.5.6 92.5 18.4 125.6 51.6 34.3 34.4 55.1 75.7 60.6 124.1 6.5 58.1-12.8 106.3-56.9 144.8-21.8 19-45.4 35-72.8 44.7-30 10.7-60.5 9.6-91 3.3-92.1-18.8-141.4-101.6-147.7-164.5-4-40 6.8-76.2 27.3-109.8 29.5-48.4 71.8-79.3 127.6-90.8 10.7-2.2 21.7-2.8 27.3-3.4zm6.6 7.4c-5.4.3-10.9.6-16.3 1-3.5.3-7 .7-10.5 1.3-53.7 8.8-94.8 37.2-125 81.7-26.2 38.7-37.9 81.6-27.3 127.4 16.8 72.7 60.4 122.1 134 141.8 33.4 8.9 67 9.1 99.6-3.7 45.2-17.9 77.4-50.3 99.8-92.8 20.6-39.2 24.3-80.3 10.5-122.4-14.1-43-39.9-77.9-76-104.9-26.3-19.6-56-29.4-88.8-29.4zM425 69.5c3.9-4.4 36.7-4.6 43.7 0H425zm171.8 77.8c-9.1-9-18.2-18.1-27.3-27.2 9.3 1.8 27.7 21.2 27.3 27.2zm-266.7-32.7c-.6 1.3-1.1 2.8-2 3.9-3.6 4.2-7.4 8.4-11.2 12.4-.5.5-1.6.5-2.4.7-.2-.7-.8-1.7-.5-2.1 4-6.2 7.7-12.7 14.7-16 .5.4.9.7 1.4 1.1z"/><path class="st0" d="M319.8 402c-4.7-6.3-11.9-10.7-13.5-19.1 5.9 5.4 12.3 10.4 13.5 19.1zm27.9-267.8c36.1 30 61.9 69.4 94.5 101.2-1.1-4.7-2.6-10-3.6-15.5-.2-1.4 1.1-3 1.7-4.6 1.3 1.1 3.3 2.1 3.6 3.4 1.2 5.5 3.3 10.6 2.2 16.7-.7 3.7 2.5 8.1 4 12.3 4.4-.9 7.8-1.8 11.3-2.4 5.8-.9 9.1 1.8 8 7.5-1.3 6.7-3.7 13.2-5.5 19.8-.5 1.8-1.3 3.7-1 5.4 1.2 6.8 1 7.1-6.3 6.3 7.2 41.2 14.3 82.2 21.5 123.3-.4.1-.7.1-1.1.2-8.5-40.5-16.9-81-25.5-122.1-9.6 10.8-19.4 21.2-28.4 32.1-11.3 13.7-22.1 27.8-33.1 41.8-1 1.3-2 2.5-3.1 3.7-2.6 2.7-4.8 6.5-9.5 4.2-2.6-1.2-4.1-7.9-2.4-11.9 1.1-2.8 3-5.3 4.7-7.8 15.7-22.6 31.6-45.1 47.3-67.7 3.1-4.4 5.5-9.3 8.7-14.7-30.7-42.4-59-87-88-131.2zm39.5 49.9c-.2 0-.4.1-.6.1.4 1 .8 2 1.4 2.8 5.9 8.9 11.7 17.9 17.7 26.8 11.8 17.3 23.6 34.6 35.5 51.8 1.8 2.6 4.5 4.6 6.7 6.9.2-6.4-.3-11.9-1.5-17.2-.8-3.4-1.9-7.2-4-9.9-7.2-9.3-14.9-18.3-22.4-27.4-6-7.2-12-14.3-18-21.4 7.8 13.9 18.9 25.3 27.5 38.6-.5.4-1.1.8-1.6 1.2-13.5-17.4-27.1-34.9-40.7-52.3zm53.2 87.8c-3.6 5.9-7 11.5-10.3 17 .5.5 1.1.9 1.6 1.4 1.5-2.4 3.1-4.8 4.6-7.2.3.3.7.6 1 .9-1.2 3-2.5 5.9-3.8 9.2 5.1-5.3 9.7-10.2 14.4-15.1-2-1.6-4.6-3.8-7.5-6.2zm13.9-20.1c2.2 5 4.2 9.5 6.2 14 .4 0 .7-.1 1.1-.1.9-5 1.7-10 2.7-15.8-4 .7-6.8 1.3-10 1.9zm-1.9 5c-.4.2-.8.3-1.2.5 1 11.7 2.8 17.4 6.3 18.5-1.8-6.6-3.4-12.8-5.1-19zm-119.9 1.7c1.8-6.3-1.6-12.9 3.1-19.4.9 2.5 1.9 4 1.9 5.6 0 4.8-.3 9.6-.6 14.4-.1 2.7-1.4 3.9-4.3 3.9-6.8-.2-12.9-1.5-18-6.5-2.2-2.1-5.3-3.6-8.2-4.6-1.2-.4-4.2 1.2-4.5 2.3-.6 2.2-.8 5.2 3 5.9 1.9.4 3.7 1.4 5.5 2.2-2.1.7-4.2 1.8-6.4 1.9-5.7.3-9.5-2.6-9.8-7-.3-4.9 4-9.9 9.3-10.4 5.6-.6 10.3 1.9 14.3 5.5 4.3 3.8 8.9 6 14.7 6.2zm109.1-121.7c-6.4 1.7-9.1-.8-9.5-7.1-.3-4.5 2.1-6.9 7.3-6.6 4.1.3 7.3-.2 11.1-2.6 5.1-3.3 11.8-2.6 17.6-.1 1.7.8 3.6 3.8 3.4 5.7-.4 5.5-1.4 11-2.9 16.3-.3 1.2-3.8 2.6-5.1 2.1-2.6-1-1.4-3.2-.2-5.1 1.1-1.7 1.8-3.8 2.2-5.7 1.6-8.1-.3-10.2-8.6-9.7-3.1.2-5.2 1-5.4 4.7-.1 1.2-1 2.9-2 3.3-.8.3-2.3-.9-3.4-1.5-.8-.4-1.6-1.5-2.3-1.5-2.3.1-6-.3-6.7 1-1.5 2.5 0 5.2 3.2 6.3.5.1.9.4 1.3.5zM546 196.2c.9.3 1.3.6 1.8.6h9c-.4-4.4 1.1-7.8 5.6-9.6 4.9-2 9.7-1.5 12.9 1.7 3.8 3.9 5.7 11.5 3.5 15.5-.6 1-2.1 1.6-3.1 2.3-.8-1.2-1.9-2.3-2.3-3.6-.9-3-1-6.3-2.4-8.9-.7-1.3-3.8-2.1-5.6-1.8-1 .2-2.4 3.2-2.2 4.7.6 4.4-1.5 6.2-5.3 5.9-5.1-.5-10.2-1.2-14.9-2.9-1.6-.6-2.5-4.6-2.7-7.2-.2-2.1 1-4.4 1.5-6.7 1.5 1 3.8 1.7 4.2 3 .5 2.2 0 4.7 0 7zm8.2 53.2c1 10.2 7 13.6 15 14.4 1.5-3.7 2.6-7.3 4.4-10.6 2.4-4.2 7.4-5.5 12.2-3.6 5 1.9 7 5.9 6 11.6-1.1 6.1-3.6 9.2-8.9 8.5-8-1-16.1-2.4-23.8-4.9-6.2-2-8.5-7.4-7-12.5.2-.6.8-1.1 2.1-2.9zm20.7 13.9c.6.8 1.3 1.5 1.9 2.3 3.2-1 6.6-1.7 9.5-3.2.7-.3.5-4.4-.5-5.4-1.7-1.5-5.8-3-6.5-2.3-2 2.3-3 5.6-4.4 8.6zM396 145.6c.8-6.4-1.7-13 4.5-18.5.5 1.9 1.2 3.1 1.3 4.5.4 4.9.6 9.9 1 14.8.5 5.2-2.4 7.7-7.2 5.4-2.7-1.3-4.9-3.6-7.5-5.1-3.4-1.9-7-3.8-10.7-4.9-1.5-.4-4.8 1-5.2 2.3-1 3 1.5 4.1 4.2 4.4 1.2.1 2.4.3 4.3.6-3.5 3.2-7.1 4.1-10 1.8-2-1.6-3.5-4.9-3.7-7.5-.4-3.8 3-5.1 6.2-6.2 5.4-1.8 10.1-.5 14.6 2.5 2.5 1.9 5.1 3.8 8.2 5.9z"/><path class="st0" d="M382.7 390.4c-4-.4-8.7-.5-13.1-1.6-1.9-.5-4.9-2.9-4.8-4.4.1-2.2 2.1-4.7 3.8-6.5 1.1-1.1 3.2-1.5 4.9-1.8 7-.9 13.9-1.8 20.9-2.5 5.2-.5 9.1 2 9.7 5.7.6 3.8-2.4 8.7-6.9 9.7-4.6 1-9.3 1-14.5 1.4zm.9-4.5v.6c4.1-.3 8.3-.2 12.2-1.2 1.4-.4 2.1-3.6 3.2-5.5-1.7-.6-3.4-1.7-5.1-1.7-4.4.2-8.8 1-13.3 1.5-3 .4-6 .5-8.9 1.3-1 .3-1.7 1.9-2.5 2.9 1 .7 1.9 1.9 2.9 1.9 3.9.4 7.7.2 11.5.2zm64.7 12.6c-.4 10.8-4.9 14.6-14.9 13-3.4-.5-5.2-2.5-5.3-5.8 0-3.5-1.1-8.6 3.6-9.3 7.8-1.3 15.8-1.9 23.7-1.4 5.4.4 8.5 9.6 5.6 14.6-.4.7-1.6 1.3-2.2 1.2-.7-.1-1.6-1.1-1.8-1.9-.4-1.4-.2-2.9-.4-4.3-.5-5.8-1.8-6.8-8.3-6.1zm-9.7-1.9c-2.9 2.6-5.8 3.9-6.2 5.8-.4 1.7 1 5.4 4.6 4.2 2-.7 4.7-1.9 5.1-3.5.4-1.4-1.8-3.6-3.5-6.5zm84.1-256.2c-.2 3-.7 5.7-.6 8.3.2 4.1-1.9 4.4-4.7 3.1-3.7-1.8-7.3-4-10.9-5.9-2.1-1.1-4.4-2-6.3-3.4-.9-.6-1.1-2.1-.8-3.7 6.4 3 12.7 6.1 19.2 9.2-.3-7.5-.3-7.5-6.8-8.3-2.3-.3-4.6-1-6.8-1.5 0-.5 0-1.1.1-1.6 1.1-.4 2.2-1.1 3.3-1.1 9.9-.1 19.8-.1 29.7.1 1.2 0 2.3 1.5 3.5 2.3-1.2.9-2.3 2.4-3.5 2.4-5.1.2-10 .1-15.4.1zm-10.9 246.4c-6.2 4-11.5 4.5-13.8 1-1-1.5-1.1-4.8-.1-6 3.8-4.5 8-1.4 12.1.4 2.3-2 4.4-4.2 6.9-5.9 4.1-2.9 7.8-2.3 11.5 1.5s4.5 8.7 2 12.1c-2.5 3.4-7.3 4.3-11.7 1.9-2.3-1.5-4.4-3.3-6.9-5zm1-2c3.2 1.8 5.5 3.5 8.1 4.4 2.8 1 5.9.4 6.7-2.7.5-2-.2-4.9-1.4-6.8-1.8-2.7-4.7-2.4-7.2-.5-1.8 1.6-3.5 3.3-6.2 5.6zm36.7-56.6c-.7 6-1.3 11.6-1.9 17.1-.5 0-1 .1-1.5.1-.4-.9-1.1-1.8-1.1-2.7-.3-5.3-.7-10.5-.6-15.8 0-4.9 2.6-6.7 6.8-4.1 8.3 5.2 17.2 7.2 26.8 7.7 1.1.1 2.2 1.6 3.3 2.4-1.2.8-2.3 2.3-3.5 2.4-10.1 1.1-19.3-2-28.3-7.1zm-212.3 6.6c5.4.5 10.6.9 15.9 1.6 1.1.1 2 1.6 2.9 2.4-1 1.1-1.9 3.2-2.9 3.2-11.9 0-23.9-.2-35.8-.5-.9 0-1.7-1.5-2.6-2.3 1-.8 2-2.1 3.1-2.3 6.4-.9 12.9-1.5 19.4-2.1zm-22.6-9.5c1.8-.4 3.7-1 5.5-1.1 9.8-.3 19.5-.8 29.3-.6 2.4 0 4.8 2.2 7.2 3.3-2.3 1.1-4.6 3-6.9 3-10.4.1-20.8-.3-31.2-.8-1.5-.1-3-1.5-4.5-2.3.3-.4.5-1 .6-1.5zm65.9-34.9c-.5-2.6-1.5-5.1-1.5-7.7-.1-13.1 0-26.2 0-39.3 0-.8-.1-1.7.2-2.4.5-.9 1.3-1.6 2-2.3.8.9 2.2 1.8 2.2 2.6 0 15 0 30-.2 45 0 1.3-.8 2.6-1.2 3.9-.5.1-1 .2-1.5.2zm-69-95.5c2.6-.5 5.2-1.4 7.8-1.4 8.6-.3 17.3-.3 25.9-.5 2.4 0 4.7.3 4.7 3.4 0 3.2-2.1 4-4.8 3.8-9.9-.7-19.8-1.4-29.6-2.2-1.4-.1-2.7-.9-4.1-1.3 0-.6.1-1.2.1-1.8zm6.2 73.6c5.6 0 11.2-.1 16.7.1 1.3.1 2.6 1.2 3.9 1.9-1.2 1.1-2.3 3-3.5 3.1-11.4.7-22.9 1.2-34.4 1.4-1.2 0-2.5-1.7-3.7-2.6 1.2-.7 2.4-2 3.7-2.1 5.7-.5 11.5-.6 17.2-.9.1-.3.1-.6.1-.9zm86.7 129.1c-2.3.3-4.6.9-6.9.9-8.3.2-16.6.3-24.9.1-1.4 0-2.8-1.7-4.3-2.7 1.5-1.1 2.9-3 4.4-3 9.2.2 18.5.8 27.7 1.4 1.4.1 2.8 1.1 4.2 1.8 0 .5-.1 1-.2 1.5zm104.8-174.4v85.5h-.6v-85.5h.6zm113.2 39.4c-3 1.5-5.3 3.4-7.8 3.7-4.2.5-8.6.3-12.9-.2-1.2-.1-2.8-2-3.1-3.3-.2-.9 1.7-3.1 2.6-3.1 6.2 0 12.4.4 18.6.8.6 0 1 .8 2.6 2.1zm-313.3 77.9c1.4.9 2.9 1.4 3.2 2.3.3.9-.1 2.7-.8 3.3-2.7 2.2-5.5 4.4-8.6 6-1.1.6-3.7 0-4.4-.9-.7-1.1-.6-4 .2-4.6 3.2-2.3 6.8-4 10.4-6.1zm-28.2-82.4c2.8.6 5.6 1.1 8.3 2 .9.3 1.5 1.7 2.3 2.5-.8.5-1.6 1.4-2.5 1.6-3.1.5-6.3.9-9.4 1.1-2.5.2-5-.1-5.1-3.4-.1-3.5 2.6-3.4 5-3.4h1.4c-.1-.2-.1-.3 0-.4zm33.1-73.4c-4.9-2.6-8.8-4.5-12.5-6.8-.8-.5-1.1-3.1-.5-4.1.6-1 3-1.9 3.9-1.5 4.2 2.3 8.8 4.6 9.1 12.4zm217.5 229.2c-1.8-1.1-4.1-1.8-5.2-3.3-1.7-2.7-3.7-6-3.5-8.8.3-2.8 3.6-2.3 4.9 0 2 3.3 3.5 7 5.2 10.5-.4.5-.9 1.1-1.4 1.6zm-170.9-1.2c1.6-3.4 2.8-6.8 4.8-9.6.7-1 3.4-.5 5.2-.7 0 1.5.6 3.5-.1 4.6-1.6 2.5-3.8 4.8-5.9 6.9-.5.5-1.8.6-2.5.4-.6 0-1-.9-1.5-1.6zm230.9-230.4c1.6.9 2.9 1.3 3.2 2 .3.7-.3 2.2-1 2.7-2.2 1.8-4.5 3.5-7 4.8-1 .5-3 .3-3.7-.4-.6-.7-.7-3.2 0-3.7 2.6-2 5.6-3.6 8.5-5.4zM457 91.9c-1.7 3.3-3 5.8-4.3 8.3-1.1-2.6-2.8-5.1-3-7.8-.1-1.8 1.9-3.7 3-5.5 1.3 1.5 2.6 3.1 4.3 5zm-83.6 30.4c-4.4 1-10.8-3.6-10.3-7.3.2-1.1 1.6-3 2.4-3 1.5 0 3.6.9 4.3 2 1.6 2.6 2.4 5.5 3.6 8.3zM447 429.9c-.1-.8-.4-1.7-.1-2.4.5-1.3 1.3-2.5 2-3.7 1.3.9 3.8 1.8 3.8 2.6-.2 3.4-1.1 6.8-1.7 10.1-1.2-.3-3.1-.4-3.3-1.1-.7-1.6-.6-3.6-.7-5.5-.1 0 0 0 0 0zm146.6-78.5c-3.5-1.6-7-3-10.4-4.9-.7-.4-1-2.6-.6-3.6.3-.7 2.5-1.6 3.1-1.2 3.2 2.2 6.2 4.8 9.3 7.3-.5.8-1 1.6-1.4 2.4zm-64.2-228.3c1.3-3.7 2-6.5 3.2-9.1.4-.7 2.2-1.2 3.2-1 .6.1 1.7 1.9 1.4 2.5-1.2 2.9-2.7 5.7-4.4 8.3-.1.3-2-.5-3.4-.7zM369.6 277c-2.8-.9-4.9-1.5-6.9-2.2.1-.3.2-.7.3-1 2.8.7 5.5 1.4 9 2.3-1.3 1.5-2.1 2.5-2.8 3.4.7.6 1.3 1.1 2.6 2.3-3.3.9-5.9 1.6-8.4 2.3-.1-.3-.2-.6-.3-1 1.2-.5 2.5-1 4.2-1.6-1-.8-1.8-1.4-2.9-2.3 1.5-.7 2.9-1.3 5.2-2.2zm133.8-12.8c-.3 1.5-.3 1.8-.4 1.8-2.8.3-5.5.5-8.3.8 0-.9 0-2.5.1-2.5 2.8-.1 5.6-.1 8.6-.1zm-33.5-162.8c-1.1-1.7-2.2-2.6-2.1-3.5.1-1.9.7-3.8 1.3-5.7.1-.2 2.1 0 2.1.1.1 1.8.1 3.5 0 5.3-.1.9-.6 1.8-1.3 3.8zM323.3 382.2c-2-5.5 1.1-7 5.2-8.9 1.3 5.2-3.8 5.4-5.2 8.9zm46.8-113.6c-.8.7-1.7 1.5-2.8 2.5 1 .8 2 1.6 2.9 2.3-.1.2-.1.4-.2.7-2.9-.9-5.8-1.8-8.7-2.8 0-.3.1-.7.1-1 2.8-.8 5.6-1.5 8.4-2.3l.3.6zM501.7 419c1 2.5 2.1 5.1 3.1 7.6-.4.3-.9.7-1.3 1-1.3-1.7-3-3.3-3.9-5.2-.5-1 .3-2.6.5-4 .6.3 1.1.4 1.6.6zm-13.3 13.7c-4.6-.7-6.9-2.9-4-7.9 1.4 2.6 2.7 5.2 4 7.9zM383 112.3c-1.2-2.5-2.4-4.9-3.5-7.4.6-.3 1.1-.5 1.7-.8 3.1 1.6 4.3 4 3.6 7.3-.7.3-1.2.6-1.8.9zm51.6-13.4c-1.8-.4-2.1-.4-2.1-.5-.2-2.6-.5-5.3-.7-7.9.7 0 2.1 0 2.1.1.3 2.6.4 5.2.7 8.3zm52.3 4.8c-.4-2.1-1-4.2-1.2-6.3 0-.7 1.1-1.5 1.8-2.2.7.7 2 1.4 2 2.1-.1 2.1-.6 4.2-1 6.4h-1.6zM288.2 230.3c-3.7-.6-6.5-1-9.6-1.4 2.9-3.8 5.8-3.4 9.6 1.4zm-8.2 67.2c4 .2 6.7.4 9.9.6-3.3 3.4-6.2 3.4-9.9-.6zm31 67.2c1.4-1.4 2.6-2.9 4.2-4 .5-.3 1.8.6 2.7.9l-4.9 4.9c-.6-.6-1.3-1.2-2-1.8zm-29.8-79.5c-1.4-1-2.5-1.8-3.7-2.6 1.1-.5 2.3-1.6 3.3-1.5 1.3.1 2.5 1.2 3.8 1.8-.9.6-1.9 1.3-3.4 2.3zM342.1 141c-3.1-1.1-6.8-1.5-6.6-6.8l7.5 5.7c-.3.3-.6.7-.9 1.1zm20.8 108.9c3.9-3 3.9-3 .5-5.9 2.2-.3 4-.6 6.3-.9-3.2 3.3-3.2 3.5.8 5.8-2.8.4-4.9.6-7.6 1zm-70.4-36.8c-2.4-1-4.9-2-7.9-3.2 3.8-2.6 6.6-1.5 7.9 3.2zm124-113.5c-.1-2.4-.3-4.7-.4-7.1.8-.1 1.6-.1 2.4-.2.2 2.4.3 4.8.5 7.2-.9 0-1.7.1-2.5.1zm-99.8 66.9c-2-1.6-4-3.2-6.1-4.7.5-.6 1.1-1.2 1.6-1.9 1.9 1.7 3.9 3.4 5.8 5-.4.5-.8 1-1.3 1.6z"/></svg>