<svg id="Layer_1" xmlns="http://www.w3.org/2000/svg" viewBox="0 0 285.3 194.3"><style>.st0{fill:#d7a678}</style><path class="st0" d="M216 160.7c2.4-1.9 4.9-3.8 7.3-5.7l.4.4c-1.5 1.9-2.9 3.7-4.6 5.8.9.2 1.5.3 2.4.5-4.5 6.1-10.2 10.6-15.7 15.2l-.5-.5c3.1-3.2 6.2-6.3 9.3-9.5-.1-.1-.2-.2-.2-.3-6 4.9-12.1 9.9-18.1 14.8l-.3-.3c1.6-1.4 3.2-2.7 4.8-4.1-.3-.3-.5-.6-.8-.9-5 3.4-10.1 6.7-15.1 10.1-.1-.1-.2-.3-.3-.4 1.8-1.5 3.6-3 5.4-4.6-8.1 4.3-16 8.8-24.8 11.4-.1-.2-.2-.4-.3-.5.9-.6 1.9-1.2 3.1-1.9-5.4 1.4-10.5 2.8-15.7 4.1-.1-.2-.1-.3-.2-.5 4.7-1.6 9.3-3.1 14-4.7-.1-.2-.2-.5-.2-.7-4.3 1.1-8.6 2.3-12.9 3.4-9.3 2.3-18.8 2.7-28.3 1.7-12.4-1.3-24.9-2.2-37.2-4.4-14.7-2.6-29.1-7.2-42.8-13.2-13.8-6.1-23.5-16.9-31.2-29.5-2.6-4.4-5.3-8.9-7-13.6C1.7 120-1.4 107 .7 93.1c1-7.3 1.7-14.5 5.2-21.1 1.8-3.5 4.4-6.7 6.6-10 .9-1.3 1.8-2.7 2.7-4 4.2-5.9 9.3-11.1 15-15.6 4.5-3.6 9-7.3 13.9-10.4C56.3 24.5 69 18.4 83.3 15.8c8.9-1.6 17.8-3.5 26.9-3.6 28.2-.4 54.7 5.4 78.6 21 1.7 1.1 3.3.8 4.8.3 5.2-1.8 5.9-1.9 3.3-7.3-1-2.2-2.6-4.2-3.9-6.3-3.5-5.8-2.5-9.7 3.3-13.2 5.6-3.3 11.7-5 18-5.9 18.1-2.3 35.3.4 51.3 9.2 6.9 3.8 12.7 8.9 16.5 15.9 7.6 14.2 1.4 30.3-17.3 33-7.1 1-14.2-.1-21.1-1.6-2.5-.6-4.9-1-7.5-1-2.6 0-5.3-.8-7.8-1.7-2.7-1-6-.8-7.8 1.4-.5.7-.6 2.3-.2 3.1 1.5 2.5 3.2 5 5.2 7.2 5.6 6.2 8 13.6 8.7 21.7.1 1.5.3 2.9.6 4.3 1.2 5.3 1.3 10.6.5 15.9-1.1 6.9-1.7 13.9-3.3 20.7-1.2 5.1-3.4 10.1-5.4 14.9-1.3 3.1-3 6-4.8 8.8-1.8 2.7-4.1 5.2-6.1 7.7 0 .3.1.3.2.4zm-4.4-7.8c-.9 0-2.3.3-1.6-1.3.8-1.9 2-3.6 3.1-5.3l.6.3c-.1.7-.3 1.4-.4 2 .2.1.3.2.5.2.9-1.5 1.8-3.1 2.8-4.5.5-.7 1.2-1.3 1.9-1.6 1.6-.7 3.4-2.8 3.5-4.6-.9.8-1.8 1.5-2.6 2.3.2-3.8 4.3-5.1 4.8-8.5-4.8 3.8-9.3 7.7-13.9 11.6-17.4 15.2-38.2 22.8-60.7 26-14.8 2.1-29.6 2.1-44.4 1.2-10.7-.6-21.3-1.7-31.6-4.5-20-5.3-37.4-15.6-53.3-28.6-7.8-6.4-13.5-14.3-16.7-24-.1-.3-.3-.6-.5-.9 2.2 13.7 8.1 25.6 17.2 36.3-.3-2.1-.6-3.9-.8-5.7h.3c1 2.3 2 4.7 3 7 .2-.1.4-.1.6-.2.1-.8.2-1.6.4-2.4.2-.1.4-.1.6-.2.9 1.6 1.9 3.1 2.8 4.7.3-.5.6-.9.8-1.3 3.9 3.5 5.3 7 3.9 9 1 .7 2 1.5 3 2.2 12.3 8.5 25.9 14.1 40.3 17.6 19.2 4.6 38.8 6.5 58.5 6.5 14.5 0 28.4-3.1 41.6-9.2 10.3-4.7 19.6-11.1 28.7-17.7 2.5-2.1 5-4.3 7.6-6.4 1.6-1.4 3.2-2.8 4.9-4.2-.1-.2-.1-.4-.2-.6-.4 0-1.1-.2-1.3 0-1.2 1.6-2.3 3.2-3.4 4.8zm-75.4-46.2c.2 0 .3-.1.5-.1 1.1 1.9 2.3 3.8 3.3 5.8 1.1 2.1 2 4.2 3 6.3 1.3 2.6 3.3 3.7 6 3 6.7-1.8 13.4-3.5 20-5.8 8-2.7 15.8-5.9 22.9-10.6 5.8-3.9 8.8-9.6 10.4-16.1.8-3.1 1.3-6.6.8-9.7-1.8-11.2-7-20.7-15.2-28.5-10.1-9.6-22.5-15.1-35.7-18.7-18.5-5-37.3-6.4-56.3-4.8-13.1 1.1-25.6 4.4-37.1 11-9.6 5.5-18 12.4-23.3 22.3-4.5 8.3-6.6 17-2.4 26.3 3.2 7.2 9 11.8 15.5 15.6 4.9 2.8 9.8 5.6 14.6 8.4 8.3 4.7 16.7 9.1 26.3 10.5 4.5.7 9 1.4 13.9 2.1v-5.1c1.5-.1 2.6-.2 3.6-.2-.6 1.8-1.1 3.6-1.8 5.8 7.9.3 15.3.5 22.6.8.4-2.4 1.8-4.4-.1-6.2-.2-.2 0-.9.1-1.4.6.1 1.1.2 1.9.3-1.8-2.8-5.8-4.4-4.5-9.3 1.5 1.9 2.7 3.4 4.2 5.2v-5.4c.3 0 .5-.1.8-.1.3 1.2.4 2.5.8 3.7.8 2.8.1 6.1 2.7 8.3 1.2 1 2.1 2.3 3.5 3.8.6-.3 1.5-.8 2-1.1 1.5.1 2.5.2 3.9.3-.4-1.7-.4-3.2-1.1-4-3.1-3.1-4.1-7.1-5.5-10.9-.4-.5-.3-1-.3-1.5zM28.4 47.5c-6 5.7-11 11.8-14.9 18.8-6.7 12.3-8.2 25.2-3.2 38.5 3 8.1 7.7 15.2 13.7 21.4 10.9 11.3 24.2 18.4 38.8 23.4 17.3 6 35.2 8.4 53.4 8.6 13.6.2 27.2-.4 40.6-2.6 17.4-2.9 32.3-11.2 46.1-21.8 9.6-7.4 17.3-16.3 22-27.7 2-5 3.4-10.1 3.6-15.5.1-6.3-1.1-12.3-3.2-18.2-.2-.6-1-1-1.6-1.5-.1 2.2.3 4 .4 5.8 0 .7-.8 1.4-1.2 2.2-.4-.7-1-1.3-1.2-2-.3-1.1-.3-2.2-.4-3.4h-.7c2 9.1.7 17.7-3.9 26 .5 0 1.2-.1 1.3.1.5.9.9 1.9 1.1 3 0 .2-1.4 1-1.7.8-1.9-1-3.2 0-4.3 1.3-4.1 5-9 9-14.6 12.1-5.3 2.9-10.7 5.8-16.1 8.4-21.8 10.6-44.4 16.8-69.1 15.4-27.4-1.6-52-10.3-74.3-25.9-7.6-5.2-13.9-11.6-17.4-20.4-4.7-11.9-2.9-23.7 1.1-35.3 1.5-3.8 3.7-7.5 5.7-11.5zM194 37.1l1.6 1.6c10 9.5 15.4 21 15.7 34.8.2 11.8-3.5 22.1-12.4 30.2-3.1 2.9-7 4.6-10.7 6.4-14.6 7.2-29.7 12.4-45.8 15.2-14.3 2.4-28.5 2-42.8.3-9.2-1.1-18.4-2.8-26.8-7-5.3-2.7-10.4-6-15.6-8.9-7.3-4.1-14.4-8.6-20.6-14.3-8.7-8.1-11.7-17.7-9.7-29.1 2.3-13.4 10-23.6 20-32.3.2-.2.5-.4.7-.6.2-.1.3-.3.5-.6-.4 0-.6-.1-.7 0-11.1 6.8-19.2 16-22.8 28.6-5.9 20.9-.5 37.2 17.6 48.8 5.4 3.5 11.2 6.3 17 9.1 9.7 4.7 19.6 9.3 30.2 11.6 34.3 7.4 66.8 2.1 97.7-14 8.9-4.6 16.6-10.8 21.7-19.6 5-8.6 7.4-17.8 4.3-27.7-.9-2.9-1.5-6-2.2-8.9-.7-2.8-1-5.7-2.9-8.2-1.3-1.6-2.1-3.6-3-5.5-.2-.5-.3-1.3 0-1.7.5-.7 1.2-1.3 1.9-1.9.7-.7 1.5-1.3 2.3-2-1.8-3.9-5.7-5.7-9.4-8-1.8 1-3.7 2.3-5.8 3.7zM4.9 83c-.2.4-.4.8-.5 1.2C0 101 3.8 116 15.2 128.8c10.9 12.1 25.2 19.8 39.5 27.2.6.3 1.4 0 1.9 0 2 1.2 3.9 2.5 6 3.4 2.1.9 4.4 1.2 6.5 1.9 1.5.5 2.9 1.4 4.4 1.8 9.6 2.6 19.4 3.7 29.2 4.5 20.7 1.6 41.2.8 61.4-4.1 21-5.2 39.4-14.9 53.6-31.7 9.7-11.5 15.6-24.5 14.3-39.9-.2-1.8-.5-3.7-.7-5.5-.2 0-.5.1-.7.1 0 2.9.4 5.9-.1 8.7-1.8 11.2-6.3 21.3-13.8 29.8-17 19.3-38.3 30.9-63.7 34.5-20.8 2.9-41.7 3.1-62.5 0-18.7-2.7-36.6-8.4-52.8-18.5-14.2-8.8-25-20.6-30.4-36.7-2.2-7-2.9-14.1-2.4-21.3zm197.5-30.5c-1.3-2-2.3-4.2-3.8-6.1-5.8-7.2-13.1-12.8-21.4-16.8-29-14.2-59.4-17.5-90.9-11.1-11.2 2.3-22 5.9-31.6 12.5-4.8 3.3-9.2 7.1-12.6 11.9 2.3-1.6 4.5-3.3 6.7-5.1 3.1-2.5 5.8-5.5 9.7-7 2.4-1 4.5-2.8 6.9-3.7 11.8-4.6 24.1-7.6 36.7-9.1.5-.1 1 0 1.5 0-3.3 1.3-5.9 4.6-10.3 3.8-.7.2-2 .7-3.3 1.1-8.2 2.5-16.6 4.6-24.7 7.4-6.4 2.3-12.4 5.6-17.8 10.1-2.1 1.7-4 3.3-4.7 4.9 3.9-2.6 8.1-6 12.8-8.5 12.2-6.5 24.7-11.6 38.9-12.5 13.9-.9 27.6-.2 41.3 1.4 11.8 1.4 22.8 5.4 33.5 10.4 10.8 5.1 20.5 11.6 27.3 21.7 1.7 2.6 3.2 5.3 4.8 8h.3c-.1-2-.3-4-.4-6.1-.9-.2-1.6-.6-1.6-1.1-.4-2.6-.6-5.2-.9-7.7.1 0 .2-.1.3-.1.6 1.1 1.1 2.1 1.6 3 .4-.2.9-.5 1.7-1.3zm68.5-27.2c-.1.1-.3.2-.4.2.6 1.1 1.3 2.2 1.6 3.4.5 1.7 1.1 3.5 1 5.2-.3 4.3-3.3 6.6-6.9 8-6.2 2.4-12.5 2.7-18.8.1-1.9-.8-3.8-1.5-5.8-1.9-1-.2-2.5.2-3.1.9-1.9 2.1-1.4 7 1.1 8.5 2.3 1.4 4.9 2.5 7.6 3.2 6.7 1.8 13.5 3.2 20.6 1.7 8.9-1.9 15.4-8.3 16-16.4.5-6.5-2.6-11.7-6.8-16.3-8-8.8-17.8-14.4-29.2-17.6-14.1-3.9-28.2-3.3-42.2.4-2.6.7-5.1 2.1-7.4 3.6-3 2-3.7 6-1.9 8.5.1-1 .2-2 .4-3 .2-.9.5-1.9.7-2.8h.2c-.1 1.4-.2 2.7-.3 4.1.1 0 .2 0 .2.1.2-.6.4-1.1.9-2.3.5 2.1.8 3.6 1.2 5.6.1-1.1.2-1.6.3-2.3 3.9 3.6 7.1 5 9.9 4.3-.8-1.2-1.5-2.4-2.4-3.4-2.2-2.6-1.2-9.9 3.7-11.2-.9 1.3-1.6 2.3-2.2 3.3 1.3-.9 2.3-2.1 3.3-3.2.9-.9 1.6-1.7 3.3-1.3 1.6.4 3.5-.3 5.2-.4 1.8-.1 3.8-.6 5.5-.1 2.8.8 5.5.8 8.2.3 6.4-1.1 12.1 2.1 18.1 3.3 1.3.3 2.4 1.5 3.6 2.4 2.8 2 5.7 4.1 8.5 6.2.8.5 1.5 1 2.3 1.5 3.5 2.1 6.3 4.7 7.3 8.8.1.5 0 1-.1 2-1.3-1.4-2.2-2.4-3.2-3.4zm-32.6 9.6c-.4-.6-.9-1.3-1.4-1.9-3.1-3.6-6.8-6.4-11.3-7.9-1-.3-2.2-.4-2.8-.5v17.6h.8c-.1-1.2-.1-2.3-.2-3.5v-4.3c3.1 5.4 6.3 6.8 11.7 5.3 1.7-.5 3.8-.8 3.9-3.5-5.2 4.8-9.4 4.5-12.4-1.1.6.4.9.6 1.3.8 2.5 1.6 4.9 2 7.5 0 .6-.5 1.7-.6 2.9-1zm-33.2-8.5c6.4 1.7 9.6 6.2 12.1 12 .3-1.2.4-2 .6-2.9.6 2.6 1.1 5 1.6 7.4.2 0 .5-.1.7-.1V28.4c0-1.4-.2-2.8-.6-4.1-.5-2.1-2.2-3.2-4.1-2.6-3.4 1.1-7.2 1.9-10.3 4.7zm44.6-12.6c.2-.8.3-1.4.4-1.9-.8-.2-1.5-.5-2.1-.7 0-.1.1-.1.1-.2 1 .1 2 .1 3 .2 0-.2.1-.4.1-.6-1.9-.5-3.8-1.4-5.7-1.5-3.1-.2-7 2.5-6.2 6.9.2 1.3.7 2.5.9 3.8.2 1.6.5 3.2.5 4.7 0 2-.2 3.9-.3 5.9h.3c.2-2.4.4-4.7.7-7.1h.3l.3 4.2h.5c.1-1.2.2-2.5.4-3.7h.2c.2 1.9.5 3.8.7 5.7.2 0 .4-.1.5-.1.1-.8.2-1.6.3-2.8.4 1.2.6 2.1.9 3.1 1.6-2.2-2.4-4.5.5-6.4.2.8.5 1.4.7 2.1.2 0 .3-.1.5-.1-.4-1.8-.4-3.6-1.1-5.2-.9-2.2-1.8-4.3-.3-6.6 1.2-1.8 2.3-1.9 3.9.3zm-17.2 6.4c.1 0 .3-.1.4-.1.3.5.6.9 1.1 1.7-.3-2.2-.6-4-.9-5.8h.3c.2.5.5 1.1.7 1.6.1 0 .1 0 .2-.1-.1-1.3-.2-2.7-.3-4h.2c.3.7.5 1.3.8 2 .1 0 .2 0 .3-.1v-5.2h.3c.1 1.7.3 3.5.4 5.2.4-1.2.7-2.5.4-3.5-.6-1.8.3-2.7 1.5-3.3.8-.4 2-.4 3.2-.6-5.6-2.3-10.7.1-12.8 5.6-1.6 4.5.6 10.1 4.7 11.3-.2-1.5-.3-3.1-.5-4.7zm13.9 14.5c5.3-2.8 6.9-7.5 7.7-12.4.4.2.9.5 1.1.4 2.1-1.1 1.5-3.1 1.5-5.1.5.8.8 1.3 1.1 1.9.1 0 .2-.1.3-.1-.3-1.4-.7-2.8-1-4.1.4-.1.7-.2 1-.3v-.5c-1.2-.1-2.4-.5-3.5-.4-4.3.6-5.9 2.8-5.1 7.7.7 4.5.8 8.7-2.9 12.1-.1-.1-.1.1-.2.8zm17.5 6.3c3.8.2 5.8-2.8 6.8-6.5 1.1-3.8-.7-8.5-4-10.5 1.7 6.2-1.9 11.3-2.8 17zm-50.5 2.9c1.4-4-.3-7.6-5.2-11.9-1.7-1.4-5.3-1.7-7.7-.6 5.8 2.4 10.4 6.1 12.9 12.5zm46.7-21.8c-.6.8-1.2 1.6-1.7 2.4-2.3 3.6-2 8.5-6 11.3.3.2.5.5.8.7 1.9-1.5 3.7-3 5.6-4.6.5-.5.7-1.5 1.2-2.2 1.8-2.2 2.1-4.3.1-7.6zM219 11.5c-1.2.3-2.7.3-3.8 1-1 .6-2.5 2-2.3 2.6.4 1.4 1.7 2.6 2.7 3.7.1.1 1.6-.5 1.7-1.1.7-1.8 1.1-3.8 1.7-6.2zm-88.1 107.6c.2.3.4.7.7 1-.7.4-1.3.8-2.2 1.3.2.6.7 1.7 1.3 2.9 1-.1 2-.2 3.5-.3-1.2-1.8-2.2-3.3-3.3-4.9zm93.6-101.7c1.1-2.3 2.1-4.5 3.2-6.6-.2-.1-.4-.3-.6-.4-1.5 1.8-2.9 3.6-4.4 5.4.9.8 1.4 1.3 1.8 1.6z"/><path class="st0" d="M139.4 64.8c-.6-1.3-.2-1.9 1-2.3 2.3-.8 6.4-.6 8.1.3 1.3-.4 2.4-.9 3.4-1 3.7-.3 7.4-.4 11.2-.4-2.9 2.1-4.9 5.6-9 6-.2 0-.6 1.1-.5 1.6.1.5.7.9 1.3 1.6-2 1.4-3.9 3-6 4.1-2 1-2.8-1.2-4.7-2.1 1.6 0 2.6.1 3.5 0 1.3-.2 1.9-1.1 1.3-2.1-.4-.6-1.8-1.3-2.4-1.1-1.4.6-2.6 1.6-3.7 2.6-1.4 1.2-2.6 2-4.7 1.3-.7-.3-2.3.5-2.8 1.3-.6.9-1.9 2.2-.7 3.5 1.3-.3 2.4-.6 3.6-.9 0 .1.1.2.1.3-.9.8-1.8 1.5-2.7 2.4 1.9 1.2 1.7 3.3-.1 3.8-.9.3-1.9.2-2.8.3 0 .2-.1.4-.1.6.9.2 1.8.4 2.7.7.5.1 1 .3 1.4.6.1 0-.2.9-.3.9-.5 0-1-.1-1.5-.3-.9-.3-1.7-.8-2.6-1.2-.2 3.1-2 4-4.5 2.7-.6-.3-2.2.3-2.5.9-1.7 3.2-1.7 3.4-5.1 2.4-.8.9.4 3.2-1.9 2.8-.2 0-.2-1.6-.3-2.7-2-.5-5.9 2-6.1-3.2-1.9.3-3.4-2.1-5.9-.5.7.5 1.2.8 1.7 1.1v.6c-.6 0-1.8 0-1.8-.2-.1-1.1-.1-2.2-.1-3.5-.9.6-2 1.3-3.4 2.1-2.2-1.6-4.4.6-7.2.7 1.5-1.1 3-2.2 4.6-3.4.3.1.8.4 1 .5.7-1.9 1.4-3.6 2.1-5.3-.3.1-.6.2-.9.2-.8-.7-1.7-1.4-2.5-2 .9-.8 1.9-1.5 3-2.5-.6-.3-1.5-.8-2.5-1.4v-.5c.5-.1.9-.2 1.4-.3.5-.1 1.1-.1 1.8-.2 0 .4 0 .9-.1 1.3.2.1.3.1.5.2 1.1-1.8 2.2-3.6 3.4-5.7-1.5-.3-2.8-.4-4-.7-2.5-.6-2.8-1.3-2.6-3.9.1-.7-.6-1.5-1.1-2.1-6-6-12-11.9-18.1-17.9-.5-.5-.9-1-1.1-1.8 1.8 1 3.6 1.9 5.4 3 7.1 4.5 14.1 9.1 21.3 13.5 1.2.8 2.8 1.2 4.3 1.3 3.4.3 4.3 1.3 3.4 4.6-.1.5-.1 1.1.1 1.6.1.2.9-.1 1.3 0 1.1.1 2.7-1.3 3.3 1 .1.5 1.3.6 1.9 1 .9.7 1.7 1.6 2.7 2.6 1.6-.2 3.8-.5 6-.7 1.4-.1 3 .1 3.5-1.9.1-.4.8-.7 1.2-.8 2.2-.6 4.4-1 6.6-1.6.7-.2 1.5-.7 2-1.2.2-.2-.2-1.4-.5-1.5-.8-.2-1.7-.1-2.5 0-.1.2-.5.6-.8.9zM104.1 76c-1.2 4.3-.2 6.9 3 8.7 7.7 4.3 15.4 4 22.9-.5 3.1-1.9 3.2-4.7 0-6.3.6 2.6-.8 4.3-2.8 5.2-5.7 2.7-11.5 2.6-17.2.1-4.1-1.8-4.4-4.8-1.3-8 .8-.8 1.2-2 1.8-3.1l-.9-.6c-.7.8-1.3 1.6-2.1 2.5-1.7-.5-2 .6-1.5 2.4-.7-.1-1.2-.3-1.9-.4zm7.8-10.2v-1c-1.5-1.7-3.5-1.6-5.5-1-.5.1-1.1.9-1.1 1.1.2.5.8 1.3 1.2 1.3 1.8 0 3.6-.2 5.4-.4zm9.2 12c-1.8 0-3.5.2-5.2 0-1.6-.2-3-.8-4.6-1.3 3 2.4 6.3 2.6 9.8 1.3zm-6.7-5.6c0 .2-.1.4-.1.6 1.5 1.2 3.1.3 4.7-.1-1.5-.2-3-.3-4.6-.5zm43.7 30.3c1.1.4 2 .8 3 1.1l-1.3-2.6c.2-.1.4-.3.6-.4.6.4 1.2.9 1.8 1.3 2.3 1.6 4.6 3 6.8 4.7.9.7 3 .8 1.8 2.7-1.1 1.6-1.9-.2-2.9-.6-.3-.1-.5-.3-1-.5 0 .7.1 1.2.1 1.8 0 .6-.1 1.8-.3 1.8-.9.1-2.3.2-2.7-.3-2.2-2.5-4.1-5.3-6-7.9 0-.3.1-.6.1-1.1zM81 106.4c-.4 3.5-.8 6.9-1.4 10.3-.1.5-.8 1-1.2 1.4-.3-.6-1.1-1.3-1-1.9.7-4.2 1.4-8.3.3-12.6-.4-1.6 1.8-3.8 4-3.6 1 .1 2.1 1.5 2.7 2.5.7 1.4-.5 3.1-2.3 3.6-.3.1-.7.2-1.1.3zm25.7-6.3c.5 1.1 1.1 2.2 1.5 3.4 1.2 3.2.2 6.4-1 9.2-.7 1.9-2.9 3.2-4.6 4.6-2.9 2.4-6.3 3.5-10.2 3.2 1.5-.7 2.9-1.6 4.5-2.1 2.8-.9 4.6-2.8 6.3-5 .9-1.3 2.4-2.2 3.2-3.6 1.6-3.2.4-6.3.3-9.7zm68.5-8.4c.7-.1 1.5-.3 2.2-.2.6.1 1.2.4 1.8.7.1-.3.2-.6.4-1-1.8-.6-3.5-1.2-5.3-1.8-1.3-.4-2.7-.7-3.9-1.2-.5-.2-.8-.9-1.1-1.6 4.5 1.9 9.1.8 13.6 1.2.6.1 1.1.7 1.6 1-.5.5-1 1-1.5 1.4-.8.6-1.6 1-2.4 1.5.1.2.2.4.2.6.4.1.8.2 1.1.4.4.3.6.8.9 1.2-.5.2-1.2.8-1.6.6-2-.7-3.9-1.6-5.8-2.4 0-.1-.1-.2-.2-.4zM69.9 53.2c-1.6.3-3.1.2-3.6-1.7-.2-.5.4-1.3.6-1.9l1.8 1.2c.5-1.8 2.1-1.1 3.1-.7.6.2.8 1.5 1.2 2.3.4 1 .5 2.4 1.2 2.9 1.9 1.5 4.2 2.6 6.2 4 .6.4.8 1.3 1.1 2-.7 0-1.7.4-2.2 0-2.7-1.9-5.3-4-7.9-6.1-.5-.5-.9-1.2-1.5-2zM43.8 89.5c1.2-.3 2.4-.7 3.6-1 1.3-.2 2.6-.3 3.9-.5l13.8-2.4c.5-.1 1 0 1.6.1-.1.5-.2 1.2-.4 1.2-7.4 1.7-14.7 3.7-22.4 3.8.1-.4 0-.8-.1-1.2z"/><path class="st0" d="M88 58.8c-.9.4-1.4.9-1.9.8-1.1-.2-2.1-.6-3.1-1.1-2-.9-3.7-2.3-6.2-2.5-1.1-.1-2.1-1.7-3.1-2.8-.2-.2-.1-.9.1-1.2.2-.2.7 0 1.1 0 4.3.2 7.1 3.8 11 5 .8.3 1.2 1 2.1 1.8zm35.2-6.2c.7-2.1 1.2-3.5 1.6-5 .6-2.6 1-5.3 1.6-8 .1-.7.6-1.2.9-1.9.3.6.8 1.2.9 1.7.1 3.6.1 7.3 0 10.9 0 1-.2 1.6-1.6 1.4-.8-.1-1.8.5-3.4.9zm-60.7 13c-1.2.4-2.3 1-3.5 1.2-.4.1-1-.5-1.5-.9.4-.2.9-.5 1.3-.8 2.4-1.7 4.9-.2 7.2 0 2.8.2 5.6 1 8.4 1.6.5.1 1.1.3 1.6.4 0 .3.1.6.1.8-1.1.3-2.3.9-3.3.7-2.1-.4-4.1-1.2-6.5-1-1.3.2-3.2.3-3.8-2zm8.4 23c-3.6 2.2-7.5 4.2-11 6.7-2.7 2-5.1 4.5-3.4 8.4.1.3-.2 1-.4 1.1-.4.1-1 0-1.3-.2-.3-.2-.5-.8-.4-1.2.3-2 .7-4.1 1.2-6.1.1-.4.6-.7 1-1 1.5-1.2 2.9-2.5 4.5-3.5 1.5-1 3-2 4.7-2.6 1.6-.8 3.5-1.1 5.1-1.6zm89.4-32c-1.3.4-2.7.9-4 1.3-.5.1-1.1-.1-2-.2 3.3-3 6.4-5.8 9.5-8.5.3.2.6.5.9.7-1.5 2.3-3 4.5-4.4 6.7zM54.6 67c4.4 1.3 8.7 2.6 13.1 3.9-2.1 2.4-4.1 1.1-6.2.2-1.7-.7-3.4-1.1-5.1-1.8-.8-.3-1.5-.9-2.2-1.3.1-.4.3-.7.4-1zm117.8 6.6l2.1-.6c.1.3.1.6.2 1-3.5.5-7 1-10.7 1.6.9-2.8 3.5-2 5.2-2.7v-.6c-1.1-.1-2.1-.2-3.3-.3 0-1.3.3-2.2 1.9-2 1.2.1 2.6.1 1.5 2 1.1.4 2.1.7 3.2 1.1 0 .1-.1.3-.1.5zm5.1-2.5c-1.7-.1-3.3-.1-4.8-.3-.4 0-.7-.5-1.1-.8.4-.3.8-.9 1.2-.9 3-.3 6-.6 8.9-.7.5 0 1.1.5 1.6.8-.4.5-.8 1.4-1.3 1.5-1.5.2-3.1.2-4.5.4zM58.4 74.6c.6 0 1.2-.1 1.8 0 2.5.3 4.9.6 7.4 1 .6.1 1 .8 1.6 1.3-.6.3-1.3 1-1.8.9-2.6-.5-5.1-1.1-7.7-1.7-.5-.1-.9-.5-1.4-.8 0-.2 0-.5.1-.7zm-11.7 19c3.1-.3 5.6-3.5 9.2-2.2-.7 2.6-6.8 4.2-9.2 2.2zm53.9-2.8c-.5.8-.8 1.3-1 1.7-2.8-1.1-5.5-2.2-8.5-3.3.3-.6.7-1.3 1.2-2.2 1.3.6 3 .3 3 2.4 0 .2 1 .7 1.2.6 1.7-1.5 2.7.2 4.1.8zm30.1-42c.5-3.2.9-6 1.5-8.9.1-.4.7-.7 1.1-1.1.2.5.7 1 .6 1.4-.4 2.8-.8 5.6-1.4 8.4-.1.4-.7.8-1 1.1-.3-.3-.6-.7-.8-.9zm-32.8-6.7c1.1 1.5 2.4 3.3 3.8 5.1l-.4.4c-2-2-4-4-5.8-6.1-.2-.3.4-1.9 1-2.1.8-.3 1.8.1 2.7.3-.4.7-.7 1.4-1.3 2.4zm62.4 14.6c1.8-1.4 3.5-2.9 5.5-4.1.7-.4 1.8-.2 2.8-.3-.4.7-.6 1.7-1.2 2-1.8 1.2-3.7 2.2-5.6 3.1-.5.3-1.8.9-1.5-.7 0-.1 0 0 0 0zM83.8 85.5v3H72.5c2.4 0 4.2-3.2 7-1.2.2.2.9-.2 1.3-.4.9-.5 1.7-.9 3-1.4zM56.2 66.4c-2.5.2-5.1.3-8.1.5 1-2 1.1-4.3 3.8-2.6.1.1.3.1.4.1 2.1-1.9 2.6.8 4 1.1 0 .4 0 .6-.1.9zm100.2-16c-.1 3.3-5.3 8.1-7.8 7.1 2.6-2.3 5.1-4.6 7.8-7.1zm-23.5 57.4c3.8 2.8 4.8 5.2 2.9 7.2-2-1.8-3.8-6.1-2.9-7.2zm19.9-7.6c1.1-1 1.7-2 2.5-2.3 1.3-.4 3.1 1.5 3.8 3.8-1.5.6-2.9 1.5-3.8-.9-.1-.3-1.1-.2-2.5-.6zm8.3-12.2c2.5.6 4.4 1 6.3 1.6.5.1.8.5 1.3.8-.5.3-1 .9-1.5.9-1.5-.1-3.1-.2-4.5-.7-.7-.2-1-1.5-1.6-2.6zM66.9 72.8c1-.5 1.9-.8 2.7-1.3 1.4-.9 2.4 0 3.2.8.3.3.3 1.2.1 1.6-.2.3-1 .5-1.4.4-1.6-.3-3-.9-4.6-1.5zm90.4 36.6c1.9 1.1 3.6 2.1 5.3 3.2.2.1.3 1 .1 1.1-.3.3-1 .5-1.3.3-1.5-.9-3-1.9-4.5-3-.2-.2-.3-.8-.3-1.1.2-.2.6-.4.7-.5zm-16.5 12.1c-2.6.1-2.9-.3-3.8-5.5 2.7.9 2.4 3.5 3.8 5.5zM66 46.1c-1.1.5-2.2 1.3-3.4 1.5-.7.1-1.6-.5-2.5-.7.5-.5 1-1.5 1.6-1.6 1.4-.1 2.9.2 4.4.3 0 .2 0 .3-.1.5zM42.1 74.7c.3-2.6 2.7-3.9 4.2-2.9.3.2.2 1.5 0 1.6-1.3.5-2.6.8-4.2 1.3zm89-41.1c1.1 1.2 1.9 2.2 2.8 3.1v.2c-.4.2-1 .7-1.1.6-1-.7-1.9-1.5-2.7-2.4-.2 0 .5-.8 1-1.5zm-33.6 79.9c-.4-.6-1-1.1-.9-1.3.4-.7 1.2-1.8 1.5-1.7.9.2 1.6 1 2.4 1.6-.8.5-1.8.9-3 1.4zM83.1 98.2c-1.4-1.7-1.1-3.6.4-4.4.3-.1.9-.2 1 0 .2.3.4.9.3 1.2-.5 1-1.1 2-1.7 3.2zm-21.9 7.2c-.7-.7-1.2-1.2-1.7-1.6.6-.4 1.2-1.2 1.8-1.1.7 0 1.3.8 1.9 1.2-.6.3-1.2.8-2 1.5zm91.6 1.7c-.3.3-.7.8-.7.7-.9-.5-1.8-1.1-2.5-1.8-.2-.2 0-.9 0-1.3.4.1 1 0 1.3.2.6.7 1.2 1.4 1.9 2.2zM92.3 93.3c.8-.7 1.3-1.1 1.8-1.5.5.6 1.1 1.2 1.4 1.9.1.2-.8 1.1-1.1 1.1-.6-.2-1.2-.8-2.1-1.5zm100.5-1.5c-1.1.9-1.8 1.5-2.6 2-.1 0-1-1-.9-1.1.5-.7 1.1-1.4 1.9-1.9.1-.1.7.5 1.6 1zm-30.4-5.1c1.6-.2 3.1-.4 4.7-.4.4 0 .8.7 1.2 1.2-.5.1-1 .4-1.5.3-1.5-.2-2.9-.4-4.4-.7.1-.1 0-.3 0-.4zM49.3 96.8l4.2-2.1c.2.4.4.7.5 1.1-1.4.7-2.8 1.3-4.2 2-.1-.3-.3-.6-.5-1zm44.9-58.3c-.7-.8-1.2-1.3-1.7-1.8.5-.4 1.1-1 1.6-1 .6 0 1.2.6 1.8 1-.4.5-.9 1-1.7 1.8z"/><path class="st0" d="M58.3 75.2c-2.1.8-3.4.4-5.2-.9 2.2-.7 3.6-.5 5.2.9zm-5-.4c-.9.4-1.5.9-1.8.8-.7-.3-1.2-.9-1.8-1.4.4-.4.9-1.1 1.1-1 .8.2 1.4.8 2.5 1.6zm109.1-1.4c-.2-.7-.4-1.5-.6-2.2.8-.2 1.7-.4 2.5-.6.2.2.3.4.5.6-.5.8-1.1 1.6-1.6 2.4-.3-.1-.6-.1-.8-.2zm-31-20.2c-.1-.7-.5-1.5-.3-2.1.2-.6 1.1-.9 1.7-1.3l.6.6c-.4 1-.8 1.9-1.2 2.9-.2 0-.5 0-.8-.1zm-81.5 5c-.4.7-.8 1.5-1.2 2.2-.4-.3-.8-.5-1.2-.8.5-.7.9-1.4 1.4-2.1.4.4.7.5 1 .7zM167 47.7c-.2-1.2-.3-2.2-.4-3.2.4.1 1.1 0 1.3.2.6 1 1 2-.9 3zM88.3 88.9c-1-.1-1.8-.1-3-.2.8-1 1.3-1.8 1.9-2.6.3.8.7 1.7 1.1 2.8zm34.4-20.8c1.6.3 2.7.4 3.8.6-.8 2.3-1 2.2-3.8-.6zm-10.3 82.2c0-3.6 5-7.2 8.3-5.8.6.3.9 1.4 1.4 2.1-.7.3-1.4.7-2.1 1-1.4.5-2.9.9-4.2 1.6-.4.2-.5 1.7-.2 2.1.4.4 1.4.2 2.1.5 1.5.6 1.5-.5 1.9-1.3.2-.3 1-.3 1.5-.5.1.5.5 1.1.4 1.5-.5 1.9-3.2 3-6.1 2.6-1.9-.4-3-1.8-3-3.8zm82.7-25.1c1.3.1 2.2.4 3 .3 2-.4 4.1-.8 5.9-1.6 1.4-.7 2.4-2 .7-3.7-.3-.3-.3-1.2 0-1.5.3-.4 1.2-.7 1.4-.5.9.6 2 1.4 2.3 2.3.6 2.3-1.8 5.6-4.5 6.8-3.6 1.2-6.7.7-8.8-2.1zM155 142.9c2.5-1.6 4.1-1.3 5.9.5 1.1 1.1 2.2 2.5 3.6 3 1.2.5 2.8-.1 4.2 0 .7 0 1.4.3 2.1.5-.3.7-.4 1.7-.9 2.1-2.6 1.8-7.1 1.3-8.5-1.2-1.6-2.5-3.3-4.4-6.4-4.9zm34.3-10.3c-4.5 1.5-4.5 5-5.1 8.5-.6 3.1-3.3 4.5-7.1 4.1 4.2-.8 5.4-3.6 5.1-7.4-.2-2.4.9-4.4 2.9-5.8 1.1-.8 2.4-1.2 4.2.6zm-57.1 20.2c-3-.2-5.5-1.5-6.9-4.4-.2-.5 0-1.2 0-1.7.6.2 1.3.2 1.6.5 1.9 1.9 4.1 2.7 6.7 2.5 1-.1 2.4-.3 2.3 1.1 0 .6-1.3 1.3-2 1.8-.5.3-1.1.2-1.7.2zM21 106.3c3.8-.1 5.2 1.3 4.3 5.3-.5-.9-.8-1.8-1.4-2.6-.4-.5-1.1-.9-1.7-1.3-.4.6-.8 1.2-1.1 1.8-.1.2.1.6 0 .9-.2.8-.5 1.5-.8 2.2-.6-.7-1.6-1.4-1.7-2.2-.2-1.3 0-2.7.1-4.1.1-1.3.3-2.5.5-3.8.2-.1.4-.1.6-.2.4 1.4.8 2.7 1.2 4zm204.6-16.9c-.1.6-.1 1.2-.4 1.7-.3.4-.9.9-1.3.8-.4 0-1-.8-1-1.1.2-1.7.5-3.4.8-5.1.1-.7 0-1.4-.1-2.2-.1-.6-.6-1.2-.5-1.6.3-.9.9-1.6 1.4-2.4.4.7.9 1.3 1.1 2 .4 1.2.6 2.5.8 3.7.1.7-.1 1.4-.3 2.1-.2.7-.6 1.3-.9 2 .2 0 .3.1.4.1zM155.2 145l-7.3 7.3c-1.2-2.2-.3-5.1 2.3-7.4 1.2-.9 3.6-.9 5 .1zm16.2-5.2c.3-.9.5-1.4.8-2.3-1.1 0-2 .1-2.9 0-.6-.1-1.1-.5-1.6-.8.3-.5.6-1.4 1-1.4 1.6-.2 3.3-.4 4.9-.2.4.1.7 2 .6 3 0 1.3-.9 2.1-2.8 1.7z"/><path class="st0" d="M177.1 132.8c2.3 2.2 3.3 6.3 2.3 8.2-.4.8-1.3 1.5-2.1 1.8-.6.2-1.5-.3-2.3-.5.4-.6.7-1.4 1.2-1.6 1.6-.6 1.5-1.8 1.4-3.1-.1-1.4-.3-2.9-.5-4.8zM23.9 111.2c0 .8.1 1.6.1 2.4.1 1.1.1 2.2.5 3.2.7 1.6 2.2 1.9 3.7.8.3-.2.9-.3 1.3-.4.1.5.4 1.4.2 1.5-.7.6-1.7 1.3-2.5 1.4-2.1.1-3.3-1.3-4.1-3.1-.8-2-1.1-4 .1-5.8h.7zm6.5 12.1c3.4-1.8 2.1-3.8.8-5.8-.1-.1-.2-.2-.2-.4l-.3-3c.7.6 1.5 1.2 2 2 .8 1.2 1.6 2.6 1.7 3.9.1 1.1-.6 2.4-1.3 3.4-.3.4-1.4.3-2.1.4-.2-.1-.4-.3-.6-.5zm-15.5-17.5V93.6c2.3 2.8 2.3 9.5 0 12.2zm93.4 47.5c-2.2 0-2.7-1.2-2.9-2.5-.4-2.5 1.5-5.2 3.8-5.5.5 0 1.1.2 1.5.6.2.1 0 1-.1 1.1-3.3 1.1-3.5 3.4-2.3 6.3zm101.4-32.8c1.4-2.3 2-3.9-.3-5.1-.1-.1.1-1.5.3-1.5.9-.2 2.2-.5 2.8-.1 1.3.9 1 5-.3 6-.5.4-1.2.4-2.5.7zm5.9-15.2c.8-.2 2.1-.8 2.4-.4.9.9 1.8 2.1 2.1 3.3.2.7-.6 1.9-1.2 2.5-.9.7-1.8.4-2-.9-.2-1.3-.5-2.6-.7-3.9l-.6-.6zm-27.9 34.5c-1-.9-.9-2.5.1-3.7 1-1.1 2.5-1.8 3.8-2.6.2-.1.9.5 1 .8.1.2-.1.8-.4 1.1-1.4 1.5-2.9 2.9-4.5 4.4zm-30.8 8.9c-.2 1-.3 2-.6 2.9 0 .1-1.4-.1-1.5-.3-.2-1-.3-2-.2-2.9.1-.6.6-1.5 1.1-1.7.7-.3 1.6-.1 2.4.1.3.1.5 1.2.4 1.2-.5.4-1.2.6-1.6.7zm-11.9.6c-1-2.9 1-6 3.3-6.3.4 0 1.2.3 1.2.5.1.6 0 1.3-.4 1.7-.7.7-1.7 1.1-2.4 1.8-.6.7-1.1 1.6-1.7 2.3zm46.1-21c.8.2 1.7.2 2.5.6 1.1.6 2 2.1 3.5.6.3.5 1 1 .9 1.4-.3 1.8-2.6 2.3-4.1.9-1-.9-1.9-2-2.8-2.9v-.6zm30.6-33.9c2.3.3 4.2 2.3 3.9 3.9-.1.5-.6 1.3-1.1 1.4-.4.1-1.4-.3-1.6-.7-.4-1.5-.7-3-1.2-4.6zM136.2 149c-.8-.3-1.8-.5-2.7-1-.3-.2-.4-.8-.7-1.2.4-.2.8-.5 1.3-.5 1.3 0 2.5 0 3.8.1.5 0 1 .3 1.5.5-.3.5-.5 1.2-1 1.5-.5.3-1.3.3-2.2.6zm29.5-6c2.3-1 4.1-.8 6-.4.2.1.5.7.4 1-.1.3-.5.8-.8.8-1.8.2-3.6 0-5.6-1.4zm-40.9 8c1.5.8 3 1.5 4.3 2.3.4.2.5.7.8 1.1-.4.3-.7.7-1.2.8-2.2.3-4.2-2-3.9-4.2zm11.1 1.4c2.3-.9 4.2-1.6 6.1-2.3.2.2.4.3.5.5-.4.6-.7 1.4-1.2 1.8-1.5.9-3.1 1.4-5.4 0zm-38.3-1.8c.3-1 .3-1.7.7-2.2.3-.4 1-.5 1.5-.8.1.5.3 1 .3 1.5s-.1 1-.3 1.5c-.3.6-.7 1.2-1 1.8-.4-.6-.9-1.3-1.2-1.8zM11 85.7c0-.9-.2-1.9.1-2.7.4-1.2 1.4-1.9 2.9-1.5-.9 1.5-1.6 2.8-2.3 4.1-.3 0-.5.1-.7.1zm2 6.9c-1.5-2.4-.6-4.4 1-6.8-.4 2.6-.7 4.7-1 6.8zm.7-14.6c.2-1.2.3-2.3.6-3.5.1-.3.6-.5.9-.7.2.3.6.7.6 1-.3 1.2-.7 2.3-1.1 3.5-.4-.1-.7-.2-1-.3zm179.7 58.9c-.8-2.5.4-3.2 1.6-3.6.3-.1.8.3 1.3.5-.8.9-1.7 1.8-2.9 3.1zm4.6-15.5c1.2-.5 2.4-1 4-1.7-.5 2.3-1.5 2.7-4 1.7zM44.9 133.3c-.4.7-.8 1.5-1.4 1.9-.5.3-1.9.3-2 0-.6-1.1.3-1.1 1.2-1.3.6-.1 1-.7 1.5-1.1.2.2.5.4.7.5zm-4.7-1c-.4-.8-.8-1.4-.7-1.5.6-.8 1.3-1.4 1.9-2.1.3.3.9.9.8 1-.5.8-1.2 1.6-2 2.6zM12.9 94.6c.3 2 .6 3.9.8 5.9-.3 0-.5.1-.8.1-.3-2-.5-3.9-.8-5.9.3-.1.6-.1.8-.1zm85.8 49.8c.7-2 1.7-2 4.3 0h-4.3zm67.5 32.4c-2 .2-2.8 3.6-5.5 1.9-2.1 0-3.1 4.1-5.6 1.1-2.4.6-4.1 4.1-6.9 1.9-1 .4-2.7 1.4-3 1.2-1.3-1.3.2-2.3 1-3.3 1.1-1.4 2.3-2.6 3.8-4.2.4.9.6 1.5.9 2.1 1-.8 2.1-1.8 3.3-2.6 1.1-.7 2.4-2.5 3.4.1.6-.4.9-.8 1.4-1l2.4-.9c-.1.8-.1 1.6-.2 3.1 1.2-1.2 2.1-2.1 2.9-3.1 1-1.2 1.8-2.4 3-.8 2 0 2.5-3.9 5.2-1.3.9-.5 1.7-1.2 2.7-1.6 1-.4 2.2-.6 3.3-.9.2-.1.4-.1.6-.2l11.1-5.4c.6-.3 1.1-.7 1.8-.9.4-.1.9 0 1.3 0-.1.4-.1 1.1-.4 1.3-1 .8-2.1 1.6-3.2 2.3-2.8 1.8-5.3 4.1-8.4 5.1-2.5.8-4.4 3-7.5 2.7-1.4-.1-3 1.8-4.6 2.7-.9.4-1.9.4-2.8.7zM93.4 180c-3-.5-6.1-1-9.1-1.6v-.8c2.3.1 4.1-2.1 6.9-.8 1.2.6 2.9.1 4.4.2.6.1 1.2.5 1.9.6 3.1.8 6.3 1.7 9.4 2.4.9.2 1.8.1 2.7.1.6-.1 1.2-.4 2-.6-1.3 2.2-2.7 2.5-4.3 1.5-.3-.2-.8-.5-1.1-.4-2.9 1.1-5.6.6-8.3-.5-.6-.2-1.4.3-2.1.3-.7 0-1.4-.4-2.1-.6-.1.1-.2.1-.3.2zm29.9 1.8c1-1.1 2.1-2.2 3.2-3.4.6.7 1 1.1 1.5 1.6.1-.2.1-.4.2-.6 1 .2 2 .5 3 .6.7.1 1.4-.2 2.1-.3.5 0 1.2-.1 1.6.2.2.2 0 1 0 1.5 0 .3-.1.7-.2 1-.1.4-.3 1.1-.6 1.2-.5.1-1.4 0-1.5-.3-.6-1.2-1.4-.9-2.4-.7-.8.1-1.6-.3-2.4-.2-.6 0-1.3.2-1.9.5-1.3.6-2.2.5-2.6-1.1zm18-1.5c1-.9 1.9-1.8 3-2.5.3-.2.9-.2 1.3-.1.1 0 .3.7.2.9-1.4 1.8-2.7 3.6-4.3 5.2-.4.4-1.5.1-2.3.2.2-.7.4-1.5.7-2.2.1-.2.4-.4.6-.6.2-.3.5-.6.8-.9z"/><path class="st0" d="M141.3 180.3c-.3.3-.6.6-.8.9h-.2c-1-.1-2.1 2-2.8.3-.3-.6 1.1-2.1 1.9-3 .3-.4 1-.4 1.9-.8v2.6zm61.9-23.8c.6-3 2.6-5.6 5.1-5.7-1.7 2.3-3.2 4.2-4.6 6.1-.1-.1-.3-.3-.5-.4zm-79.8 25.3c-1.2.5-2.9 1.7-3.5 0-.6-1.5 1-2.5 2.5-2.9.1 0 .1 0 .4.1.2.8.3 1.8.6 2.8-.1 0 0 0 0 0zm72.7-19.3c-.9-1.1-1.5-1.8-1.5-1.8 1-.9 2-1.8 3.1-2.7.1-.1 1 .7.9.7-.6 1.3-1.4 2.4-2.5 3.8zM70 172.1c-2 2.1-3.7 2.2-6.5.5 1.9-.2 3.9-.3 6.5-.5zm-32.9-10.7c-.4-.8-.7-1.6-1.2-2.3-.5-.6-1.3-1.1-2-1.6 3-.8 4.6.4 4.2 3-.3.3-.6.6-1 .9zm41.2 16c2.3-.7 4.6-1.3 7.1-2.1-1.3 2-4.6 2.9-7.1 2.1zm41 1.8c-1 1-1.8 1.7-2.6 2.5-.3-.4-1-1.1-.9-1.1.7-.9 1.5-1.6 2.3-2.3 0-.1.6.4 1.2.9zM68.7 174c1.8-.3 3.5-.6 5.3-.9.1.4.1.8.2 1.2-1.8.3-3.5.5-5.3.8-.1-.4-.2-.8-.2-1.1zm11.4 1.7l-6 1.8c-.1-.2-.2-.5-.2-.7 2-.7 3.9-1.4 5.9-2.1 0 .3.2.7.3 1zm77.1-50c1.1-1.7 2.9-2.3 5.3-1.3-2 .8-3.5 1.3-5 1.9l-.3-.6zm-5.5 1.5c-1.8.4-3.7.9-5.5 1.3-.1-.3-.2-.6-.2-.9 1.8-.5 3.7-1 5.5-1.5.1.4.1.8.2 1.1zm15.8-6.4c1.3-.4 2.6-.8 4.1-1.3-.6 2.1-1.7 2.5-4.1 1.3zm14.4-3.8c-1.1.4-2.2.8-3.2 1.2-.1-.3-.3-.7-.4-1 1-.5 2.1-.9 3.1-1.4.1.3.3.7.5 1.2zM44 147c.4.2.8.3 1.2.5 4.3 1.8 8.6 3.5 12.9 5.4 1.1.5 2.1 1.3 3.2 2 .3.2.8.5.9.4 2.1-1.9 4.4.1 5.1.9 3.7 4.2 8.8 4.1 13.3 4.7 30.4 4.1 60.7 4.9 90.6-4 13.1-3.9 25.1-9.9 35.9-18.3.7-.5 1.7-.6 2.5-.9-.4.8-.7 1.8-1.3 2.3-15 12-32.1 19.6-50.9 23.4-20.1 4-40.4 4.2-60.7 1.9-7.8-.9-15.5-2.2-23.1-3.6-2.9-.5-6-1.3-8.4-2.9-4.9-3.1-10.6-4.3-15.8-6.7-1.7-.8-3.3-1.8-4.9-2.9-.5-.3-.7-1.1-1.1-1.6.2-.3.4-.4.6-.6zm61.2-125.2c4.2-1.5 7.9-4.7 12.9-3.9-4.1 2-8.2 4-12.9 3.9zm8.9-.6c3.8-1.5 7.4-3.9 11.9-2.3-3.9 1.1-7.8 2.2-11.7 3.2 0-.3-.1-.6-.2-.9zm-3.5-3.2c-3.7 1.2-6.8 4-11 3.6 3.5-1.5 6.6-4.6 11-3.6zm22 2.9c-3.8.5-7.6 1.1-11.4 1.6 0-.3-.1-.6-.1-.9 3.7-1 7.4-2.3 11.3-1.6.1.3.2.6.2.9zm-4.8 1.2c3.2-.2 6.3-.5 9.5-.7-2.4 2.4-5.6 2.1-9.5 1.4v-.7zm68.4 26.1c.5 2.2 1.1 4.4 1.6 6.6-.3.1-.6.2-1 .2-1.5-2-.8-4.5-1.5-6.7.3 0 .6-.1.9-.1zm72.8 1.9c-.4.6-.6 1.4-1.1 1.6-1 .5-2.2.9-3.3 1-.7.1-1.4-.4-2.3-.7-.7 1.6-1.9 1.9-3.8.8-.3-.2-.8-.1-1.2-.1-1.4-.1-2.9 0-4.3-.3-1.8-.4-4.1-2.1-5.2-1.5-2.3 1.3-3-.6-4.4-1.1-2-.7-2.3-1.6-2-3.7.1-.5-.2-1-.3-1.5.8-.2 1.6-.4 2.5-.5 2 2.5 2 2.5 3.2.5 1.4.8 2.7 1.5 4.3 2.4 2.4-1.3 5.5-.4 8.4-.5.9 0 1.9-.3 2.9-.5 0 .4-.1.8-.1 1.3.7-.3 1.4-.7 2.3-1.1-.1.7-.1 1.2-.1 1.8 1.1-.8 2-1.6 3.4-2.6v2.3c1.2-1.3 2.2-2.3 3.6-3.8.1 1.1.1 1.6.1 2.1-.5.6-1 1.2-1.4 1.9-.5.7-.8 1.5-1.2 2.2z"/><path class="st0" d="M269 50.1c.4-.7.7-1.5 1.1-2.2.4-.7 1-1.2 1.4-1.9.6-.7 1.1-1.4 1.9-2.4.3.8.5 1.3.7 1.9.9-1.1 1.8-2.2 2.6-3.3.2.1.3.2.5.3-.4.9-.7 2.1-1.4 2.7-2.1 1.7-3.4 4.8-6.8 4.9z"/></svg>