<svg id="Layer_1" xmlns="http://www.w3.org/2000/svg" xmlns:xlink="http://www.w3.org/1999/xlink" viewBox="0 0 43.9 46.8"><defs><path id="SVGID_1_" d="M0 0h43.9v46.8H0z"/></defs><clipPath id="SVGID_2_"><use xlink:href="#SVGID_1_" overflow="visible"/></clipPath><path d="M43.3 41.8L32.5 30.5c2.8-3.3 4.3-7.5 4.3-11.8C36.8 8.6 28.5.3 18.4.3 8.3.3 0 8.5 0 18.7c0 10.1 8.3 18.4 18.4 18.4 3.8 0 7.4-1.1 10.5-3.3l10.9 11.4c.5.5 1.1.7 1.7.7.6 0 1.2-.2 1.7-.7 1-.9 1-2.5.1-3.4zM18.4 5.1c7.5 0 13.6 6.1 13.6 13.6s-6.1 13.6-13.6 13.6S4.8 26.2 4.8 18.7 10.9 5.1 18.4 5.1zm0 0" clip-path="url(#SVGID_2_)" fill="#fff"/></svg>