<?xml version="1.0" encoding="utf-8"?>
<!-- Generator: Adobe Illustrator 19.0.0, SVG Export Plug-In . SVG Version: 6.00 Build 0)  -->
<svg version="1.1" id="Layer_1" xmlns="http://www.w3.org/2000/svg" xmlns:xlink="http://www.w3.org/1999/xlink" x="0px" y="0px"
	 viewBox="-413 245 68 46.6" style="enable-background:new -413 245 68 46.6;" xml:space="preserve">
<style type="text/css">
	.st0{fill:#FFFFFF;}
</style>
<g>
	<path class="st0" d="M-365.9,252c-1.3,0-2.6,0.1-3.8,0.3c-0.1,0-0.2,0.1-0.2,0.2c0,0.1,0,0.2,0,0.3c1.4,2.4,2.3,5.2,2.3,8
		c0,7.4-5.5,14-13.5,17.1c-0.1,0-0.2,0.1-0.2,0.2c0,0.1,0,0.2,0.1,0.3c3.3,2.7,7.9,4.5,13,4.9c0.1,0,0.2,0.1,0.2,0.1
		c0.1,0.1,0.1,0.2,0.1,0.3c-0.3,3.1-1,6-1.3,7.5c0,0.1,0,0.3,0.2,0.4c0.1,0.1,0.3,0.1,0.4,0c4.5-3.5,7.5-6.9,8.8-8.7
		c0.1-0.1,0.2-0.2,0.3-0.2c8.4-2,14.5-8,14.5-15C-345,259-354.4,252-365.9,252z"/>
	<path class="st0" d="M-371.1,260.7c0-8.7-9.4-15.7-20.9-15.7c-11.6,0-20.9,7-20.9,15.7c0,7,6.1,12.9,14.5,15c0.1,0,0.2,0.1,0.3,0.2
		c1.4,1.7,4.3,5.2,8.8,8.7c0.1,0.1,0.3,0.1,0.4,0c0.1-0.1,0.2-0.2,0.2-0.4c-0.3-1.5-1-4.4-1.3-7.5c0-0.1,0-0.2,0.1-0.3
		c0.1-0.1,0.1-0.1,0.2-0.1C-379.3,275.4-371.1,268.8-371.1,260.7z"/>
</g>
</svg>
