<?xml version="1.0" encoding="utf-8"?>
<!-- Generator: Adobe Illustrator 19.0.0, SVG Export Plug-In . SVG Version: 6.00 Build 0)  -->
<svg version="1.1" id="Layer_1" xmlns="http://www.w3.org/2000/svg" xmlns:xlink="http://www.w3.org/1999/xlink" x="0px" y="0px"
	 viewBox="0 0 306 79.7" style="enable-background:new 0 0 306 79.7;" xml:space="preserve">
<style type="text/css">
	.st0{fill:#303030;}
	.st1{fill:#4A4A4A;stroke:#4A4A4A;stroke-miterlimit:10;}
	.st2{fill:#4A4A4A;}
</style>
<g>
	<g>
		<g>
			<g id="XMLID_305_">
				<path id="XMLID_340_" class="st0" d="M47.5,58.7V58c1.3,0.1,2.3,0.1,3,0.1c0.8,0,1.6,0,2.5-0.1c0.3,0.8,0.6,1.4,0.8,1.9
					c0.3,0.6,1.3,2.8,3.1,6.6c0.8,1.6,1.5,3.2,2.3,4.7l5-10.5c0.3-0.6,0.7-1.5,1.1-2.7c1,0.1,1.8,0.1,2.4,0.1c0.5,0,1.4,0,2.6-0.1
					v0.7c-0.2,0.1-0.4,0.1-0.5,0.1c-1.1,0.2-1.7,0.4-1.8,0.5c-0.2,0.2-0.3,0.6-0.3,1.2v0.2l0,3.7c0,4.7,0,7.5,0.1,8.5
					c0,0.2,0.1,0.4,0.2,0.5s0.8,0.3,2,0.5c0.1,0,0.3,0.1,0.5,0.1v0.7c-1.4-0.1-2.6-0.1-3.7-0.1c-1.1,0-2.4,0-3.9,0.1v-0.7
					c0.3-0.1,0.5-0.1,0.7-0.2c1-0.2,1.5-0.3,1.6-0.4s0.2-0.2,0.3-0.3c0.1-0.2,0.1-0.9,0.1-1.9V60.9c-0.7,1.4-2.3,4.8-4.8,10.2
					c-0.7,1.5-1.2,2.6-1.5,3.4h-0.7c-1.7-3.9-3.9-8.4-6.4-13.5L52,71.8c0,0.9,0.1,1.4,0.2,1.5s0.7,0.3,1.8,0.5
					c0.1,0,0.3,0.1,0.5,0.1v0.7c-1.4-0.1-2.4-0.1-3.3-0.1s-1.9,0-3.3,0.1v-0.7c0.2-0.1,0.4-0.1,0.5-0.1c1-0.2,1.6-0.4,1.7-0.5
					c0.2-0.2,0.3-0.8,0.3-1.6l0.1-2.6c0-2.4,0.1-4.7,0.1-7l0-1.4c0-0.6,0-0.9-0.1-1.1s-0.2-0.2-0.3-0.3c-0.3-0.1-1-0.3-2-0.4
					C48,58.8,47.8,58.7,47.5,58.7z"/>
				<path id="XMLID_338_" class="st0" d="M71.7,64v-0.7c1.2,0.1,2.1,0.1,2.6,0.1c0.4,0,1.3,0,2.6-0.1V64c-0.7,0.1-1.1,0.2-1.3,0.4
					c-0.1,0.1-0.2,0.2-0.2,0.3c0,0.2,0.1,0.5,0.4,1.2c0.8,2.1,1.7,4,2.5,5.6l1.2-3.5c0.7-1.9,1-2.9,1-3.2c0-0.1,0-0.3-0.1-0.3
					c-0.1-0.1-0.3-0.2-0.6-0.3c-0.1,0-0.2-0.1-0.3-0.1v-0.7c1,0.1,1.7,0.1,2.1,0.1c0.5,0,1.1,0,1.8-0.1V64c-0.6,0.1-1,0.3-1.2,0.6
					c-0.2,0.2-0.6,1.1-1.2,2.7l-2.3,6.1c-0.7,1.9-1.2,3.1-1.5,3.8c-0.4,0.8-1,1.4-1.5,1.8s-1.1,0.6-1.6,0.6c-0.3,0-0.6,0-1.1-0.1
					c-0.1-0.5-0.2-0.8-0.3-1s-0.2-0.5-0.5-1l0.4-0.3c0.6,0.5,1.2,0.8,1.8,0.8c0.6,0,1-0.2,1.4-0.6c0.6-0.6,1-1.6,1.5-3L75.1,69
					c-0.7-1.7-1.3-3-1.9-3.9c-0.2-0.3-0.3-0.5-0.4-0.6C72.6,64.3,72.2,64.2,71.7,64z"/>
				<path id="XMLID_335_" class="st0" d="M92,58.7V58c1,0.1,2.3,0.1,3.9,0.1l4.6,0c1.7,0,3,0.4,3.8,1.1c0.8,0.7,1.2,1.7,1.2,3
					c0,1.5-0.5,2.7-1.6,3.7s-2.5,1.5-4.4,1.5c-0.7,0-1.6-0.1-2.6-0.3c0,1.2,0,2.1,0,2.6c0,2,0,3.1,0.1,3.5c0,0.1,0.1,0.2,0.2,0.3
					c0.2,0.1,1,0.3,2.2,0.5c0.1,0,0.3,0,0.5,0.1v0.7c-1.5-0.1-2.9-0.1-4.2-0.1c-1.2,0-2.5,0-3.8,0.1v-0.7c0.3-0.1,0.5-0.1,0.7-0.2
					c1-0.2,1.6-0.4,1.7-0.5c0.2-0.2,0.3-0.6,0.3-1.4l0-5.7l0-5.7v-0.3c0-0.5-0.1-0.8-0.2-1s-0.8-0.3-1.9-0.6
					C92.5,58.8,92.3,58.7,92,58.7z M97,66c0.8,0.2,1.5,0.3,2.1,0.3c1.3,0,2.3-0.3,3-1s1-1.6,1-2.7c0-1.1-0.3-1.9-1-2.5
					s-1.6-0.9-3-0.9c-0.6,0-1.3,0.1-2.1,0.2C97,61.7,97,63.9,97,66z"/>
				<path id="XMLID_332_" class="st0" d="M109,66.6l-0.8-0.1c0.2-0.8,0.3-1.6,0.3-2.4c1.5-0.7,2.9-1,4.1-1c0.5,0,1,0.1,1.4,0.2
					c0.4,0.2,0.8,0.4,1,0.6s0.4,0.6,0.6,1c0.1,0.4,0.2,1,0.2,1.8l-0.1,4.8c0,0.7,0.1,1.1,0.2,1.3s0.3,0.3,0.6,0.3
					c0.3,0,0.7-0.2,1.3-0.6l0.4,0.5c-1.1,1-1.7,1.5-1.8,1.6c-0.2,0.1-0.5,0.2-0.8,0.2c-0.5,0-0.9-0.1-1.2-0.4s-0.5-0.7-0.6-1.3
					c-0.9,0.7-1.6,1.2-2.1,1.4s-0.9,0.3-1.5,0.3c-0.9,0-1.6-0.3-2.1-0.8s-0.8-1.2-0.8-2c0-0.5,0.1-1,0.3-1.4s0.5-0.8,0.8-1.1
					c0.3-0.2,0.7-0.5,1.4-0.8c1.5-0.7,2.9-1.3,4-1.8c0-1.1-0.2-1.8-0.5-2.2c-0.3-0.4-0.8-0.5-1.5-0.5c-0.6,0-1.2,0.2-1.6,0.6
					S109.4,65.8,109,66.6z M113.9,67.9c-2,0.9-3.3,1.6-3.7,2s-0.6,0.9-0.6,1.5s0.2,1.1,0.5,1.4s0.7,0.5,1.1,0.5
					c0.4,0,0.9-0.1,1.4-0.4s0.9-0.6,1-1s0.3-1,0.3-2V67.9z"/>
				<path id="XMLID_330_" class="st0" d="M127,66.3l-0.8-0.1c-0.1-0.7-0.3-1.2-0.7-1.6s-1-0.6-1.6-0.6c-0.6,0-1,0.2-1.3,0.5
					s-0.5,0.6-0.5,1c0,0.3,0.1,0.7,0.4,1c0.4,0.4,1.1,0.9,2.3,1.5s2,1.1,2.4,1.7c0.4,0.5,0.6,1.1,0.6,1.8c0,1-0.4,1.8-1.1,2.5
					s-1.8,1-3.1,1c-1,0-2-0.2-3.2-0.6c0.1-1.1,0.2-2.1,0.2-3h0.8c0.2,0.9,0.6,1.6,1,2s1,0.6,1.7,0.6c0.6,0,1.1-0.2,1.4-0.5
					s0.5-0.7,0.5-1.2c0-0.5-0.2-0.9-0.5-1.3c-0.3-0.4-1.1-0.9-2.2-1.5s-1.9-1.1-2.3-1.6c-0.4-0.5-0.6-1-0.6-1.6
					c0-0.8,0.4-1.6,1.1-2.3s1.8-1,3-1c0.9,0,1.8,0.2,2.9,0.6C127.2,64.2,127.1,65.1,127,66.3z"/>
				<path id="XMLID_328_" class="st0" d="M137,66.3l-0.8-0.1c-0.1-0.7-0.3-1.2-0.7-1.6s-1-0.6-1.6-0.6c-0.6,0-1,0.2-1.3,0.5
					s-0.5,0.6-0.5,1c0,0.3,0.1,0.7,0.4,1c0.4,0.4,1.1,0.9,2.3,1.5s2,1.1,2.4,1.7c0.4,0.5,0.6,1.1,0.6,1.8c0,1-0.4,1.8-1.1,2.5
					s-1.8,1-3.1,1c-1,0-2-0.2-3.2-0.6c0.1-1.1,0.2-2.1,0.2-3h0.8c0.2,0.9,0.6,1.6,1,2s1,0.6,1.7,0.6c0.6,0,1.1-0.2,1.4-0.5
					s0.5-0.7,0.5-1.2c0-0.5-0.2-0.9-0.5-1.3c-0.3-0.4-1.1-0.9-2.2-1.5s-1.9-1.1-2.3-1.6c-0.4-0.5-0.6-1-0.6-1.6
					c0-0.8,0.4-1.6,1.1-2.3s1.8-1,3-1c0.9,0,1.8,0.2,2.9,0.6C137.3,64.2,137.1,65.1,137,66.3z"/>
				<path id="XMLID_325_" class="st0" d="M140,65.1v-0.7c1.3-0.3,2.5-0.8,3.7-1.5l0.3,0.2c-0.2,1.7-0.2,4-0.2,7c0,1.4,0,2.3,0.1,2.6
					c0,0.2,0.1,0.4,0.2,0.5s0.5,0.2,1.2,0.5c0.1,0,0.2,0.1,0.4,0.1v0.7c-1-0.1-1.9-0.1-2.5-0.1c-0.4,0-1.5,0-3.2,0.1v-0.7
					c1.1-0.3,1.6-0.5,1.8-0.7s0.2-1.3,0.2-3.4l0-2.5v-0.5c0-0.9-0.1-1.4-0.2-1.6s-0.3-0.3-0.6-0.3C141.1,65,140.7,65.1,140,65.1z
					 M143,57.3c0.3,0,0.6,0.1,0.9,0.4s0.4,0.5,0.4,0.9c0,0.3-0.1,0.6-0.4,0.9s-0.5,0.4-0.9,0.4c-0.3,0-0.6-0.1-0.9-0.4
					s-0.4-0.5-0.4-0.9c0-0.3,0.1-0.6,0.4-0.9S142.6,57.3,143,57.3z"/>
				<path id="XMLID_322_" class="st0" d="M147.9,69.1c0-1.9,0.5-3.4,1.6-4.5c1.1-1.1,2.5-1.7,4.2-1.7c1.7,0,3,0.5,3.9,1.5
					c1,1,1.4,2.4,1.4,4.2c0,1.9-0.5,3.4-1.6,4.6c-1.1,1.1-2.5,1.7-4.2,1.7c-1.7,0-3-0.5-3.9-1.5S147.9,71,147.9,69.1z M150.1,68.1
					c0,1.3,0.1,2.2,0.2,2.8c0.3,1,0.7,1.7,1.2,2.2s1.2,0.7,2,0.7c1,0,1.8-0.4,2.4-1.1c0.6-0.7,0.9-1.9,0.9-3.5c0-1.8-0.4-3.2-1.1-4
					c-0.7-0.9-1.5-1.3-2.5-1.3c-0.9,0-1.7,0.3-2.3,1S150.1,66.7,150.1,68.1z"/>
				<path id="XMLID_320_" class="st0" d="M161.1,65.3v-0.7c1.4-0.3,2.7-0.8,3.8-1.5l0.3,0.2c-0.1,0.7-0.2,1.3-0.2,2.1l1.5-1.5
					c0.3-0.2,0.5-0.4,0.9-0.5c0.5-0.2,0.9-0.3,1.4-0.3c1.1,0,2,0.4,2.5,1.1c0.4,0.5,0.6,1.3,0.6,2.5l0,2.8c0,1.9,0,3,0.1,3.4
					c0,0.2,0.1,0.4,0.2,0.5s0.5,0.2,1.1,0.4c0.1,0,0.3,0.1,0.5,0.1v0.7c-0.9-0.1-1.7-0.1-2.5-0.1c-0.6,0-1.7,0-3.2,0.1v-0.7
					c0.9-0.3,1.4-0.4,1.5-0.5s0.2-0.2,0.2-0.5c0.1-0.8,0.1-2,0.1-3.6c0-1.7,0-2.7-0.1-3.1c-0.1-0.5-0.3-0.9-0.7-1.2
					s-0.8-0.4-1.3-0.4c-0.5,0-1,0.2-1.5,0.5s-0.9,0.7-1.1,1.2s-0.4,1.3-0.4,2.3c0,2.8,0.1,4.3,0.2,4.6s0.6,0.4,1.4,0.7
					c0.1,0,0.3,0.1,0.4,0.1v0.7c-1-0.1-1.9-0.1-2.6-0.1c-0.7,0-1.7,0-3.1,0.1v-0.7c0.9-0.2,1.5-0.4,1.6-0.5c0.1-0.1,0.1-0.2,0.2-0.5
					c0.1-0.7,0.1-1.8,0.1-3c0-2.6,0-4.1-0.1-4.3c-0.1-0.3-0.3-0.5-0.7-0.5c-0.2,0-0.4,0-0.8,0.1C161.5,65.2,161.3,65.2,161.1,65.3z"
					/>
				<path id="XMLID_318_" class="st0" d="M197.8,71.7l0.5,0.9c-1.3,0.8-2.5,1.4-3.6,1.7c-1.2,0.4-2.3,0.6-3.6,0.6
					c-1.6,0-3-0.4-4.3-1.1s-2.2-1.7-2.9-3s-1-2.8-1-4.4c0-2.6,0.8-4.7,2.5-6.4c1.7-1.7,3.9-2.5,6.7-2.5c1.7,0,3.6,0.4,5.7,1.1
					c0,0.7,0,1.2,0,1.5c0,1,0.1,2.1,0.2,3.2h-1c-0.3-1.4-0.6-2.3-0.9-2.8s-0.9-0.9-1.6-1.2c-0.7-0.3-1.6-0.5-2.7-0.5
					c-2.3,0-4,0.8-5.1,2.4c-0.9,1.3-1.3,2.8-1.3,4.7c0,2.3,0.6,4.1,1.9,5.4s2.9,2,4.9,2c0.9,0,1.7-0.1,2.6-0.3
					C195.7,72.8,196.7,72.3,197.8,71.7z"/>
				<path id="XMLID_315_" class="st0" d="M200.9,69.1c0-1.9,0.5-3.4,1.6-4.5c1.1-1.1,2.5-1.7,4.2-1.7c1.7,0,3,0.5,3.9,1.5
					c1,1,1.4,2.4,1.4,4.2c0,1.9-0.5,3.4-1.6,4.6c-1.1,1.1-2.5,1.7-4.2,1.7c-1.7,0-3-0.5-3.9-1.5S200.9,71,200.9,69.1z M203.1,68.1
					c0,1.3,0.1,2.2,0.2,2.8c0.3,1,0.7,1.7,1.2,2.2s1.2,0.7,2,0.7c1,0,1.8-0.4,2.4-1.1c0.6-0.7,0.9-1.9,0.9-3.5c0-1.8-0.4-3.2-1.1-4
					c-0.7-0.9-1.5-1.3-2.5-1.3c-0.9,0-1.7,0.3-2.3,1S203.1,66.7,203.1,68.1z"/>
				<path id="XMLID_313_" class="st0" d="M214.2,65.3v-0.7c1.5-0.4,2.7-0.9,3.7-1.5l0.3,0.2c-0.1,0.8-0.2,1.6-0.2,2.5
					c0.9-1.2,1.6-1.9,2-2.1s0.8-0.4,1.3-0.4c0.3,0,0.7,0.1,1.1,0.2c-0.2,0.8-0.3,1.6-0.4,2.4h-0.6c-0.1-0.4-0.2-0.6-0.4-0.8
					s-0.3-0.3-0.6-0.3c-0.3,0-0.6,0.1-1,0.4c-0.5,0.4-0.9,0.9-1.2,1.5c-0.2,0.6-0.4,1.3-0.4,2.4c0,1.8,0.1,3,0.2,3.7
					c0,0.2,0.1,0.4,0.3,0.5c0.2,0.1,0.7,0.3,1.7,0.5v0.7c-1-0.1-1.9-0.1-2.7-0.1c-0.7,0-1.8,0-3.3,0.1v-0.7c1.1-0.3,1.7-0.5,1.8-0.6
					s0.2-0.5,0.2-1.2l0-2.5c0-2.5,0-3.8-0.1-4c-0.1-0.3-0.3-0.5-0.7-0.5c-0.2,0-0.5,0-1,0.1C214.4,65.2,214.3,65.3,214.2,65.3z"/>
				<path id="XMLID_311_" class="st0" d="M224.2,65.3v-0.7c1.4-0.3,2.7-0.8,3.8-1.5l0.3,0.2c-0.1,0.7-0.2,1.3-0.2,2.1l1.5-1.5
					c0.3-0.2,0.5-0.4,0.9-0.5c0.5-0.2,0.9-0.3,1.4-0.3c1.1,0,2,0.4,2.5,1.1c0.4,0.5,0.6,1.3,0.6,2.5l0,2.8c0,1.9,0,3,0.1,3.4
					c0,0.2,0.1,0.4,0.2,0.5s0.5,0.2,1.1,0.4c0.1,0,0.3,0.1,0.5,0.1v0.7c-0.9-0.1-1.7-0.1-2.5-0.1c-0.6,0-1.7,0-3.2,0.1v-0.7
					c0.9-0.3,1.4-0.4,1.5-0.5s0.2-0.2,0.2-0.5c0.1-0.8,0.1-2,0.1-3.6c0-1.7,0-2.7-0.1-3.1c-0.1-0.5-0.3-0.9-0.7-1.2
					s-0.8-0.4-1.3-0.4c-0.5,0-1,0.2-1.5,0.5s-0.9,0.7-1.1,1.2s-0.4,1.3-0.4,2.3c0,2.8,0.1,4.3,0.2,4.6s0.6,0.4,1.4,0.7
					c0.1,0,0.3,0.1,0.4,0.1v0.7c-1-0.1-1.9-0.1-2.6-0.1c-0.7,0-1.7,0-3.1,0.1v-0.7c0.9-0.2,1.5-0.4,1.6-0.5c0.1-0.1,0.1-0.2,0.2-0.5
					c0.1-0.7,0.1-1.8,0.1-3c0-2.6,0-4.1-0.1-4.3c-0.1-0.3-0.3-0.5-0.7-0.5c-0.2,0-0.4,0-0.8,0.1C224.5,65.2,224.4,65.2,224.2,65.3z"
					/>
				<path id="XMLID_308_" class="st0" d="M247.8,71.8l0.4,0.7l-2.3,1.7c-0.3,0.2-0.7,0.4-1,0.5c-0.5,0.1-1,0.2-1.5,0.2
					c-1.3,0-2.4-0.5-3.3-1.5c-0.9-1-1.4-2.4-1.4-4.1c0-1.9,0.5-3.4,1.6-4.5c1.1-1.1,2.4-1.7,4-1.7c1.2,0,2.1,0.3,2.8,1
					c0.7,0.7,1,1.7,1,3.1c-0.3,0.2-0.6,0.4-0.9,0.7c-0.6,0-0.9,0-1,0c-2.1,0-3.9,0-5.4,0.1c0,1.8,0.3,3.1,0.9,4
					c0.6,0.9,1.4,1.4,2.4,1.4c0.5,0,1-0.1,1.6-0.3S247,72.3,247.8,71.8z M246.1,66.6c0-0.8-0.2-1.4-0.5-1.8c-0.4-0.6-1-0.9-1.8-0.9
					c-0.6,0-1.2,0.2-1.7,0.7c-0.5,0.4-0.9,1.2-1.1,2.2c0.3,0,0.5,0,0.7,0C242.9,66.9,244.4,66.8,246.1,66.6z"/>
				<path id="XMLID_306_" class="st0" d="M250.1,65.3v-0.7c1.5-0.4,2.7-0.9,3.7-1.5l0.3,0.2c-0.1,0.8-0.2,1.6-0.2,2.5
					c0.9-1.2,1.6-1.9,2-2.1c0.4-0.3,0.8-0.4,1.3-0.4c0.3,0,0.7,0.1,1.1,0.2c-0.2,0.8-0.3,1.6-0.4,2.4h-0.6c-0.1-0.4-0.2-0.6-0.4-0.8
					s-0.3-0.3-0.6-0.3c-0.3,0-0.6,0.1-1,0.4c-0.5,0.4-0.9,0.9-1.2,1.5c-0.2,0.6-0.4,1.3-0.4,2.4c0,1.8,0.1,3,0.2,3.7
					c0,0.2,0.1,0.4,0.3,0.5c0.2,0.1,0.7,0.3,1.7,0.5v0.7c-1-0.1-1.9-0.1-2.7-0.1c-0.7,0-1.8,0-3.3,0.1v-0.7c1.1-0.3,1.7-0.5,1.8-0.6
					s0.2-0.5,0.2-1.2l0-2.5c0-2.5,0-3.8-0.1-4c-0.1-0.3-0.3-0.5-0.7-0.5c-0.2,0-0.5,0-1,0.1C250.4,65.2,250.3,65.3,250.1,65.3z"/>
			</g>
		</g>
		<rect x="9.4" y="65.5" class="st0" width="32" height="2.9"/>
		<rect x="266.4" y="65.5" class="st0" width="32" height="2.9"/>
	</g>
	<g>
		<g>
			<path class="st1" d="M56.1,8.5c-0.2,0.1-0.3,0.2-0.3,0.4c-0.2,1.5-0.4,2.8-0.7,4c-0.2,1.2-0.5,2.4-0.8,3.5
				c-0.3,1.1-0.6,2.2-1,3.3c-0.4,1.1-0.8,2.3-1.2,3.6c-0.6,1.4-1.2,2.7-1.9,4.2c-0.7,1.4-1.5,2.8-2.3,4c-0.8,1.3-1.7,2.4-2.6,3.3
				c-0.9,1-1.9,1.7-2.8,2.2c-1.4,0.7-2.7,1-4,0.9c-1.3-0.1-2.4-0.6-3.5-1.3c-1.1-0.7-2-1.7-2.9-2.8c-0.8-1.1-1.6-2.4-2.2-3.6
				c-1.3-2.6-2.4-5.2-3.3-7.8c-0.9-2.6-1.8-5.3-2.7-8.2c-0.1-0.3-0.3-0.6-0.6-0.9c-0.3-0.3-0.7-0.2-1,0.1c-0.4,0.7-0.8,1.7-1,3.2
				C21.2,18,21,19.5,20.9,21c-0.2,1.6-0.4,3.3-0.5,5.2c-0.2,1.8-0.4,3.6-0.7,5.4c-0.3,1.7-0.6,3.4-0.9,4.8c-0.3,1.5-0.7,2.7-1.1,3.6
				c-0.2,0.6-0.6,0.9-1.1,1c-0.6,0.1-1.1,0-1.7-0.5c-1.4-1.2-2.6-2.7-3.6-4.6c-1-1.9-1.8-3.8-2.5-5.6c-1.2-3.4-2.3-6.9-3.1-10.4
				c-0.9-3.5-1.6-7-2.1-10.5C3.3,8,3.1,6.6,2.9,5C2.8,3.4,2.7,2,2.7,0.9c0-0.2-0.1-0.3-0.2-0.4C2.4,0.4,2.2,0.3,2,0.3
				c-0.2,0-0.3,0-0.4,0.1C1.5,0.5,1.4,0.7,1.5,0.9c0,2.2,0.1,4.5,0.4,7c0.3,2.5,0.6,4.8,0.9,7.1c0.7,3.5,1.4,6.8,2.1,9.8
				c0.7,3,1.7,6,2.8,8.9c0.3,0.8,0.6,1.6,1,2.4c0.4,0.8,0.8,1.7,1.3,2.4c0.5,0.8,1,1.5,1.5,2.1c0.5,0.7,1.1,1.2,1.6,1.6
				c1.3,1,2.5,1.3,3.6,1c1.1-0.4,1.9-1.2,2.3-2.4c0.4-1,0.7-2.1,1-3.3c0.3-1.2,0.6-2.5,0.8-3.8c0.2-1.3,0.4-2.7,0.6-4.1
				c0.2-1.4,0.3-2.7,0.5-4c0.2-1.4,0.4-2.9,0.5-4.4c0.1-1.5,0.4-3.1,0.7-4.9c0.5,1.4,0.9,2.7,1.3,4c0.4,1.3,0.8,2.5,1.2,3.8
				c0.4,1.3,0.9,2.5,1.4,3.7c0.5,1.2,1.1,2.5,1.7,3.8c0.7,1.4,1.6,2.7,2.5,3.8c1,1.2,2.1,2.1,3.2,2.8c1.2,0.7,2.4,1.1,3.8,1.3
				c1.3,0.1,2.7-0.1,4.1-0.6c1.4-0.5,2.6-1.3,3.7-2.3c1-1,2-2.1,2.8-3.3c0.8-1.2,1.5-2.5,2.2-3.8s1.2-2.6,1.8-3.9
				c1.1-2.6,2-5.3,2.7-8.1c0.7-2.8,1-5.6,1-8.6C56.5,8.6,56.4,8.4,56.1,8.5z"/>
			<path class="st1" d="M68.8,27.4c-1-0.3-2.2-0.2-3.7,0.1c-1.3,0.3-2.5,0.7-3.6,1.4c-1.1,0.7-2.1,1.4-3,2.3
				c-0.8,0.9-1.5,1.8-2.1,2.7c-0.5,0.9-0.8,1.7-0.9,2.5c0,0.5,0.1,0.8,0.6,1.1c0.4,0.3,0.9,0.5,1.5,0.5c0.7,0.1,1.5,0.1,2.4-0.1
				c0.9-0.1,1.8-0.3,2.6-0.6c0.8-0.2,1.6-0.5,2.3-0.8c0.7-0.3,1.1-0.6,1.4-0.9c0,0.2,0,0.5,0.1,0.8c0.1,0.3,0.2,0.6,0.4,0.8
				c0.3,0.4,0.7,0.4,1,0.2c0.3-0.3,0.5-0.5,0.5-0.7c0-0.5,0-1-0.1-1.6c-0.1-0.6-0.1-1.2-0.2-1.7c-0.1-0.3-0.3-0.4-0.8-0.4
				c-0.4,0-0.9,0.3-1.4,0.9c-0.3,0.3-0.7,0.6-1.3,1c-0.6,0.3-1.3,0.6-2.1,0.9c-0.8,0.3-1.6,0.5-2.4,0.6c-0.8,0.1-1.5,0.1-2.1-0.2
				c-0.4-0.1-0.5-0.5-0.3-1.1c0.2-0.6,0.7-1.3,1.4-2c0.7-0.7,1.5-1.4,2.5-2.1c1-0.7,2-1.1,3.1-1.4c1.1-0.3,2.1-0.3,3-0.1
				c0.8,0.2,1.5,0.5,2.1,1c0.1,0.1,0.3,0.2,0.5,0.1c0.2-0.1,0.4-0.2,0.6-0.3c0.2-0.1,0.3-0.3,0.4-0.5c0.1-0.2,0.1-0.4,0-0.5
				C70.7,28.3,69.8,27.6,68.8,27.4z"/>
			<path class="st1" d="M141.6,35.8c-0.9-1.1-1.9-2.1-3.2-3c-1.3-0.9-2.8-1.7-4.5-2.2c-1.7-0.5-3.7-0.5-5.9-0.1
				c-1.1,0.2-2.2,0.5-3.4,1c-1.2,0.5-2.4,1.1-3.6,1.7c-1.2,0.7-2.3,1.4-3.3,2.1c-1,0.7-1.9,1.4-2.6,2.1c0-0.5,0.2-1.5,0.4-3
				c0.2-1.5,0.5-3.2,0.8-5.2c0.3-1.9,0.7-4,1-6.2c0.2-0.9,0.3-1.8,0.4-2.6c3.8-0.3,7.7-0.6,11.6-0.9c0.2,0,0.3-0.1,0.3-0.4
				c0-0.3-0.1-0.4-0.3-0.4c-3.8,0-7.6,0.1-11.3,0.4c0.1-0.7,0.2-1.4,0.3-2.1c0.3-1.9,0.6-3.6,0.8-5c0.2-1.4,0.4-2.3,0.4-2.7
				c0-0.3,0-0.5-0.3-0.5c-0.2-0.1-0.5-0.1-0.7,0c-0.3,0.1-0.6,0.2-0.8,0.5c-0.3,0.2-0.4,0.5-0.5,0.8c-0.1,0.6-0.2,1.6-0.4,3.1
				c-0.2,1.5-0.5,3.2-0.7,5.2c0,0.3-0.1,0.6-0.1,0.9c-1.7,0.1-3.3,0.3-5,0.5c-6.1,0.7-12.2,1.3-18.4,2c-2.3,0.2-4.5,0.4-6.6,0.6
				c-2.1,0.2-4.4,0.4-6.9,0.6c0.3-0.9,0.6-1.7,0.9-2.3c0.3-0.6,0.5-1.2,0.5-1.8c0-0.3,0-0.5-0.2-0.5c-0.2-0.1-0.4-0.1-0.7,0
				c-0.3,0.1-0.5,0.2-0.8,0.4c-0.3,0.2-0.4,0.4-0.4,0.7c-0.2,0.5-0.4,1-0.6,1.6c-0.2,0.6-0.4,1.3-0.6,2c-1.6,0.1-3,0.3-4.3,0.4
				c-1.3,0.1-2.6,0.2-3.8,0.3c-1.2,0.1-2.4,0.1-3.6,0.1c-1.2,0-2.4,0-3.8,0c-0.6,0-0.9,0.1-1,0.4c0,0.3,0.3,0.4,1,0.4
				c1.3,0.1,2.4,0.2,3.5,0.3s2.2,0.1,3.3,0c1.1,0,2.4-0.1,3.7-0.2c1.3-0.1,2.8-0.2,4.5-0.3c-0.1,0.5-0.3,0.9-0.4,1.4
				c-0.2,0.4-0.3,0.9-0.5,1.5c-0.2,0.5-0.4,1.1-0.6,1.8c-0.2,0.7-0.4,1.5-0.7,2.4c-0.3,0.8-0.5,1.6-0.7,2.5
				c-0.2,0.9-0.3,1.9-0.4,2.8c0,0.9,0.1,1.8,0.3,2.6c0.2,0.8,0.7,1.5,1.3,2c0.7,0.5,1.6,0.7,2.6,0.6c1-0.1,2.1-0.4,3.1-0.9
				c1-0.5,2-1,3-1.6c0.9-0.6,1.7-1.1,2.2-1.6c0.5-0.3,1.1-0.7,1.7-1.3c0.5-0.5,1.1-1,1.6-1.5c-0.3,0.7-0.4,1.4-0.3,2.1
				c0,0.7,0.3,1.3,0.8,1.8c0.3,0.4,0.8,0.7,1.4,1c0.6,0.3,1.3,0.5,2,0.7c0.7,0.2,1.4,0.3,2.1,0.3c0.7,0.1,1.3,0.1,1.7,0
				c0.9,0,1.8-0.1,2.5-0.3c0.7-0.1,1.4-0.3,2-0.5c0.6-0.2,1.3-0.5,1.9-0.8c0.7-0.3,1.4-0.7,2.2-1.1c0.1,0,0.2-0.1,0.2-0.3
				c0.1-0.1,0.1-0.3,0-0.4c0-0.1-0.1-0.3-0.2-0.3c-0.1-0.1-0.3-0.1-0.5,0c-2.2,0.8-4.2,1.4-6.1,1.8c-1.9,0.3-4,0.2-6.1-0.3
				c-1.4-0.5-2-1.3-2-2.4c0-1.1,0.6-2.2,1.7-3.3c0.9-0.9,2.2-1.6,3.8-2.2c1.6-0.6,3.3-1,5.2-1.2c1.9-0.2,4-0.1,6.1,0.1
				c2.1,0.3,4.2,0.8,6.2,1.6c-0.2,1.6-0.4,3-0.6,4.2c-0.2,1.5-0.3,2.5-0.4,3c-0.1,0.3,0,0.7,0.3,1.1c0.3,0.4,0.6,0.4,1.1,0.1
				c0.9-0.7,1.9-1.4,2.9-2.1c1.1-0.7,2.2-1.5,3.3-2.1c1.1-0.7,2.2-1.3,3.3-1.8c1.1-0.5,2.1-0.9,3-1.2c2.1-0.5,3.9-0.6,5.4-0.3
				c1.5,0.3,2.7,0.8,3.8,1.5c1,0.7,1.9,1.5,2.6,2.4c0.7,0.9,1.3,1.7,1.8,2.4c0.3,0.3,0.6,0.6,1,0.7c0.4,0.1,0.8,0.2,1.2,0.1
				c0.4,0,0.6-0.1,0.8-0.3c0.2-0.2,0.2-0.4,0-0.6C143.2,37.8,142.5,36.9,141.6,35.8z M102.4,27.8c-2,0.1-3.9,0.5-5.7,1.1
				c-1.2,0.5-2.4,1-3.3,1.7c-0.1-0.2-0.3-0.2-0.6,0c-1.5,1.3-3.1,2.6-4.9,3.9c-1.8,1.4-3.5,2.6-5.2,3.6c-0.3,0.2-0.8,0.4-1.2,0.7
				c-0.5,0.2-1,0.4-1.5,0.6c-0.5,0.2-1,0.3-1.4,0.3c-0.5,0.1-0.9,0.1-1.2,0c-0.7-0.2-1.2-0.6-1.4-1.3c-0.2-0.7-0.3-1.4-0.3-2.3
				c0.1-0.8,0.2-1.7,0.4-2.6c0.2-0.9,0.4-1.7,0.6-2.4c0.3-1,0.5-1.8,0.7-2.5c0.2-0.7,0.4-1.3,0.6-1.8c0.2-0.5,0.3-1,0.5-1.4
				c0.1-0.4,0.3-0.8,0.4-1.3c2.3-0.2,4.5-0.4,6.5-0.6c2-0.2,4.1-0.4,6.5-0.6c6.2-0.6,12.4-1.3,18.7-1.8c1.8-0.2,3.6-0.3,5.3-0.5
				c-0.2,1.3-0.4,2.6-0.6,3.9c-0.3,2-0.6,4-0.8,5.8c-1.9-0.9-3.8-1.6-5.7-2C106.5,27.8,104.4,27.6,102.4,27.8z"/>
			<path class="st1" d="M244.6,18.9c0.6,0.2,1.1,0.1,1.6-0.2c0.4-0.3,0.6-0.6,0.6-0.9c-0.1-0.5-0.3-0.8-0.6-0.9
				c-0.3-0.1-0.7-0.2-1.1-0.2c0-0.1,0-0.2-0.1-0.3c-0.1-0.2-0.3-0.3-0.4-0.3c-0.4,0-0.7,0.1-0.9,0.4c-0.2,0.3-0.3,0.5-0.3,0.9
				c0,0.3,0.1,0.6,0.3,0.9C244,18.6,244.3,18.8,244.6,18.9z"/>
			<path class="st1" d="M270.4,33.9c-0.2-0.8-0.3-1.5-0.4-2.3c-0.1-0.7-0.2-1.5-0.3-2.1c-0.1-0.7-0.2-1.3-0.4-1.9
				c-0.3-0.8-0.7-1.2-1.3-1.3c-0.6-0.1-1.4,0-2.2,0.4c-0.8,0.4-1.7,1-2.7,1.8c-1,0.8-1.9,1.6-2.8,2.5c-0.9,0.9-1.8,1.9-2.6,2.9
				c-0.8,1-1.5,1.9-2.1,2.7c0.1-1.4,0.2-2.6,0.2-3.6c0.1-1,0.1-1.9,0.2-2.8c0-0.3-0.1-0.5-0.2-0.6c-0.1-0.1-0.3-0.1-0.5-0.1
				c-0.2,0-0.4,0.1-0.5,0.3c-0.1,0.1-0.2,0.3-0.2,0.4c-0.1,0.4-0.1,0.7-0.1,1c-1.2,1.8-2.5,3.1-3.9,3.8c-1.5,0.8-3,1.1-4.4,1
				c-1.4-0.1-2.8-0.7-4-1.6c-1.3-0.9-2.3-2.1-3-3.6c-0.2-0.4-0.5-0.6-0.8-0.4c0,0,0,0-0.1,0c-0.1,0-0.2,0-0.3,0
				c-4,1.6-8.1,2.9-12.2,4.1c-4.1,1.2-8.5,2-13.3,2.6c-4.7,0.6-9.9,0.9-15.6,0.9c-5.6,0-12-0.4-19.2-1.2c2.5-2.5,4.7-5.4,6.7-8.4
				c1.9-3.1,3.7-6.2,5.2-9.3c1.5-3.1,2.8-6.1,3.9-9.1c1.1-2.9,2.1-5.6,3-7.9c0.1-0.2,0.1-0.4,0-0.4c-0.1-0.1-0.2-0.1-0.3-0.1
				c-0.1,0-0.3,0.1-0.5,0.3c-0.2,0.1-0.3,0.3-0.4,0.5c-1,2.1-2.1,4.7-3.3,7.6c-1.2,2.9-2.7,6-4.3,9.2c-1.7,3.2-3.5,6.3-5.6,9.5
				c-2.1,3.2-4.5,6-7.2,8.4c-0.4,0.2-0.5,0.4-0.3,0.7c0.1,0.3,0.4,0.4,0.8,0.4c2.9,0.4,6.1,0.8,9.5,1c3.4,0.2,7,0.3,10.7,0.3
				c3.7,0,7.4-0.1,11.2-0.4c3.8-0.3,7.5-0.7,11.2-1.4c3.7-0.6,7.2-1.5,10.6-2.5c3.3-1,6.4-2.2,9.2-3.6c0.1,0.4,0.3,0.8,0.5,1.3
				c0.7,1.4,1.7,2.5,3.1,3.5c1.3,1,2.8,1.5,4.4,1.6c1.6,0.1,3.3-0.3,5-1.1c1.2-0.6,2.3-1.6,3.4-2.8c0,0.2-0.1,0.4-0.1,0.5
				c-0.1,0.6-0.2,1.2-0.3,1.9c-0.1,0.6-0.2,1.4-0.3,2.2c-0.1,0.3,0,0.7,0.3,1.1c0.3,0.4,0.6,0.4,1.1,0.1c0.9-1.1,1.8-2.3,2.8-3.4
				c1-1.1,1.9-2.2,2.9-3.1c1-1,1.9-1.9,2.8-2.6c0.9-0.8,1.7-1.4,2.5-1.9c1.1-0.7,1.7-0.6,1.9,0.4c0.1,0.5,0.2,1.1,0.3,1.7
				c0.1,0.6,0.2,1.3,0.3,2c0.1,0.7,0.2,1.3,0.4,2c0.2,0.7,0.4,1.3,0.7,1.9c0,0.2,0.2,0.4,0.5,0.5c0.3,0.1,0.6,0.1,0.9,0.1
				c0.3,0,0.5-0.1,0.7-0.3c0.1-0.2,0.1-0.4,0-0.8C270.9,35.5,270.6,34.7,270.4,33.9z"/>
			<path class="st1" d="M306.4,42.1c-0.1-0.1-0.2-0.2-0.5-0.2c-1.9-0.4-3.9-0.9-5.9-1.4s-4.1-1.1-6.1-1.8c-2-0.7-3.9-1.5-5.8-2.5
				c-1.8-1-3.5-2.1-5-3.5c1.1-0.8,2.1-1.6,3.1-2.3c1-0.7,1.9-1.3,2.9-1.9c1-0.6,2-1.1,3-1.6c1-0.5,2.1-1,3.2-1.4
				c0.5-0.1,0.7-0.4,0.7-0.9c0-0.4-0.2-0.7-0.4-0.7c-2.5,1.1-4.9,2.3-7.2,3.6c-2.4,1.3-4.7,2.7-6.9,4c-0.3,0.2-0.5,0.5-0.7,0.8
				c-0.2,0.3-0.1,0.6,0.2,0.8c1.5,1.6,3.2,3,5.2,4.2c2,1.2,4,2.1,6.2,2.9c2.2,0.8,4.4,1.4,6.8,1.8c2.3,0.4,4.6,0.7,6.7,0.9
				c0.1,0,0.2-0.1,0.3-0.2c0.1-0.1,0.2-0.2,0.2-0.4C306.4,42.3,306.4,42.2,306.4,42.1z"/>
			<path class="st1" d="M279.4,36.5c0.5-1.9,1-3.9,1.6-6c0.6-2.1,1.3-4,2.1-5.6c0.6-1.1,1.1-2.2,1.6-3.1c0.5-0.9,1-1.8,1.6-2.6
				c0.6-0.8,1.2-1.6,1.9-2.4s1.5-1.6,2.5-2.4c0.2-0.1,0.2-0.2,0.2-0.5c0-0.2-0.3-0.3-0.7-0.1c-1.3,0.6-2.6,1.7-4,3.3
				c-1.4,1.7-2.7,3.6-3.9,5.9c-1.2,2.2-2.3,4.7-3.2,7.4c-0.9,2.7-1.6,5.3-1.9,7.9c0.6,0.3,1,0.5,1.4,0.4c0.4-0.1,0.7-0.2,1-0.4
				c0.2-0.2,0.4-0.4,0.4-0.7c0-0.3,0-0.4-0.1-0.4L279.4,36.5z"/>
		</g>
		<circle class="st2" cx="244.5" cy="16.7" r="3.3"/>
	</g>
</g>
</svg>
