<?xml version="1.0" encoding="utf-8"?>
<!-- Generator: Adobe Illustrator 19.0.0, SVG Export Plug-In . SVG Version: 6.00 Build 0)  -->
<svg version="1.1" id="Layer_1" xmlns="http://www.w3.org/2000/svg" xmlns:xlink="http://www.w3.org/1999/xlink" x="0px" y="0px"
	 viewBox="-411 239.4 64 57.2" style="enable-background:new -411 239.4 64 57.2;" xml:space="preserve">
<style type="text/css">
	.st0{fill:#FFFFFF;}
</style>
<g>
	<path class="st0" d="M-406.8,247.8h55.6c2.3,0,4.2-1.9,4.2-4.2c0-2.3-1.9-4.2-4.2-4.2h-55.6c-2.3,0-4.2,1.9-4.2,4.2
		C-411,245.9-409.1,247.8-406.8,247.8z"/>
	<path class="st0" d="M-406.8,272.2h39.6c2.3,0,4.2-1.9,4.2-4.2s-1.9-4.2-4.2-4.2h-39.6c-2.3,0-4.2,1.9-4.2,4.2
		S-409.1,272.2-406.8,272.2z"/>
	<path class="st0" d="M-351.2,288.2h-55.6c-2.3,0-4.2,1.9-4.2,4.2c0,2.3,1.9,4.2,4.2,4.2h55.6c2.3,0,4.2-1.9,4.2-4.2
		C-347,290.1-348.9,288.2-351.2,288.2z"/>
</g>
</svg>
