<?xml version="1.0" encoding="utf-8"?>
<!-- Generator: Adobe Illustrator 19.0.0, SVG Export Plug-In . SVG Version: 6.00 Build 0)  -->
<svg version="1.1" id="Layer_1" xmlns="http://www.w3.org/2000/svg" xmlns:xlink="http://www.w3.org/1999/xlink" x="0px" y="0px"
	 viewBox="-428.7 218.3 99.4 99.4" style="enable-background:new -428.7 218.3 99.4 99.4;" xml:space="preserve">
<style type="text/css">
	.st0{fill:#FFFFFF;}
</style>
<g>
	<path class="st0" d="M-379,218.3c-27.4,0-49.7,22.3-49.7,49.7s22.3,49.7,49.7,49.7c14.6,0,28.4-6.4,37.9-17.5c1-1.2,0.9-3-0.3-4
		c-1.2-1-3-0.9-4,0.3c-8.4,9.9-20.6,15.5-33.6,15.5c-24.3,0-44-19.8-44-44s19.8-44,44-44c24.3,0,44,19.8,44,44
		c0,5.1-0.8,10-2.5,14.7c-0.5,1.5,0.2,3.1,1.7,3.6c1.5,0.5,3.1-0.2,3.6-1.7c1.9-5.3,2.9-10.9,2.9-16.6
		C-329.3,240.6-351.6,218.3-379,218.3z"/>
	<circle class="st0" cx="-338.4" cy="291.4" r="2.8"/>
	<path class="st0" d="M-395,248.3c-4.3,4.3-6.6,9.9-6.6,16c0,6,2.4,11.7,6.6,16l14,14c0,0,0.1,0.1,0.1,0.1l0,0
		c0.5,0.5,1.2,0.7,1.9,0.7c0.7,0,1.5-0.3,2-0.8l14-14c8.8-8.8,8.8-23.2,0-32c-4.3-4.3-9.9-6.6-16-6.6
		C-385,241.7-390.7,244.1-395,248.3z M-367,276.3l-12,12l-12-12c-3.2-3.2-5-7.5-5-12c0-4.5,1.8-8.8,5-12c3.2-3.2,7.5-5,12-5
		c4.5,0,8.8,1.8,12,5C-360.4,259-360.4,269.7-367,276.3z"/>
	<path class="st0" d="M-387.5,264.3c0,4.7,3.8,8.5,8.5,8.5s8.5-3.8,8.5-8.5c0-4.7-3.8-8.5-8.5-8.5S-387.5,259.6-387.5,264.3z
		 M-376.2,264.3c0,1.6-1.3,2.8-2.8,2.8c-1.6,0-2.8-1.3-2.8-2.8c0-1.6,1.3-2.8,2.8-2.8C-377.4,261.5-376.2,262.8-376.2,264.3z"/>
</g>
</svg>
