<?xml version="1.0" encoding="utf-8"?>
<!-- Generator: Adobe Illustrator 19.0.0, SVG Export Plug-In . SVG Version: 6.00 Build 0)  -->
<svg version="1.1" id="Layer_1" xmlns="http://www.w3.org/2000/svg" xmlns:xlink="http://www.w3.org/1999/xlink" x="0px" y="0px"
	 viewBox="0 0 901 488.3" style="enable-background:new 0 0 901 488.3;" xml:space="preserve">
<style type="text/css">
	.st0{fill:#393837;}
</style>
<g>
	<path class="st0" d="M63.6,387.3c-4.2,4.3-9.7,4.3-15.1,3.4c-5.3-0.9-10.6-2.3-15.9-3.5c-1.1-0.2-2.2-0.6-3.2-0.3
		c-13.6,3.4-20.5-7.8-21.5-17.8c-0.7-6.2-0.5-12.5-1.5-18.7c-4.5-27.6-5.7-55.4-6.2-83.2c-0.3-13.6,0-27.3,1.8-40.7
		c1.2-8.5,2.3-16.6,1-25.1c-1.3-9.1,1.7-17.4,5.8-25.3c0.9-1.7,2.1-3.8,3.6-4.4c6.7-2.3,10.6-7.6,15.5-12.1c5.9-5.6,13.9-6.8,22-6.9
		c2.5-0.1,5-1.3,7.3-2.3c17.5-7.9,34.9-15.8,54.7-7.6c11.2-9.2,25.2-9.8,38.8-11.6c1.1-0.1,2.7-0.1,3.2,0.6c3.8,4.3,7.3,1,11.1,0.2
		c11.2-2.6,22.6-4.6,33.8-7.2c27.3-6.4,52.8-17.2,76.9-31.8c25.9-15.7,52.6-29.9,81.4-39.8c16.1-5.6,32.5-9.6,49.6-11.1
		c1.8-0.2,3.7-0.5,4.3-0.6c-0.8-3.8-2.3-7.2-2-10.4c0.8-7.6,2.4-15.1,3.8-22.6c0.8-4,4-5.9,7.6-6.4c5.8-1,11.7-1.5,17.6-1.8
		c5.3-0.3,10.6-0.1,15.9-0.2c13.3-0.2,19.7,7.2,17.9,20.5c-0.8,6.1-1.1,12.4-1.5,18c66.7,9.2,126.8,34.9,184.2,67.9
		c9.4,5.4,18.6,11.6,28.6,15.7c8.6,3.5,18.2,4.7,27.4,6.8c10.6,2.4,21.2,4.6,31.8,6.8c1,0.2,2.1-0.1,3.1-0.4
		c2.8-0.8,5.8-2.7,8.4-2.3c9,1.4,17.9,3.3,26.7,5.7c3.6,1,6.6,3.6,10.3,5.7c9.5-4.6,19.9-4.6,30-1.4c9,2.8,17.6,7.3,26.4,10.9
		c1.3,0.5,2.8,0.6,4.1,0.6c7.4-0.1,14.7,0.7,20.6,5.2c6.3,4.8,12.2,10.2,18.5,15.1c7.4,5.8,8.7,16,9,25.5c0.1,3.2-0.9,6.4-0.9,9.6
		c0,4.4,0.4,8.9,0.9,13.3c0.3,3.2,1.6,6.3,1.5,9.4c0,22.9-0.2,45.8-0.5,68.7c-0.2,10.2-0.7,20.5-1.6,30.7
		c-1.2,12.9-2.7,25.8-4.7,38.5c-0.7,4.4-2.8,8.7-5,12.7c-3.1,5.7-8.7,6.3-14.6,5.9c-2.3-0.2-4.6,0.4-6.9,0.7
		c-6.8,0.9-13.5,2.3-20.3,2.7c-2.9,0.2-5.9-1.6-9.4-2.7c-13.9,7.1-29.4,12.1-45.7,8c-9.4-2.4-17.2-0.3-25.7,1.7
		c-5.9,1.4-12.8,4.4-17.7,2.6c-13.2-4.9-24.9,0.8-37.2,2.6c-5.2,0.8-10.4,1.7-15.7,2.4c-19.3,2.7-36.9,10.5-54.1,18.7
		c-17.3,8.2-33.8,18.2-50.9,26.9c-48.8,24.6-100.3,37.7-155.2,35.5c-46.2-1.8-89.6-14.7-130.3-36.3c-17-9-33.3-19.2-50.2-28.3
		c-17.8-9.5-36-17.9-56.8-19.2c-10.9-0.7-21.6-4.2-32.5-6.4c-1.3-0.3-3-0.6-4,0c-6.3,3.9-12.9,3.4-19.5,1.9
		c-7.9-1.8-15.8-3.9-23.7-5.8c-0.8-0.2-1.8-0.1-2.6,0.1c-5.4,1.1-10.8,3.1-16.2,3.2C87.5,397.5,72.9,393.2,63.6,387.3z M171.6,375
		c0.5,4.9,0.7,8.7,1.4,12.4c0.3,1.3,1.6,3.1,2.8,3.4c7,1.7,14,3.1,21,4.3c6.1,1.1,12.5,1.3,18.5,2.7c20,4.6,38.4,13,55.8,24
		c31,19.7,63.8,35.2,99.2,45.4c67.3,19.5,132.6,15.3,196.1-14.7c25.6-12.1,50.9-24.9,76.8-36.4c15.6-6.9,31.8-12.5,48.2-17.4
		c10.4-3.1,21.6-4,32.5-5.6c3.8-0.5,5.6-2.5,5.6-5.9c0-7.3,0.2-14.8-0.9-22c-1.9-13-3.3-13.8-16.5-13.4c-0.3,0-0.6,0-1,0
		c-10.9-0.1-22.2,0.9-26.7-13.6c-0.8,3-1.2,5.1-2,7c-2,4.5-4,9-6.4,13.3c-0.6,1.1-2.8,1.3-5,2.2c1.8-3.9,3.5-6.2,3.9-8.7
		c2.5-13.5,5.8-27,6.7-40.7c1.3-19.8,1.3-39.7,1.1-59.6c-0.3-22.3-2.2-44.5-11-65.5c-0.9-2.2-1.2-4.6-1.6-7c-0.4-2.6-0.5-5.4,3-6.1
		c3.6-0.7,4.5,1.9,5.3,4.7c1.7,5.5,3.7,11,5.8,17.5c3-10,6.2-12.8,15.7-13.5c7.2-0.5,14.4-0.4,21.6-0.3c4.9,0.1,8.1-1.9,9-6.8
		c1.2-6.9,2.2-13.9,3.3-20.8c1.1-6.8-4.8-13.2-12.3-14c-21.5-2.4-42.8-6.1-61.4-18.6c-0.7-0.5-1.5-0.7-3-1.5c2.3,3.2,3.9,5.6,5.6,8
		c-0.5,0.4-0.9,0.8-1.4,1.2c-1.5-1.3-3-2.5-4.4-3.8c-5.2-4.7-9.7-10.7-15.7-13.8c-22.3-11.5-45.3-21.8-67.8-32.9
		c-37-18.2-75.8-29-117.3-29.7c-53.3-0.9-102.9,13.5-150,37.3c-17.1,8.6-33.2,19.4-50,28.6c-23.4,12.8-48.4,20.9-75.1,23.7
		c-9.6,1-13.4,5.1-12.7,14.8c0.4,6,1.5,12.1,2.7,18c1.6,7.6,3.2,8.6,10.8,8.6c7,0.1,14.1-0.2,21.1,0.5c7.4,0.7,13.8,3.4,14.5,12.7
		c2.5-5.9,4.6-11.7,6.4-17.5c0.8-2.6,1.9-4.5,4.9-4c3.1,0.5,3.7,2.9,3.1,5.5c-0.8,3.7-1.9,7.4-2.9,11.1c-2.4,9-5.7,17.8-6.9,26.9
		c-4.6,34.8-4.4,69.7-0.7,104.5c1.4,13.1,2.6,26.6,9.3,39c-1,0.1-2.1,0.6-2.6,0.2c-7.4-5.1-7.5-14-10.8-22.3
		c-2.5,12-11.4,13.1-20.4,13.7c-4.5,0.3-9-0.3-13.4-0.1c-2.3,0.1-4.5,1.2-6.7,1.8c0.1,0.4,0.1,0.9,0.2,1.3c2.6,1.5,5.2,3,7.9,4.5
		c-0.3,0.5-0.5,1.1-0.8,1.6c-1.9-0.5-3.9-0.8-5.6-1.6c-2.4-1.2-3.9-1.3-4,2c3,1.5,5.9,2.9,8.8,4.4c-0.1,0.4-0.2,0.7-0.4,1.1
		c-3-0.9-6-1.9-9.1-2.8c-1.8,4.6,2.6,3.6,4.1,5c1.7,1.6,3.5,3.1,5.2,4.6c-0.3,0.3-0.6,0.6-0.9,0.8c-3-1.4-5.9-2.8-9.3-4.4
		c-0.3,1.6-0.9,3-0.6,3.2c3.5,2.7,7.1,5.2,10.7,7.8c-0.1,0.2-0.2,0.4-0.3,0.5C179.6,378.5,176.3,377,171.6,375z M141.6,217.6
		c3.1-5.4-2.7-7.3-4.8-11.6c2.3,0.9,3.7,1.4,6.7,2.5c-1.7-3.7-2.9-6.2-4.2-8.9c1.2,0,2.2,0,3.3,0c-1-8.7-3.8-10.6-12.6-9.4
		c-8.2,1.1-16.5,2.2-24.8,2.6c-16.2,0.9-22.8,6.5-25,22.6c-0.6,4.3-0.5,8.6-0.6,12.9c-0.1,7,0.6,14.2-0.2,21.1
		c-2.6,23.3,1.2,46.3,3.1,69.4c0.9,10.3,5.2,15.7,15.4,16.6c13.2,1.1,26.5,0.4,39.8,0.5c2.1,0,4.3-0.4,6.9-0.6
		c-4.1-4-9.5-6.6-9.3-12.8c0.4-0.3,0.8-0.7,1.2-1c3,3.1,6,6.2,9,9.3c0.5-0.4,1.1-0.8,1.6-1.2c-1.7-2.6-3.2-5.4-5.2-7.8
		c-2.1-2.6-4.8-4.7-6.9-7.3c-0.9-1.1-1.1-2.8-1.6-4.3c0.4-0.3,0.9-0.5,1.3-0.8c2.9,3.2,5.8,6.4,9,9.9c1-8.9-5.8-13.3-9.7-19.2
		c0.4-0.4,0.8-0.9,1.2-1.3c2.2,1.2,4.4,2.4,6.1,3.3c3.7-8.5-4.9-12.5-8.3-18.7c0.4-0.3,0.9-0.6,1.3-1c1.9,1.2,3.9,2.3,5.9,3.5
		c1.1-4.1,0.1-6.8-3.3-9.2c-4.6-3.2-4.9-5-2.7-8.3c1.8,1.6,3.6,3.3,5.7,5.1c1.5-5.3-0.2-9-3.1-12.5c-1.1-1.3-1.2-3.3-1.8-4.9
		c0.4-0.1,0.9-0.2,1.3-0.4c1.2,0.8,2.4,1.7,3.6,2.5c3-6.8-4.1-9.9-5.3-16.2c2.5,1.3,4.2,2.2,5.8,3.1c0.5-0.2,0.9-0.5,1.4-0.7
		c-1.4-5.3-2.9-10.6-4.5-16.6c1.9,0.7,2.9,1.1,4,1.5c0.4-0.3,0.8-0.6,1.1-0.9c-1.6-4-3.2-7.9-5.3-13.1
		C139.7,216.7,140.7,217.2,141.6,217.6z M205.9,196.5c1.6-3.6,0.5-5.2-3-6.3c-13.4-4.4-26.8-3.7-40.3-1.2
		c-10.6,2-12.7,4.4-12.8,15.3c-0.1,9,0.2,18-0.5,26.9c-2.5,34.7-1,69.1,6.7,103.1c0.6,2.9,2.1,4.5,5.6,4.3
		c10.4-0.5,20.8-0.5,31.2-0.9c5-0.2,10-0.7,15.3-1.1c-3.5-5.5-8.7-9.1-10.1-15.1c0.5-0.5,1.1-0.9,1.6-1.4c3,2.9,6,5.9,9,8.8
		c2.2-4.2-2.4-5.4-4-7.8c-1.7-2.5-4.4-4.4-6.6-6.6c0.5-0.6,1.1-1.1,1.6-1.7c3.3,2.6,6.7,5.3,10,7.9c0.4-0.1,0.9-0.2,1.3-0.4
		c-0.7-2.5-1.1-5.1-2.2-7.4c-1.2-2.4-3.3-4.4-4.4-6.8c-1-2.1-1.3-4.5-1.8-6.8c0.5-0.1,0.9-0.2,1.4-0.3c2.3,3.5,4.6,7,7.1,10.9
		c3.4-8.7-5.9-12.6-6.2-19.4c0.4-0.4,0.8-0.7,1.2-1.1c1.3,2,2.7,4.1,4,6.1c0.5-0.4,1.1-0.8,1.6-1.2c-2.7-4.6-5.4-9.1-8.1-13.7
		c0.5-0.3,0.9-0.7,1.4-1c1.7,1.5,3.5,3.1,5.2,4.6c0.5-0.3,0.9-0.6,1.4-0.9c-2.7-6.3-5.4-12.6-8.4-19.7c2.6,1.5,4.4,2.6,6.4,3.7
		c1.2-4.6-1.4-6.8-4.4-9c-2.8-2-5.6-4.1-5-8.5c3.1,2.7,6,5.1,8.9,7.6c0.6-0.5,1.2-0.9,1.8-1.4c-1.5-2.7-2.5-5.8-4.5-8
		c-3.6-4.1-6.8-8.2-7.8-13.5c0.4-0.3,0.8-0.6,1.2-0.8c3.1,4,6.1,8.1,9.6,12.6c3.3-10.3-6.9-14.5-8.1-22.1c0.4-0.2,0.7-0.4,1.1-0.6
		c1.8,2.5,3.6,4.9,5.6,7.8c0.4-4.6-0.2-8.1-4.3-10.4c-2.1-1.2-4.7-2.7-3.5-6.4c2.4,1.7,4.4,3.3,6.5,4.8c0.5-0.3,1-0.7,1.5-1
		c-1.2-2.7-2.2-5.5-3.6-8.1c-1.5-2.7-3.3-5.2-5-7.8c0.4-0.3,0.8-0.7,1.2-1c1.8,1.5,3.6,3,5.4,4.6c0.4-0.4,0.9-0.7,1.3-1.1
		c-2.4-3.3-4.8-6.7-7.2-10c0.3-0.3,0.6-0.5,0.9-0.8C202.6,195,204.2,195.7,205.9,196.5z M761.6,272.7c-0.2,8.6,9.5,12.2,9.5,20.1
		c-0.4,0.3-0.8,0.6-1.2,0.9c-2.5-2.9-5-5.8-8-9.4c-2.4,9.4,7.8,12.6,8.6,19.7c-0.4,0.2-0.7,0.4-1.1,0.6c-2.6-2.8-5.3-5.6-8.1-8.6
		c-1.6,5.4-1.7,9.6,3.5,12.7c2.3,1.4,3.6,4.4,5.1,6.9c0.4,0.8-0.3,2.2-0.5,3.3c-1-0.5-2.3-0.8-3-1.5c-2.1-2.4-4-5-6.6-8.3
		c-1.4,6.1-2.7,10.4,3,14.1c2.8,1.8,4.2,6,6.2,9.1c-0.5,0.4-0.9,0.8-1.4,1.2c-5.4-0.1-4.9-8-10-8.6c-2,6.3,0.5,12.5,5.8,12.6
		c13.4,0.4,26.9,0.7,40.3-0.1c10.2-0.7,14.9-6.4,16-16.6c0.6-5.9,1.1-11.8,1.5-17.7c0.8-13.9,1.7-27.8,2-41.7
		c0.2-10.9-0.2-21.8-0.7-32.7c-0.3-6.4-0.6-12.8-2.1-19c-1.7-7.3-6.3-12.8-14.2-13.8c-12.7-1.7-25.4-3.1-38.1-4.3
		c-5.1-0.5-7.2,1.8-8.3,7.7c6,3.3,9.8,9.1,9,14.4c-2.8-3.7-5.5-7.2-8.8-11.5c0,7,0.1,12.5,0,18.1c-0.2,4.5,1.5,7.9,4.7,11.1
		c1.9,1.9,3.4,4.3,4.5,6.7c0.5,1-0.6,2.7-1,4.1c-1.1-0.9-2.4-1.5-3.2-2.6c-1.2-1.7-2-3.6-3-5.5c-0.6,0.3-1.2,0.5-1.8,0.8
		c0.9,2.4,1.3,5.1,2.7,7.2c2.2,3.3,5.2,6,7.5,9.2c0.7,0.9,0.3,2.6,0.4,4c-1.3-0.7-3-1.1-3.7-2.1c-1.7-2.4-3-5.1-4.5-7.6
		c-0.6,0.3-1.1,0.6-1.7,0.8c1,2,1.9,4.2,3.2,6.1c2.7,4,5.7,7.7,8.2,11.8c0.7,1.1-0.2,3.1-0.3,4.7c-1.2-1-2.5-1.8-3.5-2.9
		c-2-2.4-3.7-5-6.2-8.4c-1.7,9.8,7.1,14.2,8.1,22.1C765,280.1,765.2,274.7,761.6,272.7z M706.3,327.8c-0.5,0.4-1,0.9-1.6,1.3
		c-4.1-4-8.3-7.9-13.2-12.6c0.3,6.3,0.9,10.9,5.7,14c2.7,1.7,5.9,3.4,7.3,6c1.7,2.9,3.5,3,6.2,3.1c9.9,0.2,19.8,0.3,29.7,0.9
		c3.6,0.2,4.9-1.5,5.6-4.3c0.9-3.6,1.6-7.2,2.2-10.8c5.1-27.7,6.6-55.6,4.9-83.7c-0.7-12.6-0.6-25.3-1-37.9
		c-0.3-8.3-2.7-11.1-10.8-12.6c-3.1-0.6-6.3-1-9.5-1.5c-12.5-2.3-24.5-0.7-36.2,3.8c-0.9,5-0.3,9.3,4.1,12.5
		c1.2,0.9,2.3,2.3,2.9,3.7c0.5,1.2,0.3,2.8,0.3,4.2c-1.1-0.7-2.2-1.3-3.2-2.1c-1.3-1.2-2.4-2.6-3.6-3.9c-0.5,0.4-1.1,0.8-1.6,1.2
		c2.1,3.1,4,6.3,6.3,9.2c2.5,3.1,5.3,5.9,8,8.8c-0.6,0.6-1.1,1.2-1.7,1.7c-3.9-3.9-7.8-7.8-11.9-11.9c-3.2,10.5,8.9,12.6,11.4,19.8
		c-0.4,0.3-0.7,0.6-1.1,0.9c-3.6-2.9-7.2-5.9-10.8-8.8c-2.4,4.4,0.7,6.3,2.8,8.6c2,2.3,4.2,4.5,6.3,6.8c-0.5,0.5-1,1-1.5,1.6
		c-2.9-2.6-5.9-5.3-8.8-7.9c-0.5,0.2-0.9,0.5-1.4,0.7c0.8,1.9,1.2,4.1,2.4,5.7c2,2.7,4.6,4.9,6.7,7.5c1.2,1.5,1.8,3.4,2.7,5.2
		c-0.4,0.3-0.9,0.5-1.3,0.8c-3.3-3-6.5-6-10.1-9.3c-2.1,8.5,7.4,11,8.5,17.4c-0.4,0.3-0.8,0.6-1.3,0.9c-2.2-2.3-4.4-4.6-7.4-7.8
		c-0.2,9.3,10.1,11.1,11.2,19.9c-4.2-3.5-7.4-6.1-10.6-8.7c-0.4,0.4-0.8,0.8-1.3,1.2c4.2,4.7,8.5,9.4,12.7,14.2
		c-0.4,0.4-0.7,0.8-1.1,1.2c-5.1-0.1-6.6-6-10.8-7.6c-0.2,0.3-0.5,0.5-0.5,0.7c-0.2,1.6-0.1,3.2-0.4,4.8
		c-2.1,10.5,0.7,19.1,9.3,25.7c1.1,0.8,1.6,2.3,2.4,3.4c-0.3,0.3-0.7,0.6-1,0.9c-3.7-3.3-7.4-6.5-11.2-9.9c-1.1,4-0.4,6.5,2.6,8.5
		c2.1,1.4,3.9,3.3,5.5,5.3C701.8,321.2,704,324.6,706.3,327.8z M10,240.8c-0.5,0.1-1,0.3-1.5,0.4c0,5.4-0.1,10.7,0.1,16.1
		c0,0.8,0.9,1.6,1.5,2.3c2.3,3.2,4.6,6.4,6.8,9.6c-0.5,0.3-0.9,0.6-1.4,0.9c-2.2-2.3-4.3-4.7-6.5-7c0.6,7.4,5.7,12.3,10.1,17.6
		c-0.5,0.4-1,0.8-1.5,1.2c-2.9-2.7-5.7-5.3-9.7-9c0.9,4,1,7.2,2.5,9.7c1.5,2.6,4.4,4.4,6.7,6.6c-0.4,0.4-0.8,0.9-1.1,1.3
		c-2-1.2-3.9-2.4-5.9-3.6c-0.5,0.3-0.9,0.7-1.4,1c1.4,2.5,2.5,5.3,4.3,7.5c1.9,2.4,4.5,4.2,6.8,6.2c-0.5,0.6-0.9,1.1-1.4,1.7
		c-2.3-1.6-4.7-3.2-7.2-4.9c-2.6,9.5,6.6,12.3,10,18.2c-0.3,0.4-0.7,0.7-1,1.1c-2.7-2.1-5.4-4.2-7.9-6.1
		c-2.5,9.5,6.6,13.2,11.2,19.3c-0.3,0.3-0.6,0.6-0.9,0.9c-2.2-1.4-4.4-2.8-7.1-4.5c4,12.6,11.9,17.6,27.1,17.7
		c15.6,0.1,26.4-5.2,29.8-15c-3.1-2.2-6.3-4.4-9.5-6.6c0.3-0.6,0.7-1.2,1-1.7c2.9,1.2,5.8,2.5,8.6,3.7c0.4-0.2,0.7-0.4,1.1-0.7
		c-0.9-1.6-1.8-3.2-2.9-4.8c-1.2-1.8-2.5-3.6-3.8-5.3c0.4-0.3,0.8-0.6,1.3-0.8c1.5,1,3,2.1,4.8,3.3c0.7-4,0.2-6.8-3.1-9.1
		c-1.5-1.1-2.1-3.4-3.1-5.2c0.5-0.3,0.9-0.5,1.4-0.8c1.2,1.1,2.4,2.2,3.5,3.4c0.4-0.2,0.9-0.4,1.3-0.5c-1.1-3.5-2.3-7-3.5-10.7
		c0.2-0.1,0.9-0.4,1.7-0.7c-2.1-2.8-4.1-5.5-6.1-8.2c0.3-0.3,0.6-0.6,0.9-0.9c1.3,0.7,2.7,1.4,4,2.2c1.7-5.6-7.2-7.3-4.4-13.2
		c1.3,0.8,2.4,1.5,3.4,2.1c0.5-0.3,1-0.6,1.5-1c-1.6-3.8-3.2-7.5-4.9-11.5c1.5,0.1,2.9,0.1,4.9,0.2c-1.8-3.1-3.2-5.6-4.7-8.1
		c0.3-0.2,0.7-0.4,1-0.7c1,0.7,1.9,1.4,3,2.2c2.5-5.6-6.8-7.9-3.1-13.8c1.1,1.3,2,2.4,2.9,3.5c0.5-0.2,1-0.4,1.5-0.6
		c-1.4-4.6-2.8-9.2-4.2-13.7c0.8,0.2,1.9,0.4,2.5,0.6c3.8-6.1-3.1-8.5-4.6-13.3c2.4,0.8,3.9,1.4,5.8,2c-0.6-4.5-7.3-5.4-5.2-11
		c1.9,1.8,3.4,3.2,5,4.7c0.5-0.4,1-0.8,1.5-1.1c-2.1-3-4.3-6-6.5-9.1c2.6-1.8,1.6-3.6-0.7-4.8c-1.3-0.7-3.1-1.1-4.6-0.8
		c-9.6,1.6-19.3,3.1-28.8,5.1c-7.1,1.5-12.7,5.5-16.4,11.1c0.9,2.5,1.5,4.3,2.2,6.2c-0.3,0.1-0.5,0.2-0.8,0.3c-1-1.1-2-2.1-3.1-3.3
		c-2.7,4-3,7.1,0.5,10.4c1.7,1.6,2.4,4.2,3.6,6.4c-0.3,0.2-0.7,0.3-1,0.5c-1.9-2.3-3.7-4.6-6-7.4c-3.6,10,7.2,13.4,7.5,22
		C15,246.6,12.5,243.7,10,240.8z M888.8,220.5c-1.1-2.1-1.4-3.2-2.1-4.1c-4.1-5.7-9.8-9.3-16.6-10.7c-9.3-1.9-18.6-3.5-27.9-4.8
		c-2.2-0.3-5.8,0.7-6.7,2.2c-2.2,4.3-3.8,9-4.8,13.8c-1.1,5.5,1.8,9.8,5.5,13.7c1.9,2,4,4.2,3.4,8.4c-2.8-3.3-4.9-5.7-7-8.2
		c-0.6,0.3-1.1,0.6-1.7,1c1.1,2.5,2.1,5.1,3.5,7.3c2,3.2,4.5,6,4.4,9.8c-0.5,0.2-0.9,0.4-1.4,0.6c-1.6-2.6-3.1-5.2-4.8-7.9
		c-4.4,8.6,3.4,14,5.6,20.8c-0.7,0.4-1.4,0.8-2.1,1.2c-1-2-2-3.9-2.9-5.9c-0.6,0.5-1.2,0.9-1.8,1.4c2.2,4.3,4.4,8.6,6.7,12.9
		c-0.5,0.3-1,0.5-1.4,0.8c-1.3-1.4-2.5-2.8-3.8-4.3c-3.1,6.9,4,9.9,5,15.2c-1.6-1-3.3-2-5.9-3.7c3.3,5,5.9,8.9,8.5,12.9
		c-0.6,0.4-1.1,0.8-1.7,1.1c-2.1-2.4-4.2-4.8-6.2-7.2c-5.7,8.1,4.3,10.9,5.7,16.6c-0.4,0.3-0.7,0.6-1.1,0.9c-2.2-1.5-4.3-3-7-4.9
		c0,2.9,0,5.2,0,7.5c6.3,2.3,11.4,9,10.2,13.8c-3.4-3.8-6.7-7.6-10.3-11.7c-1.7,4.9-1.4,8.3,2.3,11.3c3.1,2.5,5.8,5.5,8.6,8.3
		c0.7,0.7,1,1.6,1.5,2.4c-0.4,0.4-0.8,0.8-1.2,1.3c-3.9-3.1-7.9-6.3-11.9-9.5c-0.4,11.8,3,17.3,13.6,20.9c9.6,3.3,19.5,3.5,29.3,0.8
		c6.8-1.9,11-6.6,13.3-13c-3.3-3.3-8.1-4.9-7.4-10.7c2.7,2.5,5.4,5,8.3,7.8c2.4-4.3,3-7.4-0.8-10.7c-2.6-2.3-4.7-5.3-6.7-8.1
		c-0.6-0.8,0-2.4,0-3.7c1.1,0.4,2.7,0.5,3.3,1.4c2.3,2.8,4.3,5.9,6.7,9.2c2.2-3.9,1.5-6.7-1.2-9.5c-2.3-2.4-4.6-5.1-3.7-9.6
		c2.3,3,4.1,5.4,6.3,8.3c2-6.2,0.7-10.5-3.6-14.1c-2.4-2-4.3-4.6-2.4-8.8c2.6,3.1,4.8,5.7,7,8.3c0.6-0.3,1.1-0.6,1.7-1
		c-1.4-4.5-2.7-9.1-4.1-13.6c0.4-0.1,0.9-0.3,1.3-0.4c0.7,1.1,1.4,2.1,2.2,3.4c4.2-9.6-5.7-12.3-8.7-18.3c0.3-0.4,0.5-0.8,0.8-1.2
		c2.8,1.7,5.6,3.4,8.4,5.1c1.5-4-0.8-6.1-3.2-8.3c-2.5-2.3-4.7-4.9-2.4-9.4c2.2,2.5,3.6,4.2,5.1,6c0.4-0.3,0.8-0.5,1.2-0.8
		c-2.8-4.6-5.6-9.2-8.4-13.8c0.5-0.4,1-0.8,1.4-1.2c1.7,1.3,3.4,2.7,5.3,4.2c2.5-8-8.5-9.2-8.3-17.1c2.9,2.1,5.1,3.6,7.2,5.1
		c0.4-0.3,0.7-0.7,1.1-1c-3-3.7-5.9-7.4-8.9-11.1c0.4-0.3,0.8-0.7,1.2-1C885.8,217.9,886.8,218.8,888.8,220.5z M792.4,165.7
		c-0.4,0.2-0.9,0.4-1.3,0.6c0.9,6.2,10.7,6.8,10.8,14.8c-4.1-2.4-7.6-4.4-11.1-6.5c-1.4,5.8-0.6,7,4.3,8.5
		c10.5,3.1,21.6,3.4,31.1,10.2c5.6,4,12.7,0,14.2-6.8c1.4-6.5,2.5-13.2,3-19.9c0.3-4.5-1.2-8.7-6.2-10.3
		c-11.1-3.6-22.5-6.5-34.3-6.4c-3.1,0-6.1,1.5-9.3,2.3c2,5.5,9.3,4.9,9.6,11.4c-3.6-2-6.6-3.6-9.5-5.2c-0.5,1.7-0.2,3,0.5,3.6
		c3,2.6,6.2,4.9,9.1,7.5c0.8,0.7,0.7,2.3,1,3.5c-1.1-0.1-2.5,0.1-3.3-0.5C798,170.4,795.2,168,792.4,165.7z M59.8,175.4
		c2-1.4,3.5-2.9,5.2-3.4c2.5-0.7,5.1-0.6,7.7-0.9c-1.8,1.4-3.6,2.9-5.4,4.2c-3.1,2.2-7.3,3.6-5.9,8.8c2.3,8.4,10,10.8,17.5,6.1
		c4.2-2.6,9.1-4.2,13.9-5.8c4.9-1.5,9.9-2.4,14.9-3.6c3.4-0.9,5.2-2.6,4.3-6.6c-1.5-6.5-3-13.1-3.5-19.7c-0.3-4.3-2.5-5.4-5.8-6
		c-1.6-0.3-3.2-0.7-4.7-0.5c-10.8,2-21.7,3.8-32.4,6.4c-5.2,1.2-6.9,4.9-6.2,10.5c3-1.8,5.3-5.8,10.6-3
		C65.9,166,59.6,168.2,59.8,175.4z M119.8,374.1c-0.5,0.4-0.9,0.8-1.4,1.1c1.3,2,2.1,4.6,3.9,5.9c4.5,3.5,8.9,7.3,15.4,6.7
		c2.5-0.2,5.2,1.2,7.8,2.1c5.8,2.1,8.9,1.4,10.5-4.4c2.5-9.2,4.5-18.6,5.6-28.1c0.9-8.1-1.6-10.5-9.9-10.4c-8.6,0.1-17.2,1.1-25.7,2
		c-1.1,0.1-2.5,1.9-2.9,3.1c-0.2,0.8,0.9,2.3,1.8,3.1c1.4,1.3,3,2.2,4.6,3.3c-0.3,0.4-0.6,0.8-0.9,1.2c-2.3-0.8-4.7-1.5-7-2.3
		c-3.6,6.3,6.3,6.1,4.9,11.4c-2.3-1.5-4.3-2.7-6.6-4.1c-1.6,4.3-0.7,6.7,3,8.3c2,0.9,3.6,2.9,5.4,4.3c-0.3,0.3-0.5,0.6-0.8,0.9
		C125,376.9,122.4,375.5,119.8,374.1z M743.9,377.9c-0.4,0.4-0.7,0.8-1.1,1.3c3,2.6,6,5.3,10,8.7c-2.8,0-4.4,0-6.1,0
		c1.2,3.6,3.3,5.1,6.7,4.5c7.5-1.4,15.1-2.6,22.6-4.1c3.3-0.7,6.2-2.2,6.1-6.3c-0.1-6.8,0.4-13.7-0.8-20.3
		c-2-10.5-2.5-10.6-12.9-11.5c-6.8-0.6-13.7-1.1-20.5-1.2c-3.7-0.1-6.8,1.6-7.1,5.5c3.7,3.2,7.1,6.1,10.5,9c-5.5,2-7.4-2.6-10.8-5.1
		c0,2.4-0.2,4.4,0,6.2c0.4,4.4,0.8,8.6,5.9,10.9c2.9,1.3,5,4.5,7.5,6.9c-0.4,0.5-0.8,0.9-1.2,1.4
		C749.8,381.8,746.8,379.9,743.9,377.9z M112,387.4c-0.7-6.2-1.5-11.6-1.7-17c-0.2-5.6,0.2-11.2,0.4-16.8c0.1-2.1,0-3.8-2.9-3.8
		c-10.5-0.2-21-0.8-31.6-0.9c-4.8,0-7,2.5-7.3,6.5c2.4,0.8,4.6,1.2,6.4,2.3c0.4,0.3-0.5,2.8-0.8,4.4c-2.8-1.2-4.7-2.1-6.7-2.9
		c-0.3,0.5-0.5,0.9-0.8,1.4c3.6,2.5,7.2,5,10.8,7.5c-0.3,0.4-0.5,0.8-0.8,1.1c-3.1-1.9-6.2-3.9-9.2-5.7c-3.8,6.4,4,7.4,5.9,12.1
		c-2.5-0.9-4-1.5-5.7-2.1c1.2,4.9,2,6.1,7.3,7.6c8,2.3,16,4.5,24.1,6.1C103.6,388.1,108,387.4,112,387.4z M789.3,388.5
		c1.7,0.4,2.9,0.8,4.1,0.8c12.7,0.2,24.4-4.1,36.2-7.9c1.9-0.6,4.1-3.6,4.3-5.6c0.6-5.7,0.8-11.5,0-17.1c-0.9-6.3-4-8.2-10.4-8
		c-6.7,0.3-13.4,0.7-20,1.1c-1.2,0.1-2.3,0.1-4.5,0.2c2.5,1.2,4.1,1.9,5.6,2.7c-0.7,0.9-1.5,1.9-2.2,2.8c-3.6-1.8-7.1-3.7-10.7-5.5
		c-1.9,5.3,0.8,7.9,5,10c2.8,1.4,6.2,2.7,5.2,7.6c-3.5-1.9-6.6-3.7-9.8-5.4c0.8,7.3,10.3,8.3,10.7,16.8c-4-3.1-7.2-5.6-10.4-8.2
		c-2.4,4.5,0.4,6.3,3,8.2c4.1,3.1,4.3,3.8,3.2,6.7c-2.4-1.6-4.8-3.1-7.6-5C790.5,384.9,790,386.3,789.3,388.5z M746.1,171
		c-3,7.5-2.2,9.3,6.1,10.6c5.8,0.9,11.8,0.7,17.7,0.6c5.8-0.1,10-2.6,11-9.1c0.4-2.5,1.8-4.8,2.5-7.2c1.8-6.6,3.1-13.4-3.4-18.4
		c-1.9-1.5-4.4-2.6-6.9-3.1c-5-1-10.1-2-15.1-2c-2.4,0-5,2.1-7.2,3.7c-0.3,0.2,1.4,3.2,2.2,4.9c0.4,1,0.7,2,1.1,3.1
		c-0.3,0.2-0.6,0.4-0.9,0.5c-1.5-1-3-1.9-4.5-2.9c-0.5,0.2-0.9,0.5-1.4,0.7c0.8,1.9,1.3,3.9,2.3,5.6c1.2,2,3,3.7,4.2,5.8
		c0.4,0.6-0.1,1.9-0.2,2.8c-0.8-0.3-1.9-0.4-2.4-1c-1.3-1.4-2.5-3-3.7-4.6c-1.8,6.7,6.7,8.4,6.4,15.5
		C750.8,174.4,748.5,172.7,746.1,171z M122.1,172.5c3.2-1.4,5.9-2.7,8.8-3.7c1.3-0.4,2.9-0.1,4.4-0.1c-1.1,1.2-1.9,2.7-3.2,3.4
		c-2.9,1.5-5.9,2.6-9.3,4.1c0.8,1,1.1,1.8,1.6,2c10.3,4.1,20.7,3.8,30.9,0c1.1-0.4,1.8-2.7,1.9-4.2c0.1-2-0.5-4.1-0.8-6.2
		c-1.1-6.8-1.7-13.7-3.6-20.3c-0.8-2.7-4.1-6.5-6.4-6.7c-7.9-0.5-16.1-0.1-23.2,4.2c-3,1.8-5.3,4.3-4.9,8.8c1.8-1.2,3-2.3,4.4-2.8
		c1-0.4,2.2,0.1,3.4,0.2c-0.4,1.1-0.5,2.5-1.3,3.2c-1.4,1.3-3.4,1.9-4.7,3.2c-1,1-1.5,2.6-2.6,4.8c4.7-0.8,8-4.6,11.9-0.3
		C126.3,165.5,117.2,164,122.1,172.5z M844.5,378.3c-1.8,4.8-1.2,6.2,3.1,6.2c4.9,0,10-0.2,14.7-1.3c2.4-0.6,5.8-3.1,6.1-5.1
		c1-6,0.7-12.3,0.7-18.4c0-0.9-1.3-2.5-2.2-2.6c-7.8-1-15.7-1.8-24.6-2.8c1.3,1.8,2,3.1,3,4.1c1.4,1.5,3.1,2.7,4.4,4.4
		c0.8,1.1,1.1,2.6,1.6,3.9c-1.3-0.5-2.6-0.9-3.8-1.6c-1-0.6-1.7-1.5-3.2-2.8c-0.3,7.3,9.9,7.4,8.6,15c-2.8-2.3-5.2-4.3-7.6-6.3
		c-0.5,0.4-0.9,0.9-1.4,1.3c1.7,2.4,3.5,4.7,5.2,7.1c-0.3,0.3-0.5,0.5-0.8,0.8C847.2,379.5,846,379,844.5,378.3z M33.6,355.8
		c4.3,2.3,7.7,4.1,11.1,5.9c-0.3,0.5-0.5,1.1-0.8,1.6c-3.6-1.3-7.3-2.5-10.9-3.8c-1.8,3.2-0.1,4.5,2.3,5.8c1.8,1,3.3,2.3,5,3.5
		c-0.3,0.4-0.6,0.9-0.9,1.3c-2.3-0.9-4.7-1.9-7-2.8c-0.3,0.4-0.5,0.8-0.8,1.1c3.2,3.5,6.4,7.1,9.6,10.6c-0.3,0.3-0.6,0.7-0.9,1
		c-2-1.2-4.1-2.3-6.1-3.5c-0.3,0.3-0.5,0.7-0.8,1c1.5,1.2,2.8,3,4.4,3.4c3.5,1,7.2,1.5,10.8,1.7c9.5,0.6,9.4,0.5,9.2-8.8
		c-0.2-7.1,0-14.2,0-21.3C50.6,353.6,42.7,354.6,33.6,355.8z M850.8,175.6c-0.5,0.2-0.9,0.4-1.4,0.6c0.5,1.4,0.7,3,1.6,4
		c1.8,2.2,4.1,4.1,5.8,6.4c0.6,0.8,0.2,2.5,0.2,3.7c-1.2-0.1-2.6,0.2-3.4-0.4c-1.9-1.3-3.6-3-5.6-4.8c-1,2.4-1.7,4.3-2.6,6.6
		c9.1,1.6,17.8,3.2,26.9,4.8c0-6.4-0.6-11.9,0.1-17.2c1.6-11.9-10.8-17.7-21.4-15.1c1.7,2,3.3,4,4.9,5.9c-0.3,0.4-0.6,0.7-0.9,1.1
		c-1.6-0.8-3.2-1.6-4.8-2.4c0.6,2.5,2.1,4.1,3.1,5.9c1,1.7,1.5,3.6,2.2,5.4c-0.4,0.2-0.8,0.3-1.2,0.5
		C853.2,178.9,852,177.3,850.8,175.6z M38.9,178.7c0.2,0.8,0.4,1.6,0.6,2.4c-2.2,1.1-4.3,2.4-6.6,3.4c-3,1.4-3.9,3.4-2.5,6.4
		c3.5-1.1,6.8-2.2,10.1-3.2c0.3,0.6,0.6,1.2,0.9,1.7c-2.1,1.4-4.2,2.9-7.2,4.9c8.1-1.5,15.2-2.9,21.1-4c-1.1-8.5-2.1-16.5-3.2-24.5
		c-0.2-1.5-1.4-3.9-2.1-4c-6.6-0.1-13,0.5-18,6.1c1.9,0.4,3.4,0.8,5.3,1.2c-2.4,4.5-8.6,5.8-7.3,11.5C33,179.9,36,179.3,38.9,178.7z
		 M15.7,366.1c0.7,8.6,3.3,12.2,9.2,13.2c0-8,0-16.1,0-24.5c-1.5-0.4-3-0.8-4.8-1.3c0.6,1.7,1,3.1,1.7,5.3c-2.5-2.1-4.2-3.6-5.9-5.1
		c-0.6,0.4-1.1,0.8-1.7,1.1c1.8,4.2,3.7,8.4,5.9,13.4C18.1,367.3,17,366.7,15.7,366.1z M462.7,10.1c0.1-0.3,0.2-0.6,0.3-0.9
		c-1.2-0.5-2.5-1.6-3.7-1.6c-11.8,0-23.7,0-35.5,0.5c-1.9,0.1-3.8,2.2-5.7,3.4c0.2,0.3,0.5,0.6,0.7,0.9
		C433.5,11.6,448.1,10.8,462.7,10.1z M21.6,175.4c-0.6-0.3-1.3-0.5-1.9-0.8c-2.1,3-5.4,5.8-5.9,9.1c-0.5,2.9,2.2,6.2,3.5,9.4
		c-0.2,0.2-0.4,0.4-0.5,0.6c-1.6-1.3-3.2-2.6-4.8-4c-0.7,2.8-0.7,2.8,5.5,9.4c3.6-0.7,4.8-2.5,4.1-6.4c-0.7-3.7-0.1-7.6,0-11.5
		C21.6,179.3,21.6,177.4,21.6,175.4z M458.5,16.6c0,4.3,0,8.4,0,12.6c0,6.3,1.1,6.9,7.3,3.8c-0.5-4.2-1.1-8.4-1.7-12.7
		C463.7,16.5,461.6,15.4,458.5,16.6z M448.3,17c0.2,4.3,0.6,8.4,0.5,12.5c0,3.8,1.7,4.7,5.4,3.6c-0.3-4.5-0.6-9-0.8-13.4
		C453.2,16.6,451.6,15.9,448.3,17z M437.7,32.7c-0.7-4-1.7-7.7-2-11.5c-0.4-4-2.1-5-5.4-3.6c0,5,0,9.9,0,15.1
		C432.9,32.7,435.1,32.7,437.7,32.7z M877.5,356.4c-1.4,7.6,4.5,8.8,8.5,11.6c0.5-0.3,0.9-0.6,1.4-0.9c-1.5-2.9-3-5.8-4.8-9.3
		c1.7,0.3,2.8,0.5,3.9,0.7c0-1.9,0-3.3,0-4.9C883.4,354.6,880.5,355.5,877.5,356.4z M443.1,15.8c-1.7,1.2-3.7,1.9-3.8,2.8
		c-0.3,4.7-0.2,9.4-0.2,14.2c2.7,0,4.4,0,6.1,0C444.5,27.5,443.9,22.4,443.1,15.8z M427.3,33.1c-0.3-5.5-0.5-10.4-0.8-16
		c-1.4,0.8-3.2,1.4-3.3,2.1c-0.7,4.5-0.9,9.1-1.3,13.9C423.9,33.1,425.4,33.1,427.3,33.1z M881.3,188c0.6,6.4,6,9,10,14
		C892.8,193,884.9,192.1,881.3,188z M889.4,189.5c-0.9-5.3-2.4-10.3-8.5-12.7C879.2,184.4,887.5,184.8,889.4,189.5z M419.2,18.1
		c-0.6-0.1-1.3-0.1-1.9-0.2c-0.8,5-1.7,10.1-2.6,15.8c1.6-0.4,3.4-0.6,3.4-0.9C418.7,28,418.9,23,419.2,18.1z M878.3,368.3
		c-2.5,5.4,2.5,6.6,4.3,9.6C886.8,373.1,886.5,372.3,878.3,368.3z M702.5,338.5c0.1-0.3,0.2-0.6,0.2-0.9c-2.9-1.6-5.9-3.3-9.7-5.4
		c0.6,2.8,1.1,4.6,1.4,6.3C697.5,338.5,700,338.5,702.5,338.5z"/>
	<path class="st0" d="M315.7,101.9c-4.2,4.9-8.4,9.8-12.8,14.9c0.8,0.3,1.3,0.5,1.4,0.4c23.2-23.8,51.8-39,81.9-51.6
		c39.9-16.7,80.3-15.5,120.8-2.8c27.4,8.6,52.9,21.1,76.1,38.1c2.7,2,5.1,4.4,7.6,6.6c3.1,2.7,5.3,6.4,10.1,6.9
		c1.8,0.2,3.8,2.4,5.1,4.1c3.7,4.6,7.3,9.4,10.7,14.2c0.9,1.3,1.9,3,1.8,4.4c-0.6,5.7,3,9.5,5.4,13.9c18.9,33.9,31,69.9,34.2,108.7
		c2.4,29.2-4.8,56.6-17.3,82.8c-13.6,28.4-32.2,52.9-55.4,74.3c-22.9,21.2-48.5,37.6-78.3,47.3c-25.4,8.2-51.4,8.7-77.5,5.7
		C320.9,457.2,261.4,371,246.6,298.8c-8.7-42.4-1.8-82.8,16.4-121.6c9.4-20,21.6-38.2,36.4-54.6c1.4-1.5,3.6-2.9,1.5-5.5
		c-0.2-0.3,0-0.9,0-1.4c0.3-4.4,8.8-13.8,13.5-15C314.8,101.2,315.3,101.5,315.7,101.9z M597,127.2c-5.7-5.9-11-12.1-17.1-17.5
		c-46.1-41.3-99.5-57.9-160.8-46.6c-53.3,9.8-95.6,38-127.1,81.4c-46.4,63.8-55.1,132-20.1,204c6.1,12.6,12.3,25.1,24.3,34.1
		c7.4,5.5,12.4,14.1,18.5,21.4c0.4,0.5,1,1.3,0.8,1.7c-1.3,3.1,1.2,4.3,2.8,5.9c23.8,22.5,52.1,37,83.6,45.3
		c30.3,8,61,10.2,91.7,2.8c19.8-4.7,37.4-14.8,54.8-25.1c26.3-15.6,49.7-34.6,67-60.1c30.5-45,39.9-94.4,30.2-147.5
		C638.8,189.1,622.3,155.9,597,127.2L597,127.2z"/>
	<path class="st0" d="M298.8,428.1c-7.7,0.3-30.8-21.1-30-27.8C274.7,402,298.3,423.8,298.8,428.1z"/>
	<path class="st0" d="M272.1,384.3c7.5,4,37,34.4,36.7,37.6C296.3,409.6,280.1,401.1,272.1,384.3z"/>
	<path class="st0" d="M613.7,112.2c1.9,0.8,4.2,1.2,5.5,2.6c4.4,4.6,8.4,9.6,12.4,14.5c0.7,0.9,0.4,2.5,0.5,3.8
		c-1.3-0.5-3-0.6-3.8-1.5c-4.4-4.6-8.5-9.5-12.7-14.3c-1-1.1-2-2.3-2.9-3.5C613,113.3,613.3,112.7,613.7,112.2z"/>
	<path class="st0" d="M641.5,129.4c-5.3-7.1-10.1-13.5-15.5-20.6C633.5,111,642.2,122.6,641.5,129.4z"/>
	<path class="st0" d="M295.3,108.4c0-1.9-0.6-4.1,0.1-5.7c1.6-3.8,4.6-6.2,9.7-6.3c-3.1,4.1-5.8,7.8-8.5,11.4
		C296.1,108,295.7,108.2,295.3,108.4z"/>
	<path class="st0" d="M174.8,379.6c3.5,2.4,7,4.9,10.5,7.3c-0.3,0.5-0.7,0.9-1,1.4c-3-3.1-9-2.1-10.5-7.4
		C174.1,380.6,174.5,380.1,174.8,379.6z"/>
	<path class="st0" d="M761,212.4c4.5,2.5,6.8,6.1,7.4,10.6c-0.6,0.3-1.1,0.6-1.7,0.9C764.8,220.1,762.9,216.3,761,212.4z"/>
	<path class="st0" d="M692.1,292.5c6.2,0.6,12.2,6.9,12,12.5C699.9,300.7,696.3,296.9,692.1,292.5z"/>
	<path class="st0" d="M12.6,249.1c2.1,3.4,4.1,6.9,6.2,10.3c-0.5,0.3-1,0.6-1.5,0.9c-2.2-3.4-4.4-6.9-6.6-10.3
		C11.3,249.7,11.9,249.4,12.6,249.1z"/>
	<path class="st0" d="M839.5,228.5c-2.5-4.1-4.9-8.2-7.4-12.4c0.6-0.3,1.2-0.7,1.8-1c2,4.4,7.1,7,7.5,12.4
		C840.8,227.9,840.2,228.2,839.5,228.5z"/>
	<path class="st0" d="M843.3,216.4c-1.9-2.1-3.7-4.1-5.6-6.2c0.6-0.5,1.1-1,1.7-1.5c1.9,2,3.8,4.1,5.6,6.1
		C844.5,215.4,843.9,215.9,843.3,216.4z"/>
	<path class="st0" d="M75.3,180.9c-4.1,2.8-7.4,5-11.3,7.6C64.9,182.6,69.1,179.7,75.3,180.9z"/>
	<path class="st0" d="M742,364.1c3.6,2.7,6.3,4.7,9.1,6.8C747.4,372.9,743.5,370.3,742,364.1z"/>
	<path class="st0" d="M596.9,127.1c2.8,5.1,5.5,10.1,8.3,15.2c-0.2,0.2-0.5,0.3-0.7,0.5c-9-8.4-17.9-16.8-26.9-25.1
		c0.4-0.6,0.7-1.2,1.1-1.7c1.8,0.8,3.8,1.4,5.4,2.5C588.5,121.2,592.7,124.2,596.9,127.1C597,127.2,596.9,127.1,596.9,127.1z"/>
	<path class="st0" d="M447.5,75.2c52.5,0.6,92.5,18.4,125.6,51.6c34.3,34.4,55.1,75.7,60.6,124.1c6.5,58.1-12.8,106.3-56.9,144.8
		c-21.8,19-45.4,35-72.8,44.7c-30,10.7-60.5,9.6-91,3.3c-92.1-18.8-141.4-101.6-147.7-164.5c-4-40,6.8-76.2,27.3-109.8
		c29.5-48.4,71.8-79.3,127.6-90.8C430.9,76.4,441.9,75.8,447.5,75.2z M454.1,82.6c-5.4,0.3-10.9,0.6-16.3,1c-3.5,0.3-7,0.7-10.5,1.3
		c-53.7,8.8-94.8,37.2-125,81.7c-26.2,38.7-37.9,81.6-27.3,127.4c16.8,72.7,60.4,122.1,134,141.8c33.4,8.9,67,9.1,99.6-3.7
		c45.2-17.9,77.4-50.3,99.8-92.8c20.6-39.2,24.3-80.3,10.5-122.4c-14.1-43-39.9-77.9-76-104.9C516.6,92.4,486.9,82.6,454.1,82.6z"/>
	<path class="st0" d="M425,69.5c3.9-4.4,36.7-4.6,43.7,0C453.6,69.5,439.5,69.5,425,69.5z"/>
	<path class="st0" d="M596.8,147.3c-9.1-9-18.2-18.1-27.3-27.2C578.8,121.9,597.2,141.3,596.8,147.3z"/>
	<path class="st0" d="M330.1,114.6c-0.6,1.3-1.1,2.8-2,3.9c-3.6,4.2-7.4,8.4-11.2,12.4c-0.5,0.5-1.6,0.5-2.4,0.7
		c-0.2-0.7-0.8-1.7-0.5-2.1c4-6.2,7.7-12.7,14.7-16C329.2,113.9,329.6,114.2,330.1,114.6z"/>
	<path class="st0" d="M319.8,402c-4.7-6.3-11.9-10.7-13.5-19.1C312.2,388.3,318.6,393.3,319.8,402z"/>
	<path class="st0" d="M347.7,134.2c36.1,30,61.9,69.4,94.5,101.2c-1.1-4.7-2.6-10-3.6-15.5c-0.2-1.4,1.1-3,1.7-4.6
		c1.3,1.1,3.3,2.1,3.6,3.4c1.2,5.5,3.3,10.6,2.2,16.7c-0.7,3.7,2.5,8.1,4,12.3c4.4-0.9,7.8-1.8,11.3-2.4c5.8-0.9,9.1,1.8,8,7.5
		c-1.3,6.7-3.7,13.2-5.5,19.8c-0.5,1.8-1.3,3.7-1,5.4c1.2,6.8,1,7.1-6.3,6.3c7.2,41.2,14.3,82.2,21.5,123.3
		c-0.4,0.1-0.7,0.1-1.1,0.2c-8.5-40.5-16.9-81-25.5-122.1c-9.6,10.8-19.4,21.2-28.4,32.1c-11.3,13.7-22.1,27.8-33.1,41.8
		c-1,1.3-2,2.5-3.1,3.7c-2.6,2.7-4.8,6.5-9.5,4.2c-2.6-1.2-4.1-7.9-2.4-11.9c1.1-2.8,3-5.3,4.7-7.8c15.7-22.6,31.6-45.1,47.3-67.7
		c3.1-4.4,5.5-9.3,8.7-14.7C405,223,376.7,178.4,347.7,134.2z M387.2,184.1c-0.2,0-0.4,0.1-0.6,0.1c0.4,1,0.8,2,1.4,2.8
		c5.9,8.9,11.7,17.9,17.7,26.8c11.8,17.3,23.6,34.6,35.5,51.8c1.8,2.6,4.5,4.6,6.7,6.9c0.2-6.4-0.3-11.9-1.5-17.2
		c-0.8-3.4-1.9-7.2-4-9.9c-7.2-9.3-14.9-18.3-22.4-27.4c-6-7.2-12-14.3-18-21.4c7.8,13.9,18.9,25.3,27.5,38.6
		c-0.5,0.4-1.1,0.8-1.6,1.2C414.4,219,400.8,201.5,387.2,184.1z M440.4,271.9c-3.6,5.9-7,11.5-10.3,17c0.5,0.5,1.1,0.9,1.6,1.4
		c1.5-2.4,3.1-4.8,4.6-7.2c0.3,0.3,0.7,0.6,1,0.9c-1.2,3-2.5,5.9-3.8,9.2c5.1-5.3,9.7-10.2,14.4-15.1
		C445.9,276.5,443.3,274.3,440.4,271.9z M454.3,251.8c2.2,5,4.2,9.5,6.2,14c0.4,0,0.7-0.1,1.1-0.1c0.9-5,1.7-10,2.7-15.8
		C460.3,250.6,457.5,251.2,454.3,251.8z M452.4,256.8c-0.4,0.2-0.8,0.3-1.2,0.5c1,11.7,2.8,17.4,6.3,18.5
		C455.7,269.2,454.1,263,452.4,256.8z"/>
	<path class="st0" d="M332.5,258.5c1.8-6.3-1.6-12.9,3.1-19.4c0.9,2.5,1.9,4,1.9,5.6c0,4.8-0.3,9.6-0.6,14.4
		c-0.1,2.7-1.4,3.9-4.3,3.9c-6.8-0.2-12.9-1.5-18-6.5c-2.2-2.1-5.3-3.6-8.2-4.6c-1.2-0.4-4.2,1.2-4.5,2.3c-0.6,2.2-0.8,5.2,3,5.9
		c1.9,0.4,3.7,1.4,5.5,2.2c-2.1,0.7-4.2,1.8-6.4,1.9c-5.7,0.3-9.5-2.6-9.8-7c-0.3-4.9,4-9.9,9.3-10.4c5.6-0.6,10.3,1.9,14.3,5.5
		C322.1,256.1,326.7,258.3,332.5,258.5z"/>
	<path class="st0" d="M441.6,136.8c-6.4,1.7-9.1-0.8-9.5-7.1c-0.3-4.5,2.1-6.9,7.3-6.6c4.1,0.3,7.3-0.2,11.1-2.6
		c5.1-3.3,11.8-2.6,17.6-0.1c1.7,0.8,3.6,3.8,3.4,5.7c-0.4,5.5-1.4,11-2.9,16.3c-0.3,1.2-3.8,2.6-5.1,2.1c-2.6-1-1.4-3.2-0.2-5.1
		c1.1-1.7,1.8-3.8,2.2-5.7c1.6-8.1-0.3-10.2-8.6-9.7c-3.1,0.2-5.2,1-5.4,4.7c-0.1,1.2-1,2.9-2,3.3c-0.8,0.3-2.3-0.9-3.4-1.5
		c-0.8-0.4-1.6-1.5-2.3-1.5c-2.3,0.1-6-0.3-6.7,1c-1.5,2.5,0,5.2,3.2,6.3C440.8,136.4,441.2,136.7,441.6,136.8z"/>
	<path class="st0" d="M546,196.2c0.9,0.3,1.3,0.6,1.8,0.6c2.9,0,5.7,0,9,0c-0.4-4.4,1.1-7.8,5.6-9.6c4.9-2,9.7-1.5,12.9,1.7
		c3.8,3.9,5.7,11.5,3.5,15.5c-0.6,1-2.1,1.6-3.1,2.3c-0.8-1.2-1.9-2.3-2.3-3.6c-0.9-3-1-6.3-2.4-8.9c-0.7-1.3-3.8-2.1-5.6-1.8
		c-1,0.2-2.4,3.2-2.2,4.7c0.6,4.4-1.5,6.2-5.3,5.9c-5.1-0.5-10.2-1.2-14.9-2.9c-1.6-0.6-2.5-4.6-2.7-7.2c-0.2-2.1,1-4.4,1.5-6.7
		c1.5,1,3.8,1.7,4.2,3C546.5,191.4,546,193.9,546,196.2z"/>
	<path class="st0" d="M554.2,249.4c1,10.2,7,13.6,15,14.4c1.5-3.7,2.6-7.3,4.4-10.6c2.4-4.2,7.4-5.5,12.2-3.6c5,1.9,7,5.9,6,11.6
		c-1.1,6.1-3.6,9.2-8.9,8.5c-8-1-16.1-2.4-23.8-4.9c-6.2-2-8.5-7.4-7-12.5C552.3,251.7,552.9,251.2,554.2,249.4z M574.9,263.3
		c0.6,0.8,1.3,1.5,1.9,2.3c3.2-1,6.6-1.7,9.5-3.2c0.7-0.3,0.5-4.4-0.5-5.4c-1.7-1.5-5.8-3-6.5-2.3
		C577.3,257,576.3,260.3,574.9,263.3z"/>
	<path class="st0" d="M396,145.6c0.8-6.4-1.7-13,4.5-18.5c0.5,1.9,1.2,3.1,1.3,4.5c0.4,4.9,0.6,9.9,1,14.8c0.5,5.2-2.4,7.7-7.2,5.4
		c-2.7-1.3-4.9-3.6-7.5-5.1c-3.4-1.9-7-3.8-10.7-4.9c-1.5-0.4-4.8,1-5.2,2.3c-1,3,1.5,4.1,4.2,4.4c1.2,0.1,2.4,0.3,4.3,0.6
		c-3.5,3.2-7.1,4.1-10,1.8c-2-1.6-3.5-4.9-3.7-7.5c-0.4-3.8,3-5.1,6.2-6.2c5.4-1.8,10.1-0.5,14.6,2.5
		C390.3,141.6,392.9,143.5,396,145.6z"/>
	<path class="st0" d="M382.7,390.4c-4-0.4-8.7-0.5-13.1-1.6c-1.9-0.5-4.9-2.9-4.8-4.4c0.1-2.2,2.1-4.7,3.8-6.5
		c1.1-1.1,3.2-1.5,4.9-1.8c7-0.9,13.9-1.8,20.9-2.5c5.2-0.5,9.1,2,9.7,5.7c0.6,3.8-2.4,8.7-6.9,9.7C392.6,390,387.9,390,382.7,390.4
		z M383.6,385.9c0,0.2,0,0.4,0,0.6c4.1-0.3,8.3-0.2,12.2-1.2c1.4-0.4,2.1-3.6,3.2-5.5c-1.7-0.6-3.4-1.7-5.1-1.7
		c-4.4,0.2-8.8,1-13.3,1.5c-3,0.4-6,0.5-8.9,1.3c-1,0.3-1.7,1.9-2.5,2.9c1,0.7,1.9,1.9,2.9,1.9C376,386.1,379.8,385.9,383.6,385.9z"
		/>
	<path class="st0" d="M448.3,398.5c-0.4,10.8-4.9,14.6-14.9,13c-3.4-0.5-5.2-2.5-5.3-5.8c0-3.5-1.1-8.6,3.6-9.3
		c7.8-1.3,15.8-1.9,23.7-1.4c5.4,0.4,8.5,9.6,5.6,14.6c-0.4,0.7-1.6,1.3-2.2,1.2c-0.7-0.1-1.6-1.1-1.8-1.9c-0.4-1.4-0.2-2.9-0.4-4.3
		C456.1,398.8,454.8,397.8,448.3,398.5z M438.6,396.6c-2.9,2.6-5.8,3.9-6.2,5.8c-0.4,1.7,1,5.4,4.6,4.2c2-0.7,4.7-1.9,5.1-3.5
		C442.5,401.7,440.3,399.5,438.6,396.6z"/>
	<path class="st0" d="M522.7,140.4c-0.2,3-0.7,5.7-0.6,8.3c0.2,4.1-1.9,4.4-4.7,3.1c-3.7-1.8-7.3-4-10.9-5.9c-2.1-1.1-4.4-2-6.3-3.4
		c-0.9-0.6-1.1-2.1-0.8-3.7c6.4,3,12.7,6.1,19.2,9.2c-0.3-7.5-0.3-7.5-6.8-8.3c-2.3-0.3-4.6-1-6.8-1.5c0-0.5,0-1.1,0.1-1.6
		c1.1-0.4,2.2-1.1,3.3-1.1c9.9-0.1,19.8-0.1,29.7,0.1c1.2,0,2.3,1.5,3.5,2.3c-1.2,0.9-2.3,2.4-3.5,2.4
		C533,140.5,528.1,140.4,522.7,140.4z"/>
	<path class="st0" d="M511.8,386.8c-6.2,4-11.5,4.5-13.8,1c-1-1.5-1.1-4.8-0.1-6c3.8-4.5,8-1.4,12.1,0.4c2.3-2,4.4-4.2,6.9-5.9
		c4.1-2.9,7.8-2.3,11.5,1.5c3.7,3.8,4.5,8.7,2,12.1c-2.5,3.4-7.3,4.3-11.7,1.9C516.4,390.3,514.3,388.5,511.8,386.8z M512.8,384.8
		c3.2,1.8,5.5,3.5,8.1,4.4c2.8,1,5.9,0.4,6.7-2.7c0.5-2-0.2-4.9-1.4-6.8c-1.8-2.7-4.7-2.4-7.2-0.5
		C517.2,380.8,515.5,382.5,512.8,384.8z"/>
	<path class="st0" d="M549.5,328.2c-0.7,6-1.3,11.6-1.9,17.1c-0.5,0-1,0.1-1.5,0.1c-0.4-0.9-1.1-1.8-1.1-2.7
		c-0.3-5.3-0.7-10.5-0.6-15.8c0-4.9,2.6-6.7,6.8-4.1c8.3,5.2,17.2,7.2,26.8,7.7c1.1,0.1,2.2,1.6,3.3,2.4c-1.2,0.8-2.3,2.3-3.5,2.4
		C567.7,336.4,558.5,333.3,549.5,328.2z"/>
	<path class="st0" d="M337.2,334.8c5.4,0.5,10.6,0.9,15.9,1.6c1.1,0.1,2,1.6,2.9,2.4c-1,1.1-1.9,3.2-2.9,3.2
		c-11.9,0-23.9-0.2-35.8-0.5c-0.9,0-1.7-1.5-2.6-2.3c1-0.8,2-2.1,3.1-2.3C324.2,336,330.7,335.4,337.2,334.8z"/>
	<path class="st0" d="M314.6,325.3c1.8-0.4,3.7-1,5.5-1.1c9.8-0.3,19.5-0.8,29.3-0.6c2.4,0,4.8,2.2,7.2,3.3c-2.3,1.1-4.6,3-6.9,3
		c-10.4,0.1-20.8-0.3-31.2-0.8c-1.5-0.1-3-1.5-4.5-2.3C314.3,326.4,314.5,325.8,314.6,325.3z"/>
	<path class="st0" d="M380.5,290.4c-0.5-2.6-1.5-5.1-1.5-7.7c-0.1-13.1,0-26.2,0-39.3c0-0.8-0.1-1.7,0.2-2.4c0.5-0.9,1.3-1.6,2-2.3
		c0.8,0.9,2.2,1.8,2.2,2.6c0,15,0,30-0.2,45c0,1.3-0.8,2.6-1.2,3.9C381.5,290.3,381,290.4,380.5,290.4z"/>
	<path class="st0" d="M311.5,194.9c2.6-0.5,5.2-1.4,7.8-1.4c8.6-0.3,17.3-0.3,25.9-0.5c2.4,0,4.7,0.3,4.7,3.4c0,3.2-2.1,4-4.8,3.8
		c-9.9-0.7-19.8-1.4-29.6-2.2c-1.4-0.1-2.7-0.9-4.1-1.3C311.4,196.1,311.5,195.5,311.5,194.9z"/>
	<path class="st0" d="M317.7,268.5c5.6,0,11.2-0.1,16.7,0.1c1.3,0.1,2.6,1.2,3.9,1.9c-1.2,1.1-2.3,3-3.5,3.1
		c-11.4,0.7-22.9,1.2-34.4,1.4c-1.2,0-2.5-1.7-3.7-2.6c1.2-0.7,2.4-2,3.7-2.1c5.7-0.5,11.5-0.6,17.2-0.9
		C317.7,269.1,317.7,268.8,317.7,268.5z"/>
	<path class="st0" d="M404.4,397.6c-2.3,0.3-4.6,0.9-6.9,0.9c-8.3,0.2-16.6,0.3-24.9,0.1c-1.4,0-2.8-1.7-4.3-2.7
		c1.5-1.1,2.9-3,4.4-3c9.2,0.2,18.5,0.8,27.7,1.4c1.4,0.1,2.8,1.1,4.2,1.8C404.6,396.6,404.5,397.1,404.4,397.6z"/>
	<path class="st0" d="M509.2,223.2c0,28.5,0,57,0,85.5c-0.2,0-0.4,0-0.6,0c0-28.5,0-57,0-85.5C508.8,223.2,509,223.2,509.2,223.2z"
		/>
	<path class="st0" d="M622.4,262.6c-3,1.5-5.3,3.4-7.8,3.7c-4.2,0.5-8.6,0.3-12.9-0.2c-1.2-0.1-2.8-2-3.1-3.3
		c-0.2-0.9,1.7-3.1,2.6-3.1c6.2,0,12.4,0.4,18.6,0.8C620.4,260.5,620.8,261.3,622.4,262.6z"/>
	<path class="st0" d="M309.1,340.5c1.4,0.9,2.9,1.4,3.2,2.3c0.3,0.9-0.1,2.7-0.8,3.3c-2.7,2.2-5.5,4.4-8.6,6c-1.1,0.6-3.7,0-4.4-0.9
		c-0.7-1.1-0.6-4,0.2-4.6C301.9,344.3,305.5,342.6,309.1,340.5z"/>
	<path class="st0" d="M280.9,258.1c2.8,0.6,5.6,1.1,8.3,2c0.9,0.3,1.5,1.7,2.3,2.5c-0.8,0.5-1.6,1.4-2.5,1.6
		c-3.1,0.5-6.3,0.9-9.4,1.1c-2.5,0.2-5-0.1-5.1-3.4c-0.1-3.5,2.6-3.4,5-3.4c0.5,0,1,0,1.4,0C280.8,258.3,280.8,258.2,280.9,258.1z"
		/>
	<path class="st0" d="M314,184.7c-4.9-2.6-8.8-4.5-12.5-6.8c-0.8-0.5-1.1-3.1-0.5-4.1c0.6-1,3-1.9,3.9-1.5
		C309.1,174.6,313.7,176.9,314,184.7z"/>
	<path class="st0" d="M531.5,413.9c-1.8-1.1-4.1-1.8-5.2-3.3c-1.7-2.7-3.7-6-3.5-8.8c0.3-2.8,3.6-2.3,4.9,0c2,3.3,3.5,7,5.2,10.5
		C532.5,412.8,532,413.4,531.5,413.9z"/>
	<path class="st0" d="M360.6,412.7c1.6-3.4,2.8-6.8,4.8-9.6c0.7-1,3.4-0.5,5.2-0.7c0,1.5,0.6,3.5-0.1,4.6c-1.6,2.5-3.8,4.8-5.9,6.9
		c-0.5,0.5-1.8,0.6-2.5,0.4C361.5,414.3,361.1,413.4,360.6,412.7z"/>
	<path class="st0" d="M591.5,182.3c1.6,0.9,2.9,1.3,3.2,2c0.3,0.7-0.3,2.2-1,2.7c-2.2,1.8-4.5,3.5-7,4.8c-1,0.5-3,0.3-3.7-0.4
		c-0.6-0.7-0.7-3.2,0-3.7C585.6,185.7,588.6,184.1,591.5,182.3z"/>
	<path class="st0" d="M457,91.9c-1.7,3.3-3,5.8-4.3,8.3c-1.1-2.6-2.8-5.1-3-7.8c-0.1-1.8,1.9-3.7,3-5.5C454,88.4,455.3,90,457,91.9z
		"/>
	<path class="st0" d="M373.4,122.3c-4.4,1-10.8-3.6-10.3-7.3c0.2-1.1,1.6-3,2.4-3c1.5,0,3.6,0.9,4.3,2
		C371.4,116.6,372.2,119.5,373.4,122.3z"/>
	<path class="st0" d="M447,429.9c-0.1-0.8-0.4-1.7-0.1-2.4c0.5-1.3,1.3-2.5,2-3.7c1.3,0.9,3.8,1.8,3.8,2.6
		c-0.2,3.4-1.1,6.8-1.7,10.1c-1.2-0.3-3.1-0.4-3.3-1.1C447,433.8,447.1,431.8,447,429.9C446.9,429.9,447,429.9,447,429.9z"/>
	<path class="st0" d="M593.6,351.4c-3.5-1.6-7-3-10.4-4.9c-0.7-0.4-1-2.6-0.6-3.6c0.3-0.7,2.5-1.6,3.1-1.2c3.2,2.2,6.2,4.8,9.3,7.3
		C594.5,349.8,594,350.6,593.6,351.4z"/>
	<path class="st0" d="M529.4,123.1c1.3-3.7,2-6.5,3.2-9.1c0.4-0.7,2.2-1.2,3.2-1c0.6,0.1,1.7,1.9,1.4,2.5c-1.2,2.9-2.7,5.7-4.4,8.3
		C532.7,124.1,530.8,123.3,529.4,123.1z"/>
	<path class="st0" d="M369.6,277c-2.8-0.9-4.9-1.5-6.9-2.2c0.1-0.3,0.2-0.7,0.3-1c2.8,0.7,5.5,1.4,9,2.3c-1.3,1.5-2.1,2.5-2.8,3.4
		c0.7,0.6,1.3,1.1,2.6,2.3c-3.3,0.9-5.9,1.6-8.4,2.3c-0.1-0.3-0.2-0.6-0.3-1c1.2-0.5,2.5-1,4.2-1.6c-1-0.8-1.8-1.4-2.9-2.3
		C365.9,278.5,367.3,277.9,369.6,277z"/>
	<path class="st0" d="M503.4,264.2c-0.3,1.5-0.3,1.8-0.4,1.8c-2.8,0.3-5.5,0.5-8.3,0.8c0-0.9,0-2.5,0.1-2.5
		C497.6,264.2,500.4,264.2,503.4,264.2z"/>
	<path class="st0" d="M469.9,101.4c-1.1-1.7-2.2-2.6-2.1-3.5c0.1-1.9,0.7-3.8,1.3-5.7c0.1-0.2,2.1,0,2.1,0.1c0.1,1.8,0.1,3.5,0,5.3
		C471.1,98.5,470.6,99.4,469.9,101.4z"/>
	<path class="st0" d="M323.3,382.2c-2-5.5,1.1-7,5.2-8.9C329.8,378.5,324.7,378.7,323.3,382.2z"/>
	<path class="st0" d="M370.1,268.6c-0.8,0.7-1.7,1.5-2.8,2.5c1,0.8,2,1.6,2.9,2.3c-0.1,0.2-0.1,0.4-0.2,0.7
		c-2.9-0.9-5.8-1.8-8.7-2.8c0-0.3,0.1-0.7,0.1-1c2.8-0.8,5.6-1.5,8.4-2.3C369.9,268.2,370,268.4,370.1,268.6z"/>
	<path class="st0" d="M501.7,419c1,2.5,2.1,5.1,3.1,7.6c-0.4,0.3-0.9,0.7-1.3,1c-1.3-1.7-3-3.3-3.9-5.2c-0.5-1,0.3-2.6,0.5-4
		C500.7,418.7,501.2,418.8,501.7,419z"/>
	<path class="st0" d="M488.4,432.7c-4.6-0.7-6.9-2.9-4-7.9C485.8,427.4,487.1,430,488.4,432.7z"/>
	<path class="st0" d="M383,112.3c-1.2-2.5-2.4-4.9-3.5-7.4c0.6-0.3,1.1-0.5,1.7-0.8c3.1,1.6,4.3,4,3.6,7.3
		C384.1,111.7,383.6,112,383,112.3z"/>
	<path class="st0" d="M434.6,98.9c-1.8-0.4-2.1-0.4-2.1-0.5c-0.2-2.6-0.5-5.3-0.7-7.9c0.7,0,2.1,0,2.1,0.1
		C434.2,93.2,434.3,95.8,434.6,98.9z"/>
	<path class="st0" d="M486.9,103.7c-0.4-2.1-1-4.2-1.2-6.3c0-0.7,1.1-1.5,1.8-2.2c0.7,0.7,2,1.4,2,2.1c-0.1,2.1-0.6,4.2-1,6.4
		C488,103.7,487.5,103.7,486.9,103.7z"/>
	<path class="st0" d="M288.2,230.3c-3.7-0.6-6.5-1-9.6-1.4C281.5,225.1,284.4,225.5,288.2,230.3z"/>
	<path class="st0" d="M280,297.5c4,0.2,6.7,0.4,9.9,0.6C286.6,301.5,283.7,301.5,280,297.5z"/>
	<path class="st0" d="M311,364.7c1.4-1.4,2.6-2.9,4.2-4c0.5-0.3,1.8,0.6,2.7,0.9c-1.6,1.6-3.3,3.3-4.9,4.9
		C312.4,365.9,311.7,365.3,311,364.7z"/>
	<path class="st0" d="M281.2,285.2c-1.4-1-2.5-1.8-3.7-2.6c1.1-0.5,2.3-1.6,3.3-1.5c1.3,0.1,2.5,1.2,3.8,1.8
		C283.7,283.5,282.7,284.2,281.2,285.2z"/>
	<path class="st0" d="M342.1,141c-3.1-1.1-6.8-1.5-6.6-6.8c2.5,1.9,5,3.8,7.5,5.7C342.7,140.2,342.4,140.6,342.1,141z"/>
	<path class="st0" d="M362.9,249.9c3.9-3,3.9-3,0.5-5.9c2.2-0.3,4-0.6,6.3-0.9c-3.2,3.3-3.2,3.5,0.8,5.8
		C367.7,249.3,365.6,249.5,362.9,249.9z"/>
	<path class="st0" d="M292.5,213.1c-2.4-1-4.9-2-7.9-3.2C288.4,207.3,291.2,208.4,292.5,213.1z"/>
	<path class="st0" d="M416.5,99.6c-0.1-2.4-0.3-4.7-0.4-7.1c0.8-0.1,1.6-0.1,2.4-0.2c0.2,2.4,0.3,4.8,0.5,7.2
		C418.1,99.5,417.3,99.6,416.5,99.6z"/>
	<path class="st0" d="M316.7,166.5c-2-1.6-4-3.2-6.1-4.7c0.5-0.6,1.1-1.2,1.6-1.9c1.9,1.7,3.9,3.4,5.8,5
		C317.6,165.4,317.2,165.9,316.7,166.5z"/>
</g>
</svg>
