<?xml version="1.0" encoding="utf-8"?>
<!-- Generator: Adobe Illustrator 19.0.0, SVG Export Plug-In . SVG Version: 6.00 Build 0)  -->
<svg version="1.1" id="Layer_1" xmlns="http://www.w3.org/2000/svg" xmlns:xlink="http://www.w3.org/1999/xlink" x="0px" y="0px"
	 viewBox="0 0 285.3 194.3" style="enable-background:new 0 0 285.3 194.3;" xml:space="preserve">
<style type="text/css">
	.st0{fill:#D7A678;}
</style>
<g>
	<path class="st0" d="M216,160.7c2.4-1.9,4.9-3.8,7.3-5.7c0.1,0.1,0.3,0.3,0.4,0.4c-1.5,1.9-2.9,3.7-4.6,5.8
		c0.9,0.2,1.5,0.3,2.4,0.5c-4.5,6.1-10.2,10.6-15.7,15.2c-0.2-0.2-0.3-0.3-0.5-0.5c3.1-3.2,6.2-6.3,9.3-9.5
		c-0.1-0.1-0.2-0.2-0.2-0.3c-6,4.9-12.1,9.9-18.1,14.8c-0.1-0.1-0.2-0.2-0.3-0.3c1.6-1.4,3.2-2.7,4.8-4.1c-0.3-0.3-0.5-0.6-0.8-0.9
		c-5,3.4-10.1,6.7-15.1,10.1c-0.1-0.1-0.2-0.3-0.3-0.4c1.8-1.5,3.6-3,5.4-4.6c-8.1,4.3-16,8.8-24.8,11.4c-0.1-0.2-0.2-0.4-0.3-0.5
		c0.9-0.6,1.9-1.2,3.1-1.9c-5.4,1.4-10.5,2.8-15.7,4.1c-0.1-0.2-0.1-0.3-0.2-0.5c4.7-1.6,9.3-3.1,14-4.7c-0.1-0.2-0.2-0.5-0.2-0.7
		c-4.3,1.1-8.6,2.3-12.9,3.4c-9.3,2.3-18.8,2.7-28.3,1.7c-12.4-1.3-24.9-2.2-37.2-4.4c-14.7-2.6-29.1-7.2-42.8-13.2
		c-13.8-6.1-23.5-16.9-31.2-29.5c-2.6-4.4-5.3-8.9-7-13.6C1.7,120-1.4,107,0.7,93.1C1.7,85.8,2.4,78.6,5.9,72
		c1.8-3.5,4.4-6.7,6.6-10c0.9-1.3,1.8-2.7,2.7-4c4.2-5.9,9.3-11.1,15-15.6c4.5-3.6,9-7.3,13.9-10.4c12.2-7.5,24.9-13.6,39.2-16.2
		c8.9-1.6,17.8-3.5,26.9-3.6c28.2-0.4,54.7,5.4,78.6,21c1.7,1.1,3.3,0.8,4.8,0.3c5.2-1.8,5.9-1.9,3.3-7.3c-1-2.2-2.6-4.2-3.9-6.3
		c-3.5-5.8-2.5-9.7,3.3-13.2c5.6-3.3,11.7-5,18-5.9c18.1-2.3,35.3,0.4,51.3,9.2c6.9,3.8,12.7,8.9,16.5,15.9
		c7.6,14.2,1.4,30.3-17.3,33c-7.1,1-14.2-0.1-21.1-1.6c-2.5-0.6-4.9-1-7.5-1c-2.6,0-5.3-0.8-7.8-1.7c-2.7-1-6-0.8-7.8,1.4
		c-0.5,0.7-0.6,2.3-0.2,3.1c1.5,2.5,3.2,5,5.2,7.2c5.6,6.2,8,13.6,8.7,21.7c0.1,1.5,0.3,2.9,0.6,4.3c1.2,5.3,1.3,10.6,0.5,15.9
		c-1.1,6.9-1.7,13.9-3.3,20.7c-1.2,5.1-3.4,10.1-5.4,14.9c-1.3,3.1-3,6-4.8,8.8c-1.8,2.7-4.1,5.2-6.1,7.7
		C215.8,160.6,215.9,160.6,216,160.7z M211.6,152.9c-0.9,0-2.3,0.3-1.6-1.3c0.8-1.9,2-3.6,3.1-5.3c0.2,0.1,0.4,0.2,0.6,0.3
		c-0.1,0.7-0.3,1.4-0.4,2c0.2,0.1,0.3,0.2,0.5,0.2c0.9-1.5,1.8-3.1,2.8-4.5c0.5-0.7,1.2-1.3,1.9-1.6c1.6-0.7,3.4-2.8,3.5-4.6
		c-0.9,0.8-1.8,1.5-2.6,2.3c0.2-3.8,4.3-5.1,4.8-8.5c-4.8,3.8-9.3,7.7-13.9,11.6c-17.4,15.2-38.2,22.8-60.7,26
		c-14.8,2.1-29.6,2.1-44.4,1.2c-10.7-0.6-21.3-1.7-31.6-4.5c-20-5.3-37.4-15.6-53.3-28.6c-7.8-6.4-13.5-14.3-16.7-24
		c-0.1-0.3-0.3-0.6-0.5-0.9c2.2,13.7,8.1,25.6,17.2,36.3c-0.3-2.1-0.6-3.9-0.8-5.7c0.1,0,0.2,0,0.3,0c1,2.3,2,4.7,3,7
		c0.2-0.1,0.4-0.1,0.6-0.2c0.1-0.8,0.2-1.6,0.4-2.4c0.2-0.1,0.4-0.1,0.6-0.2c0.9,1.6,1.9,3.1,2.8,4.7c0.3-0.5,0.6-0.9,0.8-1.3
		c3.9,3.5,5.3,7,3.9,9c1,0.7,2,1.5,3,2.2c12.3,8.5,25.9,14.1,40.3,17.6c19.2,4.6,38.8,6.5,58.5,6.5c14.5,0,28.4-3.1,41.6-9.2
		c10.3-4.7,19.6-11.1,28.7-17.7C206.5,157.2,209,155,211.6,152.9c1.6-1.4,3.2-2.8,4.9-4.2c-0.1-0.2-0.1-0.4-0.2-0.6
		c-0.4,0-1.1-0.2-1.3,0C213.8,149.7,212.7,151.3,211.6,152.9z M136.2,106.7c0.2,0,0.3-0.1,0.5-0.1c1.1,1.9,2.3,3.8,3.3,5.8
		c1.1,2.1,2,4.2,3,6.3c1.3,2.6,3.3,3.7,6,3c6.7-1.8,13.4-3.5,20-5.8c8-2.7,15.8-5.9,22.9-10.6c5.8-3.9,8.8-9.6,10.4-16.1
		c0.8-3.1,1.3-6.6,0.8-9.7c-1.8-11.2-7-20.7-15.2-28.5c-10.1-9.6-22.5-15.1-35.7-18.7c-18.5-5-37.3-6.4-56.3-4.8
		c-13.1,1.1-25.6,4.4-37.1,11c-9.6,5.5-18,12.4-23.3,22.3c-4.5,8.3-6.6,17-2.4,26.3c3.2,7.2,9,11.8,15.5,15.6
		c4.9,2.8,9.8,5.6,14.6,8.4c8.3,4.7,16.7,9.1,26.3,10.5c4.5,0.7,9,1.4,13.9,2.1c0-2,0-3.7,0-5.1c1.5-0.1,2.6-0.2,3.6-0.2
		c-0.6,1.8-1.1,3.6-1.8,5.8c7.9,0.3,15.3,0.5,22.6,0.8c0.4-2.4,1.8-4.4-0.1-6.2c-0.2-0.2,0-0.9,0.1-1.4c0.6,0.1,1.1,0.2,1.9,0.3
		c-1.8-2.8-5.8-4.4-4.5-9.3c1.5,1.9,2.7,3.4,4.2,5.2c0-2.2,0-3.8,0-5.4c0.3,0,0.5-0.1,0.8-0.1c0.3,1.2,0.4,2.5,0.8,3.7
		c0.8,2.8,0.1,6.1,2.7,8.3c1.2,1,2.1,2.3,3.5,3.8c0.6-0.3,1.5-0.8,2-1.1c1.5,0.1,2.5,0.2,3.9,0.3c-0.4-1.7-0.4-3.2-1.1-4
		c-3.1-3.1-4.1-7.1-5.5-10.9C136.1,107.7,136.2,107.2,136.2,106.7z M28.4,47.5c-6,5.7-11,11.8-14.9,18.8
		c-6.7,12.3-8.2,25.2-3.2,38.5c3,8.1,7.7,15.2,13.7,21.4c10.9,11.3,24.2,18.4,38.8,23.4c17.3,6,35.2,8.4,53.4,8.6
		c13.6,0.2,27.2-0.4,40.6-2.6c17.4-2.9,32.3-11.2,46.1-21.8c9.6-7.4,17.3-16.3,22-27.7c2-5,3.4-10.1,3.6-15.5
		c0.1-6.3-1.1-12.3-3.2-18.2c-0.2-0.6-1-1-1.6-1.5c-0.1,2.2,0.3,4,0.4,5.8c0,0.7-0.8,1.4-1.2,2.2c-0.4-0.7-1-1.3-1.2-2
		c-0.3-1.1-0.3-2.2-0.4-3.4c-0.2,0-0.4,0-0.7,0c2,9.1,0.7,17.7-3.9,26c0.5,0,1.2-0.1,1.3,0.1c0.5,0.9,0.9,1.9,1.1,3
		c0,0.2-1.4,1-1.7,0.8c-1.9-1-3.2,0-4.3,1.3c-4.1,5-9,9-14.6,12.1c-5.3,2.9-10.7,5.8-16.1,8.4c-21.8,10.6-44.4,16.8-69.1,15.4
		c-27.4-1.6-52-10.3-74.3-25.9c-7.6-5.2-13.9-11.6-17.4-20.4c-4.7-11.9-2.9-23.7,1.1-35.3C24.2,55.2,26.4,51.5,28.4,47.5z M194,37.1
		c0.6,0.6,1.1,1.1,1.6,1.6c10,9.5,15.4,21,15.7,34.8c0.2,11.8-3.5,22.1-12.4,30.2c-3.1,2.9-7,4.6-10.7,6.4
		c-14.6,7.2-29.7,12.4-45.8,15.2c-14.3,2.4-28.5,2-42.8,0.3c-9.2-1.1-18.4-2.8-26.8-7c-5.3-2.7-10.4-6-15.6-8.9
		c-7.3-4.1-14.4-8.6-20.6-14.3c-8.7-8.1-11.7-17.7-9.7-29.1c2.3-13.4,10-23.6,20-32.3c0.2-0.2,0.5-0.4,0.7-0.6
		c0.2-0.1,0.3-0.3,0.5-0.6c-0.4,0-0.6-0.1-0.7,0c-11.1,6.8-19.2,16-22.8,28.6c-5.9,20.9-0.5,37.2,17.6,48.8c5.4,3.5,11.2,6.3,17,9.1
		c9.7,4.7,19.6,9.3,30.2,11.6c34.3,7.4,66.8,2.1,97.7-14c8.9-4.6,16.6-10.8,21.7-19.6c5-8.6,7.4-17.8,4.3-27.7
		c-0.9-2.9-1.5-6-2.2-8.9c-0.7-2.8-1-5.7-2.9-8.2c-1.3-1.6-2.1-3.6-3-5.5c-0.2-0.5-0.3-1.3,0-1.7c0.5-0.7,1.2-1.3,1.9-1.9
		c0.7-0.7,1.5-1.3,2.3-2c-1.8-3.9-5.7-5.7-9.4-8C198,34.4,196.1,35.7,194,37.1z M4.9,83c-0.2,0.4-0.4,0.8-0.5,1.2
		C0,101,3.8,116,15.2,128.8c10.9,12.1,25.2,19.8,39.5,27.2c0.6,0.3,1.4,0,1.9,0c2,1.2,3.9,2.5,6,3.4c2.1,0.9,4.4,1.2,6.5,1.9
		c1.5,0.5,2.9,1.4,4.4,1.8c9.6,2.6,19.4,3.7,29.2,4.5c20.7,1.6,41.2,0.8,61.4-4.1c21-5.2,39.4-14.9,53.6-31.7
		c9.7-11.5,15.6-24.5,14.3-39.9c-0.2-1.8-0.5-3.7-0.7-5.5c-0.2,0-0.5,0.1-0.7,0.1c0,2.9,0.4,5.9-0.1,8.7
		c-1.8,11.2-6.3,21.3-13.8,29.8c-17,19.3-38.3,30.9-63.7,34.5c-20.8,2.9-41.7,3.1-62.5,0c-18.7-2.7-36.6-8.4-52.8-18.5
		c-14.2-8.8-25-20.6-30.4-36.7C5.1,97.3,4.4,90.2,4.9,83z M202.4,52.5c-1.3-2-2.3-4.2-3.8-6.1c-5.8-7.2-13.1-12.8-21.4-16.8
		c-29-14.2-59.4-17.5-90.9-11.1c-11.2,2.3-22,5.9-31.6,12.5c-4.8,3.3-9.2,7.1-12.6,11.9c2.3-1.6,4.5-3.3,6.7-5.1
		c3.1-2.5,5.8-5.5,9.7-7c2.4-1,4.5-2.8,6.9-3.7c11.8-4.6,24.1-7.6,36.7-9.1c0.5-0.1,1,0,1.5,0c-3.3,1.3-5.9,4.6-10.3,3.8
		c-0.7,0.2-2,0.7-3.3,1.1c-8.2,2.5-16.6,4.6-24.7,7.4c-6.4,2.3-12.4,5.6-17.8,10.1c-2.1,1.7-4,3.3-4.7,4.9c3.9-2.6,8.1-6,12.8-8.5
		c12.2-6.5,24.7-11.6,38.9-12.5c13.9-0.9,27.6-0.2,41.3,1.4c11.8,1.4,22.8,5.4,33.5,10.4c10.8,5.1,20.5,11.6,27.3,21.7
		c1.7,2.6,3.2,5.3,4.8,8c0.1,0,0.2,0,0.3,0c-0.1-2-0.3-4-0.4-6.1c-0.9-0.2-1.6-0.6-1.6-1.1c-0.4-2.6-0.6-5.2-0.9-7.7
		c0.1,0,0.2-0.1,0.3-0.1c0.6,1.1,1.1,2.1,1.6,3C201.1,53.6,201.6,53.3,202.4,52.5z M270.9,25.3c-0.1,0.1-0.3,0.2-0.4,0.2
		c0.6,1.1,1.3,2.2,1.6,3.4c0.5,1.7,1.1,3.5,1,5.2c-0.3,4.3-3.3,6.6-6.9,8c-6.2,2.4-12.5,2.7-18.8,0.1c-1.9-0.8-3.8-1.5-5.8-1.9
		c-1-0.2-2.5,0.2-3.1,0.9c-1.9,2.1-1.4,7,1.1,8.5c2.3,1.4,4.9,2.5,7.6,3.2c6.7,1.8,13.5,3.2,20.6,1.7c8.9-1.9,15.4-8.3,16-16.4
		c0.5-6.5-2.6-11.7-6.8-16.3c-8-8.8-17.8-14.4-29.2-17.6c-14.1-3.9-28.2-3.3-42.2,0.4c-2.6,0.7-5.1,2.1-7.4,3.6c-3,2-3.7,6-1.9,8.5
		c0.1-1,0.2-2,0.4-3c0.2-0.9,0.5-1.9,0.7-2.8c0.1,0,0.2,0,0.2,0c-0.1,1.4-0.2,2.7-0.3,4.1c0.1,0,0.2,0,0.2,0.1
		c0.2-0.6,0.4-1.1,0.9-2.3c0.5,2.1,0.8,3.6,1.2,5.6c0.1-1.1,0.2-1.6,0.3-2.3c3.9,3.6,7.1,5,9.9,4.3c-0.8-1.2-1.5-2.4-2.4-3.4
		c-2.2-2.6-1.2-9.9,3.7-11.2c-0.9,1.3-1.6,2.3-2.2,3.3c1.3-0.9,2.3-2.1,3.3-3.2c0.9-0.9,1.6-1.7,3.3-1.3c1.6,0.4,3.5-0.3,5.2-0.4
		c1.8-0.1,3.8-0.6,5.5-0.1c2.8,0.8,5.5,0.8,8.2,0.3c6.4-1.1,12.1,2.1,18.1,3.3c1.3,0.3,2.4,1.5,3.6,2.4c2.8,2,5.7,4.1,8.5,6.2
		c0.8,0.5,1.5,1,2.3,1.5c3.5,2.1,6.3,4.7,7.3,8.8c0.1,0.5,0,1-0.1,2C272.8,27.3,271.9,26.3,270.9,25.3z M238.3,34.9
		c-0.4-0.6-0.9-1.3-1.4-1.9c-3.1-3.6-6.8-6.4-11.3-7.9c-1-0.3-2.2-0.4-2.8-0.5c0,6.2,0,11.9,0,17.6c0.3,0,0.5,0,0.8,0
		c-0.1-1.2-0.1-2.3-0.2-3.5c0-1.3,0-2.5,0-4.3c3.1,5.4,6.3,6.8,11.7,5.3c1.7-0.5,3.8-0.8,3.9-3.5c-5.2,4.8-9.4,4.5-12.4-1.1
		c0.6,0.4,0.9,0.6,1.3,0.8c2.5,1.6,4.9,2,7.5,0C236,35.4,237.1,35.3,238.3,34.9z M205.1,26.4c6.4,1.7,9.6,6.2,12.1,12
		c0.3-1.2,0.4-2,0.6-2.9c0.6,2.6,1.1,5,1.6,7.4c0.2,0,0.5-0.1,0.7-0.1c0-4.8,0-9.6,0-14.4c0-1.4-0.2-2.8-0.6-4.1
		c-0.5-2.1-2.2-3.2-4.1-2.6C212,22.8,208.2,23.6,205.1,26.4z M249.7,13.8c0.2-0.8,0.3-1.4,0.4-1.9c-0.8-0.2-1.5-0.5-2.1-0.7
		c0-0.1,0.1-0.1,0.1-0.2c1,0.1,2,0.1,3,0.2c0-0.2,0.1-0.4,0.1-0.6c-1.9-0.5-3.8-1.4-5.7-1.5c-3.1-0.2-7,2.5-6.2,6.9
		c0.2,1.3,0.7,2.5,0.9,3.8c0.2,1.6,0.5,3.2,0.5,4.7c0,2-0.2,3.9-0.3,5.9c0.1,0,0.2,0,0.3,0c0.2-2.4,0.4-4.7,0.7-7.1
		c0.1,0,0.2,0,0.3,0c0.1,1.4,0.2,2.8,0.3,4.2c0.2,0,0.3,0,0.5,0c0.1-1.2,0.2-2.5,0.4-3.7c0.1,0,0.1,0,0.2,0c0.2,1.9,0.5,3.8,0.7,5.7
		c0.2,0,0.4-0.1,0.5-0.1c0.1-0.8,0.2-1.6,0.3-2.8c0.4,1.2,0.6,2.1,0.9,3.1c1.6-2.2-2.4-4.5,0.5-6.4c0.2,0.8,0.5,1.4,0.7,2.1
		c0.2,0,0.3-0.1,0.5-0.1c-0.4-1.8-0.4-3.6-1.1-5.2c-0.9-2.2-1.8-4.3-0.3-6.6C247,11.7,248.1,11.6,249.7,13.8z M232.5,20.2
		c0.1,0,0.3-0.1,0.4-0.1c0.3,0.5,0.6,0.9,1.1,1.7c-0.3-2.2-0.6-4-0.9-5.8c0.1,0,0.2,0,0.3,0c0.2,0.5,0.5,1.1,0.7,1.6
		c0.1,0,0.1,0,0.2-0.1c-0.1-1.3-0.2-2.7-0.3-4c0.1,0,0.1,0,0.2,0c0.3,0.7,0.5,1.3,0.8,2c0.1,0,0.2,0,0.3-0.1c0-1.7,0-3.5,0-5.2
		c0.1,0,0.2,0,0.3,0c0.1,1.7,0.3,3.5,0.4,5.2c0.4-1.2,0.7-2.5,0.4-3.5c-0.6-1.8,0.3-2.7,1.5-3.3c0.8-0.4,2-0.4,3.2-0.6
		c-5.6-2.3-10.7,0.1-12.8,5.6c-1.6,4.5,0.6,10.1,4.7,11.3C232.8,23.4,232.7,21.8,232.5,20.2z M246.4,34.7c5.3-2.8,6.9-7.5,7.7-12.4
		c0.4,0.2,0.9,0.5,1.1,0.4c2.1-1.1,1.5-3.1,1.5-5.1c0.5,0.8,0.8,1.3,1.1,1.9c0.1,0,0.2-0.1,0.3-0.1c-0.3-1.4-0.7-2.8-1-4.1
		c0.4-0.1,0.7-0.2,1-0.3c0-0.2,0-0.4,0-0.5c-1.2-0.1-2.4-0.5-3.5-0.4c-4.3,0.6-5.9,2.8-5.1,7.7c0.7,4.5,0.8,8.7-2.9,12.1
		C246.5,33.8,246.5,34,246.4,34.7z M263.9,41c3.8,0.2,5.8-2.8,6.8-6.5c1.1-3.8-0.7-8.5-4-10.5C268.4,30.2,264.8,35.3,263.9,41z
		 M213.4,43.9c1.4-4-0.3-7.6-5.2-11.9c-1.7-1.4-5.3-1.7-7.7-0.6C206.3,33.8,210.9,37.5,213.4,43.9z M260.1,22.1
		c-0.6,0.8-1.2,1.6-1.7,2.4c-2.3,3.6-2,8.5-6,11.3c0.3,0.2,0.5,0.5,0.8,0.7c1.9-1.5,3.7-3,5.6-4.6c0.5-0.5,0.7-1.5,1.2-2.2
		C261.8,27.5,262.1,25.4,260.1,22.1z M219,11.5c-1.2,0.3-2.7,0.3-3.8,1c-1,0.6-2.5,2-2.3,2.6c0.4,1.4,1.7,2.6,2.7,3.7
		c0.1,0.1,1.6-0.5,1.7-1.1C218,15.9,218.4,13.9,219,11.5z M130.9,119.1c0.2,0.3,0.4,0.7,0.7,1c-0.7,0.4-1.3,0.8-2.2,1.3
		c0.2,0.6,0.7,1.7,1.3,2.9c1-0.1,2-0.2,3.5-0.3C133,122.2,132,120.7,130.9,119.1z M224.5,17.4c1.1-2.3,2.1-4.5,3.2-6.6
		c-0.2-0.1-0.4-0.3-0.6-0.4c-1.5,1.8-2.9,3.6-4.4,5.4C223.6,16.6,224.1,17.1,224.5,17.4z"/>
	<path class="st0" d="M139.4,64.8c-0.6-1.3-0.2-1.9,1-2.3c2.3-0.8,6.4-0.6,8.1,0.3c1.3-0.4,2.4-0.9,3.4-1c3.7-0.3,7.4-0.4,11.2-0.4
		c-2.9,2.1-4.9,5.6-9,6c-0.2,0-0.6,1.1-0.5,1.6c0.1,0.5,0.7,0.9,1.3,1.6c-2,1.4-3.9,3-6,4.1c-2,1-2.8-1.2-4.7-2.1
		c1.6,0,2.6,0.1,3.5,0c1.3-0.2,1.9-1.1,1.3-2.1c-0.4-0.6-1.8-1.3-2.4-1.1c-1.4,0.6-2.6,1.6-3.7,2.6c-1.4,1.2-2.6,2-4.7,1.3
		c-0.7-0.3-2.3,0.5-2.8,1.3c-0.6,0.9-1.9,2.2-0.7,3.5c1.3-0.3,2.4-0.6,3.6-0.9c0,0.1,0.1,0.2,0.1,0.3c-0.9,0.8-1.8,1.5-2.7,2.4
		c1.9,1.2,1.7,3.3-0.1,3.8c-0.9,0.3-1.9,0.2-2.8,0.3c0,0.2-0.1,0.4-0.1,0.6c0.9,0.2,1.8,0.4,2.7,0.7c0.5,0.1,1,0.3,1.4,0.6
		c0.1,0-0.2,0.9-0.3,0.9c-0.5,0-1-0.1-1.5-0.3c-0.9-0.3-1.7-0.8-2.6-1.2c-0.2,3.1-2,4-4.5,2.7c-0.6-0.3-2.2,0.3-2.5,0.9
		c-1.7,3.2-1.7,3.4-5.1,2.4c-0.8,0.9,0.4,3.2-1.9,2.8c-0.2,0-0.2-1.6-0.3-2.7c-2-0.5-5.9,2-6.1-3.2c-1.9,0.3-3.4-2.1-5.9-0.5
		c0.7,0.5,1.2,0.8,1.7,1.1c0,0.2,0,0.4,0,0.6c-0.6,0-1.8,0-1.8-0.2c-0.1-1.1-0.1-2.2-0.1-3.5c-0.9,0.6-2,1.3-3.4,2.1
		c-2.2-1.6-4.4,0.6-7.2,0.7c1.5-1.1,3-2.2,4.6-3.4c0.3,0.1,0.8,0.4,1,0.5c0.7-1.9,1.4-3.6,2.1-5.3c-0.3,0.1-0.6,0.2-0.9,0.2
		c-0.8-0.7-1.7-1.4-2.5-2c0.9-0.8,1.9-1.5,3-2.5c-0.6-0.3-1.5-0.8-2.5-1.4c0-0.2,0-0.3,0-0.5c0.5-0.1,0.9-0.2,1.4-0.3
		c0.5-0.1,1.1-0.1,1.8-0.2c0,0.4,0,0.9-0.1,1.3c0.2,0.1,0.3,0.1,0.5,0.2c1.1-1.8,2.2-3.6,3.4-5.7c-1.5-0.3-2.8-0.4-4-0.7
		c-2.5-0.6-2.8-1.3-2.6-3.9c0.1-0.7-0.6-1.5-1.1-2.1c-6-6-12-11.9-18.1-17.9c-0.5-0.5-0.9-1-1.1-1.8c1.8,1,3.6,1.9,5.4,3
		c7.1,4.5,14.1,9.1,21.3,13.5c1.2,0.8,2.8,1.2,4.3,1.3c3.4,0.3,4.3,1.3,3.4,4.6c-0.1,0.5-0.1,1.1,0.1,1.6c0.1,0.2,0.9-0.1,1.3,0
		c1.1,0.1,2.7-1.3,3.3,1c0.1,0.5,1.3,0.6,1.9,1c0.9,0.7,1.7,1.6,2.7,2.6c1.6-0.2,3.8-0.5,6-0.7c1.4-0.1,3,0.1,3.5-1.9
		c0.1-0.4,0.8-0.7,1.2-0.8c2.2-0.6,4.4-1,6.6-1.6c0.7-0.2,1.5-0.7,2-1.2c0.2-0.2-0.2-1.4-0.5-1.5c-0.8-0.2-1.7-0.1-2.5,0
		C140.1,64.1,139.7,64.5,139.4,64.8z M104.1,76c-1.2,4.3-0.2,6.9,3,8.7c7.7,4.3,15.4,4,22.9-0.5c3.1-1.9,3.2-4.7,0-6.3
		c0.6,2.6-0.8,4.3-2.8,5.2c-5.7,2.7-11.5,2.6-17.2,0.1c-4.1-1.8-4.4-4.8-1.3-8c0.8-0.8,1.2-2,1.8-3.1c-0.3-0.2-0.6-0.4-0.9-0.6
		c-0.7,0.8-1.3,1.6-2.1,2.5c-1.7-0.5-2,0.6-1.5,2.4C105.3,76.3,104.8,76.1,104.1,76z M111.9,65.8c0-0.3,0-0.7,0-1
		c-1.5-1.7-3.5-1.6-5.5-1c-0.5,0.1-1.1,0.9-1.1,1.1c0.2,0.5,0.8,1.3,1.2,1.3C108.3,66.2,110.1,66,111.9,65.8z M121.1,77.8
		c-1.8,0-3.5,0.2-5.2,0c-1.6-0.2-3-0.8-4.6-1.3C114.3,78.9,117.6,79.1,121.1,77.8z M114.4,72.2c0,0.2-0.1,0.4-0.1,0.6
		c1.5,1.2,3.1,0.3,4.7-0.1C117.5,72.5,116,72.4,114.4,72.2z"/>
	<path class="st0" d="M158.1,102.5c1.1,0.4,2,0.8,3,1.1c-0.5-1-0.9-1.8-1.3-2.6c0.2-0.1,0.4-0.3,0.6-0.4c0.6,0.4,1.2,0.9,1.8,1.3
		c2.3,1.6,4.6,3,6.8,4.7c0.9,0.7,3,0.8,1.8,2.7c-1.1,1.6-1.9-0.2-2.9-0.6c-0.3-0.1-0.5-0.3-1-0.5c0,0.7,0.1,1.2,0.1,1.8
		c0,0.6-0.1,1.8-0.3,1.8c-0.9,0.1-2.3,0.2-2.7-0.3c-2.2-2.5-4.1-5.3-6-7.9C158,103.3,158.1,103,158.1,102.5z"/>
	<path class="st0" d="M81,106.4c-0.4,3.5-0.8,6.9-1.4,10.3c-0.1,0.5-0.8,1-1.2,1.4c-0.3-0.6-1.1-1.3-1-1.9c0.7-4.2,1.4-8.3,0.3-12.6
		c-0.4-1.6,1.8-3.8,4-3.6c1,0.1,2.1,1.5,2.7,2.5c0.7,1.4-0.5,3.1-2.3,3.6C81.8,106.2,81.4,106.3,81,106.4z"/>
	<path class="st0" d="M106.7,100.1c0.5,1.1,1.1,2.2,1.5,3.4c1.2,3.2,0.2,6.4-1,9.2c-0.7,1.9-2.9,3.2-4.6,4.6
		c-2.9,2.4-6.3,3.5-10.2,3.2c1.5-0.7,2.9-1.6,4.5-2.1c2.8-0.9,4.6-2.8,6.3-5c0.9-1.3,2.4-2.2,3.2-3.6
		C108,106.6,106.8,103.5,106.7,100.1z"/>
	<path class="st0" d="M175.2,91.7c0.7-0.1,1.5-0.3,2.2-0.2c0.6,0.1,1.2,0.4,1.8,0.7c0.1-0.3,0.2-0.6,0.4-1c-1.8-0.6-3.5-1.2-5.3-1.8
		c-1.3-0.4-2.7-0.7-3.9-1.2c-0.5-0.2-0.8-0.9-1.1-1.6c4.5,1.9,9.1,0.8,13.6,1.2c0.6,0.1,1.1,0.7,1.6,1c-0.5,0.5-1,1-1.5,1.4
		c-0.8,0.6-1.6,1-2.4,1.5c0.1,0.2,0.2,0.4,0.2,0.6c0.4,0.1,0.8,0.2,1.1,0.4c0.4,0.3,0.6,0.8,0.9,1.2c-0.5,0.2-1.2,0.8-1.6,0.6
		c-2-0.7-3.9-1.6-5.8-2.4C175.4,92,175.3,91.9,175.2,91.7z"/>
	<path class="st0" d="M69.9,53.2c-1.6,0.3-3.1,0.2-3.6-1.7c-0.2-0.5,0.4-1.3,0.6-1.9c0.6,0.4,1.2,0.8,1.8,1.2
		c0.5-1.8,2.1-1.1,3.1-0.7c0.6,0.2,0.8,1.5,1.2,2.3c0.4,1,0.5,2.4,1.2,2.9c1.9,1.5,4.2,2.6,6.2,4c0.6,0.4,0.8,1.3,1.1,2
		c-0.7,0-1.7,0.4-2.2,0c-2.7-1.9-5.3-4-7.9-6.1C70.9,54.7,70.5,54,69.9,53.2z"/>
	<path class="st0" d="M43.8,89.5c1.2-0.3,2.4-0.7,3.6-1c1.3-0.2,2.6-0.3,3.9-0.5c4.6-0.8,9.2-1.6,13.8-2.4c0.5-0.1,1,0,1.6,0.1
		c-0.1,0.5-0.2,1.2-0.4,1.2c-7.4,1.7-14.7,3.7-22.4,3.8C44,90.3,43.9,89.9,43.8,89.5z"/>
	<path class="st0" d="M88,58.8c-0.9,0.4-1.4,0.9-1.9,0.8c-1.1-0.2-2.1-0.6-3.1-1.1c-2-0.9-3.7-2.3-6.2-2.5c-1.1-0.1-2.1-1.7-3.1-2.8
		c-0.2-0.2-0.1-0.9,0.1-1.2c0.2-0.2,0.7,0,1.1,0c4.3,0.2,7.1,3.8,11,5C86.7,57.3,87.1,58,88,58.8z"/>
	<path class="st0" d="M123.2,52.6c0.7-2.1,1.2-3.5,1.6-5c0.6-2.6,1-5.3,1.6-8c0.1-0.7,0.6-1.2,0.9-1.9c0.3,0.6,0.8,1.2,0.9,1.7
		c0.1,3.6,0.1,7.3,0,10.9c0,1-0.2,1.6-1.6,1.4C125.8,51.6,124.8,52.2,123.2,52.6z"/>
	<path class="st0" d="M62.5,65.6c-1.2,0.4-2.3,1-3.5,1.2c-0.4,0.1-1-0.5-1.5-0.9c0.4-0.2,0.9-0.5,1.3-0.8c2.4-1.7,4.9-0.2,7.2,0
		c2.8,0.2,5.6,1,8.4,1.6c0.5,0.1,1.1,0.3,1.6,0.4c0,0.3,0.1,0.6,0.1,0.8c-1.1,0.3-2.3,0.9-3.3,0.7c-2.1-0.4-4.1-1.2-6.5-1
		C65,67.8,63.1,67.9,62.5,65.6z"/>
	<path class="st0" d="M70.9,88.6c-3.6,2.2-7.5,4.2-11,6.7c-2.7,2-5.1,4.5-3.4,8.4c0.1,0.3-0.2,1-0.4,1.1c-0.4,0.1-1,0-1.3-0.2
		c-0.3-0.2-0.5-0.8-0.4-1.2c0.3-2,0.7-4.1,1.2-6.1c0.1-0.4,0.6-0.7,1-1c1.5-1.2,2.9-2.5,4.5-3.5c1.5-1,3-2,4.7-2.6
		C67.4,89.4,69.3,89.1,70.9,88.6z"/>
	<path class="st0" d="M160.3,56.6c-1.3,0.4-2.7,0.9-4,1.3c-0.5,0.1-1.1-0.1-2-0.2c3.3-3,6.4-5.8,9.5-8.5c0.3,0.2,0.6,0.5,0.9,0.7
		C163.2,52.2,161.7,54.4,160.3,56.6L160.3,56.6z"/>
	<path class="st0" d="M54.6,67c4.4,1.3,8.7,2.6,13.1,3.9c-2.1,2.4-4.1,1.1-6.2,0.2c-1.7-0.7-3.4-1.1-5.1-1.8
		c-0.8-0.3-1.5-0.9-2.2-1.3C54.3,67.6,54.5,67.3,54.6,67z"/>
	<path class="st0" d="M172.4,73.6c0.7-0.2,1.4-0.4,2.1-0.6c0.1,0.3,0.1,0.6,0.2,1c-3.5,0.5-7,1-10.7,1.6c0.9-2.8,3.5-2,5.2-2.7
		c0-0.2,0-0.4,0-0.6c-1.1-0.1-2.1-0.2-3.3-0.3c0-1.3,0.3-2.2,1.9-2c1.2,0.1,2.6,0.1,1.5,2c1.1,0.4,2.1,0.7,3.2,1.1
		C172.5,73.2,172.4,73.4,172.4,73.6z"/>
	<path class="st0" d="M177.5,71.1c-1.7-0.1-3.3-0.1-4.8-0.3c-0.4,0-0.7-0.5-1.1-0.8c0.4-0.3,0.8-0.9,1.2-0.9c3-0.3,6-0.6,8.9-0.7
		c0.5,0,1.1,0.5,1.6,0.8c-0.4,0.5-0.8,1.4-1.3,1.5C180.5,70.9,178.9,70.9,177.5,71.1z"/>
	<path class="st0" d="M58.4,74.6c0.6,0,1.2-0.1,1.8,0c2.5,0.3,4.9,0.6,7.4,1c0.6,0.1,1,0.8,1.6,1.3c-0.6,0.3-1.3,1-1.8,0.9
		c-2.6-0.5-5.1-1.1-7.7-1.7c-0.5-0.1-0.9-0.5-1.4-0.8C58.3,75.1,58.3,74.8,58.4,74.6z"/>
	<path class="st0" d="M46.7,93.6c3.1-0.3,5.6-3.5,9.2-2.2C55.2,94,49.1,95.6,46.7,93.6z"/>
	<path class="st0" d="M100.6,90.8c-0.5,0.8-0.8,1.3-1,1.7c-2.8-1.1-5.5-2.2-8.5-3.3c0.3-0.6,0.7-1.3,1.2-2.2c1.3,0.6,3,0.3,3,2.4
		c0,0.2,1,0.7,1.2,0.6C98.2,88.5,99.2,90.2,100.6,90.8z"/>
	<path class="st0" d="M130.7,48.8c0.5-3.2,0.9-6,1.5-8.9c0.1-0.4,0.7-0.7,1.1-1.1c0.2,0.5,0.7,1,0.6,1.4c-0.4,2.8-0.8,5.6-1.4,8.4
		c-0.1,0.4-0.7,0.8-1,1.1C131.2,49.4,130.9,49,130.7,48.8z"/>
	<path class="st0" d="M97.9,42.1c1.1,1.5,2.4,3.3,3.8,5.1c-0.1,0.1-0.3,0.3-0.4,0.4c-2-2-4-4-5.8-6.1c-0.2-0.3,0.4-1.9,1-2.1
		c0.8-0.3,1.8,0.1,2.7,0.3C98.8,40.4,98.5,41.1,97.9,42.1z"/>
	<path class="st0" d="M160.3,56.7c1.8-1.4,3.5-2.9,5.5-4.1c0.7-0.4,1.8-0.2,2.8-0.3c-0.4,0.7-0.6,1.7-1.2,2
		c-1.8,1.2-3.7,2.2-5.6,3.1C161.3,57.7,160,58.3,160.3,56.7C160.3,56.6,160.3,56.7,160.3,56.7z"/>
	<path class="st0" d="M83.8,85.5c0,1.5,0,2.1,0,3c-3.8,0-7.6,0-11.3,0c2.4,0,4.2-3.2,7-1.2c0.2,0.2,0.9-0.2,1.3-0.4
		C81.7,86.4,82.5,86,83.8,85.5z"/>
	<path class="st0" d="M56.2,66.4c-2.5,0.2-5.1,0.3-8.1,0.5c1-2,1.1-4.3,3.8-2.6c0.1,0.1,0.3,0.1,0.4,0.1c2.1-1.9,2.6,0.8,4,1.1
		C56.3,65.9,56.3,66.1,56.2,66.4z"/>
	<path class="st0" d="M156.4,50.4c-0.1,3.3-5.3,8.1-7.8,7.1C151.2,55.2,153.7,52.9,156.4,50.4z"/>
	<path class="st0" d="M132.9,107.8c3.8,2.8,4.8,5.2,2.9,7.2C133.8,113.2,132,108.9,132.9,107.8z"/>
	<path class="st0" d="M152.8,100.2c1.1-1,1.7-2,2.5-2.3c1.3-0.4,3.1,1.5,3.8,3.8c-1.5,0.6-2.9,1.5-3.8-0.9
		C155.2,100.5,154.2,100.6,152.8,100.2z"/>
	<path class="st0" d="M161.1,88c2.5,0.6,4.4,1,6.3,1.6c0.5,0.1,0.8,0.5,1.3,0.8c-0.5,0.3-1,0.9-1.5,0.9c-1.5-0.1-3.1-0.2-4.5-0.7
		C162,90.4,161.7,89.1,161.1,88z"/>
	<path class="st0" d="M66.9,72.8c1-0.5,1.9-0.8,2.7-1.3c1.4-0.9,2.4,0,3.2,0.8c0.3,0.3,0.3,1.2,0.1,1.6c-0.2,0.3-1,0.5-1.4,0.4
		C69.9,74,68.5,73.4,66.9,72.8z"/>
	<path class="st0" d="M157.3,109.4c1.9,1.1,3.6,2.1,5.3,3.2c0.2,0.1,0.3,1,0.1,1.1c-0.3,0.3-1,0.5-1.3,0.3c-1.5-0.9-3-1.9-4.5-3
		c-0.2-0.2-0.3-0.8-0.3-1.1C156.8,109.7,157.2,109.5,157.3,109.4z"/>
	<path class="st0" d="M140.8,121.5c-2.6,0.1-2.9-0.3-3.8-5.5C139.7,116.9,139.4,119.5,140.8,121.5z"/>
	<path class="st0" d="M66,46.1c-1.1,0.5-2.2,1.3-3.4,1.5c-0.7,0.1-1.6-0.5-2.5-0.7c0.5-0.5,1-1.5,1.6-1.6c1.4-0.1,2.9,0.2,4.4,0.3
		C66.1,45.8,66.1,45.9,66,46.1z"/>
	<path class="st0" d="M42.1,74.7c0.3-2.6,2.7-3.9,4.2-2.9c0.3,0.2,0.2,1.5,0,1.6C45,73.9,43.7,74.2,42.1,74.7z"/>
	<path class="st0" d="M131.1,33.6c1.1,1.2,1.9,2.2,2.8,3.1c0,0,0,0.2,0,0.2c-0.4,0.2-1,0.7-1.1,0.6c-1-0.7-1.9-1.5-2.7-2.4
		C129.9,35.1,130.6,34.3,131.1,33.6z"/>
	<path class="st0" d="M97.5,113.5c-0.4-0.6-1-1.1-0.9-1.3c0.4-0.7,1.2-1.8,1.5-1.7c0.9,0.2,1.6,1,2.4,1.6
		C99.7,112.6,98.7,113,97.5,113.5z"/>
	<path class="st0" d="M83.1,98.2c-1.4-1.7-1.1-3.6,0.4-4.4c0.3-0.1,0.9-0.2,1,0c0.2,0.3,0.4,0.9,0.3,1.2C84.3,96,83.7,97,83.1,98.2z
		"/>
	<path class="st0" d="M61.2,105.4c-0.7-0.7-1.2-1.2-1.7-1.6c0.6-0.4,1.2-1.2,1.8-1.1c0.7,0,1.3,0.8,1.9,1.2
		C62.6,104.2,62,104.7,61.2,105.4z"/>
	<path class="st0" d="M152.8,107.1c-0.3,0.3-0.7,0.8-0.7,0.7c-0.9-0.5-1.8-1.1-2.5-1.8c-0.2-0.2,0-0.9,0-1.3c0.4,0.1,1,0,1.3,0.2
		C151.5,105.6,152.1,106.3,152.8,107.1z"/>
	<path class="st0" d="M92.3,93.3c0.8-0.7,1.3-1.1,1.8-1.5c0.5,0.6,1.1,1.2,1.4,1.9c0.1,0.2-0.8,1.1-1.1,1.1
		C93.8,94.6,93.2,94,92.3,93.3z"/>
	<path class="st0" d="M192.8,91.8c-1.1,0.9-1.8,1.5-2.6,2c-0.1,0-1-1-0.9-1.1c0.5-0.7,1.1-1.4,1.9-1.9
		C191.3,90.7,191.9,91.3,192.8,91.8z"/>
	<path class="st0" d="M162.4,86.7c1.6-0.2,3.1-0.4,4.7-0.4c0.4,0,0.8,0.7,1.2,1.2c-0.5,0.1-1,0.4-1.5,0.3c-1.5-0.2-2.9-0.4-4.4-0.7
		C162.5,87,162.4,86.8,162.4,86.7z"/>
	<path class="st0" d="M49.3,96.8c1.4-0.7,2.8-1.4,4.2-2.1c0.2,0.4,0.4,0.7,0.5,1.1c-1.4,0.7-2.8,1.3-4.2,2
		C49.7,97.5,49.5,97.2,49.3,96.8z"/>
	<path class="st0" d="M94.2,38.5c-0.7-0.8-1.2-1.3-1.7-1.8c0.5-0.4,1.1-1,1.6-1c0.6,0,1.2,0.6,1.8,1C95.5,37.2,95,37.7,94.2,38.5z"
		/>
	<path class="st0" d="M58.3,75.2c-2.1,0.8-3.4,0.4-5.2-0.9C55.3,73.6,56.7,73.8,58.3,75.2z"/>
	<path class="st0" d="M53.3,74.8c-0.9,0.4-1.5,0.9-1.8,0.8c-0.7-0.3-1.2-0.9-1.8-1.4c0.4-0.4,0.9-1.1,1.1-1
		C51.6,73.4,52.2,74,53.3,74.8z"/>
	<path class="st0" d="M162.4,73.4c-0.2-0.7-0.4-1.5-0.6-2.2c0.8-0.2,1.7-0.4,2.5-0.6c0.2,0.2,0.3,0.4,0.5,0.6
		c-0.5,0.8-1.1,1.6-1.6,2.4C162.9,73.5,162.6,73.5,162.4,73.4z"/>
	<path class="st0" d="M131.4,53.2c-0.1-0.7-0.5-1.5-0.3-2.1c0.2-0.6,1.1-0.9,1.7-1.3c0.2,0.2,0.4,0.4,0.6,0.6
		c-0.4,1-0.8,1.9-1.2,2.9C132,53.3,131.7,53.3,131.4,53.2z"/>
	<path class="st0" d="M49.9,58.2c-0.4,0.7-0.8,1.5-1.2,2.2c-0.4-0.3-0.8-0.5-1.2-0.8c0.5-0.7,0.9-1.4,1.4-2.1
		C49.3,57.9,49.6,58,49.9,58.2z"/>
	<path class="st0" d="M167,47.7c-0.2-1.2-0.3-2.2-0.4-3.2c0.4,0.1,1.1,0,1.3,0.2C168.5,45.7,168.9,46.7,167,47.7z"/>
	<path class="st0" d="M88.3,88.9c-1-0.1-1.8-0.1-3-0.2c0.8-1,1.3-1.8,1.9-2.6C87.5,86.9,87.9,87.8,88.3,88.9z"/>
	<path class="st0" d="M122.7,68.1c1.6,0.3,2.7,0.4,3.8,0.6C125.7,71,125.5,70.9,122.7,68.1z"/>
	<path class="st0" d="M112.4,150.3c0-3.6,5-7.2,8.3-5.8c0.6,0.3,0.9,1.4,1.4,2.1c-0.7,0.3-1.4,0.7-2.1,1c-1.4,0.5-2.9,0.9-4.2,1.6
		c-0.4,0.2-0.5,1.7-0.2,2.1c0.4,0.4,1.4,0.2,2.1,0.5c1.5,0.6,1.5-0.5,1.9-1.3c0.2-0.3,1-0.3,1.5-0.5c0.1,0.5,0.5,1.1,0.4,1.5
		c-0.5,1.9-3.2,3-6.1,2.6C113.5,153.7,112.4,152.3,112.4,150.3z"/>
	<path class="st0" d="M195.1,125.2c1.3,0.1,2.2,0.4,3,0.3c2-0.4,4.1-0.8,5.9-1.6c1.4-0.7,2.4-2,0.7-3.7c-0.3-0.3-0.3-1.2,0-1.5
		c0.3-0.4,1.2-0.7,1.4-0.5c0.9,0.6,2,1.4,2.3,2.3c0.6,2.3-1.8,5.6-4.5,6.8C200.3,128.5,197.2,128,195.1,125.2z"/>
	<path class="st0" d="M155,142.9c2.5-1.6,4.1-1.3,5.9,0.5c1.1,1.1,2.2,2.5,3.6,3c1.2,0.5,2.8-0.1,4.2,0c0.7,0,1.4,0.3,2.1,0.5
		c-0.3,0.7-0.4,1.7-0.9,2.1c-2.6,1.8-7.1,1.3-8.5-1.2C159.8,145.3,158.1,143.4,155,142.9z"/>
	<path class="st0" d="M189.3,132.6c-4.5,1.5-4.5,5-5.1,8.5c-0.6,3.1-3.3,4.5-7.1,4.1c4.2-0.8,5.4-3.6,5.1-7.4
		c-0.2-2.4,0.9-4.4,2.9-5.8C186.2,131.2,187.5,130.8,189.3,132.6z"/>
	<path class="st0" d="M132.2,152.8c-3-0.2-5.5-1.5-6.9-4.4c-0.2-0.5,0-1.2,0-1.7c0.6,0.2,1.3,0.2,1.6,0.5c1.9,1.9,4.1,2.7,6.7,2.5
		c1-0.1,2.4-0.3,2.3,1.1c0,0.6-1.3,1.3-2,1.8C133.4,152.9,132.8,152.8,132.2,152.8z"/>
	<path class="st0" d="M21,106.3c3.8-0.1,5.2,1.3,4.3,5.3c-0.5-0.9-0.8-1.8-1.4-2.6c-0.4-0.5-1.1-0.9-1.7-1.3
		c-0.4,0.6-0.8,1.2-1.1,1.8c-0.1,0.2,0.1,0.6,0,0.9c-0.2,0.8-0.5,1.5-0.8,2.2c-0.6-0.7-1.6-1.4-1.7-2.2c-0.2-1.3,0-2.7,0.1-4.1
		c0.1-1.3,0.3-2.5,0.5-3.8c0.2-0.1,0.4-0.1,0.6-0.2C20.2,103.7,20.6,105,21,106.3z"/>
	<path class="st0" d="M225.6,89.4c-0.1,0.6-0.1,1.2-0.4,1.7c-0.3,0.4-0.9,0.9-1.3,0.8c-0.4,0-1-0.8-1-1.1c0.2-1.7,0.5-3.4,0.8-5.1
		c0.1-0.7,0-1.4-0.1-2.2c-0.1-0.6-0.6-1.2-0.5-1.6c0.3-0.9,0.9-1.6,1.4-2.4c0.4,0.7,0.9,1.3,1.1,2c0.4,1.2,0.6,2.5,0.8,3.7
		c0.1,0.7-0.1,1.4-0.3,2.1c-0.2,0.7-0.6,1.3-0.9,2C225.4,89.3,225.5,89.4,225.6,89.4z"/>
	<path class="st0" d="M155.2,145c-2.4,2.4-4.9,4.9-7.3,7.3c-1.2-2.2-0.3-5.1,2.3-7.4C151.4,144,153.8,144,155.2,145z"/>
	<path class="st0" d="M171.4,139.8c0.3-0.9,0.5-1.4,0.8-2.3c-1.1,0-2,0.1-2.9,0c-0.6-0.1-1.1-0.5-1.6-0.8c0.3-0.5,0.6-1.4,1-1.4
		c1.6-0.2,3.3-0.4,4.9-0.2c0.4,0.1,0.7,2,0.6,3C174.2,139.4,173.3,140.2,171.4,139.8z"/>
	<path class="st0" d="M177.1,132.8c2.3,2.2,3.3,6.3,2.3,8.2c-0.4,0.8-1.3,1.5-2.1,1.8c-0.6,0.2-1.5-0.3-2.3-0.5
		c0.4-0.6,0.7-1.4,1.2-1.6c1.6-0.6,1.5-1.8,1.4-3.1C177.5,136.2,177.3,134.7,177.1,132.8z"/>
	<path class="st0" d="M23.9,111.2c0,0.8,0.1,1.6,0.1,2.4c0.1,1.1,0.1,2.2,0.5,3.2c0.7,1.6,2.2,1.9,3.7,0.8c0.3-0.2,0.9-0.3,1.3-0.4
		c0.1,0.5,0.4,1.4,0.2,1.5c-0.7,0.6-1.7,1.3-2.5,1.4c-2.1,0.1-3.3-1.3-4.1-3.1c-0.8-2-1.1-4,0.1-5.8
		C23.5,111.2,23.7,111.2,23.9,111.2z"/>
	<path class="st0" d="M30.4,123.3c3.4-1.8,2.1-3.8,0.8-5.8c-0.1-0.1-0.2-0.2-0.2-0.4c-0.1-1-0.2-2-0.3-3c0.7,0.6,1.5,1.2,2,2
		c0.8,1.2,1.6,2.6,1.7,3.9c0.1,1.1-0.6,2.4-1.3,3.4c-0.3,0.4-1.4,0.3-2.1,0.4C30.8,123.7,30.6,123.5,30.4,123.3z"/>
	<path class="st0" d="M14.9,105.8c0-4.3,0-8,0-12.2C17.2,96.4,17.2,103.1,14.9,105.8z"/>
	<path class="st0" d="M108.3,153.3c-2.2,0-2.7-1.2-2.9-2.5c-0.4-2.5,1.5-5.2,3.8-5.5c0.5,0,1.1,0.2,1.5,0.6c0.2,0.1,0,1-0.1,1.1
		C107.3,148.1,107.1,150.4,108.3,153.3z"/>
	<path class="st0" d="M209.7,120.5c1.4-2.3,2-3.9-0.3-5.1c-0.1-0.1,0.1-1.5,0.3-1.5c0.9-0.2,2.2-0.5,2.8-0.1c1.3,0.9,1,5-0.3,6
		C211.7,120.2,211,120.2,209.7,120.5z"/>
	<path class="st0" d="M215.6,105.3c0.8-0.2,2.1-0.8,2.4-0.4c0.9,0.9,1.8,2.1,2.1,3.3c0.2,0.7-0.6,1.9-1.2,2.5
		c-0.9,0.7-1.8,0.4-2-0.9c-0.2-1.3-0.5-2.6-0.7-3.9C216,105.7,215.8,105.5,215.6,105.3z"/>
	<path class="st0" d="M187.7,139.8c-1-0.9-0.9-2.5,0.1-3.7c1-1.1,2.5-1.8,3.8-2.6c0.2-0.1,0.9,0.5,1,0.8c0.1,0.2-0.1,0.8-0.4,1.1
		C190.8,136.9,189.3,138.3,187.7,139.8z"/>
	<path class="st0" d="M156.9,148.7c-0.2,1-0.3,2-0.6,2.9c0,0.1-1.4-0.1-1.5-0.3c-0.2-1-0.3-2-0.2-2.9c0.1-0.6,0.6-1.5,1.1-1.7
		c0.7-0.3,1.6-0.1,2.4,0.1c0.3,0.1,0.5,1.2,0.4,1.2C158,148.4,157.3,148.6,156.9,148.7z"/>
	<path class="st0" d="M145,149.3c-1-2.9,1-6,3.3-6.3c0.4,0,1.2,0.3,1.2,0.5c0.1,0.6,0,1.3-0.4,1.7c-0.7,0.7-1.7,1.1-2.4,1.8
		C146.1,147.7,145.6,148.6,145,149.3z"/>
	<path class="st0" d="M191.1,128.3c0.8,0.2,1.7,0.2,2.5,0.6c1.1,0.6,2,2.1,3.5,0.6c0.3,0.5,1,1,0.9,1.4c-0.3,1.8-2.6,2.3-4.1,0.9
		c-1-0.9-1.9-2-2.8-2.9C191.1,128.7,191.1,128.5,191.1,128.3z"/>
	<path class="st0" d="M221.7,94.4c2.3,0.3,4.2,2.3,3.9,3.9c-0.1,0.5-0.6,1.3-1.1,1.4c-0.4,0.1-1.4-0.3-1.6-0.7
		C222.5,97.5,222.2,96,221.7,94.4z"/>
	<path class="st0" d="M136.2,149c-0.8-0.3-1.8-0.5-2.7-1c-0.3-0.2-0.4-0.8-0.7-1.2c0.4-0.2,0.8-0.5,1.3-0.5c1.3,0,2.5,0,3.8,0.1
		c0.5,0,1,0.3,1.5,0.5c-0.3,0.5-0.5,1.2-1,1.5C137.9,148.7,137.1,148.7,136.2,149z"/>
	<path class="st0" d="M165.7,143c2.3-1,4.1-0.8,6-0.4c0.2,0.1,0.5,0.7,0.4,1c-0.1,0.3-0.5,0.8-0.8,0.8
		C169.5,144.6,167.7,144.4,165.7,143z"/>
	<path class="st0" d="M124.8,151c1.5,0.8,3,1.5,4.3,2.3c0.4,0.2,0.5,0.7,0.8,1.1c-0.4,0.3-0.7,0.7-1.2,0.8
		C126.5,155.5,124.5,153.2,124.8,151z"/>
	<path class="st0" d="M135.9,152.4c2.3-0.9,4.2-1.6,6.1-2.3c0.2,0.2,0.4,0.3,0.5,0.5c-0.4,0.6-0.7,1.4-1.2,1.8
		C139.8,153.3,138.2,153.8,135.9,152.4z"/>
	<path class="st0" d="M97.6,150.6c0.3-1,0.3-1.7,0.7-2.2c0.3-0.4,1-0.5,1.5-0.8c0.1,0.5,0.3,1,0.3,1.5c0,0.5-0.1,1-0.3,1.5
		c-0.3,0.6-0.7,1.2-1,1.8C98.4,151.8,97.9,151.1,97.6,150.6z"/>
	<path class="st0" d="M11,85.7c0-0.9-0.2-1.9,0.1-2.7c0.4-1.2,1.4-1.9,2.9-1.5c-0.9,1.5-1.6,2.8-2.3,4.1
		C11.4,85.6,11.2,85.7,11,85.7z"/>
	<path class="st0" d="M13,92.6c-1.5-2.4-0.6-4.4,1-6.8C13.6,88.4,13.3,90.5,13,92.6z"/>
	<path class="st0" d="M13.7,78c0.2-1.2,0.3-2.3,0.6-3.5c0.1-0.3,0.6-0.5,0.9-0.7c0.2,0.3,0.6,0.7,0.6,1c-0.3,1.2-0.7,2.3-1.1,3.5
		C14.3,78.2,14,78.1,13.7,78z"/>
	<path class="st0" d="M193.4,136.9c-0.8-2.5,0.4-3.2,1.6-3.6c0.3-0.1,0.8,0.3,1.3,0.5C195.5,134.7,194.6,135.6,193.4,136.9z"/>
	<path class="st0" d="M198,121.4c1.2-0.5,2.4-1,4-1.7C201.5,122,200.5,122.4,198,121.4z"/>
	<path class="st0" d="M44.9,133.3c-0.4,0.7-0.8,1.5-1.4,1.9c-0.5,0.3-1.9,0.3-2,0c-0.6-1.1,0.3-1.1,1.2-1.3c0.6-0.1,1-0.7,1.5-1.1
		C44.4,133,44.7,133.2,44.9,133.3z"/>
	<path class="st0" d="M40.2,132.3c-0.4-0.8-0.8-1.4-0.7-1.5c0.6-0.8,1.3-1.4,1.9-2.1c0.3,0.3,0.9,0.9,0.8,1
		C41.7,130.5,41,131.3,40.2,132.3z"/>
	<path class="st0" d="M12.9,94.6c0.3,2,0.6,3.9,0.8,5.9c-0.3,0-0.5,0.1-0.8,0.1c-0.3-2-0.5-3.9-0.8-5.9
		C12.4,94.6,12.7,94.6,12.9,94.6z"/>
	<path class="st0" d="M98.7,144.4c0.7-2,1.7-2,4.3,0C101.5,144.4,100.2,144.4,98.7,144.4z"/>
	<path class="st0" d="M166.2,176.8c-2,0.2-2.8,3.6-5.5,1.9c-2.1,0-3.1,4.1-5.6,1.1c-2.4,0.6-4.1,4.1-6.9,1.9c-1,0.4-2.7,1.4-3,1.2
		c-1.3-1.3,0.2-2.3,1-3.3c1.1-1.4,2.3-2.6,3.8-4.2c0.4,0.9,0.6,1.5,0.9,2.1c1-0.8,2.1-1.8,3.3-2.6c1.1-0.7,2.4-2.5,3.4,0.1
		c0.6-0.4,0.9-0.8,1.4-1c0.8-0.3,1.6-0.6,2.4-0.9c-0.1,0.8-0.1,1.6-0.2,3.1c1.2-1.2,2.1-2.1,2.9-3.1c1-1.2,1.8-2.4,3-0.8
		c2,0,2.5-3.9,5.2-1.3c0.9-0.5,1.7-1.2,2.7-1.6c1-0.4,2.2-0.6,3.3-0.9c0.2-0.1,0.4-0.1,0.6-0.2c3.7-1.8,7.4-3.6,11.1-5.4
		c0.6-0.3,1.1-0.7,1.8-0.9c0.4-0.1,0.9,0,1.3,0c-0.1,0.4-0.1,1.1-0.4,1.3c-1,0.8-2.1,1.6-3.2,2.3c-2.8,1.8-5.3,4.1-8.4,5.1
		c-2.5,0.8-4.4,3-7.5,2.7c-1.4-0.1-3,1.8-4.6,2.7C168.1,176.5,167.1,176.5,166.2,176.8z"/>
	<path class="st0" d="M93.4,180c-3-0.5-6.1-1-9.1-1.6c0-0.3,0-0.5,0-0.8c2.3,0.1,4.1-2.1,6.9-0.8c1.2,0.6,2.9,0.1,4.4,0.2
		c0.6,0.1,1.2,0.5,1.9,0.6c3.1,0.8,6.3,1.7,9.4,2.4c0.9,0.2,1.8,0.1,2.7,0.1c0.6-0.1,1.2-0.4,2-0.6c-1.3,2.2-2.7,2.5-4.3,1.5
		c-0.3-0.2-0.8-0.5-1.1-0.4c-2.9,1.1-5.6,0.6-8.3-0.5c-0.6-0.2-1.4,0.3-2.1,0.3c-0.7,0-1.4-0.4-2.1-0.6
		C93.6,179.9,93.5,179.9,93.4,180z"/>
	<path class="st0" d="M123.3,181.8c1-1.1,2.1-2.2,3.2-3.4c0.6,0.7,1,1.1,1.5,1.6c0.1-0.2,0.1-0.4,0.2-0.6c1,0.2,2,0.5,3,0.6
		c0.7,0.1,1.4-0.2,2.1-0.3c0.5,0,1.2-0.1,1.6,0.2c0.2,0.2,0,1,0,1.5c0,0.3-0.1,0.7-0.2,1c-0.1,0.4-0.3,1.1-0.6,1.2
		c-0.5,0.1-1.4,0-1.5-0.3c-0.6-1.2-1.4-0.9-2.4-0.7c-0.8,0.1-1.6-0.3-2.4-0.2c-0.6,0-1.3,0.2-1.9,0.5
		C124.6,183.5,123.7,183.4,123.3,181.8L123.3,181.8z"/>
	<path class="st0" d="M141.3,180.3c1-0.9,1.9-1.8,3-2.5c0.3-0.2,0.9-0.2,1.3-0.1c0.1,0,0.3,0.7,0.2,0.9c-1.4,1.8-2.7,3.6-4.3,5.2
		c-0.4,0.4-1.5,0.1-2.3,0.2c0.2-0.7,0.4-1.5,0.7-2.2c0.1-0.2,0.4-0.4,0.6-0.6C140.7,180.9,141,180.6,141.3,180.3z"/>
	<path class="st0" d="M141.3,180.3c-0.3,0.3-0.6,0.6-0.8,0.9c-0.1,0-0.1,0-0.2,0c-1-0.1-2.1,2-2.8,0.3c-0.3-0.6,1.1-2.1,1.9-3
		c0.3-0.4,1-0.4,1.9-0.8C141.3,178.7,141.3,179.5,141.3,180.3z"/>
	<path class="st0" d="M203.2,156.5c0.6-3,2.6-5.6,5.1-5.7c-1.7,2.3-3.2,4.2-4.6,6.1C203.6,156.8,203.4,156.6,203.2,156.5z"/>
	<path class="st0" d="M123.4,181.8c-1.2,0.5-2.9,1.7-3.5,0c-0.6-1.5,1-2.5,2.5-2.9c0.1,0,0.1,0,0.4,0.1
		C123,179.8,123.1,180.8,123.4,181.8C123.3,181.8,123.4,181.8,123.4,181.8z"/>
	<path class="st0" d="M196.1,162.5c-0.9-1.1-1.5-1.8-1.5-1.8c1-0.9,2-1.8,3.1-2.7c0.1-0.1,1,0.7,0.9,0.7
		C198,160,197.2,161.1,196.1,162.5z"/>
	<path class="st0" d="M70,172.1c-2,2.1-3.7,2.2-6.5,0.5C65.4,172.4,67.4,172.3,70,172.1z"/>
	<path class="st0" d="M37.1,161.4c-0.4-0.8-0.7-1.6-1.2-2.3c-0.5-0.6-1.3-1.1-2-1.6c3-0.8,4.6,0.4,4.2,3
		C37.8,160.8,37.5,161.1,37.1,161.4z"/>
	<path class="st0" d="M78.3,177.4c2.3-0.7,4.6-1.3,7.1-2.1C84.1,177.3,80.8,178.2,78.3,177.4z"/>
	<path class="st0" d="M119.3,179.2c-1,1-1.8,1.7-2.6,2.5c-0.3-0.4-1-1.1-0.9-1.1c0.7-0.9,1.5-1.6,2.3-2.3
		C118.1,178.2,118.7,178.7,119.3,179.2z"/>
	<path class="st0" d="M68.7,174c1.8-0.3,3.5-0.6,5.3-0.9c0.1,0.4,0.1,0.8,0.2,1.2c-1.8,0.3-3.5,0.5-5.3,0.8
		C68.8,174.7,68.7,174.3,68.7,174z"/>
	<path class="st0" d="M80.1,175.7c-2,0.6-4,1.2-6,1.8c-0.1-0.2-0.2-0.5-0.2-0.7c2-0.7,3.9-1.4,5.9-2.1C79.8,175,80,175.4,80.1,175.7
		z"/>
	<path class="st0" d="M157.2,125.7c1.1-1.7,2.9-2.3,5.3-1.3c-2,0.8-3.5,1.3-5,1.9C157.4,126.1,157.3,125.9,157.2,125.7z"/>
	<path class="st0" d="M151.7,127.2c-1.8,0.4-3.7,0.9-5.5,1.3c-0.1-0.3-0.2-0.6-0.2-0.9c1.8-0.5,3.7-1,5.5-1.5
		C151.6,126.5,151.6,126.9,151.7,127.2z"/>
	<path class="st0" d="M167.5,120.8c1.3-0.4,2.6-0.8,4.1-1.3C171,121.6,169.9,122,167.5,120.8z"/>
	<path class="st0" d="M181.9,117c-1.1,0.4-2.2,0.8-3.2,1.2c-0.1-0.3-0.3-0.7-0.4-1c1-0.5,2.1-0.9,3.1-1.4
		C181.5,116.1,181.7,116.5,181.9,117z"/>
	<path class="st0" d="M44,147c0.4,0.2,0.8,0.3,1.2,0.5c4.3,1.8,8.6,3.5,12.9,5.4c1.1,0.5,2.1,1.3,3.2,2c0.3,0.2,0.8,0.5,0.9,0.4
		c2.1-1.9,4.4,0.1,5.1,0.9c3.7,4.2,8.8,4.1,13.3,4.7c30.4,4.1,60.7,4.9,90.6-4c13.1-3.9,25.1-9.9,35.9-18.3c0.7-0.5,1.7-0.6,2.5-0.9
		c-0.4,0.8-0.7,1.8-1.3,2.3c-15,12-32.1,19.6-50.9,23.4c-20.1,4-40.4,4.2-60.7,1.9c-7.8-0.9-15.5-2.2-23.1-3.6
		c-2.9-0.5-6-1.3-8.4-2.9c-4.9-3.1-10.6-4.3-15.8-6.7c-1.7-0.8-3.3-1.8-4.9-2.9c-0.5-0.3-0.7-1.1-1.1-1.6
		C43.6,147.3,43.8,147.2,44,147z"/>
	<path class="st0" d="M105.2,21.8c4.2-1.5,7.9-4.7,12.9-3.9C114,19.9,109.9,21.9,105.2,21.8z"/>
	<path class="st0" d="M114.1,21.2c3.8-1.5,7.4-3.9,11.9-2.3c-3.9,1.1-7.8,2.2-11.7,3.2C114.3,21.8,114.2,21.5,114.1,21.2z"/>
	<path class="st0" d="M110.6,18c-3.7,1.2-6.8,4-11,3.6C103.1,20.1,106.2,17,110.6,18z"/>
	<path class="st0" d="M132.6,20.9c-3.8,0.5-7.6,1.1-11.4,1.6c0-0.3-0.1-0.6-0.1-0.9c3.7-1,7.4-2.3,11.3-1.6
		C132.5,20.3,132.6,20.6,132.6,20.9z"/>
	<path class="st0" d="M127.8,22.1c3.2-0.2,6.3-0.5,9.5-0.7c-2.4,2.4-5.6,2.1-9.5,1.4C127.8,22.5,127.8,22.3,127.8,22.1z"/>
	<path class="st0" d="M196.2,48.2c0.5,2.2,1.1,4.4,1.6,6.6c-0.3,0.1-0.6,0.2-1,0.2c-1.5-2-0.8-4.5-1.5-6.7
		C195.6,48.3,195.9,48.2,196.2,48.2z"/>
	<path class="st0" d="M269,50.1c-0.4,0.6-0.6,1.4-1.1,1.6c-1,0.5-2.2,0.9-3.3,1c-0.7,0.1-1.4-0.4-2.3-0.7c-0.7,1.6-1.9,1.9-3.8,0.8
		c-0.3-0.2-0.8-0.1-1.2-0.1c-1.4-0.1-2.9,0-4.3-0.3c-1.8-0.4-4.1-2.1-5.2-1.5c-2.3,1.3-3-0.6-4.4-1.1c-2-0.7-2.3-1.6-2-3.7
		c0.1-0.5-0.2-1-0.3-1.5c0.8-0.2,1.6-0.4,2.5-0.5c2,2.5,2,2.5,3.2,0.5c1.4,0.8,2.7,1.5,4.3,2.4c2.4-1.3,5.5-0.4,8.4-0.5
		c0.9,0,1.9-0.3,2.9-0.5c0,0.4-0.1,0.8-0.1,1.3c0.7-0.3,1.4-0.7,2.3-1.1c-0.1,0.7-0.1,1.2-0.1,1.8c1.1-0.8,2-1.6,3.4-2.6
		c0,0.9,0,1.4,0,2.3c1.2-1.3,2.2-2.3,3.6-3.8c0.1,1.1,0.1,1.6,0.1,2.1c-0.5,0.6-1,1.2-1.4,1.9C269.7,48.6,269.4,49.4,269,50.1z"/>
	<path class="st0" d="M269,50.1c0.4-0.7,0.7-1.5,1.1-2.2c0.4-0.7,1-1.2,1.4-1.9c0.6-0.7,1.1-1.4,1.9-2.4c0.3,0.8,0.5,1.3,0.7,1.9
		c0.9-1.1,1.8-2.2,2.6-3.3c0.2,0.1,0.3,0.2,0.5,0.3c-0.4,0.9-0.7,2.1-1.4,2.7C273.7,46.9,272.4,50,269,50.1z"/>
</g>
</svg>
