<?xml version="1.0" encoding="utf-8"?>
<!-- Generator: Adobe Illustrator 19.0.0, SVG Export Plug-In . SVG Version: 6.00 Build 0)  -->
<svg version="1.1" id="Layer_1" xmlns="http://www.w3.org/2000/svg" xmlns:xlink="http://www.w3.org/1999/xlink" x="0px" y="0px"
	 viewBox="0 0 306 79.7" style="enable-background:new 0 0 306 79.7;" xml:space="preserve">
<style type="text/css">
	.st0{fill:#999999;}
	.st1{fill:#FFFFFF;stroke:#FFFFFF;stroke-miterlimit:10;}
	.st2{fill:#DE1255;}
</style>
<g>
	<g>
		<g>
			<g id="XMLID_264_">
				<path id="XMLID_299_" class="st0" d="M46.5,58.9v-0.7c1.3,0.1,2.3,0.1,3,0.1c0.8,0,1.6,0,2.5-0.1c0.3,0.8,0.6,1.4,0.8,1.9
					c0.3,0.6,1.3,2.8,3.1,6.6c0.8,1.6,1.5,3.2,2.3,4.7l5-10.5c0.3-0.6,0.7-1.5,1.1-2.7c1,0.1,1.8,0.1,2.4,0.1c0.5,0,1.4,0,2.6-0.1
					v0.7C69,59,68.8,59,68.7,59c-1.1,0.2-1.7,0.4-1.8,0.5c-0.2,0.2-0.3,0.6-0.3,1.2v0.2l0,3.7c0,4.7,0,7.5,0.1,8.5
					c0,0.2,0.1,0.4,0.2,0.5s0.8,0.3,2,0.5c0.1,0,0.3,0.1,0.5,0.1v0.7c-1.4-0.1-2.6-0.1-3.7-0.1c-1.1,0-2.4,0-3.9,0.1v-0.7
					c0.3-0.1,0.5-0.1,0.7-0.2c1-0.2,1.5-0.3,1.6-0.4c0.1-0.1,0.2-0.2,0.3-0.3c0.1-0.2,0.1-0.9,0.1-1.9V61.2
					c-0.7,1.4-2.3,4.8-4.8,10.2c-0.7,1.5-1.2,2.6-1.5,3.4h-0.7c-1.7-3.9-3.9-8.4-6.4-13.5l0.2,10.9c0,0.9,0.1,1.4,0.2,1.5
					S52,73.8,53,74c0.1,0,0.3,0.1,0.5,0.1v0.7c-1.4-0.1-2.4-0.1-3.3-0.1s-1.9,0-3.3,0.1v-0.7c0.2-0.1,0.4-0.1,0.5-0.1
					c1-0.2,1.6-0.4,1.7-0.5c0.2-0.2,0.3-0.8,0.3-1.6l0.1-2.6c0-2.4,0.1-4.7,0.1-7l0-1.4c0-0.6,0-0.9-0.1-1.1s-0.2-0.2-0.3-0.3
					c-0.3-0.1-1-0.3-2-0.4C47,59,46.8,59,46.5,58.9z"/>
				<path id="XMLID_297_" class="st0" d="M70.7,64.3v-0.7c1.2,0.1,2.1,0.1,2.6,0.1c0.4,0,1.3,0,2.6-0.1v0.7
					c-0.7,0.1-1.1,0.2-1.3,0.4c-0.1,0.1-0.2,0.2-0.2,0.3c0,0.2,0.1,0.5,0.4,1.2c0.8,2.1,1.7,4,2.5,5.6l1.2-3.5c0.7-1.9,1-2.9,1-3.2
					c0-0.1,0-0.3-0.1-0.3c-0.1-0.1-0.3-0.2-0.6-0.3c-0.1,0-0.2-0.1-0.3-0.1v-0.7c1,0.1,1.7,0.1,2.1,0.1c0.5,0,1.1,0,1.8-0.1v0.7
					c-0.6,0.1-1,0.3-1.2,0.6c-0.2,0.2-0.6,1.1-1.2,2.7l-2.3,6.1c-0.7,1.9-1.2,3.1-1.5,3.8c-0.4,0.8-1,1.4-1.5,1.8s-1.1,0.6-1.6,0.6
					c-0.3,0-0.6,0-1.1-0.1c-0.1-0.5-0.2-0.8-0.3-1s-0.2-0.5-0.5-1l0.4-0.3c0.6,0.5,1.2,0.8,1.8,0.8c0.6,0,1-0.2,1.4-0.6
					c0.6-0.6,1-1.6,1.5-3l-2.3-5.2c-0.7-1.7-1.3-3-1.9-3.9c-0.2-0.3-0.3-0.5-0.4-0.6C71.6,64.6,71.3,64.4,70.7,64.3z"/>
				<path id="XMLID_294_" class="st0" d="M91.1,58.9v-0.7c1,0.1,2.3,0.1,3.9,0.1l4.6,0c1.7,0,3,0.4,3.8,1.1c0.8,0.7,1.2,1.7,1.2,3
					c0,1.5-0.5,2.7-1.6,3.7s-2.5,1.5-4.4,1.5c-0.7,0-1.6-0.1-2.6-0.3c0,1.2,0,2.1,0,2.6c0,2,0,3.1,0.1,3.5c0,0.1,0.1,0.2,0.2,0.3
					c0.2,0.1,1,0.3,2.2,0.5c0.1,0,0.3,0,0.5,0.1v0.7c-1.5-0.1-2.9-0.1-4.2-0.1c-1.2,0-2.5,0-3.8,0.1v-0.7c0.3-0.1,0.5-0.1,0.7-0.2
					c1-0.2,1.6-0.4,1.7-0.5c0.2-0.2,0.3-0.6,0.3-1.4l0-5.7l0-5.7v-0.3c0-0.5-0.1-0.8-0.2-1s-0.8-0.3-1.9-0.6
					C91.5,59,91.4,59,91.1,58.9z M96,66.2c0.8,0.2,1.5,0.3,2.1,0.3c1.3,0,2.3-0.3,3-1s1-1.6,1-2.7c0-1.1-0.3-1.9-1-2.5
					s-1.6-0.9-3-0.9c-0.6,0-1.3,0.1-2.1,0.2C96.1,61.9,96,64.1,96,66.2z"/>
				<path id="XMLID_291_" class="st0" d="M108.1,66.9l-0.8-0.1c0.2-0.8,0.3-1.6,0.3-2.4c1.5-0.7,2.9-1,4.1-1c0.5,0,1,0.1,1.4,0.2
					c0.4,0.2,0.8,0.4,1,0.6s0.4,0.6,0.6,1c0.1,0.4,0.2,1,0.2,1.8l-0.1,4.8c0,0.7,0.1,1.1,0.2,1.3s0.3,0.3,0.6,0.3
					c0.3,0,0.7-0.2,1.3-0.6l0.4,0.5c-1.1,1-1.7,1.5-1.8,1.6c-0.2,0.1-0.5,0.2-0.8,0.2c-0.5,0-0.9-0.1-1.2-0.4s-0.5-0.7-0.6-1.3
					c-0.9,0.7-1.6,1.2-2.1,1.4S110,75,109.4,75c-0.9,0-1.6-0.3-2.1-0.8s-0.8-1.2-0.8-2c0-0.5,0.1-1,0.3-1.4s0.5-0.8,0.8-1.1
					c0.3-0.2,0.7-0.5,1.4-0.8c1.5-0.7,2.9-1.3,4-1.8c0-1.1-0.2-1.8-0.5-2.2c-0.3-0.4-0.8-0.5-1.5-0.5c-0.6,0-1.2,0.2-1.6,0.6
					S108.4,66,108.1,66.9z M113,68.2c-2,0.9-3.3,1.6-3.7,2s-0.6,0.9-0.6,1.5s0.2,1.1,0.5,1.4s0.7,0.5,1.1,0.5c0.4,0,0.9-0.1,1.4-0.4
					s0.9-0.6,1-1s0.3-1,0.3-2V68.2z"/>
				<path id="XMLID_289_" class="st0" d="M126,66.5l-0.8-0.1c-0.1-0.7-0.3-1.2-0.7-1.6s-1-0.6-1.6-0.6c-0.6,0-1,0.2-1.3,0.5
					s-0.5,0.6-0.5,1c0,0.3,0.1,0.7,0.4,1c0.4,0.4,1.1,0.9,2.3,1.5s2,1.1,2.4,1.7c0.4,0.5,0.6,1.1,0.6,1.8c0,1-0.4,1.8-1.1,2.5
					s-1.8,1-3.1,1c-1,0-2-0.2-3.2-0.6c0.1-1.1,0.2-2.1,0.2-3h0.8c0.2,0.9,0.6,1.6,1,2s1,0.6,1.7,0.6c0.6,0,1.1-0.2,1.4-0.5
					s0.5-0.7,0.5-1.2c0-0.5-0.2-0.9-0.5-1.3c-0.3-0.4-1.1-0.9-2.2-1.5s-1.9-1.1-2.3-1.6c-0.4-0.5-0.6-1-0.6-1.6
					c0-0.8,0.4-1.6,1.1-2.3s1.8-1,3-1c0.9,0,1.8,0.2,2.9,0.6C126.2,64.5,126.1,65.4,126,66.5z"/>
				<path id="XMLID_287_" class="st0" d="M136.1,66.5l-0.8-0.1c-0.1-0.7-0.3-1.2-0.7-1.6s-1-0.6-1.6-0.6c-0.6,0-1,0.2-1.3,0.5
					s-0.5,0.6-0.5,1c0,0.3,0.1,0.7,0.4,1c0.4,0.4,1.1,0.9,2.3,1.5s2,1.1,2.4,1.7c0.4,0.5,0.6,1.1,0.6,1.8c0,1-0.4,1.8-1.1,2.5
					s-1.8,1-3.1,1c-1,0-2-0.2-3.2-0.6c0.1-1.1,0.2-2.1,0.2-3h0.8c0.2,0.9,0.6,1.6,1,2s1,0.6,1.7,0.6c0.6,0,1.1-0.2,1.4-0.5
					s0.5-0.7,0.5-1.2c0-0.5-0.2-0.9-0.5-1.3c-0.3-0.4-1.1-0.9-2.2-1.5s-1.9-1.1-2.3-1.6c-0.4-0.5-0.6-1-0.6-1.6
					c0-0.8,0.4-1.6,1.1-2.3s1.8-1,3-1c0.9,0,1.8,0.2,2.9,0.6C136.3,64.5,136.2,65.4,136.1,66.5z"/>
				<path id="XMLID_284_" class="st0" d="M139.1,65.4v-0.7c1.3-0.3,2.5-0.8,3.7-1.5l0.3,0.2c-0.2,1.7-0.2,4-0.2,7
					c0,1.4,0,2.3,0.1,2.6c0,0.2,0.1,0.4,0.2,0.5s0.5,0.2,1.2,0.5c0.1,0,0.2,0.1,0.4,0.1v0.7c-1-0.1-1.9-0.1-2.5-0.1
					c-0.4,0-1.5,0-3.2,0.1v-0.7c1.1-0.3,1.6-0.5,1.8-0.7s0.2-1.3,0.2-3.4l0-2.5v-0.5c0-0.9-0.1-1.4-0.2-1.6s-0.3-0.3-0.6-0.3
					C140.1,65.3,139.7,65.3,139.1,65.4z M142,57.6c0.3,0,0.6,0.1,0.9,0.4s0.4,0.5,0.4,0.9c0,0.3-0.1,0.6-0.4,0.9S142.3,60,142,60
					c-0.3,0-0.6-0.1-0.9-0.4s-0.4-0.5-0.4-0.9c0-0.3,0.1-0.6,0.4-0.9S141.7,57.6,142,57.6z"/>
				<path id="XMLID_281_" class="st0" d="M146.9,69.4c0-1.9,0.5-3.4,1.6-4.5c1.1-1.1,2.5-1.7,4.2-1.7c1.7,0,3,0.5,3.9,1.5
					c1,1,1.4,2.4,1.4,4.2c0,1.9-0.5,3.4-1.6,4.6c-1.1,1.1-2.5,1.7-4.2,1.7c-1.7,0-3-0.5-3.9-1.5S146.9,71.2,146.9,69.4z M149.2,68.3
					c0,1.3,0.1,2.2,0.2,2.8c0.3,1,0.7,1.7,1.2,2.2s1.2,0.7,2,0.7c1,0,1.8-0.4,2.4-1.1c0.6-0.7,0.9-1.9,0.9-3.5c0-1.8-0.4-3.2-1.1-4
					c-0.7-0.9-1.5-1.3-2.5-1.3c-0.9,0-1.7,0.3-2.3,1S149.2,66.9,149.2,68.3z"/>
				<path id="XMLID_279_" class="st0" d="M160.2,65.5v-0.7c1.4-0.3,2.7-0.8,3.8-1.5l0.3,0.2c-0.1,0.7-0.2,1.3-0.2,2.1l1.5-1.5
					c0.3-0.2,0.5-0.4,0.9-0.5c0.5-0.2,0.9-0.3,1.4-0.3c1.1,0,2,0.4,2.5,1.1c0.4,0.5,0.6,1.3,0.6,2.5l0,2.8c0,1.9,0,3,0.1,3.4
					c0,0.2,0.1,0.4,0.2,0.5s0.5,0.2,1.1,0.4c0.1,0,0.3,0.1,0.5,0.1v0.7c-0.9-0.1-1.7-0.1-2.5-0.1c-0.6,0-1.7,0-3.2,0.1v-0.7
					c0.9-0.3,1.4-0.4,1.5-0.5s0.2-0.2,0.2-0.5c0.1-0.8,0.1-2,0.1-3.6c0-1.7,0-2.7-0.1-3.1c-0.1-0.5-0.3-0.9-0.7-1.2
					s-0.8-0.4-1.3-0.4c-0.5,0-1,0.2-1.5,0.5s-0.9,0.7-1.1,1.2s-0.4,1.3-0.4,2.3c0,2.8,0.1,4.3,0.2,4.6s0.6,0.4,1.4,0.7
					c0.1,0,0.3,0.1,0.4,0.1v0.7c-1-0.1-1.9-0.1-2.6-0.1c-0.7,0-1.7,0-3.1,0.1v-0.7c0.9-0.2,1.5-0.4,1.6-0.5c0.1-0.1,0.1-0.2,0.2-0.5
					c0.1-0.7,0.1-1.8,0.1-3c0-2.6,0-4.1-0.1-4.3c-0.1-0.3-0.3-0.5-0.7-0.5c-0.2,0-0.4,0-0.8,0.1C160.5,65.5,160.4,65.5,160.2,65.5z"
					/>
				<path id="XMLID_277_" class="st0" d="M196.9,72l0.5,0.9c-1.3,0.8-2.5,1.4-3.6,1.7c-1.2,0.4-2.3,0.6-3.6,0.6
					c-1.6,0-3-0.4-4.3-1.1s-2.2-1.7-2.9-3s-1-2.8-1-4.4c0-2.6,0.8-4.7,2.5-6.4c1.7-1.7,3.9-2.5,6.7-2.5c1.7,0,3.6,0.4,5.7,1.1
					c0,0.7,0,1.2,0,1.5c0,1,0.1,2.1,0.2,3.2h-1c-0.3-1.4-0.6-2.3-0.9-2.8s-0.9-0.9-1.6-1.2c-0.7-0.3-1.6-0.5-2.7-0.5
					c-2.3,0-4,0.8-5.1,2.4c-0.9,1.3-1.3,2.8-1.3,4.7c0,2.3,0.6,4.1,1.9,5.4s2.9,2,4.9,2c0.9,0,1.7-0.1,2.6-0.3
					C194.7,73,195.7,72.6,196.9,72z"/>
				<path id="XMLID_274_" class="st0" d="M199.9,69.4c0-1.9,0.5-3.4,1.6-4.5c1.1-1.1,2.5-1.7,4.2-1.7c1.7,0,3,0.5,3.9,1.5
					c1,1,1.4,2.4,1.4,4.2c0,1.9-0.5,3.4-1.6,4.6c-1.1,1.1-2.5,1.7-4.2,1.7c-1.7,0-3-0.5-3.9-1.5S199.9,71.2,199.9,69.4z M202.1,68.3
					c0,1.3,0.1,2.2,0.2,2.8c0.3,1,0.7,1.7,1.2,2.2s1.2,0.7,2,0.7c1,0,1.8-0.4,2.4-1.1c0.6-0.7,0.9-1.9,0.9-3.5c0-1.8-0.4-3.2-1.1-4
					c-0.7-0.9-1.5-1.3-2.5-1.3c-0.9,0-1.7,0.3-2.3,1S202.1,66.9,202.1,68.3z"/>
				<path id="XMLID_272_" class="st0" d="M213.2,65.5v-0.7c1.5-0.4,2.7-0.9,3.7-1.5l0.3,0.2c-0.1,0.8-0.2,1.6-0.2,2.5
					c0.9-1.2,1.6-1.9,2-2.1s0.8-0.4,1.3-0.4c0.3,0,0.7,0.1,1.1,0.2c-0.2,0.8-0.3,1.6-0.4,2.4h-0.6c-0.1-0.4-0.2-0.6-0.4-0.8
					s-0.3-0.3-0.6-0.3c-0.3,0-0.6,0.1-1,0.4c-0.5,0.4-0.9,0.9-1.2,1.5c-0.2,0.6-0.4,1.3-0.4,2.4c0,1.8,0.1,3,0.2,3.7
					c0,0.2,0.1,0.4,0.3,0.5c0.2,0.1,0.7,0.3,1.7,0.5v0.7c-1-0.1-1.9-0.1-2.7-0.1c-0.7,0-1.8,0-3.3,0.1v-0.7c1.1-0.3,1.7-0.5,1.8-0.6
					s0.2-0.5,0.2-1.2l0-2.5c0-2.5,0-3.8-0.1-4c-0.1-0.3-0.3-0.5-0.7-0.5c-0.2,0-0.5,0-1,0.1C213.5,65.5,213.4,65.5,213.2,65.5z"/>
				<path id="XMLID_270_" class="st0" d="M223.2,65.5v-0.7c1.4-0.3,2.7-0.8,3.8-1.5l0.3,0.2c-0.1,0.7-0.2,1.3-0.2,2.1l1.5-1.5
					c0.3-0.2,0.5-0.4,0.9-0.5c0.5-0.2,0.9-0.3,1.4-0.3c1.1,0,2,0.4,2.5,1.1c0.4,0.5,0.6,1.3,0.6,2.5l0,2.8c0,1.9,0,3,0.1,3.4
					c0,0.2,0.1,0.4,0.2,0.5s0.5,0.2,1.1,0.4c0.1,0,0.3,0.1,0.5,0.1v0.7c-0.9-0.1-1.7-0.1-2.5-0.1c-0.6,0-1.7,0-3.2,0.1v-0.7
					c0.9-0.3,1.4-0.4,1.5-0.5s0.2-0.2,0.2-0.5c0.1-0.8,0.1-2,0.1-3.6c0-1.7,0-2.7-0.1-3.1c-0.1-0.5-0.3-0.9-0.7-1.2
					s-0.8-0.4-1.3-0.4c-0.5,0-1,0.2-1.5,0.5s-0.9,0.7-1.1,1.2s-0.4,1.3-0.4,2.3c0,2.8,0.1,4.3,0.2,4.6s0.6,0.4,1.4,0.7
					c0.1,0,0.3,0.1,0.4,0.1v0.7c-1-0.1-1.9-0.1-2.6-0.1c-0.7,0-1.7,0-3.1,0.1v-0.7c0.9-0.2,1.5-0.4,1.6-0.5c0.1-0.1,0.1-0.2,0.2-0.5
					c0.1-0.7,0.1-1.8,0.1-3c0-2.6,0-4.1-0.1-4.3c-0.1-0.3-0.3-0.5-0.7-0.5c-0.2,0-0.4,0-0.8,0.1C223.6,65.5,223.4,65.5,223.2,65.5z"
					/>
				<path id="XMLID_267_" class="st0" d="M246.9,72l0.4,0.7l-2.3,1.7c-0.3,0.2-0.7,0.4-1,0.5c-0.5,0.1-1,0.2-1.5,0.2
					c-1.3,0-2.4-0.5-3.3-1.5c-0.9-1-1.4-2.4-1.4-4.1c0-1.9,0.5-3.4,1.6-4.5c1.1-1.1,2.4-1.7,4-1.7c1.2,0,2.1,0.3,2.8,1
					c0.7,0.7,1,1.7,1,3.1c-0.3,0.2-0.6,0.4-0.9,0.7c-0.6,0-0.9,0-1,0c-2.1,0-3.9,0-5.4,0.1c0,1.8,0.3,3.1,0.9,4
					c0.6,0.9,1.4,1.4,2.4,1.4c0.5,0,1-0.1,1.6-0.3S246,72.5,246.9,72z M245.2,66.9c0-0.8-0.2-1.4-0.5-1.8c-0.4-0.6-1-0.9-1.8-0.9
					c-0.6,0-1.2,0.2-1.7,0.7c-0.5,0.4-0.9,1.2-1.1,2.2c0.3,0,0.5,0,0.7,0C242,67.1,243.5,67,245.2,66.9z"/>
				<path id="XMLID_265_" class="st0" d="M249.2,65.5v-0.7c1.5-0.4,2.7-0.9,3.7-1.5l0.3,0.2c-0.1,0.8-0.2,1.6-0.2,2.5
					c0.9-1.2,1.6-1.9,2-2.1s0.8-0.4,1.3-0.4c0.3,0,0.7,0.1,1.1,0.2c-0.2,0.8-0.3,1.6-0.4,2.4h-0.6c-0.1-0.4-0.2-0.6-0.4-0.8
					c-0.2-0.2-0.3-0.3-0.6-0.3c-0.3,0-0.6,0.1-1,0.4c-0.5,0.4-0.9,0.9-1.2,1.5c-0.2,0.6-0.4,1.3-0.4,2.4c0,1.8,0.1,3,0.2,3.7
					c0,0.2,0.1,0.4,0.3,0.5c0.2,0.1,0.7,0.3,1.7,0.5v0.7c-1-0.1-1.9-0.1-2.7-0.1c-0.7,0-1.8,0-3.3,0.1v-0.7c1.1-0.3,1.7-0.5,1.8-0.6
					s0.2-0.5,0.2-1.2l0-2.5c0-2.5,0-3.8-0.1-4c-0.1-0.3-0.3-0.5-0.7-0.5c-0.2,0-0.5,0-1,0.1C249.4,65.5,249.3,65.5,249.2,65.5z"/>
			</g>
		</g>
		<rect x="265.5" y="65.7" class="st0" width="32" height="2.9"/>
		<rect x="8.5" y="65.7" class="st0" width="32" height="2.9"/>
	</g>
	<g>
		<g>
			<path class="st1" d="M55.2,8.7c-0.2,0.1-0.3,0.2-0.3,0.4c-0.2,1.5-0.4,2.8-0.7,4c-0.2,1.2-0.5,2.4-0.8,3.5
				c-0.3,1.1-0.6,2.2-1,3.3c-0.4,1.1-0.8,2.3-1.2,3.6c-0.6,1.4-1.2,2.7-1.9,4.2c-0.7,1.4-1.5,2.8-2.3,4c-0.8,1.3-1.7,2.4-2.6,3.3
				c-0.9,1-1.9,1.7-2.8,2.2c-1.4,0.7-2.7,1-4,0.9c-1.3-0.1-2.4-0.6-3.5-1.3c-1.1-0.7-2-1.7-2.9-2.8c-0.8-1.1-1.6-2.4-2.2-3.6
				c-1.3-2.6-2.4-5.2-3.3-7.8c-0.9-2.6-1.8-5.3-2.7-8.2c-0.1-0.3-0.3-0.6-0.6-0.9c-0.3-0.3-0.7-0.2-1,0.1c-0.4,0.7-0.8,1.7-1,3.2
				c-0.2,1.5-0.4,2.9-0.5,4.4c-0.2,1.6-0.4,3.3-0.5,5.2c-0.2,1.8-0.4,3.6-0.7,5.4c-0.3,1.7-0.6,3.4-0.9,4.8
				c-0.3,1.5-0.7,2.7-1.1,3.6c-0.2,0.6-0.6,0.9-1.1,1c-0.6,0.1-1.1,0-1.7-0.5c-1.4-1.2-2.6-2.7-3.6-4.6c-1-1.9-1.8-3.8-2.5-5.6
				c-1.2-3.4-2.3-6.9-3.1-10.4c-0.9-3.5-1.6-7-2.1-10.5C2.3,8.3,2.1,6.8,2,5.2c-0.2-1.6-0.2-2.9-0.2-4c0-0.2-0.1-0.3-0.2-0.4
				C1.4,0.6,1.3,0.5,1.1,0.5c-0.2,0-0.3,0-0.4,0.1C0.5,0.7,0.5,0.9,0.5,1.1c0,2.2,0.1,4.5,0.4,7c0.3,2.5,0.6,4.8,0.9,7.1
				C2.5,18.7,3.2,22,3.9,25c0.7,3,1.7,6,2.8,8.9c0.3,0.8,0.6,1.6,1,2.4c0.4,0.8,0.8,1.7,1.3,2.4c0.5,0.8,1,1.5,1.5,2.1
				c0.5,0.7,1.1,1.2,1.6,1.6c1.3,1,2.5,1.3,3.6,1c1.1-0.4,1.9-1.2,2.3-2.4c0.4-1,0.7-2.1,1-3.3c0.3-1.2,0.6-2.5,0.8-3.8
				c0.2-1.3,0.4-2.7,0.6-4.1c0.2-1.4,0.3-2.7,0.5-4c0.2-1.4,0.4-2.9,0.5-4.4c0.1-1.5,0.4-3.1,0.7-4.9c0.5,1.4,0.9,2.7,1.3,4
				c0.4,1.3,0.8,2.5,1.2,3.8c0.4,1.3,0.9,2.5,1.4,3.7c0.5,1.2,1.1,2.5,1.7,3.8c0.7,1.4,1.6,2.7,2.5,3.8c1,1.2,2.1,2.1,3.2,2.8
				c1.2,0.7,2.4,1.1,3.8,1.3c1.3,0.1,2.7-0.1,4.1-0.6c1.4-0.5,2.6-1.3,3.7-2.3c1-1,2-2.1,2.8-3.3c0.8-1.2,1.5-2.5,2.2-3.8
				s1.2-2.6,1.8-3.9c1.1-2.6,2-5.3,2.7-8.1c0.7-2.8,1-5.6,1-8.6C55.5,8.8,55.4,8.7,55.2,8.7z"/>
			<path class="st1" d="M67.9,27.6c-1-0.3-2.2-0.2-3.7,0.1c-1.3,0.3-2.5,0.7-3.6,1.4c-1.1,0.7-2.1,1.4-3,2.3
				c-0.8,0.9-1.5,1.8-2.1,2.7c-0.5,0.9-0.8,1.7-0.9,2.5c0,0.5,0.1,0.8,0.6,1.1c0.4,0.3,0.9,0.5,1.5,0.5c0.7,0.1,1.5,0.1,2.4-0.1
				c0.9-0.1,1.8-0.3,2.6-0.6c0.8-0.2,1.6-0.5,2.3-0.8c0.7-0.3,1.1-0.6,1.4-0.9c0,0.2,0,0.5,0.1,0.8c0.1,0.3,0.2,0.6,0.4,0.8
				c0.3,0.4,0.7,0.4,1,0.2c0.3-0.3,0.5-0.5,0.5-0.7c0-0.5,0-1-0.1-1.6c-0.1-0.6-0.1-1.2-0.2-1.7c-0.1-0.3-0.3-0.4-0.8-0.4
				c-0.4,0-0.9,0.3-1.4,0.9c-0.3,0.3-0.7,0.6-1.3,1c-0.6,0.3-1.3,0.6-2.1,0.9c-0.8,0.3-1.6,0.5-2.4,0.6c-0.8,0.1-1.5,0.1-2.1-0.2
				c-0.4-0.1-0.5-0.5-0.3-1.1c0.2-0.6,0.7-1.3,1.4-2c0.7-0.7,1.5-1.4,2.5-2.1c1-0.7,2-1.1,3.1-1.4c1.1-0.3,2.1-0.3,3-0.1
				c0.8,0.2,1.5,0.5,2.1,1c0.1,0.1,0.3,0.2,0.5,0.1c0.2-0.1,0.4-0.2,0.6-0.3c0.2-0.1,0.3-0.3,0.4-0.5c0.1-0.2,0.1-0.4,0-0.5
				C69.7,28.5,68.8,27.9,67.9,27.6z"/>
			<path class="st1" d="M140.6,36.1c-0.9-1.1-1.9-2.1-3.2-3c-1.3-0.9-2.8-1.7-4.5-2.2c-1.7-0.5-3.7-0.5-5.9-0.1
				c-1.1,0.2-2.2,0.5-3.4,1c-1.2,0.5-2.4,1.1-3.6,1.7c-1.2,0.7-2.3,1.4-3.3,2.1c-1,0.7-1.9,1.4-2.6,2.1c0-0.5,0.2-1.5,0.4-3
				c0.2-1.5,0.5-3.2,0.8-5.2c0.3-1.9,0.7-4,1-6.2c0.2-0.9,0.3-1.8,0.4-2.6c3.8-0.3,7.7-0.6,11.6-0.9c0.2,0,0.3-0.1,0.3-0.4
				c0-0.3-0.1-0.4-0.3-0.4c-3.8,0-7.6,0.1-11.3,0.4c0.1-0.7,0.2-1.4,0.3-2.1c0.3-1.9,0.6-3.6,0.8-5c0.2-1.4,0.4-2.3,0.4-2.7
				c0-0.3,0-0.5-0.3-0.5c-0.2-0.1-0.5-0.1-0.7,0c-0.3,0.1-0.6,0.2-0.8,0.5c-0.3,0.2-0.4,0.5-0.5,0.8c-0.1,0.6-0.2,1.6-0.4,3.1
				c-0.2,1.5-0.5,3.2-0.7,5.2c0,0.3-0.1,0.6-0.1,0.9c-1.7,0.1-3.3,0.3-5,0.5c-6.1,0.7-12.2,1.3-18.4,2c-2.3,0.2-4.5,0.4-6.6,0.6
				c-2.1,0.2-4.4,0.4-6.9,0.6c0.3-0.9,0.6-1.7,0.9-2.3c0.3-0.6,0.5-1.2,0.5-1.8c0-0.3,0-0.5-0.2-0.5c-0.2-0.1-0.4-0.1-0.7,0
				c-0.3,0.1-0.5,0.2-0.8,0.4c-0.3,0.2-0.4,0.4-0.4,0.7c-0.2,0.5-0.4,1-0.6,1.6c-0.2,0.6-0.4,1.3-0.6,2c-1.6,0.1-3,0.3-4.3,0.4
				c-1.3,0.1-2.6,0.2-3.8,0.3c-1.2,0.1-2.4,0.1-3.6,0.1c-1.2,0-2.4,0-3.8,0c-0.6,0-0.9,0.1-1,0.4c0,0.3,0.3,0.4,1,0.4
				c1.3,0.1,2.4,0.2,3.5,0.3s2.2,0.1,3.3,0c1.1,0,2.4-0.1,3.7-0.2c1.3-0.1,2.8-0.2,4.5-0.3c-0.1,0.5-0.3,0.9-0.4,1.4
				c-0.2,0.4-0.3,0.9-0.5,1.5c-0.2,0.5-0.4,1.1-0.6,1.8c-0.2,0.7-0.4,1.5-0.7,2.4c-0.3,0.8-0.5,1.6-0.7,2.5
				c-0.2,0.9-0.3,1.9-0.4,2.8c0,0.9,0.1,1.8,0.3,2.6c0.2,0.8,0.7,1.5,1.3,2c0.7,0.5,1.6,0.7,2.6,0.6c1-0.1,2.1-0.4,3.1-0.9
				c1-0.5,2-1,3-1.6c0.9-0.6,1.7-1.1,2.2-1.6c0.5-0.3,1.1-0.7,1.7-1.3c0.5-0.5,1.1-1,1.6-1.5c-0.3,0.7-0.4,1.4-0.3,2.1
				c0,0.7,0.3,1.3,0.8,1.8c0.3,0.4,0.8,0.7,1.4,1c0.6,0.3,1.3,0.5,2,0.7c0.7,0.2,1.4,0.3,2.1,0.3c0.7,0.1,1.3,0.1,1.7,0
				c0.9,0,1.8-0.1,2.5-0.3c0.7-0.1,1.4-0.3,2-0.5c0.6-0.2,1.3-0.5,1.9-0.8c0.7-0.3,1.4-0.7,2.2-1.1c0.1,0,0.2-0.1,0.2-0.3
				c0.1-0.1,0.1-0.3,0-0.4c0-0.1-0.1-0.3-0.2-0.3c-0.1-0.1-0.3-0.1-0.5,0c-2.2,0.8-4.2,1.4-6.1,1.8c-1.9,0.3-4,0.2-6.1-0.3
				c-1.4-0.5-2-1.3-2-2.4c0-1.1,0.6-2.2,1.7-3.3c0.9-0.9,2.2-1.6,3.8-2.2c1.6-0.6,3.3-1,5.2-1.2c1.9-0.2,4-0.1,6.1,0.1
				c2.1,0.3,4.2,0.8,6.2,1.6c-0.2,1.6-0.4,3-0.6,4.2c-0.2,1.5-0.3,2.5-0.4,3c-0.1,0.3,0,0.7,0.3,1.1c0.3,0.4,0.6,0.4,1.1,0.1
				c0.9-0.7,1.9-1.4,2.9-2.1c1.1-0.7,2.2-1.5,3.3-2.1c1.1-0.7,2.2-1.3,3.3-1.8c1.1-0.5,2.1-0.9,3-1.2c2.1-0.5,3.9-0.6,5.4-0.3
				c1.5,0.3,2.7,0.8,3.8,1.5c1,0.7,1.9,1.5,2.6,2.4c0.7,0.9,1.3,1.7,1.8,2.4c0.3,0.3,0.6,0.6,1,0.7c0.4,0.1,0.8,0.2,1.2,0.1
				c0.4,0,0.6-0.1,0.8-0.3c0.2-0.2,0.2-0.4,0-0.6C142.2,38,141.5,37.1,140.6,36.1z M101.4,28c-2,0.1-3.9,0.5-5.7,1.1
				c-1.2,0.5-2.4,1-3.3,1.7c-0.1-0.2-0.3-0.2-0.6,0c-1.5,1.3-3.1,2.6-4.9,3.9c-1.8,1.4-3.5,2.6-5.2,3.6c-0.3,0.2-0.8,0.4-1.2,0.7
				c-0.5,0.2-1,0.4-1.5,0.6c-0.5,0.2-1,0.3-1.4,0.3c-0.5,0.1-0.9,0.1-1.2,0c-0.7-0.2-1.2-0.6-1.4-1.3c-0.2-0.7-0.3-1.4-0.3-2.3
				c0.1-0.8,0.2-1.7,0.4-2.6c0.2-0.9,0.4-1.7,0.6-2.4c0.3-1,0.5-1.8,0.7-2.5c0.2-0.7,0.4-1.3,0.6-1.8c0.2-0.5,0.3-1,0.5-1.4
				c0.1-0.4,0.3-0.8,0.4-1.3c2.3-0.2,4.5-0.4,6.5-0.6c2-0.2,4.1-0.4,6.5-0.6c6.2-0.6,12.4-1.3,18.7-1.8c1.8-0.2,3.6-0.3,5.3-0.5
				c-0.2,1.3-0.4,2.6-0.6,3.9c-0.3,2-0.6,4-0.8,5.8c-1.9-0.9-3.8-1.6-5.7-2C105.5,28,103.5,27.9,101.4,28z"/>
			<path class="st1" d="M243.7,19.1c0.6,0.2,1.1,0.1,1.6-0.2c0.4-0.3,0.6-0.6,0.6-0.9c-0.1-0.5-0.3-0.8-0.6-0.9
				c-0.3-0.1-0.7-0.2-1.1-0.2c0-0.1,0-0.2-0.1-0.3c-0.1-0.2-0.3-0.3-0.4-0.3c-0.4,0-0.7,0.1-0.9,0.4c-0.2,0.3-0.3,0.5-0.3,0.9
				c0,0.3,0.1,0.6,0.3,0.9C243,18.8,243.3,19,243.7,19.1z"/>
			<path class="st1" d="M269.4,34.2c-0.2-0.8-0.3-1.5-0.4-2.3c-0.1-0.7-0.2-1.5-0.3-2.1c-0.1-0.7-0.2-1.3-0.4-1.9
				c-0.3-0.8-0.7-1.2-1.3-1.3c-0.6-0.1-1.4,0-2.2,0.4c-0.8,0.4-1.7,1-2.7,1.8c-1,0.8-1.9,1.6-2.8,2.5c-0.9,0.9-1.8,1.9-2.6,2.9
				c-0.8,1-1.5,1.9-2.1,2.7c0.1-1.4,0.2-2.6,0.2-3.6c0.1-1,0.1-1.9,0.2-2.8c0-0.3-0.1-0.5-0.2-0.6c-0.1-0.1-0.3-0.1-0.5-0.1
				c-0.2,0-0.4,0.1-0.5,0.3c-0.1,0.1-0.2,0.3-0.2,0.4c-0.1,0.4-0.1,0.7-0.1,1c-1.2,1.8-2.5,3.1-3.9,3.8c-1.5,0.8-3,1.1-4.4,1
				c-1.4-0.1-2.8-0.7-4-1.6c-1.3-0.9-2.3-2.1-3-3.6c-0.2-0.4-0.5-0.6-0.8-0.4c0,0,0,0-0.1,0c-0.1,0-0.2,0-0.3,0
				c-4,1.6-8.1,2.9-12.2,4.1c-4.1,1.2-8.5,2-13.3,2.6c-4.7,0.6-9.9,0.9-15.6,0.9c-5.6,0-12-0.4-19.2-1.2c2.5-2.5,4.7-5.4,6.7-8.4
				c1.9-3.1,3.7-6.2,5.2-9.3c1.5-3.1,2.8-6.1,3.9-9.1c1.1-2.9,2.1-5.6,3-7.9c0.1-0.2,0.1-0.4,0-0.4c-0.1-0.1-0.2-0.1-0.3-0.1
				c-0.1,0-0.3,0.1-0.5,0.3c-0.2,0.1-0.3,0.3-0.4,0.5c-1,2.1-2.1,4.7-3.3,7.6c-1.2,2.9-2.7,6-4.3,9.2c-1.7,3.2-3.5,6.3-5.6,9.5
				c-2.1,3.2-4.5,6-7.2,8.4c-0.4,0.2-0.5,0.4-0.3,0.7c0.1,0.3,0.4,0.4,0.8,0.4c2.9,0.4,6.1,0.8,9.5,1c3.4,0.2,7,0.3,10.7,0.3
				c3.7,0,7.4-0.1,11.2-0.4c3.8-0.3,7.5-0.7,11.2-1.4c3.7-0.6,7.2-1.5,10.6-2.5c3.3-1,6.4-2.2,9.2-3.6c0.1,0.4,0.3,0.8,0.5,1.3
				c0.7,1.4,1.7,2.5,3.1,3.5c1.3,1,2.8,1.5,4.4,1.6c1.6,0.1,3.3-0.3,5-1.1c1.2-0.6,2.3-1.6,3.4-2.8c0,0.2-0.1,0.4-0.1,0.5
				c-0.1,0.6-0.2,1.2-0.3,1.9c-0.1,0.6-0.2,1.4-0.3,2.2c-0.1,0.3,0,0.7,0.3,1.1c0.3,0.4,0.6,0.4,1.1,0.1c0.9-1.1,1.8-2.3,2.8-3.4
				c1-1.1,1.9-2.2,2.9-3.1c1-1,1.9-1.9,2.8-2.6c0.9-0.8,1.7-1.4,2.5-1.9c1.1-0.7,1.7-0.6,1.9,0.4c0.1,0.5,0.2,1.1,0.3,1.7
				c0.1,0.6,0.2,1.3,0.3,2c0.1,0.7,0.2,1.3,0.4,2c0.2,0.7,0.4,1.3,0.7,1.9c0,0.2,0.2,0.4,0.5,0.5c0.3,0.1,0.6,0.1,0.9,0.1
				c0.3,0,0.5-0.1,0.7-0.3c0.1-0.2,0.1-0.4,0-0.8C269.9,35.7,269.6,34.9,269.4,34.2z"/>
			<path class="st1" d="M305.4,42.3c-0.1-0.1-0.2-0.2-0.5-0.2c-1.9-0.4-3.9-0.9-5.9-1.4s-4.1-1.1-6.1-1.8c-2-0.7-3.9-1.5-5.8-2.5
				c-1.8-1-3.5-2.1-5-3.5c1.1-0.8,2.1-1.6,3.1-2.3c1-0.7,1.9-1.3,2.9-1.9c1-0.6,2-1.1,3-1.6c1-0.5,2.1-1,3.2-1.4
				c0.5-0.1,0.7-0.4,0.7-0.9c0-0.4-0.2-0.7-0.4-0.7c-2.5,1.1-4.9,2.3-7.2,3.6c-2.4,1.3-4.7,2.7-6.9,4c-0.3,0.2-0.5,0.5-0.7,0.8
				c-0.2,0.3-0.1,0.6,0.2,0.8c1.5,1.6,3.2,3,5.2,4.2c2,1.2,4,2.1,6.2,2.9c2.2,0.8,4.4,1.4,6.8,1.8c2.3,0.4,4.6,0.7,6.7,0.9
				c0.1,0,0.2-0.1,0.3-0.2c0.1-0.1,0.2-0.2,0.2-0.4C305.5,42.6,305.5,42.5,305.4,42.3z"/>
			<path class="st1" d="M278.4,36.8c0.5-1.9,1-3.9,1.6-6c0.6-2.1,1.3-4,2.1-5.6c0.6-1.1,1.1-2.2,1.6-3.1c0.5-0.9,1-1.8,1.6-2.6
				c0.6-0.8,1.2-1.6,1.9-2.4s1.5-1.6,2.5-2.4c0.2-0.1,0.2-0.2,0.2-0.5c0-0.2-0.3-0.3-0.7-0.1c-1.3,0.6-2.6,1.7-4,3.3
				c-1.4,1.7-2.7,3.6-3.9,5.9c-1.2,2.2-2.3,4.7-3.2,7.4c-0.9,2.7-1.6,5.3-1.9,7.9c0.6,0.3,1,0.5,1.4,0.4c0.4-0.1,0.7-0.2,1-0.4
				c0.2-0.2,0.4-0.4,0.4-0.7c0-0.3,0-0.4-0.1-0.4L278.4,36.8z"/>
		</g>
		<circle class="st2" cx="243.6" cy="16.9" r="3.3"/>
	</g>
</g>
</svg>
