<?xml version="1.0" encoding="utf-8"?>
<!-- Generator: Adobe Illustrator 19.0.0, SVG Export Plug-In . SVG Version: 6.00 Build 0)  -->
<svg version="1.1" id="Layer_1" xmlns="http://www.w3.org/2000/svg" xmlns:xlink="http://www.w3.org/1999/xlink" x="0px" y="0px"
	 viewBox="-444 248 50 50" style="enable-background:new -444 248 50 50;" xml:space="preserve">
<style type="text/css">
	.st0{fill:#FFFFFF;}
</style>
<path class="st0" d="M-419,248C-419,248-419,248-419,248C-419,248-419,248-419,248c-11.1,0-20.5,7.2-23.8,17.2c0,0,0,0,0,0.1
	c-0.8,2.4-1.2,5-1.2,7.7c0,2.7,0.4,5.3,1.2,7.7c0,0,0,0,0,0c3.3,10,12.7,17.3,23.8,17.3c13.8,0,25-11.2,25-25
	C-394,259.2-405.2,248-419,248z M-442,273c0-2.2,0.3-4.3,0.9-6.4h9.7c-0.3,2-0.4,4.1-0.4,6.4c0,2.2,0.1,4.3,0.4,6.3h-9.7
	C-441.7,277.3-442,275.2-442,273z M-429.8,273c0-2.2,0.2-4.3,0.4-6.4h9.3v12.7h-9.3C-429.6,277.3-429.8,275.2-429.8,273z
	 M-409,264.7h-9v-14.5C-414,251-410.5,256.8-409,264.7z M-420,250.1v14.5h-9C-427.5,256.8-424,250.9-420,250.1z M-420,281.3v14.5
	c-4-0.8-7.5-6.7-9-14.5H-420z M-418,295.9v-14.5h9C-410.5,289.2-414,295-418,295.9z M-418,279.3v-12.7h9.3c0.3,2,0.4,4.2,0.4,6.4
	c0,2.2-0.2,4.3-0.4,6.3H-418z M-406.6,266.7h9.7c0.6,2,0.9,4.1,0.9,6.4c0,2.2-0.3,4.3-0.9,6.3h-9.7c0.3-2,0.4-4.1,0.4-6.3
	C-406.2,270.8-406.4,268.7-406.6,266.7z M-397.6,264.7h-9.4c-1.1-6.1-3.3-11-6.1-13.9C-406,252.7-400.2,257.9-397.6,264.7z
	 M-424.9,250.8c-2.9,2.9-5.1,7.8-6.1,13.9h-9.4C-437.8,257.9-432,252.7-424.9,250.8z M-440.4,281.3h9.4c1.1,6.1,3.3,11,6.1,13.9
	C-432,293.3-437.8,288.1-440.4,281.3z M-413.1,295.2c2.9-2.9,5.1-7.8,6.1-13.9h9.4C-400.2,288.1-406,293.3-413.1,295.2z"/>
</svg>
